<?xml version="1.0" encoding="UTF-8"?>
<svg id="Layer_1" data-name="Layer 1" xmlns="http://www.w3.org/2000/svg" viewBox="0 0 37.94 24.89">
  <defs>
    <style>
      .cls-1 {
        fill: #005bab;
      }
    </style>
  </defs>
  <path class="cls-1" d="M29.05,17.59c-.82-.16-1.63-.25-2.39-.47-3.92-1.14-6.5-4.93-6.2-9.05,.29-4.02,3.4-7.37,7.39-7.97,5.42-.81,10.19,3.36,10.09,8.84-.02,1.37-.35,2.68-1.01,3.89-1.15,2.1-2.37,4.16-3.84,6.05-1.41,1.82-2.9,3.57-4.65,5.08-.36,.31-.74,.59-1.19,.84,.6-2.42,1.21-4.85,1.8-7.21Z"/>
  <path class="cls-1" d="M6.81,24.89c.63-2.52,1.23-4.94,1.82-7.32-.73-.12-1.43-.19-2.1-.37C2.53,16.17-.21,12.42,.01,8.32,.24,4.15,3.31,.74,7.41,.11c5.61-.87,10.56,3.75,10.07,9.39-.1,1.18-.42,2.29-.98,3.33-1.62,3.02-3.5,5.87-5.79,8.43-1.03,1.16-2.1,2.28-3.34,3.23-.16,.12-.32,.23-.57,.4Z"/>
</svg>