<?xml version="1.0" encoding="UTF-8"?>
<svg id="Layer_1" data-name="Layer 1" xmlns="http://www.w3.org/2000/svg" viewBox="0 0 19.9 19.94">
  <defs>
    <style>
      .cls-1 {
        fill: #1a3a67;
      }

      .cls-2 {
        fill: #28a8e0;
      }
    </style>
  </defs>
  <path class="cls-1" d="M16.42,19.93c-5.42,0-10.84,0-16.26,0-.12,0-.15-.03-.15-.15C0,14.36,0,8.94,0,3.52c.07,0,.14,0,.21,0,5,0,10,0,14.99,0,.16,0,.31,0,.47,0-.03,.04-.05,.08-.08,.12-.25,.25-.5,.5-.74,.76-.35,.37-.7,.74-1.05,1.12-.05,0-.11,0-.16,0-3.78,0-7.56,0-11.35,0-.15,0-.15,.06-.15,.17,0,3.87,0,7.75,0,11.62,0,.14,.02,.19,.18,.19,3.88,0,7.76,0,11.64,0,.12,0,.17-.02,.17-.16,0-3.08,0-6.17,0-9.25,.05-.18,.17-.31,.26-.46,.54-.85,1.13-1.66,1.71-2.47,.09-.13,.17-.27,.3-.38,0,.03,0,.07,0,.1,0,4.94,0,9.88,0,14.83,0,.07,0,.14,0,.21"/>
  <path class="cls-2" d="M19.9,.1c-.8,1.23-1.76,2.34-2.64,3.52-.26,.35-.52,.69-.78,1.04-.03,.04-.07,.09-.08,.14-.13,.1-.21,.25-.3,.38-.58,.82-1.17,1.63-1.71,2.47-.09,.15-.22,.28-.26,.46-.07,.02-.09,.09-.12,.14-1.14,1.85-2.2,3.75-3.25,5.65-.4,.72-.78,1.44-1.21,2.13-.06,.09-.1,.23-.21,.23-.11,0-.14-.15-.19-.24-.03-.06-.06-.12-.08-.18-.12-.27-.24-.54-.35-.8-.82-1.9-1.99-3.54-3.63-4.82-.58-.45-1.21-.85-1.83-1.24-.2-.13-.22-.16-.1-.36,.42-.77,.92-1.48,1.53-2.11,.22-.22,.43-.24,.72-.15,.92,.32,1.63,.91,2.22,1.66,.63,.8,1.09,1.69,1.49,2.62,.07,.16,.14,.32,.23,.47,.07,.13,.15,.13,.24,.01,.06-.07,.11-.15,.16-.23,.97-1.47,2.01-2.9,3.14-4.25,.31-.38,.63-.74,.94-1.12,.35-.37,.7-.75,1.05-1.12,.24-.26,.49-.51,.74-.76,.04-.04,.06-.08,.08-.12,.27-.21,.5-.47,.76-.71,.96-.9,1.92-1.8,2.99-2.57,.12-.09,.25-.17,.38-.25,.08-.02,.11,.02,.1,.1"/>
</svg>