<?xml version="1.0" encoding="UTF-8"?>
<svg id="Layer_1" data-name="Layer 1" xmlns="http://www.w3.org/2000/svg" viewBox="0 0 791.2 58.2">
  <defs>
    <style>
      .cls-1 {
        fill: #005bab;
      }

      .cls-2 {
        fill: #0080a4;
      }

      .cls-3 {
        fill: #b0b3b6;
      }

      .cls-4 {
        fill: #6d6f72;
      }

      .cls-5 {
        fill: #242122;
        font-family: Arial-BoldMT, Arial;
        font-size: 15.4px;
      }
    </style>
  </defs>
  <text class="cls-5" transform="translate(149.04 13.21)"><tspan x="0" y="0"> </tspan></text>
  <polygon class="cls-3" points="351.29 25.18 342.18 58.2 508.52 58.2 517.64 25.18 351.29 25.18"/>
  <polygon class="cls-2" points="530.6 25.18 521.48 58.2 619.42 58.2 628.53 25.18 530.6 25.18"/>
  <polygon class="cls-3" points="641.49 25.18 632.37 58.2 730.31 58.2 739.43 25.18 641.49 25.18"/>
  <polygon class="cls-2" points="752.39 25.18 743.27 58.2 791.2 58.2 791.2 25.18 752.39 25.18"/>
  <polygon class="cls-2" points="172.84 25.19 163.72 58.2 330.07 58.2 339.19 25.19 172.84 25.19"/>
  <polygon class="cls-3" points="61.95 25.19 52.83 58.2 150.78 58.2 159.9 25.19 61.95 25.19"/>
  <polygon class="cls-2" points="0 25.19 0 58.2 39.88 58.2 48.99 25.19 0 25.19"/>
  <polygon class="cls-1" points="526.04 41.69 623.98 41.69 628.54 25.18 530.6 25.18 526.04 41.69"/>
  <polygon class="cls-1" points="168.28 41.68 334.63 41.68 339.19 25.18 172.84 25.18 168.28 41.68"/>
  <polygon class="cls-4" points="346.73 41.69 513.08 41.69 517.64 25.18 351.29 25.18 346.73 41.69"/>
  <polygon class="cls-4" points="636.93 41.69 734.87 41.69 739.43 25.18 641.49 25.18 636.93 41.69"/>
  <polygon class="cls-4" points="57.39 41.68 155.34 41.68 159.89 25.18 61.94 25.18 57.39 41.68"/>
</svg>