<?xml version="1.0" encoding="UTF-8"?>
<svg id="Layer_1" data-name="Layer 1" xmlns="http://www.w3.org/2000/svg" xmlns:xlink="http://www.w3.org/1999/xlink" viewBox="0 0 205.41 91.83">
  <defs>
    <style>
      .cls-1 {
        fill: none;
      }

      .cls-2 {
        fill: url(#linear-gradient);
      }

      .cls-3 {
        clip-path: url(#clippath);
      }

      .cls-4 {
        mask: url(#mask);
      }

      .cls-5 {
        fill: #fff;
      }

      .cls-6 {
        fill: #231f20;
      }

      .cls-7 {
        clip-path: url(#clippath-1);
      }

      .cls-8 {
        clip-path: url(#clippath-4);
      }

      .cls-9 {
        clip-path: url(#clippath-3);
      }

      .cls-10 {
        clip-path: url(#clippath-2);
      }

      .cls-11 {
        clip-path: url(#clippath-7);
      }

      .cls-12 {
        clip-path: url(#clippath-6);
      }

      .cls-13 {
        clip-path: url(#clippath-5);
      }

      .cls-14 {
        fill: url(#radial-gradient-2);
      }

      .cls-15 {
        fill: url(#linear-gradient-3);
      }

      .cls-16 {
        fill: url(#linear-gradient-4);
      }

      .cls-17 {
        fill: url(#linear-gradient-2);
      }

      .cls-18 {
        opacity: .55;
      }

      .cls-19 {
        fill: url(#radial-gradient);
      }

      .cls-20 {
        isolation: isolate;
      }
    </style>
    <clipPath id="clippath">
      <polygon class="cls-1" points="14.35 45.9 14.35 45.9 14.35 74.59 48.83 74.59 48.83 45.9 48.83 45.9 14.35 45.9"/>
    </clipPath>
    <linearGradient id="linear-gradient" x1="-27.98" y1="539.3" x2="-26.98" y2="539.3" gradientTransform="translate(-1143.65 23103.47) rotate(-180) scale(42.73)" gradientUnits="userSpaceOnUse">
      <stop offset="0" stop-color="#d89441"/>
      <stop offset=".15" stop-color="#d89441"/>
      <stop offset=".36" stop-color="#c17d37"/>
      <stop offset=".79" stop-color="#87431e"/>
      <stop offset=".83" stop-color="#813c1c"/>
      <stop offset="1" stop-color="#813c1c"/>
    </linearGradient>
    <clipPath id="clippath-1">
      <polygon class="cls-1" points="14.35 17.24 14.35 17.24 14.35 45.93 14.35 45.94 48.83 45.94 48.83 17.24 14.35 17.24"/>
    </clipPath>
    <linearGradient id="linear-gradient-2" x1="-27.95" y1="539.28" x2="-26.95" y2="539.28" gradientTransform="translate(-24007.07 -1192.18) rotate(-90) scale(44.58)" gradientUnits="userSpaceOnUse">
      <stop offset="0" stop-color="#00b8c7"/>
      <stop offset=".19" stop-color="#00b8c7"/>
      <stop offset=".32" stop-color="#00a7af"/>
      <stop offset=".6" stop-color="#007c75"/>
      <stop offset=".87" stop-color="#004f37"/>
      <stop offset="1" stop-color="#004f37"/>
    </linearGradient>
    <clipPath id="clippath-2">
      <polygon class="cls-1" points="48.5 17.24 48.5 45.93 48.5 45.94 82.65 45.94 82.65 45.93 82.65 17.24 48.5 17.24"/>
    </clipPath>
    <linearGradient id="linear-gradient-3" x1="-27.98" y1="539.25" x2="-26.98" y2="539.25" gradientTransform="translate(1290.09 -23998.12) scale(44.56)" gradientUnits="userSpaceOnUse">
      <stop offset="0" stop-color="#00c0f2"/>
      <stop offset=".17" stop-color="#00c0f2"/>
      <stop offset=".36" stop-color="#00a8e1"/>
      <stop offset=".75" stop-color="#006cb6"/>
      <stop offset=".87" stop-color="#005aa9"/>
      <stop offset="1" stop-color="#005aa9"/>
    </linearGradient>
    <clipPath id="clippath-3">
      <polygon class="cls-1" points="48.5 45.93 48.5 45.93 48.5 45.93 48.5 74.59 82.65 74.59 82.65 74.59 82.65 45.94 82.65 45.93 48.5 45.93"/>
    </clipPath>
    <linearGradient id="linear-gradient-4" x1="-28.01" y1="539.27" x2="-27.01" y2="539.27" gradientTransform="translate(23801.89 1271.38) rotate(90) scale(44.02)" gradientUnits="userSpaceOnUse">
      <stop offset="0" stop-color="#f05a22"/>
      <stop offset=".11" stop-color="#f05a22"/>
      <stop offset=".36" stop-color="#dc4328"/>
      <stop offset=".59" stop-color="#c82c2f"/>
      <stop offset="1" stop-color="#c82c2f"/>
    </linearGradient>
    <clipPath id="clippath-4">
      <rect class="cls-1" x="14.39" y="17.24" width="68.3" height="57.35"/>
    </clipPath>
    <clipPath id="clippath-5">
      <path class="cls-1" d="M29.97,17.24c-9.38,6.09-15.58,16.65-15.58,28.66s6.22,22.61,15.62,28.69h37.06c9.4-6.08,15.62-16.66,15.62-28.69s-6.21-22.58-15.58-28.66H29.97Z"/>
    </clipPath>
    <radialGradient id="radial-gradient" cx="-28" cy="539.25" fx="-28" fy="539.25" r="1" gradientTransform="translate(1004.62 -18366.2) scale(34.14)" gradientUnits="userSpaceOnUse">
      <stop offset="0" stop-color="#fff"/>
      <stop offset=".54" stop-color="#fff"/>
      <stop offset=".61" stop-color="#eee"/>
      <stop offset=".74" stop-color="#c2c2c3"/>
      <stop offset=".91" stop-color="#7c7d7e"/>
      <stop offset="1" stop-color="#58595b"/>
    </radialGradient>
    <mask id="mask" x="14.39" y="17.24" width="68.3" height="57.35" maskUnits="userSpaceOnUse">
      <g>
        <rect x="14.39" y="17.24" width="68.3" height="57.35"/>
        <g class="cls-20">
          <rect class="cls-19" x="14.39" y="17.24" width="68.3" height="57.35"/>
        </g>
      </g>
    </mask>
    <clipPath id="clippath-6">
      <rect class="cls-1" x="14.39" y="17.24" width="68.3" height="57.35"/>
    </clipPath>
    <clipPath id="clippath-7">
      <rect class="cls-1" x="14.39" y="17.24" width="68.3" height="57.35"/>
    </clipPath>
    <radialGradient id="radial-gradient-2" cx="-28" cy="539.25" fx="-28" fy="539.25" r="1" gradientTransform="translate(1004.62 -18366.21) scale(34.14)" gradientUnits="userSpaceOnUse">
      <stop offset="0" stop-color="#fff"/>
      <stop offset=".54" stop-color="#fff"/>
      <stop offset="1" stop-color="#fff"/>
    </radialGradient>
  </defs>
  <g class="cls-3">
    <rect class="cls-2" x="9.26" y="37.9" width="44.65" height="44.69" transform="translate(-33.46 40.33) rotate(-45.3)"/>
  </g>
  <g class="cls-7">
    <rect class="cls-17" x="9.24" y="9.26" width="44.69" height="44.65" transform="translate(-13.08 31.35) rotate(-44.7)"/>
  </g>
  <g class="cls-10">
    <rect class="cls-15" x="43.3" y="9.46" width="44.56" height="44.25" transform="translate(-4.04 52.84) rotate(-42.69)"/>
  </g>
  <g class="cls-9">
    <rect class="cls-16" x="43.38" y="38.05" width="44.4" height="44.43" transform="translate(-23.4 64.27) rotate(-45.16)"/>
  </g>
  <g>
    <path class="cls-5" d="M98.08,52.69c1.08,0,2.32-.13,3.46-.25l.21,3.51c-1.57,.28-3.31,.48-4.85,.48-5.33,0-9.88-2.31-9.91-11.04,0-8.32,5.09-10.88,10.15-10.88,1.78,0,3.28,.32,4.91,.82l-.69,3.41c-1.35-.51-2.47-.76-3.79-.76-3.34,0-5.99,1.71-6.02,7.3,.03,6.1,2.92,7.4,6.54,7.4"/>
    <path class="cls-5" d="M103.38,47.98c0-6.23,2.62-8.47,7.2-8.47s7.17,2.18,7.17,8.44-2.56,8.47-7.35,8.47-7.02-2.21-7.02-8.44m4.16,0c0,4.02,1.23,5.06,3.01,5.06s3.01-1.04,3.01-5.06c0-4.27-1.17-5.06-2.98-5.06s-3.04,.79-3.04,5.06"/>
    <path class="cls-5" d="M132.56,55.22c-1.32,.66-3.97,1.3-6.53,1.3-3.46,0-6.83-1.04-6.83-4.84s2.86-4.96,5.93-4.96c1.08,0,2.2,.16,3.22,.41v-1.45c0-2.15-1.2-2.59-3.04-2.59-1.42,0-2.83,.28-3.82,.6l-.78-3.04c1.84-.63,4.01-1.17,5.99-1.17,3.19,0,5.87,1.39,5.87,6.13v9.61Zm-6.44-1.42c.78,0,1.59-.13,2.23-.41v-3.92c-.81-.25-1.57-.38-2.26-.38-1.69,0-2.89,.7-2.89,2.47s1.44,2.25,2.92,2.25"/>
    <path class="cls-5" d="M135.03,47.98c0-6.2,3.58-8.44,7.95-8.44,1.32,0,2.68,.16,4.06,.54l-.39,3.32c-1.05-.25-2.26-.41-3.28-.41-2.47,0-4.16,1.11-4.16,5.03s1.87,5.12,4.19,5.12c1.17,0,2.44-.25,3.67-.54l.24,3.13c-1.51,.41-2.77,.7-4.49,.7-4.15,0-7.8-2.46-7.8-8.44"/>
    <path class="cls-5" d="M154.03,40.33c1.84-.66,3.49-.92,4.91-.92,3.13,0,5.06,1.55,5.06,5.44v11.16h-4.52v-10.37c0-2.18-1.02-2.56-2.32-2.56-.99,0-2.17,.28-3.13,.63v12.3h-4.34v-22.04l4.34-.29v6.64Z"/>
    <rect class="cls-5" x="166.95" y="39.79" width="4.34" height="16.22"/>
    <path class="cls-5" d="M174.33,41.31c1.35-.63,4.67-1.86,7.92-1.86s6.05,.92,6.05,5.66v10.91h-4.19v-10.53c0-2.15-1.11-2.75-2.53-2.75-1.02,0-2.29,.22-3.07,.7v12.58h-4.18v-14.7Z"/>
    <path class="cls-5" d="M192.46,53.04c0-.89,.3-1.71,.87-2.43-1.69-1.11-2.53-2.78-2.53-4.9,0-3.51,1.9-6.23,6.14-6.23,.9,0,2.02,.16,2.89,.16,1.48,0,3.25-.13,5.27-.47l.3,2.46c-1.08,.25-2.17,.38-3.25,.54,.72,1.01,1.11,2.34,1.11,3.54,0,3.48-2.02,5.88-6.2,5.88-.6,0-1.11-.03-1.62-.16-.15,.32-.21,.63-.21,.95,0,.38,.09,.76,.27,1.14h4.34c3.28,0,5.18,1.71,5.18,4.3,0,3.64-3.1,5.98-7.98,5.98-4.28,0-6.78-1.61-6.78-4.52,0-1.64,1.11-3.07,3.16-3.98-.69-.6-.96-1.39-.96-2.24m3.13,3.83c-1.14,.38-1.63,1.2-1.63,1.96,0,1.23,1.57,1.61,3.46,1.61,2.47,0,3.83-.7,3.83-2.18,0-.82-.45-1.39-2.44-1.39h-3.22Zm-.81-11.13c0,1.71,.87,2.53,2.29,2.53s2.35-.82,2.35-2.53-.45-3-2.35-3c-1.72,0-2.29,1.17-2.29,3"/>
    <rect class="cls-5" x="166.95" y="32.92" width="4.42" height="4.42"/>
    <g class="cls-18">
      <g class="cls-8">
        <g class="cls-13">
          <g class="cls-4">
            <g class="cls-12">
              <g class="cls-11">
                <rect class="cls-14" x="14.39" y="17.24" width="68.3" height="57.35"/>
              </g>
            </g>
          </g>
        </g>
      </g>
    </g>
    <polygon class="cls-6" points="15.97 34.89 30.85 34.89 30.85 38.53 25.43 38.53 25.43 56.01 21.29 56.01 21.29 38.53 15.97 38.53 15.97 34.89"/>
    <path class="cls-6" d="M36.98,42.64c-2.46,0-2.91,2.34-2.94,3.29h5.48c0-1.9-.78-3.29-2.54-3.29m-3.05,5.85v.41c0,2.84,1.7,4.08,4.03,4.08,1.31,0,2.94-.22,4.11-.66l.31,3.29c-1.65,.54-3.36,.85-4.92,.85-4.08,0-7.35-2.21-7.35-8.95,0-4.18,1.93-8,6.77-8,4.31,0,5.93,2.69,5.93,6.16,0,.89-.11,1.84-.31,2.81h-8.56Z"/>
    <path class="cls-6" d="M50.45,53.8c.73,0,1.48-.13,2.07-.41v-3.92c-.76-.25-1.46-.38-2.1-.38-1.57,0-2.69,.69-2.69,2.46s1.34,2.25,2.71,2.25m5.99,1.42c-1.23,.66-3.69,1.3-6.07,1.3-3.22,0-6.35-1.04-6.35-4.84s2.66-4.96,5.51-4.96c1.01,0,2.04,.16,2.99,.41v-1.45c0-2.15-1.12-2.59-2.83-2.59-1.31,0-2.63,.28-3.55,.6l-.73-3.04c1.71-.63,3.72-1.17,5.56-1.17,2.96,0,5.45,1.39,5.45,6.13v9.61Z"/>
    <path class="cls-6" d="M59.32,41.44c1.26-.66,4.17-1.99,7.19-1.99,1.57,0,3.05,.25,4.11,1.26,1.37-.66,3.13-1.26,5.23-1.26,2.82,0,5.12,1.33,5.12,5.66v10.91h-3.89v-10.43c0-2.06-.95-2.75-2.29-2.75-.87,0-1.85,.22-2.82,.76,.06,.47,.11,.98,.11,1.52v10.91h-3.83v-10.43c0-2.25-1.09-2.75-2.4-2.75-.95,0-1.82,.22-2.63,.7v12.49h-3.89v-14.58Z"/>
    <rect class="cls-5" x="88.92" y="61.49" width="1.89" height="8.97"/>
    <polygon class="cls-5" points="98.96 70.46 95.16 64.19 95.16 70.46 93.35 70.46 93.35 61.49 95.36 61.49 99.14 67.78 99.14 61.49 100.98 61.49 100.98 70.46 98.96 70.46"/>
    <polygon class="cls-5" points="102.82 61.49 109.63 61.49 109.63 63.04 107.15 63.04 107.15 70.46 105.25 70.46 105.25 63.04 102.82 63.04 102.82 61.49"/>
    <polygon class="cls-5" points="117.36 70.46 111.47 70.46 111.47 61.49 117.24 61.49 117.24 63.05 113.36 63.05 113.36 65.06 117.02 65.06 117.02 66.57 113.36 66.57 113.36 68.9 117.36 68.9 117.36 70.46"/>
    <path class="cls-5" d="M119.61,61.65c.73-.15,1.78-.26,2.8-.26,1.74,0,3.43,.48,3.43,3.01,0,1.57-.69,2.46-1.73,2.81l2.11,3.25h-2.04l-1.8-3.08c-.28-.03-.58-.08-.87-.15v3.22h-1.89v-8.81Zm2.79,4.39c.88,0,1.62-.26,1.62-1.58s-.83-1.64-1.61-1.64c-.33,0-.65,.01-.91,.08v3.06c.29,.04,.6,.08,.9,.08"/>
    <polygon class="cls-5" points="133.71 70.46 129.91 64.19 129.91 70.46 128.09 70.46 128.09 61.49 130.1 61.49 133.89 67.78 133.89 61.49 135.73 61.49 135.73 70.46 133.71 70.46"/>
    <path class="cls-5" d="M143.44,70.46l-.67-2.12h-2.81l-.64,2.12h-1.93l2.97-8.97h2.09l2.86,8.97h-1.87Zm-2.06-7.12l-.98,3.53h1.94l-.96-3.53Z"/>
    <polygon class="cls-5" points="145.77 61.49 152.57 61.49 152.57 63.04 150.09 63.04 150.09 70.46 148.2 70.46 148.2 63.04 145.77 63.04 145.77 61.49"/>
    <rect class="cls-5" x="154.41" y="61.49" width="1.89" height="8.97"/>
    <path class="cls-5" d="M165.96,65.98c0,2.35-.61,4.64-3.74,4.64s-3.7-2.28-3.7-4.64,.64-4.64,3.73-4.64,3.71,2.28,3.71,4.64m-1.83,0c0-1.69-.23-3.07-1.89-3.07s-1.89,1.38-1.89,3.07,.24,3.01,1.89,3.01,1.89-1.33,1.89-3.01"/>
    <polygon class="cls-5" points="173.78 70.46 169.98 64.19 169.98 70.46 168.17 70.46 168.17 61.49 170.18 61.49 173.96 67.78 173.96 61.49 175.8 61.49 175.8 70.46 173.78 70.46"/>
    <path class="cls-5" d="M183.51,70.46l-.67-2.12h-2.81l-.64,2.12h-1.93l2.97-8.97h2.09l2.86,8.97h-1.87Zm-2.06-7.12l-.98,3.53h1.94l-.96-3.53Z"/>
    <polygon class="cls-5" points="192.54 70.46 187.07 70.46 187.07 61.49 188.97 61.49 188.97 68.9 192.54 68.9 192.54 70.46"/>
    <polygon class="cls-5" points="193.22 66.99 195.86 66.99 195.86 67.58 194.89 67.58 194.89 70.45 194.16 70.45 194.16 67.58 193.22 67.58 193.22 66.99"/>
    <polygon class="cls-5" points="197.61 70.01 196.89 67.97 196.78 70.46 196.1 70.46 196.32 66.98 197.14 66.98 197.92 69.19 198.7 66.98 199.52 66.98 199.73 70.46 199.05 70.46 198.95 67.97 198.22 70.01 197.61 70.01"/>
  </g>
</svg>