<?xml version="1.0" encoding="UTF-8"?>
<svg id="Layer_1" data-name="Layer 1" xmlns="http://www.w3.org/2000/svg" xmlns:xlink="http://www.w3.org/1999/xlink" viewBox="0 0 192.97 86.27">
  <defs>
    <style>
      .cls-1 {
        fill: none;
      }

      .cls-2 {
        fill: url(#linear-gradient);
      }

      .cls-3 {
        clip-path: url(#clippath);
      }

      .cls-4 {
        mask: url(#mask);
      }

      .cls-5 {
        fill: #005aa9;
      }

      .cls-6 {
        fill: #231f20;
      }

      .cls-7 {
        fill: #6d6e70;
      }

      .cls-8 {
        clip-path: url(#clippath-1);
      }

      .cls-9 {
        clip-path: url(#clippath-4);
      }

      .cls-10 {
        clip-path: url(#clippath-3);
      }

      .cls-11 {
        clip-path: url(#clippath-2);
      }

      .cls-12 {
        clip-path: url(#clippath-7);
      }

      .cls-13 {
        clip-path: url(#clippath-8);
      }

      .cls-14 {
        clip-path: url(#clippath-6);
      }

      .cls-15 {
        clip-path: url(#clippath-5);
      }

      .cls-16 {
        clip-path: url(#clippath-9);
      }

      .cls-17 {
        fill: url(#radial-gradient-2);
      }

      .cls-18 {
        fill: url(#linear-gradient-3);
      }

      .cls-19 {
        fill: url(#linear-gradient-4);
      }

      .cls-20 {
        fill: url(#linear-gradient-2);
      }

      .cls-21 {
        opacity: .55;
      }

      .cls-22 {
        fill: url(#radial-gradient);
      }

      .cls-23 {
        isolation: isolate;
      }
    </style>
    <clipPath id="clippath">
      <polygon class="cls-1" points="13.48 43.12 13.48 43.12 13.48 70.08 13.48 70.08 45.87 70.08 45.87 70.08 45.87 43.12 45.87 43.12 13.48 43.12"/>
    </clipPath>
    <linearGradient id="linear-gradient" x1="-200.71" y1="605.81" x2="-199.71" y2="605.81" gradientTransform="translate(-8007.69 24374.05) rotate(-180) scale(40.14)" gradientUnits="userSpaceOnUse">
      <stop offset="0" stop-color="#d89441"/>
      <stop offset=".15" stop-color="#d89441"/>
      <stop offset=".36" stop-color="#c17d37"/>
      <stop offset=".79" stop-color="#87431e"/>
      <stop offset=".83" stop-color="#813c1c"/>
      <stop offset="1" stop-color="#813c1c"/>
    </linearGradient>
    <clipPath id="clippath-1">
      <polygon class="cls-1" points="13.48 16.2 13.48 16.2 13.48 43.15 13.48 43.15 45.87 43.15 45.87 16.2 45.87 16.2 13.48 16.2"/>
    </clipPath>
    <linearGradient id="linear-gradient-2" x1="-200.61" y1="609.11" x2="-199.61" y2="609.11" gradientTransform="translate(-25477.48 -8350.16) rotate(-90) scale(41.88)" gradientUnits="userSpaceOnUse">
      <stop offset="0" stop-color="#00b8c7"/>
      <stop offset=".19" stop-color="#00b8c7"/>
      <stop offset=".32" stop-color="#00a7af"/>
      <stop offset=".6" stop-color="#007c75"/>
      <stop offset=".87" stop-color="#004f37"/>
      <stop offset="1" stop-color="#004f37"/>
    </linearGradient>
    <clipPath id="clippath-2">
      <polygon class="cls-1" points="45.56 16.2 45.56 43.15 45.56 43.15 77.65 43.15 77.65 16.2 45.56 16.2"/>
    </clipPath>
    <linearGradient id="linear-gradient-3" x1="-197.34" y1="609" x2="-196.34" y2="609" gradientTransform="translate(8302.16 -25464.94) scale(41.86)" gradientUnits="userSpaceOnUse">
      <stop offset="0" stop-color="#00c0f2"/>
      <stop offset=".17" stop-color="#00c0f2"/>
      <stop offset=".36" stop-color="#00a8e1"/>
      <stop offset=".75" stop-color="#006cb6"/>
      <stop offset=".87" stop-color="#005aa9"/>
      <stop offset="1" stop-color="#005aa9"/>
    </linearGradient>
    <clipPath id="clippath-3">
      <polygon class="cls-1" points="45.57 43.15 45.56 43.15 45.56 43.15 45.56 70.08 77.65 70.08 77.65 70.08 77.65 43.15 77.65 43.15 45.57 43.15"/>
    </clipPath>
    <linearGradient id="linear-gradient-4" x1="-197.41" y1="605.84" x2="-196.41" y2="605.84" gradientTransform="translate(25113.15 8199.35) rotate(90) scale(41.35)" gradientUnits="userSpaceOnUse">
      <stop offset="0" stop-color="#f05a22"/>
      <stop offset=".11" stop-color="#f05a22"/>
      <stop offset=".36" stop-color="#dc4328"/>
      <stop offset=".59" stop-color="#c82c2f"/>
      <stop offset="1" stop-color="#c82c2f"/>
    </linearGradient>
    <clipPath id="clippath-4">
      <rect class="cls-1" x="13.48" y="16.2" width="179.49" height="53.88"/>
    </clipPath>
    <clipPath id="clippath-5">
      <rect class="cls-1" x="13.48" y="16.2" width="179.49" height="53.88"/>
    </clipPath>
    <clipPath id="clippath-6">
      <rect class="cls-1" x="13.52" y="16.2" width="64.16" height="53.88"/>
    </clipPath>
    <clipPath id="clippath-7">
      <path class="cls-1" d="M28.16,16.2c-8.81,5.72-14.64,15.64-14.64,26.93s5.85,21.24,14.68,26.95H63.01c8.83-5.71,14.68-15.65,14.68-26.95s-5.83-21.21-14.64-26.93H28.16Z"/>
    </clipPath>
    <radialGradient id="radial-gradient" cx="-196.06" cy="607.45" fx="-196.06" fy="607.45" r="1" gradientTransform="translate(6334.62 -19441.65) scale(32.08)" gradientUnits="userSpaceOnUse">
      <stop offset="0" stop-color="#fff"/>
      <stop offset=".54" stop-color="#fff"/>
      <stop offset=".61" stop-color="#eee"/>
      <stop offset=".74" stop-color="#c2c2c3"/>
      <stop offset=".91" stop-color="#7c7d7e"/>
      <stop offset="1" stop-color="#58595b"/>
    </radialGradient>
    <mask id="mask" x="13.52" y="16.2" width="64.17" height="53.88" maskUnits="userSpaceOnUse">
      <g>
        <rect x="13.52" y="16.2" width="64.16" height="53.88"/>
        <g class="cls-23">
          <rect class="cls-22" x="13.52" y="16.2" width="64.17" height="53.88"/>
        </g>
      </g>
    </mask>
    <clipPath id="clippath-8">
      <rect class="cls-1" x="13.52" y="16.2" width="64.16" height="53.88"/>
    </clipPath>
    <clipPath id="clippath-9">
      <rect class="cls-1" x="13.52" y="16.2" width="64.17" height="53.88"/>
    </clipPath>
    <radialGradient id="radial-gradient-2" cx="-196.06" cy="607.45" fx="-196.06" fy="607.45" r="1" gradientTransform="translate(6334.63 -19441.67) scale(32.08)" gradientUnits="userSpaceOnUse">
      <stop offset="0" stop-color="#fff"/>
      <stop offset=".54" stop-color="#fff"/>
      <stop offset="1" stop-color="#fff"/>
    </radialGradient>
  </defs>
  <g class="cls-3">
    <rect class="cls-2" x="8.7" y="35.6" width="41.95" height="41.99" transform="translate(-31.43 37.88) rotate(-45.3)"/>
  </g>
  <g class="cls-8">
    <rect class="cls-20" x="8.68" y="8.7" width="41.99" height="41.95" transform="translate(-12.29 29.45) rotate(-44.7)"/>
  </g>
  <g class="cls-11">
    <rect class="cls-18" x="40.67" y="8.89" width="41.86" height="41.57" transform="translate(-3.8 49.64) rotate(-42.69)"/>
  </g>
  <g class="cls-10">
    <rect class="cls-19" x="40.75" y="35.75" width="41.72" height="41.74" transform="translate(-21.98 60.37) rotate(-45.16)"/>
  </g>
  <g class="cls-9">
    <path class="cls-6" d="M92.14,49.5c1.02,0,2.18-.12,3.25-.24l.2,3.3c-1.47,.27-3.11,.45-4.56,.45-5.01,0-9.28-2.17-9.31-10.37,0-7.81,4.78-10.22,9.53-10.22,1.67,0,3.08,.3,4.61,.77l-.65,3.21c-1.27-.48-2.32-.71-3.56-.71-3.14,0-5.63,1.6-5.66,6.86,.03,5.73,2.74,6.95,6.14,6.95"/>
    <path class="cls-6" d="M97.12,45.08c0-5.85,2.46-7.96,6.76-7.96s6.73,2.05,6.73,7.93-2.4,7.96-6.9,7.96-6.59-2.08-6.59-7.93m3.9,0c0,3.77,1.16,4.75,2.83,4.75s2.83-.98,2.83-4.75c0-4.01-1.1-4.75-2.8-4.75s-2.86,.74-2.86,4.75"/>
    <path class="cls-6" d="M124.54,51.88c-1.24,.62-3.73,1.22-6.14,1.22-3.25,0-6.42-.98-6.42-4.55s2.69-4.66,5.57-4.66c1.02,0,2.07,.15,3.03,.39v-1.37c0-2.02-1.13-2.43-2.86-2.43-1.33,0-2.66,.27-3.59,.56l-.74-2.85c1.73-.59,3.76-1.1,5.63-1.1,3,0,5.52,1.31,5.52,5.76v9.03Zm-6.05-1.34c.73,0,1.5-.12,2.09-.39v-3.68c-.76-.24-1.47-.36-2.12-.36-1.58,0-2.71,.65-2.71,2.32s1.36,2.11,2.74,2.11"/>
    <path class="cls-6" d="M126.85,45.08c0-5.82,3.37-7.93,7.47-7.93,1.24,0,2.52,.15,3.82,.51l-.37,3.12c-.99-.24-2.12-.39-3.08-.39-2.32,0-3.9,1.04-3.9,4.72s1.75,4.81,3.93,4.81c1.1,0,2.29-.24,3.45-.5l.23,2.94c-1.41,.39-2.6,.65-4.22,.65-3.9,0-7.33-2.32-7.33-7.93"/>
    <path class="cls-6" d="M144.71,37.89c1.73-.62,3.28-.86,4.61-.86,2.94,0,4.75,1.45,4.75,5.11v10.49h-4.24v-9.74c0-2.05-.96-2.41-2.18-2.41-.93,0-2.04,.27-2.94,.59v11.55h-4.07V31.92l4.07-.27v6.24Z"/>
    <rect class="cls-6" x="156.84" y="37.38" width="4.07" height="15.24"/>
    <path class="cls-6" d="M163.77,38.81c1.27-.59,4.38-1.75,7.44-1.75s5.69,.86,5.69,5.32v10.25h-3.93v-9.89c0-2.02-1.05-2.58-2.38-2.58-.96,0-2.15,.21-2.89,.65v11.82h-3.93v-13.81Z"/>
    <path class="cls-6" d="M180.8,49.83c0-.83,.28-1.6,.82-2.29-1.58-1.04-2.38-2.61-2.38-4.6,0-3.3,1.78-5.85,5.77-5.85,.85,0,1.89,.15,2.72,.15,1.39,0,3.05-.12,4.95-.45l.28,2.32c-1.02,.24-2.04,.36-3.05,.51,.68,.95,1.05,2.2,1.05,3.33,0,3.27-1.9,5.52-5.83,5.52-.57,0-1.05-.03-1.53-.15-.14,.3-.2,.59-.2,.89,0,.36,.08,.71,.26,1.07h4.07c3.08,0,4.86,1.61,4.86,4.04,0,3.42-2.91,5.61-7.5,5.61-4.02,0-6.36-1.52-6.36-4.25,0-1.54,1.05-2.88,2.97-3.74-.65-.57-.9-1.31-.9-2.11m2.94,3.59c-1.07,.36-1.53,1.13-1.53,1.84,0,1.16,1.47,1.52,3.25,1.52,2.32,0,3.59-.65,3.59-2.05,0-.77-.42-1.31-2.29-1.31h-3.03Zm-.76-10.46c0,1.6,.82,2.38,2.15,2.38s2.21-.77,2.21-2.38-.42-2.82-2.21-2.82c-1.61,0-2.15,1.1-2.15,2.82"/>
    <rect class="cls-5" x="156.84" y="30.93" width="4.15" height="4.15"/>
  </g>
  <g class="cls-15">
    <g class="cls-21">
      <g class="cls-14">
        <g class="cls-12">
          <g class="cls-4">
            <g class="cls-13">
              <g class="cls-16">
                <rect class="cls-17" x="13.52" y="16.2" width="64.17" height="53.88"/>
              </g>
            </g>
          </g>
        </g>
      </g>
    </g>
    <polygon class="cls-6" points="15.01 32.78 28.98 32.78 28.98 36.19 23.89 36.19 23.89 52.62 20 52.62 20 36.19 15.01 36.19 15.01 32.78"/>
    <path class="cls-6" d="M34.73,40.06c-2.31,0-2.73,2.2-2.76,3.09h5.15c0-1.78-.73-3.09-2.39-3.09m-2.86,5.49v.39c0,2.67,1.6,3.83,3.78,3.83,1.24,0,2.76-.21,3.86-.62l.29,3.09c-1.55,.51-3.15,.8-4.62,.8-3.84,0-6.91-2.08-6.91-8.4,0-3.92,1.81-7.52,6.36-7.52,4.04,0,5.57,2.52,5.57,5.79,0,.83-.1,1.72-.29,2.64h-8.04Z"/>
    <path class="cls-6" d="M47.4,50.54c.68,0,1.39-.12,1.94-.39v-3.68c-.71-.24-1.37-.36-1.97-.36-1.47,0-2.52,.65-2.52,2.32s1.26,2.11,2.55,2.11m5.62,1.34c-1.16,.62-3.47,1.22-5.7,1.22-3.02,0-5.96-.98-5.96-4.54s2.49-4.66,5.17-4.66c.95,0,1.92,.15,2.81,.39v-1.37c0-2.02-1.05-2.43-2.65-2.43-1.23,0-2.47,.27-3.34,.56l-.68-2.85c1.6-.59,3.5-1.1,5.23-1.1,2.79,0,5.12,1.31,5.12,5.76v9.03Z"/>
    <path class="cls-6" d="M55.73,38.93c1.18-.62,3.91-1.87,6.75-1.87,1.47,0,2.86,.24,3.86,1.19,1.29-.62,2.94-1.19,4.91-1.19,2.65,0,4.81,1.25,4.81,5.32v10.25h-3.65v-9.8c0-1.93-.89-2.58-2.15-2.58-.81,0-1.73,.21-2.65,.71,.05,.45,.11,.92,.11,1.43v10.25h-3.6v-9.8c0-2.11-1.02-2.58-2.26-2.58-.89,0-1.71,.21-2.47,.65v11.73h-3.65v-13.69Z"/>
    <rect class="cls-7" x="83.54" y="57.77" width="1.78" height="8.42"/>
    <polygon class="cls-7" points="92.97 66.19 89.4 60.3 89.4 66.19 87.7 66.19 87.7 57.77 89.58 57.77 93.14 63.67 93.14 57.77 94.87 57.77 94.87 66.19 92.97 66.19"/>
    <polygon class="cls-7" points="96.6 57.77 102.99 57.77 102.99 59.22 100.66 59.22 100.66 66.19 98.88 66.19 98.88 59.22 96.6 59.22 96.6 57.77"/>
    <polygon class="cls-7" points="110.25 66.19 104.72 66.19 104.72 57.77 110.13 57.77 110.13 59.23 106.49 59.23 106.49 61.12 109.93 61.12 109.93 62.54 106.49 62.54 106.49 64.73 110.25 64.73 110.25 66.19"/>
    <path class="cls-7" d="M112.37,57.92c.68-.14,1.67-.24,2.63-.24,1.64,0,3.22,.45,3.22,2.83,0,1.47-.65,2.31-1.62,2.64l1.98,3.05h-1.92l-1.69-2.89c-.26-.03-.54-.08-.82-.14v3.03h-1.78v-8.27Zm2.62,4.12c.83,0,1.53-.24,1.53-1.49s-.78-1.54-1.51-1.54c-.31,0-.61,.01-.85,.08v2.88c.28,.04,.57,.08,.84,.08"/>
    <polygon class="cls-7" points="125.61 66.19 122.04 60.3 122.04 66.19 120.34 66.19 120.34 57.77 122.22 57.77 125.78 63.67 125.78 57.77 127.51 57.77 127.51 66.19 125.61 66.19"/>
    <path class="cls-7" d="M134.75,66.19l-.62-1.99h-2.64l-.6,1.99h-1.81l2.79-8.42h1.96l2.69,8.42h-1.75Zm-1.93-6.68l-.93,3.32h1.82l-.9-3.32Z"/>
    <polygon class="cls-7" points="136.94 57.77 143.33 57.77 143.33 59.22 141 59.22 141 66.19 139.22 66.19 139.22 59.22 136.94 59.22 136.94 57.77"/>
    <rect class="cls-7" x="145.06" y="57.77" width="1.78" height="8.42"/>
    <path class="cls-7" d="M155.91,61.98c0,2.21-.58,4.36-3.52,4.36s-3.47-2.14-3.47-4.36,.6-4.36,3.51-4.36,3.48,2.14,3.48,4.36m-1.72,0c0-1.59-.22-2.89-1.78-2.89s-1.78,1.3-1.78,2.89,.23,2.83,1.78,2.83,1.78-1.25,1.78-2.83"/>
    <polygon class="cls-7" points="163.26 66.19 159.69 60.3 159.69 66.19 157.98 66.19 157.98 57.77 159.87 57.77 163.43 63.67 163.43 57.77 165.16 57.77 165.16 66.19 163.26 66.19"/>
    <path class="cls-7" d="M172.4,66.19l-.62-1.99h-2.64l-.6,1.99h-1.81l2.79-8.42h1.96l2.69,8.42h-1.75Zm-1.93-6.68l-.93,3.32h1.83l-.9-3.32Z"/>
    <polygon class="cls-7" points="180.88 66.19 175.74 66.19 175.74 57.77 177.53 57.77 177.53 64.73 180.88 64.73 180.88 66.19"/>
    <polygon class="cls-7" points="181.52 62.93 183.99 62.93 183.99 63.49 183.09 63.49 183.09 66.19 182.4 66.19 182.4 63.49 181.52 63.49 181.52 62.93"/>
    <polygon class="cls-7" points="185.64 65.77 184.96 63.85 184.86 66.19 184.23 66.19 184.43 62.93 185.2 62.93 185.94 65 186.67 62.93 187.44 62.93 187.64 66.19 187 66.19 186.9 63.86 186.22 65.77 185.64 65.77"/>
  </g>
</svg>