<?xml version="1.0" encoding="UTF-8"?>
<svg id="Layer_1" data-name="Layer 1" xmlns="http://www.w3.org/2000/svg" xmlns:xlink="http://www.w3.org/1999/xlink" viewBox="0 0 205.79 172.08">
  <defs>
    <style>
      .cls-1 {
        fill: none;
      }

      .cls-2 {
        fill: url(#linear-gradient);
      }

      .cls-3 {
        clip-path: url(#clippath);
      }

      .cls-4 {
        clip-path: url(#clippath-1);
      }

      .cls-5 {
        clip-path: url(#clippath-2);
      }

      .cls-6 {
        fill: url(#linear-gradient-3);
      }

      .cls-7 {
        fill: url(#linear-gradient-2);
      }
    </style>
    <clipPath id="clippath">
      <path class="cls-1" d="M24.95,57.04c0-18.23,15.32-33.01,34.21-33.01s34.21,14.78,34.21,33.01-15.32,33.01-34.21,33.01-34.21-14.78-34.21-33.01M55.5,.18c-2.59,.25-4.38,1.68-4.82,4.33-.23,1.39-.39,2.79-.76,4.14-.64,2.31-.38,4.83-1.4,6.71-4.36,1.76-8.36,3.37-12.52,5.05-.76-.49-1.65-1.03-2.51-1.61-2.16-1.47-4.27-3.02-6.47-4.42-2.71-1.71-4.85-1.55-7.18,.52-1.56,1.38-3.06,2.82-4.48,4.33-2.19,2.31-2.34,4.24-.52,6.9,1.38,2.03,2.93,3.94,4.34,5.94,.72,1.03,1.81,1.89,1.87,2.87-1.82,4.21-3.49,8.08-5.19,12.02-.64,.12-1.28,.26-1.92,.37-3.12,.52-6.26,.97-9.37,1.56-2.7,.52-4.27,2.15-4.41,4.69-.14,2.42-.13,4.85,0,7.27,.13,2.28,1.52,3.76,3.76,4.42,.88,.26,1.82,.29,2.72,.49,3.18,.73,6.54,.7,9.46,1.85,1.34,3.41,2.59,6.61,3.88,9.9-1.09,1.33-2.16,2.62-3.23,3.91-1.32,1.59-2.72,3.13-3.95,4.79-1.56,2.09-1.56,4.39,.06,6.36,1.47,1.79,3.06,3.52,4.75,5.14,2.01,1.94,4,2.15,6.49,.88,1.05-.54,2.04-1.18,3.04-1.79,2.35-1.4,4.7-2.81,6.97-4.17,2.54,1.26,4.83,2.53,7.22,3.56,2.39,1.03,4.9,1.81,7.33,2.68,.22,1.05,.42,1.92,.57,2.79,.51,2.76,.92,5.54,1.52,8.28,.6,2.71,2.12,3.97,4.93,4.09,2.51,.1,5.03,.07,7.53-.03,2.22-.09,3.69-1.32,4.35-3.33,.36-1.09,.46-2.25,.73-3.36,.67-2.84,.65-5.82,1.63-8.37,4.28-1.7,8.29-3.29,12.45-4.95,1.12,.73,2.32,1.51,3.5,2.31,1.95,1.32,3.84,2.71,5.83,3.97,2.8,1.77,4.75,1.65,7.16-.46,1.57-1.37,3.06-2.82,4.49-4.32,2.09-2.19,2.29-4.42,.55-6.94-1.6-2.34-3.38-4.57-5.04-6.87-.59-.82-1.06-1.71-1.42-2.3,1.77-4.08,3.39-7.83,5.22-12.06,1.6-.28,3.28-.59,4.97-.87,1.95-.32,3.92-.55,5.86-.93,3.12-.61,4.61-2.26,4.72-5.25,.08-2.17,.09-4.34-.02-6.5-.13-2.62-1.59-4.23-4.22-4.86-.38-.09-.79-.1-1.17-.17-3.38-.57-6.75-1.15-10.26-1.74-1.27-3.2-2.53-6.38-3.82-9.62,.57-.76,1.08-1.49,1.65-2.18,1.48-1.8,2.91-3.64,4.5-5.35,3.07-3.31,2.95-6.13-.11-9.04-.85-.8-1.58-1.72-2.38-2.57-3.35-3.57-5-3.81-9.23-1.3-2.81,1.67-5.59,3.38-8.56,5.17-4.51-3.03-9.49-5.01-14.75-6.56-.27-1.37-.54-2.61-.77-3.85-.43-2.39-.82-4.78-1.26-7.16-.48-2.6-2.2-4.12-4.82-4.36-1.26-.12-2.53-.18-3.81-.18s-2.48,.06-3.71,.18"/>
    </clipPath>
    <linearGradient id="linear-gradient" x1="-294.45" y1="394.61" x2="-293.45" y2="394.61" gradientTransform="translate(34815.16 46715.34) scale(118.24 -118.24)" gradientUnits="userSpaceOnUse">
      <stop offset="0" stop-color="#00c0f2"/>
      <stop offset=".17" stop-color="#00c0f2"/>
      <stop offset=".36" stop-color="#00a8e1"/>
      <stop offset=".75" stop-color="#006cb6"/>
      <stop offset=".87" stop-color="#005aa9"/>
      <stop offset="1" stop-color="#005aa9"/>
    </linearGradient>
    <clipPath id="clippath-1">
      <path class="cls-1" d="M139.32,58.55c-2.09-12.87,7.02-24.94,20.36-26.96,13.34-2.02,25.85,6.77,27.94,19.64,2.09,12.87-7.02,24.94-20.36,26.96-1.28,.19-2.56,.29-3.82,.29-11.83,0-22.23-8.3-24.12-19.93m20.34-44.21c-1.78,.1-3.58,.37-5.31,.8-1.8,.45-2.89,1.65-2.9,3.57,0,1,.04,2.01-.06,3-.18,1.7,.28,3.45-.22,4.89-2.88,1.71-5.52,3.27-8.26,4.9-.59-.26-1.28-.55-1.96-.87-1.7-.81-3.36-1.67-5.08-2.43-2.11-.92-3.6-.57-5.01,1.13-.94,1.14-1.84,2.32-2.67,3.54-1.28,1.87-1.17,3.24,.42,4.93,1.2,1.28,2.52,2.47,3.74,3.73,.63,.65,1.5,1.14,1.65,1.82-.8,3.17-1.54,6.08-2.28,9.04-.44,.16-.87,.32-1.31,.46-2.15,.7-4.31,1.35-6.44,2.1-1.85,.65-2.77,1.97-2.58,3.78,.18,1.72,.47,3.44,.84,5.13,.35,1.59,1.5,2.49,3.16,2.72,.37,.05,.74,.05,1.12,.04,.29,0,.57,0,.86,.01,.9,.07,1.81,.05,2.72,.04,1.42-.02,2.83-.05,4.17,.26,1.34,2.26,2.59,4.39,3.88,6.58-.62,1.05-1.22,2.08-1.83,3.11-.75,1.26-1.56,2.5-2.24,3.8-.86,1.64-.6,3.26,.78,4.49,1.25,1.11,2.57,2.16,3.94,3.12,1.64,1.15,3.07,1.09,4.68-.08,.68-.49,1.3-1.05,1.94-1.59,1.5-1.24,2.99-2.49,4.44-3.69,1.94,.62,3.7,1.27,5.51,1.74,1.81,.47,3.66,.75,5.48,1.11,.27,.72,.51,1.31,.73,1.91,.68,1.9,1.28,3.81,2.03,5.68,.73,1.85,1.95,2.57,3.95,2.36,1.78-.19,3.56-.48,5.32-.82,1.55-.3,2.45-1.32,2.69-2.81,.13-.8,.07-1.64,.13-2.45,.15-2.07-.2-4.18,.19-6.08,2.83-1.66,5.47-3.21,8.22-4.82,.87,.4,1.81,.82,2.74,1.25,1.53,.72,3.02,1.51,4.57,2.18,2.18,.95,3.54,.65,5-1.09,.95-1.13,1.84-2.32,2.67-3.53,1.22-1.77,1.11-3.36-.41-4.96-1.4-1.48-2.91-2.86-4.35-4.31-.51-.51-.95-1.1-1.27-1.47,.78-3.07,1.49-5.89,2.3-9.07,1.1-.37,2.25-.77,3.41-1.15,1.34-.43,2.71-.81,4.03-1.28,2.13-.76,2.99-2.09,2.73-4.21-.19-1.54-.43-3.07-.76-4.59-.39-1.84-1.61-2.82-3.53-2.98-.16-.01-.33,0-.49,0-.12,0-.24,0-.36,0-2.45-.04-4.9-.09-7.44-.13-1.26-2.12-2.52-4.23-3.8-6.38,.32-.6,.59-1.17,.91-1.72,.84-1.43,1.64-2.88,2.56-4.26,1.79-2.66,1.38-4.64-1.12-6.37-.69-.48-1.31-1.04-1.97-1.56-2.78-2.16-3.97-2.16-6.67,.07-1.79,1.48-3.56,2.98-5.45,4.57-3.53-1.65-7.27-2.52-11.17-3.05-.35-.94-.68-1.78-.98-2.64-.58-1.64-1.13-3.28-1.71-4.92-.6-1.69-1.87-2.58-3.6-2.58-.1,0-.2,0-.3,0"/>
    </clipPath>
    <linearGradient id="linear-gradient-2" x1="-295.33" y1="395.28" x2="-294.33" y2="395.28" gradientTransform="translate(24986.58 33336.11) scale(84.2 -84.2)" xlink:href="#linear-gradient"/>
    <clipPath id="clippath-2">
      <path class="cls-1" d="M137.92,155.09c-13.23-.86-23.24-11.9-22.35-24.66,.89-12.77,12.33-22.42,25.56-21.56,13.23,.86,23.24,11.9,22.35,24.66-.85,12.24-11.4,21.62-23.93,21.62-.54,0-1.08-.02-1.63-.05m1.81-63.1c-1.83,.06-3.15,.98-3.58,2.82-.23,.96-.41,1.93-.73,2.86-.56,1.59-.5,3.36-1.31,4.63-3.14,1.03-6.02,1.98-9.01,2.97-.51-.38-1.11-.79-1.68-1.24-1.44-1.13-2.84-2.31-4.32-3.39-1.81-1.32-3.32-1.3-5.05,.04-1.16,.89-2.28,1.84-3.35,2.83-1.64,1.52-1.85,2.86-.7,4.81,.87,1.48,1.86,2.89,2.75,4.36,.46,.75,1.18,1.4,1.17,2.09-1.48,2.87-2.83,5.5-4.22,8.18-.45,.06-.91,.12-1.36,.17-2.21,.22-4.43,.39-6.64,.67-1.92,.24-3.1,1.31-3.32,3.08-.21,1.69-.33,3.39-.35,5.09-.02,1.6,.88,2.7,2.41,3.27,.6,.22,1.26,.28,1.88,.47,2.19,.66,4.55,.78,6.53,1.72,.77,2.45,1.49,4.74,2.24,7.11-.83,.88-1.64,1.74-2.45,2.59-1,1.06-2.05,2.07-3,3.17-1.19,1.39-1.31,3-.27,4.46,.95,1.32,1.98,2.6,3.08,3.81,1.31,1.45,2.7,1.69,4.5,.91,.76-.33,1.48-.74,2.22-1.12,1.71-.88,3.42-1.76,5.08-2.61,1.72,1,3.26,1.99,4.89,2.82,1.63,.83,3.34,1.48,5,2.21,.1,.74,.2,1.36,.27,1.98,.22,1.96,.37,3.92,.66,5.87,.29,1.92,1.29,2.87,3.25,3.08,1.75,.19,3.52,.28,5.28,.32,1.56,.04,2.65-.76,3.21-2.13,.3-.75,.43-1.55,.67-2.32,.61-1.96,.74-4.04,1.55-5.79,3.08-1,5.96-1.93,8.96-2.9,.75,.56,1.55,1.16,2.34,1.78,1.3,1.01,2.56,2.08,3.89,3.04,1.87,1.36,3.24,1.37,5.04,0,1.17-.89,2.28-1.84,3.36-2.82,1.57-1.44,1.82-2.99,.72-4.84-1.01-1.71-2.15-3.35-3.2-5.04-.37-.6-.66-1.25-.89-1.67,1.44-2.78,2.75-5.33,4.24-8.21,1.13-.13,2.33-.27,3.52-.38,1.38-.14,2.78-.21,4.15-.39,2.21-.28,3.34-1.37,3.56-3.46,.16-1.51,.27-3.03,.31-4.56,.04-1.84-.91-3.03-2.72-3.59-.26-.08-.54-.11-.81-.17-2.34-.55-4.67-1.11-7.1-1.68-.73-2.3-1.46-4.58-2.21-6.91,.44-.5,.83-1,1.26-1.45,1.12-1.19,2.21-2.42,3.41-3.54,2.31-2.17,2.37-4.16,.36-6.33-.55-.6-1.02-1.28-1.54-1.91-2.17-2.65-3.31-2.9-6.4-1.33-2.05,1.04-4.08,2.11-6.25,3.23-3.01-2.32-6.4-3.93-10.01-5.26-.12-.97-.25-1.85-.35-2.73-.18-1.69-.34-3.38-.53-5.07-.21-1.84-1.34-2.99-3.16-3.27-1.46-.23-2.95-.35-4.44-.35-.28,0-.55,0-.83,.01"/>
    </clipPath>
    <linearGradient id="linear-gradient-3" x1="-295.37" y1="395.32" x2="-294.37" y2="395.32" gradientTransform="translate(24616.74 32947.38) scale(83.01 -83.01)" xlink:href="#linear-gradient"/>
  </defs>
  <g class="cls-3">
    <rect class="cls-2" width="118.3" height="114.12"/>
  </g>
  <g class="cls-4">
    <rect class="cls-7" x="121.21" y="14.33" width="84.58" height="81.38"/>
  </g>
  <g class="cls-5">
    <rect class="cls-6" x="98" y="91.98" width="83.07" height="80.09"/>
  </g>
</svg>