<?xml version="1.0" encoding="UTF-8"?>
<svg id="Layer_1" data-name="Layer 1" xmlns="http://www.w3.org/2000/svg" viewBox="0 0 63.26 63.18">
  <defs>
    <style>
      .cls-1 {
        fill: #00c1f3;
      }

      .cls-2 {
        fill: #fff;
      }

      .cls-3 {
        fill: #ffe24c;
      }

      .cls-4 {
        fill: #26a9e0;
      }
    </style>
  </defs>
  <path class="cls-1" d="M31.64,0C14.17-.06,.08,13.64,0,31.49c-.07,17.4,13.54,31.48,31.46,31.7,17.49,.2,31.38-13.72,31.8-31.08C63.08,14,49.38,.06,31.64,0m-1.29,7.19h2.43v4.11h-2.43V7.19ZM15.44,28.68c-1.21,0-2.39,.08-3.55-.02-1.04-.09-.56-1-.63-1.57-.08-.58,.08-1.06,.85-1.04,1.06,.03,2.12,0,3.34,0v2.62Zm2.88-16.39c.85,.9,1.73,1.85,2.72,2.92-.55,.46-1.2,.99-1.85,1.53-.79-.83-1.7-1.8-2.76-2.92,.49-.4,1.12-.91,1.89-1.53m-.2,30.2c-.5-.53-1.06-1.11-1.63-1.71,.93-.87,1.91-1.79,3.03-2.84,.4,.49,.91,1.11,1.48,1.81-.93,.89-1.88,1.79-2.88,2.75m19.73,6.82c0,.57,.01,1.14-.02,1.7-.15,2.89-2.24,5.31-5,5.85-2.86,.57-5.95-.93-7.01-3.62-.48-1.22-.53-2.62-.77-3.93,.11-.02,.21-.05,.32-.07-.09-5.01-1.8-9.51-4.52-13.65-1.4-2.13-2.53-4.31-2.94-6.87-1.14-7.08,3.81-14.17,10.89-15.53,8.55-1.64,16.49,4.77,16.6,13.47,.04,3.05-.93,5.83-2.71,8.33-2.52,3.56-4.19,7.48-4.74,11.82-.1,.82-.1,1.66-.09,2.5m7.11-6.81c-.89-.96-1.77-1.9-2.72-2.94,.47-.46,1.03-1.02,1.58-1.56,.97,.95,1.9,1.85,2.87,2.79-.59,.58-1.13,1.12-1.73,1.71m-1.35-25.62c-.46-.48-1.01-1.05-1.53-1.6,1.03-1.02,1.97-1.96,3-2.98,.49,.52,1.04,1.09,1.61,1.7-1,.94-1.98,1.85-3.08,2.88m8.09,11.71h-3.93v-2.35h3.93v2.35Z"/>
  <path class="cls-3" d="M28.79,13.19c-7.08,1.36-12.02,8.45-10.89,15.53,.41,2.56,1.54,4.75,2.94,6.87,2.72,4.14,4.43,8.64,4.52,13.65-.11,.02-.22,.05-.32,.07h12.8c0-.84,0-1.67,.09-2.5,.55-4.34,2.22-8.26,4.74-11.82,1.78-2.5,2.75-5.28,2.71-8.33-.11-8.7-8.05-15.11-16.6-13.47m8.7,19.38c-.56,4.59-1.17,9.17-1.65,13.76-.14,1.35-.99,1.04-1.75,1.04-1.07,0-.74-.8-.67-1.35,.63-5.41,1.27-10.81,1.96-16.21,.13-.99-.18-1.23-1.09-1.22-1.86,.04-3.71,0-5.57-.04-.89-.02-1.12,.3-1.01,1.19,.7,5.52,1.36,11.05,2.02,16.58,.03,.28,0,.57,0,.91-2.12,.33-2.15,.33-2.38-1.55-.78-6.26-1.53-12.53-2.28-18.79-.02-.15,.02-.32,.04-.6h13.11c-.24,2.13-.47,4.21-.72,6.28"/>
  <path class="cls-2" d="M37.83,51c-.15,2.89-2.24,5.31-5,5.85-2.86,.57-5.95-.93-7.01-3.62-.48-1.22-.53-2.62-.77-3.93h12.8c0,.57,.01,1.14-.02,1.7"/>
  <path class="cls-2" d="M18.31,12.28c.84,.91,1.73,1.85,2.72,2.92-.55,.46-1.2,1-1.85,1.53-.79-.83-1.7-1.8-2.76-2.92,.5-.4,1.12-.91,1.89-1.53"/>
  <path class="cls-2" d="M43.61,16.88c-.46-.48-1.01-1.05-1.53-1.6,1.03-1.02,1.97-1.96,3-2.98,.49,.52,1.04,1.09,1.61,1.7-1,.94-1.98,1.85-3.08,2.89"/>
  <path class="cls-2" d="M21,39.74c-.93,.89-1.88,1.79-2.88,2.74-.51-.53-1.06-1.11-1.63-1.71,.93-.87,1.9-1.79,3.03-2.84,.4,.49,.91,1.11,1.48,1.81"/>
  <path class="cls-2" d="M46.68,40.79c-.59,.58-1.13,1.12-1.73,1.71-.89-.96-1.77-1.91-2.72-2.94,.47-.46,1.03-1.01,1.58-1.56,.97,.95,1.9,1.85,2.87,2.79"/>
  <rect class="cls-2" x="30.36" y="7.19" width="2.43" height="4.11"/>
  <path class="cls-2" d="M15.44,26.05v2.62c-1.21,0-2.39,.08-3.56-.02-1.04-.09-.56-1-.63-1.57-.07-.58,.08-1.06,.85-1.03,1.06,.03,2.12,0,3.34,0"/>
  <rect class="cls-2" x="47.76" y="26.23" width="3.93" height="2.35"/>
  <path class="cls-4" d="M29.72,47.22c-2.12,.33-2.15,.33-2.39-1.55-.77-6.26-1.52-12.53-2.28-18.79-.02-.15,.02-.32,.04-.6h13.11c-.24,2.13-.47,4.21-.72,6.28-.55,4.59-1.17,9.16-1.65,13.76-.14,1.35-.98,1.04-1.75,1.04-1.07,0-.74-.8-.67-1.35,.63-5.41,1.27-10.81,1.96-16.21,.13-.99-.18-1.23-1.09-1.22-1.86,.03-3.71,0-5.57-.04-.89-.02-1.12,.3-1.01,1.19,.71,5.52,1.36,11.05,2.02,16.58,.03,.28,0,.57,0,.91"/>
</svg>