<?xml version="1.0" encoding="UTF-8"?>
<svg id="Layer_1" data-name="Layer 1" xmlns="http://www.w3.org/2000/svg" xmlns:xlink="http://www.w3.org/1999/xlink" viewBox="0 0 792 612">
  <defs>
    <style>
      .cls-1 {
        fill: none;
      }

      .cls-2 {
        fill: url(#linear-gradient);
      }

      .cls-3 {
        clip-path: url(#clippath);
      }

      .cls-4 {
        fill: #f7b58e;
      }

      .cls-5 {
        fill: #f39f85;
      }

      .cls-6 {
        fill: #f9b646;
      }

      .cls-7 {
        fill: #053c5e;
      }

      .cls-8 {
        fill: #01888b;
      }

      .cls-9 {
        fill: #00666b;
      }

      .cls-10 {
        fill: #f6a505;
      }

      .cls-11 {
        fill: #fff;
      }

      .cls-12 {
        fill: #ffda71;
      }

      .cls-13 {
        fill: #ffd147;
      }

      .cls-14 {
        fill: #63c0c4;
      }

      .cls-15 {
        fill: #afd8c8;
      }

      .cls-16 {
        fill: #afd8c7;
      }

      .cls-17 {
        fill: #231f20;
      }

      .cls-18 {
        fill: #212b53;
      }

      .cls-19 {
        clip-path: url(#clippath-4);
      }

      .cls-20 {
        clip-path: url(#clippath-3);
      }

      .cls-21 {
        clip-path: url(#clippath-2);
      }

      .cls-22 {
        clip-path: url(#clippath-7);
      }

      .cls-23 {
        clip-path: url(#clippath-8);
      }

      .cls-24 {
        clip-path: url(#clippath-6);
      }

      .cls-25 {
        clip-path: url(#clippath-5);
      }

      .cls-26 {
        clip-path: url(#clippath-9);
      }

      .cls-27 {
        clip-path: url(#clippath-14);
      }

      .cls-28 {
        clip-path: url(#clippath-13);
      }

      .cls-29 {
        clip-path: url(#clippath-12);
      }

      .cls-30 {
        clip-path: url(#clippath-10);
      }

      .cls-31 {
        clip-path: url(#clippath-15);
      }

      .cls-32 {
        clip-path: url(#clippath-16);
      }

      .cls-33 {
        clip-path: url(#clippath-11);
      }

      .cls-34 {
        fill: url(#linear-gradient-3);
      }

      .cls-35 {
        fill: url(#linear-gradient-4);
      }

      .cls-36 {
        fill: url(#linear-gradient-2);
      }

      .cls-37 {
        fill: url(#linear-gradient-6);
      }

      .cls-38 {
        fill: url(#linear-gradient-7);
      }

      .cls-39 {
        fill: url(#linear-gradient-5);
      }

      .cls-40 {
        opacity: .84;
      }
    </style>
    <clipPath id="clippath">
      <rect class="cls-1" width="792" height="612"/>
    </clipPath>
    <clipPath id="clippath-2">
      <rect class="cls-1" width="792" height="612"/>
    </clipPath>
    <clipPath id="clippath-3">
      <rect class="cls-1" x="326.73" y="294.98" width="305.6" height="174.48"/>
    </clipPath>
    <clipPath id="clippath-4">
      <path class="cls-1" d="M554.09,352.32c-6.31,1.3-11.62,5.53-14.53,11.28,0,0-9.29,23.52-13.59,26.78-4.3,3.26-32.77,13.06-32.77,13.06v6.28s32.2-.55,40.23-6.12c8.03-5.57,8.89-11.61,8.89-11.61v26.73h33.22l-.81-41.45,1.15,58.02s4.01,.29,7.17,0c10.71-24.61,6.04-52.69,3.25-64.53-1.77-7.52-6.78-13.99-13.85-17.11-2.87-1.26-6.28-2.11-10.28-2.11-3.11,0-5.78,.29-8.07,.77"/>
    </clipPath>
    <linearGradient id="linear-gradient" x1="0" y1="611.98" x2="1" y2="611.98" gradientTransform="translate(75787.5 342.69) rotate(90) scale(122.95)" gradientUnits="userSpaceOnUse">
      <stop offset="0" stop-color="#dfefea"/>
      <stop offset="1" stop-color="#bfe3ee"/>
    </linearGradient>
    <clipPath id="clippath-5">
      <rect class="cls-1" width="792" height="612"/>
    </clipPath>
    <clipPath id="clippath-6">
      <path class="cls-1" d="M435.8,268.24c0,11.55,6.26,21.84,16.03,28.5l-14.39,29.12,40.62-21.27c23.34,0,42.25-16.28,42.25-36.35s-18.92-36.36-42.25-36.36-42.25,16.28-42.25,36.36"/>
    </clipPath>
    <linearGradient id="linear-gradient-2" x1="0" y1="612" x2="1" y2="612" gradientTransform="translate(435.8 51997.66) scale(84.51 -84.51)" gradientUnits="userSpaceOnUse">
      <stop offset="0" stop-color="#00b8c7"/>
      <stop offset=".19" stop-color="#00b8c7"/>
      <stop offset=".32" stop-color="#00a7af"/>
      <stop offset=".6" stop-color="#007c75"/>
      <stop offset=".87" stop-color="#004f37"/>
      <stop offset="1" stop-color="#004f37"/>
    </linearGradient>
    <clipPath id="clippath-7">
      <rect class="cls-1" width="792" height="612"/>
    </clipPath>
    <clipPath id="clippath-8">
      <path class="cls-1" d="M483.31,302.51c0,14.31,13.48,25.91,30.11,25.91l28.95,15.15-10.25-20.75c6.96-4.75,11.42-12.08,11.42-20.31,0-14.31-13.48-25.91-30.11-25.91s-30.11,11.6-30.11,25.91"/>
    </clipPath>
    <linearGradient id="linear-gradient-3" x1="0" y1="612" x2="1" y2="612" gradientTransform="translate(483.31 37168.65) scale(60.23 -60.23)" gradientUnits="userSpaceOnUse">
      <stop offset="0" stop-color="#00b8c7"/>
      <stop offset=".19" stop-color="#00b8c7"/>
      <stop offset=".32" stop-color="#00a7af"/>
      <stop offset=".6" stop-color="#007c75"/>
      <stop offset=".87" stop-color="#004f37"/>
      <stop offset="1" stop-color="#004f37"/>
    </linearGradient>
    <clipPath id="clippath-9">
      <rect class="cls-1" width="792" height="612"/>
    </clipPath>
    <clipPath id="clippath-10">
      <polygon class="cls-1" points="667.55 405.39 694.13 407.88 696.13 401.74 667.55 405.39"/>
    </clipPath>
    <linearGradient id="linear-gradient-4" x1="0" y1="612" x2="1" y2="612" gradientTransform="translate(667.55 17892.41) scale(28.57 -28.57)" gradientUnits="userSpaceOnUse">
      <stop offset="0" stop-color="#f1f8f7"/>
      <stop offset="0" stop-color="#f1f8f7"/>
      <stop offset="1" stop-color="#bfe3ee"/>
    </linearGradient>
    <clipPath id="clippath-11">
      <polygon class="cls-1" points="687.16 421.51 690.6 412.65 667.55 405.39 687.16 421.51"/>
    </clipPath>
    <linearGradient id="linear-gradient-5" x1="0" y1="612" x2="1" y2="612" gradientTransform="translate(667.55 14515.98) scale(23.04 -23.04)" gradientUnits="userSpaceOnUse">
      <stop offset="0" stop-color="#f1f8f7"/>
      <stop offset="0" stop-color="#f1f8f7"/>
      <stop offset="1" stop-color="#bfe3ee"/>
    </linearGradient>
    <clipPath id="clippath-12">
      <rect class="cls-1" width="792" height="612"/>
    </clipPath>
    <clipPath id="clippath-13">
      <polygon class="cls-1" points="329.45 235.86 364.78 246.99 346.15 236.71 336.64 234.8 329.45 235.86"/>
    </clipPath>
    <linearGradient id="linear-gradient-6" x1="0" y1="612" x2="1" y2="612" gradientTransform="translate(329.45 21863.26) scale(35.33 -35.33)" gradientUnits="userSpaceOnUse">
      <stop offset="0" stop-color="#f1f8f7"/>
      <stop offset="0" stop-color="#f1f8f7"/>
      <stop offset="1" stop-color="#bfe3ee"/>
    </linearGradient>
    <clipPath id="clippath-14">
      <rect class="cls-1" width="792" height="612"/>
    </clipPath>
    <clipPath id="clippath-15">
      <polygon class="cls-1" points="322.23 240.83 332.41 245.98 364.55 246.93 327.21 236.79 322.23 240.83"/>
    </clipPath>
    <linearGradient id="linear-gradient-7" x1="0" y1="612" x2="1" y2="612" gradientTransform="translate(322.23 26141.45) scale(42.32 -42.32)" gradientUnits="userSpaceOnUse">
      <stop offset="0" stop-color="#f1f8f7"/>
      <stop offset="0" stop-color="#f1f8f7"/>
      <stop offset="1" stop-color="#bfe3ee"/>
    </linearGradient>
    <clipPath id="clippath-16">
      <rect class="cls-1" width="792" height="612"/>
    </clipPath>
  </defs>
  <g class="cls-3">
    <g class="cls-21">
      <text/>
      <path class="cls-9" d="M596.46,341.53s33.64-68.83,87.5-71.04c33.95,55.23-21.89,102.46-21.89,102.46l-63.85,20.3-1.77-51.71Z"/>
      <path class="cls-8" d="M630.04,296.32l12.64,31.53,40.01-57.29c.42-.02,.85-.06,1.27-.08,.13,.22,.25,.43,.38,.65l-21.43,30.68,31.36-3.53c.04,.3,.07,.59,.11,.89l.09,.79-32.85,3.7-35.71,51.13,55.24-4.45c-.39,.6-.78,1.2-1.16,1.79l-55.33,4.45-25.36,36.31-1.08,.34-.06-1.66,43.35-62.07-12.8-31.93c.43-.42,.87-.84,1.31-1.26"/>
      <path class="cls-13" d="M611.86,374.8s56.16-30.58,88.95-2.86c-12.86,86.75-124.11,76.52-124.11,76.52l35.15-73.67Z"/>
      <path class="cls-11" d="M700.81,371.94c-.05,.33-.11,.66-.16,.99l-79.02,35.44,41.92,21.56c-.56,.35-1.12,.69-1.68,1.03l-42.21-21.71-30.86,13.84,1.12-2.35,60.09-26.95,12.93-33.43c.61-.02,1.22-.04,1.83-.04l-12.56,32.49,47.87-21.47c.24,.2,.49,.39,.73,.59h0Z"/>
      <path class="cls-13" d="M370.82,368.59s-51.99-65.9-110.18-55.77c-23.54,67.01,47.2,104.63,47.2,104.63l73.07,6.93-10.1-55.78Z"/>
      <path class="cls-11" d="M324.38,327.97l-6.22,36.7-56.13-52.06c-.46,.07-.92,.13-1.38,.21-.09,.26-.17,.52-.26,.79l30.06,27.88-34.4,3.49c.02,.33,.06,.65,.09,.98l.09,.86,36.03-3.65,50.1,46.47-60.18,8.05c.55,.56,1.11,1.11,1.66,1.64l60.28-8.06,35.58,33,1.24,.12-.33-1.79-60.82-56.41,6.3-37.15c-.56-.35-1.13-.7-1.7-1.05"/>
      <path class="cls-9" d="M362.06,407.78s-67.23-19.72-95.91,17.58c33.89,89.91,150.64,53.15,150.64,53.15l-54.73-70.73Z"/>
      <path class="cls-8" d="M266.15,425.36c.13,.35,.27,.69,.4,1.03l92.83,19.62-39.89,32.81c.68,.25,1.36,.48,2.04,.71l40.16-33.03,36.26,7.66-1.75-2.26-70.59-14.92-21.6-32.79c-.66,.12-1.31,.24-1.96,.38l20.99,31.87-56.24-11.89c-.22,.27-.44,.53-.65,.81h0Z"/>
      <path class="cls-11" d="M518.22,528.85c-2.58-6.84-3.61-25.82-3.61-25.82h-59.11c-2.18,15.53-1.21,16.39-3.27,24.73-2.26,9.14-26.06,11.79-27.86,12.27-.02,.05-.53,.58-.56,.64,3.76,.9,64.59,4.34,121.32-.54-5.52-.27-24.18-4.04-26.9-11.27"/>
      <path class="cls-11" d="M323.48,277.93h313.01c4.27,0,7.74,3.47,7.74,7.74v210.94c0,4.27-3.47,7.74-7.74,7.74H323.48c-4.27,0-7.74-3.47-7.74-7.74v-210.94c0-4.27,3.47-7.74,7.74-7.74Z"/>
      <path class="cls-17" d="M315.86,489.13c-.01,.09-.03,.17-.03,.26v11.1c0,2.14,3.47,3.87,7.74,3.87h312.83c4.28,0,7.74-1.73,7.74-3.87v-11.1c0-.09-.02-.17-.03-.26H315.86Z"/>
      <path class="cls-9" d="M422.96,540.72s-.8,3.04,1.09,3.73c45.92,2.33,86.92,3.26,121.29-.58,.76-.59,1.21-2.9,.24-3.73-64.72,5.35-122.63,.58-122.63,.58"/>
      <path class="cls-9" d="M423.53,539.82s-1.62,1.21,.27,1.9c61,4.25,119.82,1.27,121.54,.1,.76-.59,1.21-1.17,.24-2-64.72,5.35-122.05,0-122.05,0"/>
      <g class="cls-40">
        <g class="cls-20">
          <rect class="cls-8" x="326.73" y="294.98" width="305.6" height="174.48"/>
        </g>
      </g>
      <path class="cls-15" d="M514.17,422.06c-.09,.22-8.26,13.19-3.02,13.19,2.89,0,5.85-12.8,3.02-13.19"/>
      <path class="cls-15" d="M561.61,409.39c0,9.43,8.02,.06,8.02-4.12-.79-.39-1.32-.99-1.58-1.79-.08,0-6.43,6.28-6.43,5.92"/>
      <path class="cls-15" d="M572.96,410.65s0,0,0,0c.03,0,.03,0,0,0"/>
      <path class="cls-15" d="M570.34,415.57c1.46,0-.63-2.82,.59-2.82,0,0,.65,1.7,.55,2.03,.38-1.3,.97-2.62,1.47-4.12-.09-.01-.46-.08-.9-.17-2.16,2.08-4.59,5.08-1.71,5.08"/>
      <path class="cls-15" d="M571.37,409.79c-2.35,0-.55,.45,.69,.7,.24-.23,.47-.45,.7-.65-.43,.01-.9-.05-1.38-.05"/>
      <path class="cls-15" d="M574.37,408.56c-.22,.1-.86,.59-1.62,1.28,.73-.02,1.33-.23,1.62-1.28"/>
      <path class="cls-15" d="M566.05,418.2c2.91,0-6.49-4.13-7.19-1.73,1.92,0,5.45,1.73,7.19,1.73"/>
      <path class="cls-15" d="M571.87,418.63c1.01-.37-2.57-1.73,0,0"/>
      <path class="cls-15" d="M568.88,418.1c0,.72,0,.65,0,0"/>
      <path class="cls-15" d="M570.46,419.03c0,2.12,0-.19,0,0"/>
      <path class="cls-15" d="M567.46,418.07c-.16,.98,.15,0,0,0"/>
      <path class="cls-15" d="M574.32,419.1c2.22-.85,2.18-1.02-.11-.5-2.28,2.73-.31,.5,.11,.5"/>
      <path class="cls-15" d="M581.22,412.25c-.94,1.91-1.66-.42-.78,1.7,1.17,4.25,10.06,4.02,14.07,6.41,0-.32-2.76-4.55-2.94-4.65-5.87-3.52-3.86-2.5-9.04-2.5,.2,0-3.72-5.15-3.72-1.96,0,1.26,1.87,.87,2.41,1"/>
      <path class="cls-15" d="M592.71,450.71c.22-1.28-.59-.23,0,0"/>
      <path class="cls-15" d="M583.42,445.82c.25,.3,.67,.23,.97,0-.39-.23-.44-.3-.97,0"/>
      <path class="cls-15" d="M588.35,420.42c-1.26,.8-.1,6.85-1.94,6.85-2.99,0-4.27-5.17-6.6-6.32,.81,5.24-12.55,5.04-14.62,10.81-.52,1.43,.79,11.8,1.17,12.07,3.68,2.6,5.84-1.66,9.19-1.63,2.67,.03,6.54,2.62,7.12,2.62,.76-.64,1.36-1.42,1.78-2.33,.01,.25-.82,2.73-.53,2.73,.49-.24,.74-.59,.75-1.06,2.39,2.85,4.51,7.36,9.54,2.79,0-5.71,3.32-6.33,2-12.57-3.15-3.78-7.39-8.96-7.85-13.96"/>
      <path class="cls-15" d="M611.99,444.2c.24,1.15,2.38,7.84,1.92,7.84,1.03,0,2.55-4.39,2.39-4.39-1.84,0-3.24-1.5-4.3-3.46"/>
      <path class="cls-15" d="M572.24,404.15c.69,0,1.67,.66,2.42,.66,.34,0,.08-1.18,.22-1.42,.02,.04,.35,.52,.45,.74,.06-.72,.51-3.33-.69-3.35-.11,.39-3.22,3.35-2.4,3.36"/>
      <path class="cls-15" d="M575.34,404.14s0,.08,0,.11c.04,.01,.04-.03,0-.11"/>
      <path class="cls-15" d="M572.96,398.05c-.87-.81-1.56-3.91-1.56-5.34-.31,.45-.57,.37-.78-.25-.13,0-.47,3.09-.48,3.38-.01,.45,1.94,1.72,2.82,2.21"/>
      <path class="cls-15" d="M571.35,385.55c-1.1,.96-1.29,1.93-.56,2.93,.83-.86,1.02-1.84,.56-2.93"/>
      <path class="cls-15" d="M559.22,412.28c-.91-2.22,.71,2.41,0,0"/>
      <path class="cls-15" d="M553.91,411.86s0,.02,0,0"/>
      <path class="cls-15" d="M553.9,411.71c0,.07,.01,.12,.01,.15,0-.02,0-.07-.01-.15"/>
      <path class="cls-15" d="M553.88,411.54c0,.07,.01,.13,.02,.18,0-.05-.01-.12-.02-.18"/>
      <path class="cls-15" d="M553.85,411.21c0,.09,.02,.21,.03,.33,0-.09-.02-.2-.03-.33"/>
      <path class="cls-15" d="M553.85,411.21s0-.07,0-.09c0,.04,0,.06,0,.09"/>
      <path class="cls-15" d="M552.76,409.09c.21,.56,1.17,.89,0,0"/>
      <path class="cls-15" d="M583.5,373.69c-.17,0-2.28,.96-3.55,1.74,1.26,.17,3.26,1.69,2.89,1.58-.59,1.38,8.48-8.64,4.22-8.64-.05,.19,0,.3,.14,.33-1.17,1.17-2.76,4.98-3.69,4.98"/>
      <path class="cls-15" d="M586.63,366.27c-.59,2.5,1.7,1.62,4.02-.23-.38-.23-.44-.51-.17-.83-1.14,.27-2.05-.26-2.75-1.59-.52,.93-.67,2.44-1.11,2.66"/>
      <path class="cls-15" d="M590.63,365.28c1.15-2.04-.58,1.01,0,0"/>
      <path class="cls-15" d="M591.18,364.75s.15,.08,0,0"/>
      <path class="cls-15" d="M588.77,353.97c-1.3-5.07-.75,8.88-.89,8.88,1.05,0,.39-1.31,1.3-.43-1.12-2.84,.52-4.48-.42-8.45"/>
      <path class="cls-15" d="M520.94,328.54s-.03-.07-.04-.11c.04,.06,.08,.09,0-.01-3.93-9.76,9.12-6.24,9.12-11.25,0-1.49-13.15,4.4-13.37,9.97,1.35,.96,2.07,1.55,4.3,1.4"/>
      <path class="cls-15" d="M487.23,332.13c-.35,.16-.1,.17,0,0"/>
      <path class="cls-15" d="M486.04,351.48s-.04-.02-.06-.05c.01,.03,.03,.05,.06,.05"/>
      <path class="cls-15" d="M483.82,348.32s0,0,0,.01c0-.01,.01-.02,0-.01"/>
      <path class="cls-15" d="M493.77,373.69c-.06-.11-.25-.38-.52-.75-.11,.19,0,.44,.52,.75"/>
      <path class="cls-15" d="M514.2,371.09c-.06,0-.11,0-.16,0,.05,.09,.1,.1,.16,0"/>
      <path class="cls-15" d="M553.21,395.48s0,0,0,0c0,0,0,0,0,.01,0,0,0,0,0-.01"/>
      <path class="cls-15" d="M619.9,332.3c-4.62-3.23-8.35-1.05-9.68-1.07-4.94-.08-10.72-4.49-15.29-4.92-7.09-.67-8.55,.71-15.26-.17,2.7,.35-18.8-6.3-19.22-2.88,.2-1.84,5.83-2.25,5.09-4.67-3.29-10.78-28.22,9.84-30.9,5.73,.03-.2-1.81,8.21-.66,8.21-2.36,0-.22-9.03-2.31-8.21-2.35,.92-5.48,7.24-2.14,7.83-8.01-1.42-8.79,2.31-17.42,2.31-.84,0-.73-3.06-1.09-2.81-2.72,1.86-2.63,5.69-6.4,7.13-1.2-.71-1.84-1.77-1.94-3.16,.16,0,6.22,1.24,5.38-1.46-1.46-4.71-9.84-2.23-8.77-5.65-2.2-1.35-2.15,.76-4.05,.53,.61-2.5-6.52,2.81-7.21,1.83-.13,.15-.86,.67-.89,.86,.14,.18,.13,.31,.08,.39,.21-.09,.63-.24,1.42-.43-.9,4.56-7.55,7.14-8.29,10.14-.48,1.93-.02,9.64,3.55,3.49,.34,.58,1.66,5.56,2.08,6.1-.3-1.01,9.71-17.14,9.71-14.08,0,2.67-4.18,2.13-3.22,5.62,1.06,3.82,5.21-.79,6.05,1.96-1.91,1.53-16.78,15.21-14.7,3.4-.32,.51-11.65,14.57-11.65,12.12,0,4.18,1.57,1.99,.39,5.82,.16-.53-8.72,5.1-2.3,6.98,7.16,2.1,3.5-5.91,8.71-7.05,5.78-1.26,7.51,6.12,9.16,6.12,2.09,0-1.11-2.86,1.94-2.16,.23-2-4.77-3.28-4.77-6.08,0-1.42,6.09,6.29,7.97,8.86,.24-.42,1.52-.57,1.6-.55-.61-.74-1.21-1.44-1.49-2.36,0-.97,3.09-.2,4.51-.9-.5,.32-.9,.78-1.16,1.46-1.54,4.07,5.01,4.01,7.3,2.96,.11,1.68-.66,4.81-1.29,6.25-2.97-7-18.8,6.69-18.08-6.49-3.67,.78-10.81,.29-13.62,2.26-4.93,3.46-10.44,17.18-8.35,22.77,2.84,7.61,7.91,5.08,12.4,7.15,6.97,3.2,7.92,.71,10.17,10.47,2.66,11.56,1.15,41.9,16.33,20.71,2.19-3.06,4.74-10.33,5.91-14.89,.9-3.54-.78-5.57,.77-9.68,1.39-3.69,9.68-8.07,7.55-13.16-3.26,.98-5.68,.02-7.58-1.98,.36-.45,.73-.93,1.13-1.43,.92,1.34,1.68,2.24,2.06,2.32,6.27,1.32,13.14-8.6,8.55-13.14-1.88,1.69-2.97,2.15-3.62,1.94,1.06-1.35,2.16-2.75,3.29-4.18,3.97,1.99,8.75,4.84,11.29,5.64-.18,.48-.53,.69-1.05,.63,3.1,3.74,.79,.2,2.94-.03,0,1.8,1.8,14.1,3.94,13.8,1.49,0,3.81-9.48,6.09-11.02,8.36-5.65,3.16,3.71,7.7,3.71,4.01,0,1.97,8.25,3.97,11.9-1.15-.91-2.43-1.66-3.72-2.26,.93,1.53,8.24,10.69,8.24,10.41,0-2.59-1.16-4.84-2.88-6.66,.37,.14,.79,.21,1.27,.21,.15-.15,.34-.21,.56-.16-.16-.42-3.38-6.5-3.97-9.59-.14,.36-.23,.64-.33,.93,.1-.29,.19-.57,.33-.93-.21-1.07-.1-1.78,.56-1.78,.51,0,6.16,5.21,4.66,3.52,0-9.15,2.36-7.06,6.02-12.45,2.41-3.54,4.85-3.75,6.1-9.26,.96-4.24-2.91-1.29,1.05-6.05-.87-1.43-3.88,1.37-3.88-1.5,0,.28,2.72-2.46,2.83-2.46,.76,.54,.76,1.2,0,1.99,3.81,0,3.99,.78,3.99,4.96,2.53-7.25,9.1-12.13,11.58-21.92,.75-2.95-5.54,1.02-2.88-3.67,3.28-5.8,6.34-3.06,10.68-4.82,1.47-.6,10.55-4.07,10.64-3.81,1.11,3.28-12.23,8.17-5.58,14.45,1.2-2.15,3.64-8.95,5.23-10.1,2.13-1.53,11.29-2.42,12.49-5.43,2.31-5.81,1.67-2.2,8.22-4.81-1.75-1.51-3.69-2.71-5.83-3.59m-101.32,31.45c-1.21,1.15-4.02-.85-2.78,1.86,.47,.99,2.69,3,2.69,3.59-.01,.22-.23,2.47-.33,4.13-.06,.07-.11,.13-.16,.2-2.54,.72-3.3-.72-4.03-2.45,.02,0,.04,0,.07,0-.67-1.17-.72-16.76,4.54-7.34m-20.48,5.25c.08-.06,.16-.13,.22-.2-.42-.74-.61-6.35,1.86-6.35,1.69,0,1.66,5.16,4.1,1.46-2.86,0,.52-1.66,1.39-2.07-.21,.95,.27,6.93,2.32,6.53-3.02,1.09-7.48-.62-9.9,.62"/>
      <path class="cls-15" d="M554.03,398.95s-.02,.06-.03,.09c.01-.03,.02-.06,.03-.09"/>
      <path class="cls-15" d="M494.85,372.39s0,0,0,0c0,0,0,0,0,0"/>
      <path class="cls-15" d="M565.05,321.66c-.11,.08-.51,.51,0,0"/>
      <path class="cls-15" d="M558.81,313.09c0-1.98-4.8-2.43-4.8,1,0,1.34,4.8-1.04,4.8-1"/>
      <path class="cls-15" d="M551.09,309.99c-3.82,1.43,1.42,2.77,3.41,.87-.42-.5-2.2-1.25-2.88-1,.89-.54,.2-.99,.86-1.3-2.78-2.48-2-.22-4.58,.66,1,.55,2.07,.81,3.19,.76"/>
      <path class="cls-15" d="M512.25,308.6c1.42,0-.56,1.33,.91,1.33-.11,.09,1.11-.24,1.99-.66-.13,.13-.44,.46,0,0,.46-.22,.82-.46,.84-.67-1.21-.48-8.16,0-3.74,0"/>
      <path class="cls-15" d="M523.9,309.26c-.34-.69,1.11-1.37-.97-1.33,0,.52-1.61,2.9,.97,1.33"/>
      <path class="cls-15" d="M520.85,308.53c.55,0-.23-1.47,.14-2.07-.88,.5-2.43,1.57-2.28,1.47-1.28,1.19,2.06,.6,2.14,.6"/>
      <path class="cls-15" d="M484.65,312.19c1.18,0,1.62,1.95,3.85,1.23-.68,.48-1.41,.87-2.19,1.16,.71,.4,1.48,.6,2.3,.6-.62,.28-1.27,.36-1.94,.23,.41,1.02,1.13,1.71,2.16,2.09,.47-.56,1.95-4.42,2.75-4.42,1.79,1.71-.45,3.51,3.42,1.96-1.15-1.99-7.63-5.84-6.75-2.93-.53-.25-1.45-.65-1.83-.77-1.55-1.52-2,.84-1.77,.84"/>
      <path class="cls-15" d="M491.85,311.54c-.1,.01-.21,.03-.32,.05,.26,.1,.35,.06,.32-.05"/>
      <path class="cls-15" d="M491.85,311.54c3.06-.39,.93,2.27,5.09-1.05-1-2.42-7.65-.86-6.8-.1,.05-.7,1.63,.73,1.71,1.15"/>
      <path class="cls-15" d="M484.9,314.01c-.18-.69-.54-.85-.89-1.35,0-.01,.01-.04,.03-.08-.01,0-.02,.05-.03,.07,0-.01-.01-.02-.02-.03-.41,.31,.38,1.23,.91,1.38"/>
      <path class="cls-15" d="M483.95,312.59s.08,.1,0,0"/>
      <path class="cls-15" d="M470.36,351.61c-1.66,.76-2.52,2.14-2.52,4.19,0,3.31,6.28-4.19,2.52-4.19"/>
      <path class="cls-15" d="M474.24,348.42h0s0,0,0,0"/>
      <path class="cls-15" d="M471.22,349.12c1.33,1.77,1.21,2.62,.93,3.92,0-.04,0-.1,0-.16-.23,.14-.12,.48-.04,.32-.17,.76-.37,1.69-.37,3.04,0,.02,1.06,.53,1.54,.22-.43,.47-1.66,1.88-1.71,1.94,8.55-.89,3.31-4.53,2.66-9.97-.07-.02-1.55-.7-1.84-1.11-.98,.64-1.93,1.63-1.18,1.81"/>
      <path class="cls-15" d="M464.98,337.65c-2.53-2.18-4.59-1.96-7.44-1.96,.09,.37-.1,.44-.55,.2,.07,.5,3.7,1.3,.08,1.3,.84,1,5.75,5.03,7.91,.46"/>
      <path class="cls-15" d="M417.12,391.2c-1.89-.95-6.29-5.48-8.24-1.53,.25,0,.74,.06,1.38,.17,0,.03,0,.06,0,.08,0-.02,0-.05,0-.08,2.42,.41,6.83,1.42,6.86,1.36"/>
      <path class="cls-15" d="M410.25,389.93s0,.02,0,.03c0,0,0-.02,0-.03"/>
      <path class="cls-15" d="M410.25,389.96s0,.03,0,0"/>
      <path class="cls-15" d="M421.89,392.93c-.79-.78-1-.98-.61-.6-3.92-2.35-1.92,.5-4.1,.5,0,.93,3.67,.39,4.72,.1"/>
      <path class="cls-15" d="M419.45,441.17c-.71,6.26-2.82,13.88-2.64,16.95,.02,.25,.59,3.22,1.53,6.24,.46-.15,.95-.23,1.46-.23,.83,0,1.65,0,2.47,0-.11-4.51,2.3-10.23,2.3-11.7,0-1.02,5.27-3.45,5.27-7.54,0,2.18,25.16-26.8,17.98-29.46-5.18-1.74-7.01-2.66-10.79-2.66,2.1,0-8.84-13.66-10.29-12.33-2.13-.37-4.37-1.01-6.35-1.26,0-.47-.85,2.83-.76,2.83-1.26,0,.4-3.16-.18-3.16-2.22,0-3.52,2.96-4.75,4.04-.04,.05-.25-.05-.59-.28,1.58,2.13-2.24,12.62-2.11,13.6,1.5,10.91,8.9,12.15,7.45,24.95"/>
      <path class="cls-15" d="M424.17,366.38s0,0-.01-.01c0,0,0,.01,.01,.01"/>
      <path class="cls-15" d="M413.65,402.28c.17,.13,.32,.24,.46,.34-.12-.16-.27-.28-.46-.34"/>
      <path class="cls-15" d="M407.19,390.01c-3.43,0-7.2,7.13-8.55-1.46-1.02-6.53,3.59-4.73,6.52-6.48,.31-.84,.16-1.19-.44-1.06,5.33-2.23,4.68,5.22,7.18,5.22,.22,0,3.08-12.64,3.66-14.46-.12-.68,.36,1.66,.42,1.66-.1,0,1.63-3.62,2.72-4.09-1.22-1.06,.13-.27,2-.83,.06-.32-.04-.32-.3,0-.89,0,3.25-4.29,4.86-4.29-1.73,.51-2.1,1.22-1.1,2.15,.03-.17,3.34-2.21,3.34-2.25,0-.87-2.22-3.09-2.22-4.15-1.4-.85-2.75-.63-4.05,.66,.66-1.64,2.03-2.06,3.54-2.19,.1,.35,1.86,1.78,2.17,1.13-1.01-.69-1.6-1.03-1.9-1.15,2.24-.15,4.7,.23,5.59-1.76,2.67-5.96-1.63-.88-2.44-2.71,2.13-1.4-.96-6.01-3.52-9.11-.61,.99-1.35,1.87-2.22,2.66-4.22,0-2.66-8.84-8.45-4.16,.3-.24-.76,14.46-1.62,13.64-1.49-1.43-9.68-7.74-9.91-8.13-1.78-2.98,1.3-8.23,.14-9.03,4.66,1.89,2.25-2.69,2-3.29,.72,.14,7.28-.29,6.56-2.81-2.19-7.73-4.07,1.18-4.88,.29-.6-.66,.45-2.97-1.05-2.97-.35,.49-.72,.97-1.11,1.43,0-.88-2.32-5.78-3.61-5.82-2.04-.06-.27,5.85,1.05,5.05-.42,.82-.91,1.59-1.47,2.33,.26-.08-10.49-3.27-10.49-1.56,.37,.56,.86,.61,1.46,.17-.61,.65-1.61,1.99-.74,1.99-5.14,0-7.56-3.8-13.23-4.82-3.8-.68-8.22,1.75-12.65,.63v3.49c-.59-3-2.63-4.46-8.74-5.05-4.69-.46-6.77-.5-11.44,3.91,.24,0,3.95,3.65,3.95,3.67-3.48,1.05,.14-2.86-4.8,.7,1.15,2.78,2.97,1.14,5.36,1.46-5.92,4.16-2.17,10.04,3.94,8.38-1.17,.88-6.29,4.62-7.08,6.12,3.53,1.2,10.06-7.24,11.51-9.28,0,.39-.2,.72-.45,1.02,3.66-1.53,16.24,5.26,16.24,6.76,0,.06,1.75,3.83,3.18,7.01-.68-.52-1.38-.89-1.77-.66,.36,.19,1.54,.97,1.42,1.5,.42,.31,.8,.64,1.13,.89,.55,1.24,.96,2.21,1.06,2.53,1.04,3.4,5.12,25.8,11.07,25.8,.43,0-4.62-8.39-4.05-9.27,8.02,9.58,18.61,22.83,28.36,22.83,.11,0,.21,.02,.3,.04-2.54-1.95-8.65-8.04-6.46-12.28m12.93-26.29s-.07,.1-.1,.15c0,0,0-.01,0-.02,.03-.04,.06-.09,.09-.13m-.1,.15c-.03,.05-.05,.11-.07,.17,.02-.05,.04-.11,.07-.17m-3.48,.88c.16-.18,.29-.33,.34-.38,.22-.2-1.99,2.27-.34,.38m-3.5,1.65c6.55-2.48-1.74,.77,0,0m-.03,1.13s-.37,.24-.49,.3c.01-.01,.03-.02,.05-.03-.03,.02-.05,.03-.08,.05-.02,0,.1-.07,.52-.32m-.55-2.76c0-.54-1.69,.58-2.18,1.34-.35-.92-.55-2.4-1.51-2.4-1.84,0-.85,4.82-1.86,4.82-2.25,0,1.73-5.12-.61-3.49,.56-1.07,1.31-1.62,2.26-1.66-2.92-.23-6.17-.32-3.45-2.49-.25,0-1.58-.44-2.65-.74,3.22-.03,10,1.3,10,4.63m-11.74-4.99v0m-29.71-10.87c.13,.4,.34,.95,.57,1.18-.34-.28-.53-.67-.57-1.18m24.88,32.69s-.05-.05-.08-.07c.03,.02,.05,.04,.08,.07m-4.91-2.38c.84,.26,1.33,.44,1.77,1.34-.44-.9-.93-1.08-1.77-1.34m4.25,2.03c-.08-.01-.17-.02-.26-.03,.09,0,.18,.01,.26,.03m.45,.18s-.04-.02-.06-.04c.02,.01,.04,.02,.06,.04m-.22-.11s-.06-.02-.1-.03c.03,0,.07,.02,.1,.03m.5,.35c.21,.22,.38,.52,.53,.9-.15-.35-.31-.66-.53-.9"/>
      <path class="cls-15" d="M344.27,332.8s0,0,.01-.01c0,0-.01,0-.01,.01"/>
      <path class="cls-15" d="M408.56,363.38c.26,.02,.52,.04,.77,.07-.27-.06-.52-.08-.77-.07"/>
      <path class="cls-15" d="M355.72,346.43c0-.59,.57-1.05,.99-1.57-.62,.26-.99,.76-.99,1.57"/>
      <path class="cls-15" d="M369.18,349.32c.21-1.75-.99,.6,0,0"/>
      <path class="cls-15" d="M377.36,326.98c.64,1.28,2.46,.37,4.06-.83-.02,.2-.04,.42-.04,.66,0,2.62,2.52,.65,4.99,2.33-1.25,.03-2.45,.3-3.61,.83,2.23,4.58,12.03,.23,12.07,.23,.99,0-3.45-7.21-2.86-7.21-1.58,0-2.42,3.28-1.96,3.82-.74-.43-3.93-2.6-6.22-2.74,.22-.23,.35-.38,.35-.4,0-1.59-6.03-2.31-7.16-1.76,.21,2.74-.83,3.14,.36,5.08"/>
      <path class="cls-15" d="M382.5,320.17c0,1.08,9.71,2.54,9.71-.83,0-.19-2.37-1.85-2.97-2.33-.87,.83-.73,2.23-.03,2.23-.12,.32-5.45-1.21-5.06-.99-.23-.02-1.65,1.46-1.65,1.92m2.41-1.2c-.09-.01-.25-.04-.43-.08,.14,.02,.28,.04,.43,.08"/>
      <path class="cls-15" d="M379.08,318.74c1.72,0,4.8-.34,4.8-2.59,0-1.29-7.71,2.59-4.8,2.59"/>
      <path class="cls-15" d="M386.99,314.35c-.81,.68,5.18-1.16,.78-1.16-1.23,0-2.98,1.16-.78,1.16"/>
      <path class="cls-15" d="M387.41,315.25c1.33-.1,1.56-.34,.69-.73-2.93,0-1.52,1.18-.69,.73"/>
      <path class="cls-15" d="M398.84,325.15c0-3.77-3.44-.8-4.08,.07,3.97,4.74,4.11-.06,4.08-.07"/>
      <path class="cls-15" d="M396.09,320.5c.66,.23,1.33,.23,2,0-.15-1.27-.07-4.3-2.64-2.96,.87,.06,1.19,.46,.97,1.2-.16,0-.3,0-.42-.01,.29,.13,.61,.32,.98,.61-.31,.38-.89,.57-.89,1.16"/>
      <path class="cls-15" d="M395.18,318.47c.12,.12,.34,.22,.82,.25-.31-.14-.58-.21-.82-.25"/>
      <path class="cls-15" d="M395.18,318.47c-.33-.34,.19-.9-1.81-.9,.59,.9,1.07,.78,1.81,.9"/>
      <path class="cls-15" d="M400.17,331.83c-.99-2.09-1.82-2.3-2.5-.63-1.27,.37,1.58,1.29,2.5,.63"/>
      <path class="cls-15" d="M401.42,322.33c-2.04,0-.97,2.8-.97,3.99,1.04-.57,6.69-3.99,.97-3.99"/>
      <path class="cls-15" d="M392.54,320.63c1.8-.25,.31-1.59,0,0"/>
      <path class="cls-15" d="M397.2,314.75c0-2.96-4.85-2.06-4.66-2.06-.36,1.73,4.66,1.55,4.66,2.06"/>
      <path class="cls-15" d="M412.74,320.56c-.64-.03-.26-.24,0-.4-.44-.98-11.04-1.35-13.21-2.55,1.33,1.11,5.66,3.63,5.72,3.55,1.26,.19,7.35,1.43,7.49-.6"/>
      <path class="cls-15" d="M399.14,317.17c0,.16,.14,.31,.39,.44-.24-.2-.39-.36-.39-.44"/>
      <path class="cls-15" d="M401.69,320.5c0-2.3-2.36-.55-2.36,.17,.63,.59,2.36,1.56,2.36-.17"/>
      <path class="cls-15" d="M400.53,314.02c0-.51-4.38-2.76-1.67,.5-.29,.12,1.67,1.17,1.67-.5"/>
      <path class="cls-15" d="M403.89,312.19c-.8-.08-1.5,.14-2.11,.66,0,2.54,4.74,.87,6.17-.29-.69,.81-1.51,2.09-1.45,2.02,.73-1.22,2.45,1.54,2.36,1.43-.37,.04-2.91-1.46-2.91-.6,0,.21,.12,2.59-.83,2.59,.52,0,9.02,.92,9.02-.67,0-1.23,1.63-4.32,1.72-5.25,2-1.95,5.1-2.39,6.55-3.12-.11,.3-.17,.62-.17,.96,.58,.55,1.27,.77,2.08,.67,0,3.17-6.02,1.4-6.02,3.65,0,1.98,4.24,1.04,5.13,1.1-.36,1.58-3.78,.11-3.97,1.66,.3,.14,6.21,1.35,6.11,1.23,2.62,3.05,6.91,9.02,9.79,10.14-.16,1.24-1.72-.33-2.44,0,.8,.87,1.8,1.34,3,1.43-1.15,4.3-3.24,15.29,5.47,15.29,.47,0,2.7-8.48,4.8-9.48,1.74-.99,9.42-3.68,12.07-6.22-1.18,.07-2.2-.3-3.05-1.1,.72-.22,.84-.64,.33-1.26,.17,.12,3.33,2.4,3.33,1.26,0-1.77-2.18-2.86-2.78-4.15,.87-.08,1.5,.42,1.89,1.5,1.56,0-.68-2.22-1.06-2.43,5.05-.5,2.17-2.18,2.17-5.71,0-1.2,2.5,.27,2.5-1,0-1.53-1.69-1.48-2.64-1.99,.99-1.99,6.93-7.63,6.93-7.75,0-4.06-9.63,2.66-9.64,2.66,.01-.05,3.16-3.89,1.18-3.89-1.12,.58-2.2,1.21-3.26,1.9,.31-.58,.65-1.14,1.04-1.67-1.87,.1-3.75,.1-5.62,0,1.14,0,8.61,.4,8.87-1.73-5.68-1.62-14.72-3.64-20.17-.5,.97,1.61-2.6,.07,1.03,2.23-1.62-.3-12.76-1.08-16.11,2.06-.05-.23-.2-.49-.46-.8,1.78-.13,3.32-.71,4.63-1.76,0-5.85-22.52,1.4-23.3,1.6,.6,1.43,.14-.28,2.22,.3-4.43,1.61,.45,.03-1.17,1.39,1.1,1.68,6.24,.44,7.63,.2-1.34,2-3.96-.19-2,2.15-.82-.2-3.47-.53-3.4-.63-.8,.17,.83,1.08,1.36,1.63-.1,.01-.24,.12-.41,.28-.32,.36-2.16-2.06-2.54-2.48-.6-.32-3.83-2.09-4.46-2.15,.01,.24,.05,.41,.09,.54-.19,.08-.45,.22-.78,.46,.17,.57,.55,.75,1.14,.53-.06,.07-2.9,1.43-.72,1.43-2.88,0,1.26,1.14,2.89,1.66"/>
      <path class="cls-15" d="M405.72,309.69s.02,.02,.02,.03c.13,.07,.14,.07-.02-.03"/>
      <path class="cls-15" d="M408.3,336.52c.02,.06,.04,.11,.06,.17,.02-.11,0-.17-.06-.17"/>
      <path class="cls-15" d="M411.13,339.12c-.86-.83-2.36-1.47-2.77-2.43-.14,.65-1.65,3.05-1.67,3.42,.91-.38,1.38-.16,1.39,.66,1.57,0,4.25-.58,3.05-1.66"/>
      <path class="cls-15" d="M410.16,341.01c-.36,2.58,.57-.04,0,0"/>
      <path class="cls-15" d="M408.21,323.33s.05,0,.08,0c.07-.18,.02-.15-.08,0"/>
      <path class="cls-15" d="M427.22,335.46c0-1.27-6.96-7.35-7.55-7.58,.67-4.58-12.18-1.85-12.33-1.39-.69-.39,.48-2.61,.87-3.16-5.61,.04-2.08,4.4-3.11,4.88,.13,1.14,5.29,2.23,8.16,2.98-.23,.22-.4,.51-.19,.51,.23,0,.41-.18,.53-.43,.82,.22,1.41,.41,1.53,.56,5.3,6.47-1.22,1.99-1.22,6.35,0-.83,8.33,4.49,9.38,4.49,.88-.99,.29-1.9-1.75-2.73,1.1,.05,1.82,1.17,3,1.33,.59-1.99-2-5.09-2.44-5.39,1.2,0,2.16,1.9,3.33,1.9-.37,0,1.81-2.52,1.81-2.33"/>
      <path class="cls-15" d="M413.76,340.41c.28,.27,.36,.27,.64,0-.33-.2-.36-.43-.64,0"/>
      <path class="cls-15" d="M409.13,336.36c-.03,.23,.19,.5,.55,.53-.19-.3-.19-.73-.55-.53"/>
      <path class="cls-15" d="M404.05,306.87s0,0,0,0c-.03,.01-.02,.01,0,0"/>
      <path class="cls-15" d="M407.33,310.29c.08-.02,.19-.03,.33-.03-.22,0-.32,0-.33,.03"/>
      <path class="cls-15" d="M432.99,330.87c1.36-3.53-.51-.07,0,0"/>
      <path class="cls-15" d="M429.02,361.25c0-.22,3.88,.86,4.66,1.22-.3-.74-1.86-4.9-1.86-5.6,0-.2-2.8,3.1-2.8,4.39"/>
      <path class="cls-15" d="M433.69,362.47c.03,.07,.05,.11,.05,.11,.14,0,.1-.04-.05-.11"/>
      <path class="cls-15" d="M370.65,353.87c.54,.95,.97,2.75,.97,1.07,0-1.08-.52-1.26-.97-1.07"/>
      <path class="cls-15" d="M487.65,372.31c-2.32-.56-2.08,1.37,0,0"/>
      <path class="cls-15" d="M482.96,368.6c1.4-3.38-1.78-.42,0,0"/>
      <path class="cls-15" d="M496.24,375.51c-3.63-1.28-.9,.59,0,0"/>
      <path class="cls-15" d="M502.79,374.92c-3.65,.75-.24,1.43,0,0"/>
      <path class="cls-15" d="M531.89,323.79c-1.53-1.47-1.43,1.41,0,0"/>
      <path class="cls-15" d="M428.41,363.45c-1.75-1.21,0,.43,0,0"/>
      <path class="cls-18" d="M538.23,545.4s-3.33,3.09-10.93,5.03c-1.67,.43-3.48-.14-3.48,2.62h9.22l7.67-1.33v1.33h4.14s1.15-6.78-1.27-7.65h-5.36Z"/>
      <path class="cls-4" d="M538.7,540.54l-.47,4.87c1.51,1.05,3.5,1.11,5.07,.17l.28-.17,1.72-4.87h-6.61Z"/>
      <path class="cls-18" d="M575.1,545.4s-3.33,3.09-10.93,5.03c-1.67,.43-3.48-.14-3.48,2.62h9.22l7.67-1.33v1.33h4.14s1.15-6.78-1.27-7.65h-5.36Z"/>
      <path class="cls-4" d="M575.56,540.54l-.47,4.87c1.51,1.05,3.5,1.11,5.08,.17l.28-.17,1.72-4.87h-6.61Z"/>
      <polygon class="cls-18" points="552.92 418.72 542.31 418.72 538.58 541.7 545.75 541.7 566.82 441.61 552.92 418.72"/>
      <polygon class="cls-7" points="549.48 418.72 574.28 541.7 582.18 541.7 578.94 418.72 549.48 418.72"/>
      <path class="cls-10" d="M570.1,449.13l2.38-.17s-.09-1.68,1.1-2.9c.92-.94,2.4-1.41,4.4-1.41,2.19,0,3.83,.48,4.75,1.4,.9,.9,.87,1.96,.87,2l2.38,.14c.01-.21,.09-2.06-1.48-3.67-1.4-1.43-3.59-2.15-6.52-2.15-2.7,0-4.77,.73-6.16,2.16-1.9,1.96-1.73,4.5-1.72,4.6"/>
      <rect class="cls-18" x="560.28" y="451.9" width="35.51" height="22.85"/>
      <path class="cls-13" d="M576.74,467.3c0,1.39,.66,1.55,1.48,1.55s1.48-.16,1.48-1.55v-4.85c10.23-1.07,16.09-2.88,16.09-2.88v18.02c0,1.61-.62,2.92-1.57,2.92h-32.38c-.95,0-1.57-1.3-1.57-2.92v-17.96c7.41,1.72,7.89,1.76,16.46,2.79v4.88Z"/>
      <path class="cls-10" d="M561.85,447h32.38c.95,0,1.57,1.31,1.57,2.92v8.74c-5.67,1.88-11.17,2.62-16.09,2.74v-1.18c0-1.39-.66-1.55-1.48-1.55s-1.48,.16-1.48,1.55v1.18c-9.69-.25-16.46-2.73-16.46-2.73v-8.74c0-1.61,.62-2.92,1.57-2.92"/>
      <path class="cls-11" d="M576.27,465.21v-1.5c0-.35,.29-.64,.64-.64h2.57c.35,0,.64,.29,.64,.64v1.5c0,.35-.29,.64-.64,.64h-2.57c-.35,0-.64-.29-.64-.64m.64-1.96c-.25,0-.46,.21-.46,.46v1.5c0,.25,.21,.46,.46,.46h2.57c.25,0,.46-.21,.46-.46v-1.5c0-.25-.21-.46-.46-.46h-2.57Z"/>
      <path class="cls-11" d="M578.03,464.28c0,.09,.07,.15,.16,.15s.16-.07,.16-.15v-2.09c0-.09-.07-.16-.16-.16s-.16,.07-.16,.16v2.09Z"/>
      <path class="cls-4" d="M490.39,404.47c-.37,.29-1.72,1.18-5.01,1.45-2.95,.24-9.24-1.04-8.04,1.88,2.83,1.53,5.96,3.65,5.96,3.65,1.8,.76,4.99-.03,6.89-.89l5.51-3.36s.47-3.1,.52-3.24l-1.26-.51c-1.47,.58-3.01,.92-4.56,1.02"/>
      <path class="cls-4" d="M489.38,405.77s-.1,.14-.33,.35c.39,.16,.77,.34,1.14,.52,1.55,.04,3.09,.13,4.63,.19-.1-.89-.23-2.14-.22-2.23l-10.04-2.39s-.81,1.06,1.02,2.2,3.79,1.36,3.79,1.36"/>
      <path class="cls-4" d="M577.27,433.04l-3.34,7.34s.72,4.03,2.19,5.6c.44,.47,1.15,.6,1.75,.35,1.39-.57,4.6-1.96,5.13-2.72,.26-.38,.3-.87,.16-1.31l-.97-3.23-.12-7.53-4.8,1.5Z"/>
      <polygon class="cls-5" points="557.62 344.81 557.51 354.64 566.27 354.17 566.82 338.93 557.62 344.81"/>
      <path class="cls-4" d="M556.16,345.72c-1.22-.03-2.36-.22-2.95-.7-3.53-5.13,.49-18.97,.49-18.97l5.64-2.38,7.17,4.47,.41,9.27c.11,2.48-1.08,4.85-3.2,6.4-2.27,1.27-4.89,1.98-7.56,1.91"/>
      <path class="cls-18" d="M564.52,333.4c-.39-1.56,.67-5.15-.91-4.89-1.16,.19-5.12,.35-6.46,.35-3.18,0-8.85-1.24-8.85-6.08,0-2.42,1.49-3.64,2.97-4.26,1.46-.61,3.11,1.14,4.6,1.66,3.5,1.22,10.73,2.22,12.58,1.83,2.1-.43,4.3,1.71,4.46,2.99,.36,2.81-1.52,7.08-2.91,9.78-.8,1.56-1.88,2.97-3.18,4.15l-2.3-5.53Z"/>
      <path class="cls-4" d="M568.6,333.75c-.71-.63-2.04-.51-2.96,.27-.93,.77-1.11,1.9-.4,2.53,.71,.63,2.03,.51,2.96-.27,.93-.77,1.11-1.9,.4-2.53"/>
    </g>
    <g class="cls-19">
      <rect class="cls-2" x="483.77" y="339.61" width="119.41" height="107.92" transform="translate(-85.66 160.21) rotate(-15.56)"/>
    </g>
    <g class="cls-25">
      <polygon class="cls-14" points="575.07 418.95 574.29 379.01 575.15 378.99 575.94 418.95 575.07 418.95"/>
      <polygon class="cls-6" points="566.43 348.76 566.97 351.99 556.9 351.97 557.56 348.76 566.43 348.76"/>
      <path class="cls-4" d="M435.23,375.05s.31,36.71,9.88,36.27c9.57-.44,15.87-29.42,15.87-29.42l-3.88-1.14-9.29,17.53s1.39-5.71-.96-16.23c-2.36-10.52-11.62-7.02-11.62-7.02"/>
      <path class="cls-9" d="M437.07,371.46l-.44,.66c.11,.07,10.66,7.16,10.66,18.74v47.2h-19.33l.61-36.35c-.26,.21-.53,.41-.8,.6l-.62,36.53h20.93v-47.99c0-12-10.91-19.33-11.02-19.41"/>
      <path class="cls-14" d="M447.09,448.28h-18.68c-1.81,0-3.29-1.48-3.29-3.29v-12.27c0-1.81,1.48-3.29,3.29-3.29h18.68c1.81,0,3.29,1.48,3.29,3.29v12.27c0,1.81-1.48,3.29-3.29,3.29"/>
      <path class="cls-12" d="M450.38,438.47v-5.74c0-1.81-1.48-3.29-3.29-3.29h-18.68c-1.81,0-3.29,1.48-3.29,3.29v5.74h25.25Z"/>
      <path class="cls-10" d="M447.64,448.28h0c-1.58,0-2.86-.67-2.86-2.25v-14.34c0-1.57,1.29-2.25,2.86-2.25s2.86,1.29,2.86,2.25v13.73c0,2.19-1.29,2.86-2.86,2.86"/>
      <path class="cls-7" d="M434.79,441.56h0c-.48,0-.87-.39-.87-.87v-4.38c0-.48,.39-.87,.87-.87s.87,.39,.87,.87v4.38c0,.48-.39,.87-.87,.87"/>
      <path class="cls-4" d="M456.93,381.45l-1.72-6.99s1.3-3.42,2.85-4.56c.47-.34,1.11-.34,1.59-.02,1.12,.73,3.71,2.48,4.05,3.24,.17,.37,.12,.81-.07,1.17l-1.39,2.68-1.27,4.94-4.05-.46Z"/>
      <path class="cls-11" d="M426.58,365.86c6.76,0,8.35,.99,8.35,.99,0,0,8.67,10.75,11.69,17.7,1.13,2.6,1.15,5.57-.04,8.14-5.32,11.47-4.65,33.57-4.65,33.57h-19.75c.88-16.47-16.12-57.27,4.41-60.4"/>
      <path class="cls-18" d="M445.43,469.3l-3.51-43.05h-8.36l-10.12,12.01s-3.71,15.2-.77,31.03h22.76Z"/>
      <polygon class="cls-5" points="435.92 361.22 435.94 374.17 428.16 365.69 429 353.63 435.92 361.22"/>
      <path class="cls-18" d="M437.22,342.28c-5.39,.73-8.07,7.64-8.07,7.64l.06,20.44-9.34-8.08s-.68-9.22,1.63-19.27c2-6.33,10.06-7.99,15.72-4.91,2.75,1.5,4.39,4.45,5.36,7.37,1.3,3.93,1.42,8.15,.55,12.2l-3.2,15-3.99-3.95s-1.02-3.83-.02-7.51c2.05-7.53,4.91-19.42,1.3-18.93"/>
      <path class="cls-4" d="M427.56,350.21c.6-.58,1.73-.47,2.52,.25,.79,.72,.94,1.78,.34,2.36-.6,.58-1.73,.47-2.52-.25-.79-.72-.94-1.78-.34-2.36"/>
      <path class="cls-4" d="M438.17,361.39c1.04-.03,2.01-.2,2.52-.65,3.01-4.79-.42-17.72-.42-17.72l-4.81-2.22-6.11,4.18-.35,8.66c-.09,2.31,.92,4.53,2.73,5.97,1.94,1.19,4.17,1.85,6.44,1.78"/>
      <path class="cls-18" d="M438.23,341.58c1.15,3.86-9.08,8.35-9.08,8.35l-2.57-4.82,4.7-5.76,5.94,.95s.82,.64,1.02,1.29"/>
      <path class="cls-18" d="M438.3,342.39c.21,1.52,2.59,3.37,2.59,3.37l.22-1.82-.54-1.28-1.22-.68s-1.27-1.12-1.05,.41"/>
      <path class="cls-7" d="M433.05,469.3c3.54-17.71,6.38-34.1,6.86-43.05h-17.74s-15.14,6.34-11.76,43.05h22.65Z"/>
      <path class="cls-4" d="M481.98,404.23c.33,.16,1.51,.6,3.98,.2,2.22-.36,6.58-2.56,6.29-.04-1.77,1.73-3.65,4-3.65,4-1.17,.93-3.68,.92-5.25,.6l-4.73-1.6s-.97-2.35-1.04-2.45l.82-.64c1.2,.18,2.4,.15,3.57-.06"/>
      <path class="cls-4" d="M482.98,405.06s.1,.09,.31,.22c-.26,.2-.5,.41-.73,.63-1.13,.33-2.25,.69-3.37,1.03-.11-.72-.27-1.73-.29-1.8l6.9-3.78s.81,.68-.31,1.92c-1.12,1.24-2.51,1.79-2.51,1.79"/>
      <path class="cls-4" d="M420.15,373.21c7.07-7.29,20.56,10.74,25.4,16.06,.9,.99,1.98,1.78,3.18,2.36l32.34,12.58-2.03,3.34-35.66-7.64c-1.39-.38-2.72-.97-3.93-1.76-6.74-4.37-26.35-17.68-19.3-24.95"/>
      <path class="cls-5" d="M444.32,399.41l15.95,3.38-.32,.64-15.77-3.34c-1.45-.32-2.83-.87-4.11-1.62-3.6-2.11-9.34-6.42-14.54-10.69,.18-.16,.35-.33,.52-.5,5.48,4.47,11.5,8.91,14.37,10.59,1.22,.71,2.53,1.23,3.91,1.54"/>
    </g>
    <g class="cls-24">
      <rect class="cls-36" x="435.8" y="231.88" width="84.51" height="93.98"/>
    </g>
    <g class="cls-22">
      <path class="cls-13" d="M459,268.42c0,2.95-2.39,5.34-5.34,5.34s-5.35-2.39-5.35-5.34,2.39-5.34,5.35-5.34,5.34,2.39,5.34,5.34"/>
      <path class="cls-13" d="M482.53,268.42c0,2.95-2.39,5.34-5.34,5.34s-5.35-2.39-5.35-5.34,2.39-5.34,5.35-5.34,5.34,2.39,5.34,5.34"/>
      <path class="cls-13" d="M506.49,268.42c0,2.95-2.39,5.34-5.34,5.34s-5.35-2.39-5.35-5.34,2.39-5.34,5.35-5.34,5.34,2.39,5.34,5.34"/>
    </g>
    <g class="cls-23">
      <rect class="cls-34" x="483.31" y="276.6" width="60.23" height="66.97"/>
    </g>
    <g class="cls-26">
      <path class="cls-13" d="M500.89,302.27c0,2.11-1.71,3.82-3.82,3.82s-3.82-1.71-3.82-3.82,1.71-3.82,3.82-3.82,3.82,1.71,3.82,3.82"/>
      <path class="cls-13" d="M517.69,302.27c0,2.11-1.71,3.82-3.82,3.82s-3.82-1.71-3.82-3.82,1.71-3.82,3.82-3.82,3.82,1.71,3.82,3.82"/>
      <path class="cls-13" d="M534.81,302.27c0,2.11-1.71,3.82-3.82,3.82s-3.82-1.71-3.82-3.82,1.71-3.82,3.82-3.82,3.82,1.71,3.82,3.82"/>
      <polygon class="cls-16" points="694.13 407.88 697.33 414.19 690.6 412.65 667.55 405.39 694.13 407.88"/>
      <polygon class="cls-14" points="697.33 414.19 685.89 413.48 688.69 412.05 697.33 414.19"/>
    </g>
    <g class="cls-30">
      <rect class="cls-35" x="667.55" y="401.74" width="28.58" height="6.14"/>
    </g>
    <g class="cls-33">
      <rect class="cls-39" x="667.55" y="405.39" width="23.04" height="16.12"/>
    </g>
    <g class="cls-29">
      <path class="cls-14" d="M694.81,420.54c.06-.03,.11-.07,.16-.13,.2-.22,.17-.56-.05-.76-.71-.62-1.47-1.17-2.26-1.63-.26-.15-.59-.07-.74,.19-.15,.26-.07,.59,.19,.74,.74,.43,1.45,.94,2.1,1.52,.17,.15,.41,.17,.6,.07"/>
      <path class="cls-14" d="M686.43,479.37c-.15-.26-.07-.59,.19-.74,1.45-.86,2.78-2.01,3.95-3.42,.19-.23,.53-.26,.76-.07s.26,.53,.07,.76c-1.25,1.51-2.67,2.74-4.23,3.66,0,0-.02,.01-.03,.02-.25,.13-.56,.04-.71-.21m6.14-6.04c-.26-.15-.35-.48-.2-.73,.87-1.54,1.53-3.18,1.95-4.9,.07-.29,.36-.47,.65-.39,.29,.07,.47,.36,.39,.65-.45,1.81-1.14,3.55-2.06,5.17-.05,.1-.13,.17-.22,.21-.16,.08-.35,.08-.51-.01m2.74-8.19c-.3-.02-.52-.28-.5-.57v-.24c.1-1.64,.01-3.34-.25-5.06-.04-.29,.16-.57,.45-.61,.29-.05,.57,.16,.61,.45,.27,1.79,.37,3.57,.27,5.28l-.02,.26c-.01,.2-.13,.36-.29,.44-.08,.04-.18,.06-.28,.06m-.75-8.63c-.29,.07-.58-.1-.66-.38-.43-1.62-1.02-3.33-1.75-5.07-.11-.27,.02-.6,.29-.7,.27-.12,.59,.01,.7,.29,.75,1.79,1.35,3.54,1.79,5.21,.07,.25-.05,.5-.28,.62-.03,.02-.07,.03-.11,.04m-3.03-8.14c-.27,.13-.59,.02-.72-.25-.07-.14-.13-.27-.2-.41-.57,.22-1.15,.42-1.74,.58-.29,.08-.58-.09-.66-.38-.08-.29,.08-.58,.38-.66,.52-.14,1.03-.31,1.54-.51-.56-1.07-1.18-2.18-1.87-3.38-.15-.26-.06-.59,.19-.74,.25-.15,.59-.06,.74,.2,.72,1.24,1.36,2.39,1.94,3.5,.78-.36,1.54-.78,2.24-1.25,.25-.17,.58-.1,.75,.15,.17,.25,.1,.58-.15,.75-.74,.49-1.53,.94-2.35,1.32,.06,.12,.12,.24,.17,.35,.13,.26,.02,.58-.24,.72,0,0,0,0,0,0m4.25-4.53c-.21-.21-.22-.55-.01-.76,.76-.78,1.42-1.64,1.96-2.55,.34-.57,.64-1.17,.89-1.79,.11-.27,.43-.41,.7-.29,.27,.11,.41,.43,.29,.7-.27,.67-.6,1.32-.96,1.93-.59,.99-1.3,1.91-2.12,2.76-.04,.04-.09,.08-.14,.1-.2,.1-.45,.07-.62-.09m-10.22,5.05c-1.91,.16-3.79,.02-5.57-.44-.29-.07-.46-.36-.39-.65,.07-.29,.37-.46,.65-.39,1.67,.42,3.42,.56,5.22,.41,.3-.03,.56,.19,.58,.49,.02,.23-.1,.43-.29,.52-.06,.03-.13,.05-.2,.06m14.37-12.55c-.29-.05-.49-.33-.44-.62,.3-1.7,.32-3.46,.05-5.24-.04-.29,.16-.57,.45-.61,.3-.04,.57,.16,.61,.45,.28,1.89,.27,3.77-.05,5.59-.03,.17-.14,.31-.29,.39-.1,.05-.22,.07-.34,.05m-23.1,10.93c-.44-.22-.86-.47-1.26-.73-1.17-.76-2.22-1.76-3.04-2.91-.17-.24-.12-.58,.12-.75,.24-.17,.58-.12,.75,.12,.74,1.03,1.7,1.94,2.75,2.63,.37,.24,.77,.47,1.17,.68,.27,.14,.37,.46,.23,.72-.05,.11-.14,.18-.23,.24-.15,.07-.33,.08-.49,0m9.74-6.67c-1.16-1.79-2.21-3.1-3.33-4.1-.22-.2-.24-.54-.04-.76,.2-.22,.54-.24,.76-.04,1.18,1.07,2.3,2.44,3.51,4.32,.16,.25,.09,.58-.16,.74-.02,0-.03,.02-.05,.03-.24,.12-.54,.05-.7-.19m12.91-12.86c-.28,.1-.59-.05-.68-.34-.26-.76-.58-1.5-.94-2.21-.43-.86-.95-1.68-1.51-2.43-.18-.24-.13-.57,.11-.75,.24-.18,.58-.13,.75,.11,.61,.8,1.15,1.67,1.61,2.59,.38,.75,.72,1.54,.99,2.35,.09,.26-.03,.54-.26,.65-.02,.01-.05,.02-.07,.03m-27.79,13.18c-.29,.07-.58-.1-.65-.39-.38-1.53-.23-3.01,.44-4.29,.24-.46,.55-.89,.92-1.26,.21-.21,.55-.22,.76-.01s.22,.55,.01,.76c-.29,.3-.54,.64-.74,1.02-.55,1.05-.67,2.24-.35,3.53,.06,.25-.06,.5-.28,.61-.04,.02-.07,.03-.11,.04m9-6.15c-1.51-.7-3.36-.87-4.96-.47-.29,.07-.58-.1-.65-.39-.07-.29,.1-.58,.39-.65,1.85-.47,3.92-.27,5.67,.53,.27,.12,.39,.44,.26,.71-.05,.11-.14,.2-.24,.25-.14,.07-.31,.08-.47,0"/>
      <path class="cls-14" d="M684.1,480.89c.22-.11,.34-.38,.27-.63-.08-.29-.38-.45-.66-.37-.83,.24-1.68,.38-2.53,.43-.3,.01-.52,.27-.51,.57,.02,.3,.27,.52,.57,.51,.93-.05,1.86-.21,2.77-.46,.03,0,.07-.02,.1-.04"/>
    </g>
    <g class="cls-28">
      <rect class="cls-37" x="329.45" y="234.81" width="35.33" height="12.19"/>
    </g>
    <g class="cls-27">
      <polyline class="cls-16" points="364.78 246.99 329.89 238.02 329.45 235.86"/>
      <polygon class="cls-14" points="328.89 244.01 328.94 244.08 330.4 249.5 364.69 246.99 328.89 244.01"/>
    </g>
    <g class="cls-31">
      <rect class="cls-38" x="322.23" y="236.79" width="42.32" height="10.14"/>
    </g>
    <g class="cls-32">
      <path class="cls-14" d="M243.76,309.96c1.14-.4,2.27-.89,3.36-1.46,.25-.13,.55-.03,.68,.22,.13,.25,.03,.55-.22,.68-1.13,.59-2.3,1.1-3.49,1.51-.43,.15-.86,.29-1.29,.42-.16,.05-.32,.01-.45-.08-.08-.06-.15-.15-.18-.26-.08-.27,.07-.55,.34-.63,.42-.13,.84-.26,1.25-.41"/>
      <path class="cls-14" d="M312.04,237.06c1.58,.2,3.23,.46,5.03,.8,.27,.05,.45,.31,.41,.59-.05,.27-.31,.46-.59,.41-1.79-.33-3.42-.59-4.98-.79-.09-.01-.17-.05-.24-.1-.14-.1-.22-.28-.2-.47,.04-.28,.29-.48,.57-.44"/>
      <path class="cls-14" d="M303.58,237.44c-.12-.09-.2-.24-.21-.4,0-.28,.22-.51,.5-.51,1.62-.02,3.35,.05,5.11,.2,.28,.02,.49,.27,.46,.55-.02,.28-.27,.49-.55,.46-1.73-.15-3.42-.21-5.02-.2-.11,0-.22-.04-.31-.1"/>
      <path class="cls-14" d="M253.54,303.85c.2-.2,.52-.2,.72,0,.2,.2,.19,.52,0,.72-1.23,1.2-2.57,2.29-4,3.25-.18,.12-.42,.11-.58-.01-.04-.03-.09-.08-.12-.12-.16-.23-.09-.55,.14-.7,1.37-.92,2.67-1.98,3.86-3.13"/>
      <path class="cls-14" d="M255.63,302.36c-.22-.18-.25-.5-.07-.71,.29-.35,.56-.71,.83-1.07,.72-.97,1.38-2,1.95-3.04,.13-.25,.44-.34,.69-.2,.24,.13,.34,.44,.2,.69-.59,1.09-1.27,2.15-2.02,3.16-.28,.38-.57,.75-.86,1.11-.17,.21-.48,.25-.69,.09,0,0-.01-.01-.02-.02"/>
      <path class="cls-14" d="M259.89,295.5s-.08-.04-.11-.06c-.18-.14-.26-.38-.17-.6,.6-1.46,1.11-3.01,1.54-4.74,.07-.27,.34-.44,.61-.37,.27,.07,.44,.35,.37,.61-.45,1.78-.97,3.38-1.59,4.88-.1,.26-.4,.38-.66,.28"/>
      <path class="cls-14" d="M273.33,252.25c-.42,.52-.83,1.04-1.23,1.58-.6,.81-1.17,1.64-1.7,2.48-.15,.24-.46,.31-.7,.16-.01,0-.02-.01-.03-.02-.21-.16-.27-.45-.13-.68,.54-.86,1.13-1.72,1.74-2.55,.41-.55,.83-1.09,1.26-1.61,.18-.22,.48-.28,.71-.07,.22,.18,.25,.5,.07,.71"/>
      <path class="cls-14" d="M268.91,258.91c-.78,1.48-1.45,3.02-2.01,4.57-.1,.26-.39,.4-.65,.31-.05-.02-.09-.04-.13-.07-.17-.13-.25-.36-.17-.58,.57-1.59,1.27-3.18,2.06-4.7,.13-.25,.44-.34,.68-.22,.25,.13,.35,.44,.22,.68"/>
      <path class="cls-14" d="M278.99,246.6c-1.29,1.06-2.53,2.2-3.67,3.4-.18,.19-.46,.21-.67,.06-.02-.01-.03-.03-.05-.04-.2-.19-.21-.51-.02-.72,1.17-1.23,2.44-2.4,3.76-3.49,.22-.18,.54-.15,.71,.07,.18,.22,.15,.54-.07,.71"/>
      <path class="cls-14" d="M288.34,240.83c-.17,.08-.37,.05-.51-.06-.07-.05-.12-.12-.16-.2-.11-.26,0-.56,.26-.67,1.57-.7,3.19-1.29,4.82-1.77,.27-.08,.55,.07,.63,.34,.08,.27-.07,.55-.34,.63-1.58,.47-3.16,1.05-4.69,1.73"/>
      <path class="cls-14" d="M263.36,279.72c-.09-.01-.18-.04-.24-.1-.14-.1-.22-.28-.2-.46l.07-.64c.17-1.47,.34-2.94,.53-4.4,.04-.28,.29-.47,.57-.44,.28,.04,.47,.29,.44,.57-.19,1.46-.36,2.92-.53,4.39l-.07,.64c-.03,.28-.28,.48-.56,.45"/>
      <path class="cls-14" d="M281.38,244.78c-.18,.13-.42,.12-.59,0-.04-.03-.08-.07-.11-.11-.16-.23-.11-.55,.12-.71,1.4-.99,2.87-1.89,4.36-2.7,.25-.13,.55-.04,.69,.21,.13,.25,.04,.55-.21,.69-1.46,.78-2.89,1.67-4.26,2.63"/>
      <path class="cls-14" d="M263.12,281.73c.28,.04,.47,.29,.44,.57-.25,1.97-.49,3.58-.77,5.04-.05,.27-.32,.46-.59,.4-.08-.01-.15-.05-.21-.09-.15-.11-.23-.3-.2-.5,.27-1.45,.51-3.03,.76-4.98,.04-.28,.29-.47,.57-.44"/>
      <path class="cls-14" d="M239.6,311.08c.27-.05,.54,.12,.59,.4,.05,.27-.12,.54-.4,.59-1.58,.31-3.24,.53-5.08,.66-.13,0-.24-.03-.34-.1-.11-.08-.19-.22-.21-.37-.02-.28,.19-.52,.47-.54,1.8-.13,3.42-.34,4.96-.64"/>
      <path class="cls-14" d="M265.65,265.73c.27,.07,.43,.35,.36,.62-.4,1.49-.74,3.1-1.04,4.91-.05,.28-.31,.46-.58,.42-.08-.01-.15-.05-.22-.09-.15-.11-.23-.3-.2-.49,.31-1.84,.66-3.48,1.07-5,.07-.27,.35-.43,.62-.36"/>
      <path class="cls-14" d="M299.03,236.83c.59-.07,1.18-.13,1.78-.17,.28-.02,.52,.19,.54,.47,.02,.28-.19,.52-.47,.54-.58,.04-1.16,.1-1.73,.17-1.07,.13-2.15,.31-3.21,.53-.15,.03-.3,0-.41-.09-.1-.07-.17-.18-.19-.3-.06-.27,.12-.54,.39-.6,1.09-.23,2.2-.41,3.31-.55"/>
    </g>
  </g>
</svg>