<?xml version="1.0" encoding="UTF-8"?>
<svg xmlns="http://www.w3.org/2000/svg" xmlns:xlink="http://www.w3.org/1999/xlink" viewBox="0 0 221.91 269.93">
  <defs>
    <style>
      .cls-1 {
        fill: #f7f9fc;
      }

      .cls-2 {
        fill: #0279bf;
      }

      .cls-3 {
        fill: #004f37;
      }

      .cls-4 {
        fill: #00a79d;
      }

      .cls-5 {
        fill: #006838;
      }

      .cls-6 {
        fill: #efcfb7;
      }

      .cls-7, .cls-8 {
        fill: #e6edf7;
      }

      .cls-9 {
        fill: #fbd5bf;
      }

      .cls-10, .cls-11, .cls-12, .cls-13 {
        fill: #fff;
      }

      .cls-14 {
        fill: #edc5ac;
      }

      .cls-15 {
        fill: #edc1a6;
      }

      .cls-16 {
        fill: #fbd1b8;
      }

      .cls-17 {
        fill: #7e87a8;
      }

      .cls-18 {
        fill: #323952;
      }

      .cls-19 {
        fill: #8dc63f;
      }

      .cls-20 {
        fill: #bfccd9;
      }

      .cls-21 {
        fill: #1c75bc;
      }

      .cls-22 {
        fill: #37415e;
      }

      .cls-23 {
        fill: #27aae1;
      }

      .cls-24 {
        fill: #2a3145;
      }

      .cls-25 {
        fill: #2bb673;
      }

      .cls-26 {
        fill: #2f384f;
      }

      .cls-27 {
        fill: #3d4663;
      }

      .cls-28 {
        fill: #2e3192;
      }

      .cls-29 {
        fill: #616b8c;
      }

      .cls-30 {
        fill: #525a7a;
      }

      .cls-11 {
        stroke: url(#Eau_7-4);
      }

      .cls-11, .cls-12, .cls-13, .cls-31 {
        stroke-miterlimit: 10;
      }

      .cls-12 {
        stroke: url(#Eau_7-5);
      }

      .cls-13 {
        stroke: url(#Eau_7-3);
      }

      .cls-31 {
        fill: #00b9c8;
        stroke: url(#Eau_7-2);
      }

      .cls-32 {
        fill: #87e1ff;
      }

      .cls-32, .cls-8 {
        mix-blend-mode: multiply;
      }

      .cls-33 {
        fill: url(#_Áåçûìÿííûé_ãðàäèåíò_32-2);
      }

      .cls-34 {
        fill: url(#Eau_7);
      }

      .cls-35 {
        fill: url(#_Áåçûìÿííûé_ãðàäèåíò_37);
      }

      .cls-36 {
        fill: url(#_Áåçûìÿííûé_ãðàäèåíò_32);
      }

      .cls-37 {
        isolation: isolate;
      }
    </style>
    <linearGradient id="Eau_7" data-name="Eau 7" x1="0" y1="205.87" x2="221.91" y2="205.87" gradientUnits="userSpaceOnUse">
      <stop offset="0" stop-color="#69afe0"/>
      <stop offset=".1" stop-color="#5facde"/>
      <stop offset=".26" stop-color="#46a6db"/>
      <stop offset=".46" stop-color="#1d9bd6"/>
      <stop offset=".58" stop-color="#0094d3"/>
      <stop offset="1" stop-color="#007fc3"/>
    </linearGradient>
    <linearGradient id="_Áåçûìÿííûé_ãðàäèåíò_32" data-name="Áåçûìÿííûé ãðàäèåíò 32" x1="77" y1="141.54" x2="80.1" y2="141.54" gradientUnits="userSpaceOnUse">
      <stop offset="0" stop-color="#bfccd9"/>
      <stop offset=".46" stop-color="#e6edf7"/>
    </linearGradient>
    <linearGradient id="_Áåçûìÿííûé_ãðàäèåíò_32-2" data-name="Áåçûìÿííûé ãðàäèåíò 32" x1="138.45" y1="243.66" x2="177.3" y2="243.66" xlink:href="#_Áåçûìÿííûé_ãðàäèåíò_32"/>
    <linearGradient id="_Áåçûìÿííûé_ãðàäèåíò_37" data-name="Áåçûìÿííûé ãðàäèåíò 37" x1="142.16" y1="229.28" x2="173.67" y2="222.01" gradientUnits="userSpaceOnUse">
      <stop offset=".37" stop-color="#e6edf7"/>
      <stop offset="1" stop-color="#bfccd9"/>
    </linearGradient>
    <linearGradient id="Eau_7-2" data-name="Eau 7" x1="160.99" y1="51.7" x2="185.03" y2="51.7" xlink:href="#Eau_7"/>
    <linearGradient id="Eau_7-3" data-name="Eau 7" x1="164.83" y1="46.14" x2="169.08" y2="46.14" xlink:href="#Eau_7"/>
    <linearGradient id="Eau_7-4" data-name="Eau 7" x1="170.13" y1="49.2" x2="174.39" y2="49.2" xlink:href="#Eau_7"/>
    <linearGradient id="Eau_7-5" data-name="Eau 7" x1="175.44" y1="52.26" x2="179.69" y2="52.26" xlink:href="#Eau_7"/>
  </defs>
  <g class="cls-37">
    <g id="Layer_1" data-name="Layer 1">
      <ellipse id="circle" class="cls-34" cx="110.95" cy="205.87" rx="110.95" ry="64.06"/>
      <g>
        <path class="cls-20" d="M56.96,161.63l17.12,9.95c.93,.54,2.46,.54,3.4,0l23.58-13.62c.47-.27,.65,.08,.71,.27v1.01c0,.36-.23,.72-.7,.99l-23.58,13.62c-.94,.54-2.46,.54-3.4,0l-17.12-9.95c-.46-.27-.7-.62-.7-.98v-1.07c.12-.34,.23-.49,.69-.23Z"/>
        <path class="cls-1" d="M56.97,160.88l23.58-13.62c.94-.54,2.46-.54,3.39,0l17.12,9.95c.93,.54,.93,1.42,0,1.97l-23.58,13.62c-.94,.54-2.46,.54-3.4,0l-17.12-9.95c-.93-.54-.93-1.42,.01-1.97Z"/>
      </g>
      <path class="cls-36" d="M79.67,123.15c-.59,.34-1.54,.34-2.13,0-.3-.17-.44-.4-.44-.62l-.09,37.14c0,.22,.15,.45,.44,.62,.59,.34,1.54,.34,2.13,0,.29-.17,.44-.39,.44-.61l.09-37.14c0,.22-.15,.44-.44,.61Z"/>
      <path class="cls-8" d="M80.1,122.58c.02-.24-.13-.48-.44-.66-.59-.34-1.54-.34-2.13,0-.29,.17-.44,.39-.44,.61,0,0-.02,5.71-.02,5.71,0,.22,.15,.45,.44,.62,.59,.34,1.54,.34,2.13,0,.29-.17,.44-.39,.44-.61l.02-5.71s0,.03,0,.04Z"/>
      <polygon class="cls-7" points="38.11 148.77 37.61 148.45 37.61 42.82 111.77 0 112.27 .33 38.11 148.77"/>
      <polygon class="cls-1" points="112.27 105.96 38.11 148.77 38.11 43.14 112.27 .33 112.27 105.96"/>
      <polygon class="cls-7" points="42.74 135.24 42.74 113.53 62.2 89.25 62.2 81.32 82.41 52.93 82.41 44.52 108.67 8.14 108.67 97.18 42.74 135.24"/>
      <polygon class="cls-28" points="62.2 124.01 47.74 132.35 47.74 113.97 62.2 105.63 62.2 124.01"/>
      <polygon class="cls-21" points="62.2 124.01 47.74 132.35 47.74 123.16 62.2 114.82 62.2 124.01"/>
      <polygon class="cls-28" points="82.41 112.34 67.96 120.68 67.96 82.44 82.41 74.1 82.41 112.34"/>
      <polygon class="cls-21" points="82.41 112.34 67.96 120.68 67.96 98.24 82.41 89.89 82.41 112.34"/>
      <polygon class="cls-28" points="106.83 36.02 101.12 32.52 95.4 29.03 89.69 39.12 83.98 49.21 88.18 46.79 88.18 109.01 102.63 100.66 102.63 38.44 106.83 36.02"/>
      <polygon class="cls-21" points="102.63 100.66 88.18 109.01 88.18 61.93 102.63 53.58 102.63 100.66"/>
      <polygon class="cls-23" points="62.2 124.01 47.74 132.35 47.74 128.94 62.2 120.59 62.2 124.01"/>
      <polygon class="cls-23" points="82.41 112.34 67.96 120.68 67.96 113.24 82.41 104.9 82.41 112.34"/>
      <polygon class="cls-23" points="102.63 100.66 88.18 109.01 88.18 94.55 102.63 86.21 102.63 100.66"/>
      <path class="cls-20" d="M59.45,129.13l-9.15,5.28c-.47,.27-.85,.88-.85,1.35s.38,.63,.85,.36l9.15-5.28c.47-.27,.85-.88,.85-1.35s-.38-.63-.85-.36Z"/>
      <path class="cls-20" d="M59.41,41.7l-9.15,5.28c-.47,.27-.85,.88-.85,1.35s.38,.63,.85,.36l9.15-5.28c.47-.27,.85-.88,.85-1.35s-.38-.63-.85-.36Z"/>
      <path class="cls-20" d="M59.41,51.09l-9.15,5.28c-.47,.27-.85,.88-.85,1.35s.38,.63,.85,.36l9.15-5.28c.47-.27,.85-.88,.85-1.35s-.38-.63-.85-.36Z"/>
      <path class="cls-20" d="M59.41,60.48l-9.15,5.28c-.47,.27-.85,.88-.85,1.35s.38,.63,.85,.36l9.15-5.28c.47-.27,.85-.88,.85-1.35s-.38-.63-.85-.36Z"/>
      <path class="cls-20" d="M80.28,117.11l-9.15,5.28c-.47,.27-.85,.88-.85,1.35s.38,.63,.85,.36l9.15-5.28c.47-.27,.85-.88,.85-1.35s-.38-.63-.85-.36Z"/>
      <path class="cls-20" d="M101.11,105.08l-9.15,5.28c-.47,.27-.85,.88-.85,1.35s.38,.63,.85,.36l9.15-5.28c.47-.27,.85-.88,.85-1.35s-.38-.63-.85-.36Z"/>
      <polygon class="cls-21" points="46.55 50.68 42.74 52.88 42.74 49.07 46.55 46.86 46.55 50.68"/>
      <polygon class="cls-21" points="46.55 60.22 42.74 62.42 42.74 58.61 46.55 56.41 46.55 60.22"/>
      <polygon class="cls-23" points="46.55 69.61 42.74 71.81 42.74 68 46.55 65.8 46.55 69.61"/>
      <path class="cls-32" d="M178.66,190.79c.17,3.77,7.66,7.15,14.75,6.82,7.09-.33,12.7-3.65,12.53-7.41-.17-3.77-6.07-6.55-13.16-6.22-7.09,.33-14.29,3.05-14.12,6.82Z"/>
      <g>
        <path class="cls-14" d="M144.4,98.7c.41-.05,2.42,.33,3.67,.73,.84,.27,6.05-.73,6.99-.85,3.06-.4,6.67-1.14,9.52-1.55,3.61-.51,5.03-.59,5.03-.59,0,0,1.64,4.08,.05,4.78-2.18,.96-10.89,1.08-16.24,1.24-.78,.02-4.56-.21-4.99-.18-.13,0-1.46,.66-2.63,.94-.87,.21-2.18-.74-1.65-.96,.65-.27,.22-.62,.16-.78-.06-.17-.28-.22-.41-.27-.48-.18-1.2,0-1.65,.22-.1,.05,.83,.87,.49,1.12-.36,.26-1.02-.28-1.32-.49-.35-.24-.6-.79-.6-.94,0-.58,.34-1.37,1.11-1.63,.85-.28,1.82-.72,2.45-.8Z"/>
        <path class="cls-20" d="M185.99,77.5c-.77-.62-2.63-.75-4.76,1.53-1.25,1.34-7.8,10.62-10.49,13.97-1.47,1.83-2.99,3.27-3.24,3.84-.45,1.05,.72,6.62,2.85,4.82,5.79-4.9,8.23-9.08,11.75-14.33,1.91-2.84,3.61-5.08,4.34-6.17,.71-1.06,1.48-2.1-.46-3.65Z"/>
      </g>
      <g>
        <g>
          <path class="cls-29" d="M195.44,190.48c-.43,.97-.88,1.13-1.45,2.83-.32,.96-.1,2.67,1.72,2.83,1.38,.12,2.33-.44,3.21-1.16,1.16-.95,2.02-2.49,2.14-4.8,.02-.32,.46-.83,.75-1.49,.14-.31,.88-2.93-1.56-3.25-2.5-.33-3.49,2.07-3.79,2.7-.28,.6-.37,.86-1.03,2.34Z"/>
          <path class="cls-26" d="M194.3,192.38c.68-1.13,1.13-2.24,1.51-3.1,.05-.1,.09-.2,.12-.3,.18-.69,.26-1.14,.43-1.54,.05-.3,.08-.55,.15-.8,.18-.65,1.25-2.28,3.64-1.82,1.09,.21,1.41,.71,1.51,1.15,.34,.52,.17,1.15,.16,1.41-.02,.66-.8,2.28-.87,2.6-.47,2.12-1.32,3.5-2.52,4.61-.69,.63-2.35,1.27-3.58,.72-1.37-.62-1.13-1.96-.55-2.92Z"/>
        </g>
        <g>
          <path class="cls-29" d="M191.91,190.39c-1.69,.93-2.25,1.39-4.59,2.03-.7,.19-2.81,.46-3.66-.33-.15-.14-.24-.93-.22-1.1,.08-.68,.99-.67,1.43-.92,1.88-1.06,3.32-1.33,5.27-2.03,.36-.13,2.31-.88,3.17-1.07,.57-.13,1.8,.22,1.88,.34,.5,.85,.35,1.67-.4,1.96-.71,.28-1.55,.37-2.89,1.1Z"/>
          <path class="cls-26" d="M184.52,189.62c.33-.2,.79-.46,.8-.46,1.53-.83,3.74-2.46,3.82-2.59,.48-.71,2.7,.04,3.74-.49,1.37-.7,1.93-.82,2.25-.59,.05,.03,.09,.09,.14,.19,.07,.27,.23,.84,.24,1.08,.02,.51-.07,1.11-.07,1.11-.07,.38-.39,.65-.67,.76-.71,.27-1.55,.37-2.89,1.1-1.69,.92-2.25,1.39-4.59,2.03-.7,.19-2.7,.47-3.55-.32-.33-.31-.58-1.13,.78-1.82Z"/>
        </g>
        <path class="cls-22" d="M183.12,119.49c.61-1.29,1.55-3.47,3.64-2.83,1.23,.37,7.17,.66,7.45,1.92,1.46,6.74-1.4,16.76-1.6,18.97-1.01,11.2-.98,12.75-1.07,14.35,0,0,1.23,7.13,1.63,9.36,.83,4.63,1.94,23.33,1.88,24.27-.04,.54-.59,1.94-2.35,2.21-3,.46-4.21,.08-4.32-.56-.41-2.26-.17-6.32-1.05-12.47-1.68-11.82-2.87-20.7-2.87-20.7-.31-1.82-.92-5.4-1.25-11.73-.59-11.18-2.27-18.16-.07-22.8Z"/>
        <path class="cls-29" d="M196.4,175.76c-.12-9.6-.86-13.21-1.49-23.27,0-27.72-4.06-26.47-4.06-26.47,0,0-.55-7.01,0-7.26,3.34-1.48,7.89-.49,10.91-.38,1.04,.04,2.04,1.47,2.94,4.36,1.32,4.25,.92,7.76-.44,14.12-.73,3.41-1.47,8.14-2.08,16.14,.18,1.57,1.1,8.37,1.04,12.24-.1,7.24-1.11,21.14-1.11,21.14,0,0-.32,1.99-1.7,2.64-1,.47-3.29,1.1-4.51,.59-.79-.33,.12-1.5,.11-2.46-.02-2.01,.47-4.96,.39-11.37Z"/>
      </g>
      <polygon class="cls-7" points="184.51 124.18 169.35 115.45 162.43 92.04 177.6 100.77 184.51 124.18"/>
      <g>
        <g>
          <path class="cls-1" d="M204,121.73s-.53,.31-1.56,.65c-.9,.29-2.17,.6-3.8,.74-4.42,.37-8.39,0-12.04-1.48-2.13-.86-4.2-1.48-4.15-3.2,.05-1.96-.17-4.78-.12-10.61,.01-1.19,.46-4.95-.49-8.89-.29-1.19-.58-2.54-1.28-3.56-1.3-1.88-.44-4.66,.79-7.93,.85-2.25,.6-3.08,1.09-5.23,.48-2.11,1.57-4.75,2.81-5.07,.79-.2,8.78,1.38,12.29,3.39,1.94,1.11,4.01,3.26,5.32,4.95,.26,.34,.49,.66,.69,.94,.05,.07,.09,.14,.13,.2,.38,.58,.58,1.01,.53,1.17-.04,.13,.36,13.05-.09,20.92,0,.12-.01,.25-.02,.37-.37,7.31,.92,11.47-.09,12.65Z"/>
          <path class="cls-7" d="M204.64,121.61s-1.18,.44-2.21,.77c.09-3.56-.08-8.48-.41-10.26-.58-3.15-4.09-9.4-6.99-10.42-.97-.34,3.86-.76,4.35-4.78,.35-2.87-.45-2.55-.4-7.09,.03-2.86,2.12-5.29,3.85-4.34,.09,.05,.18,.11,.26,.18,.03,.02,.26,.49,.42,.77,.07,.12,.12,.21,.13,.2,.38,.58,.58,1.01,.53,1.17-.04,.13,.36,13.05-.09,20.92,0,.12-.01,.25-.02,.37-.37,7.31,1.56,11.35,.56,12.52Z"/>
          <g>
            <path class="cls-24" d="M186.88,60.03c-1.43,1.48-2.64,4.92-2.49,5.49,.81,2.96,1.59,7.94,2.22,8.43,2.97,2.29,2.99,3.6,4.83,3.28,1.12-.19,2.34-1.9,3.54-2.54,1.11-.59,2.02-1.86,3.06-2.89,4.93-4.84,5.54-12.41,1.56-14.87-3.97-2.46-10.07,.34-12.74,3.09Z"/>
            <path class="cls-14" d="M197.29,81.04s-3.15,2.2-6.66,.58c-1.49-.68-.92-1.59-.92-1.59l.72-3.17,8.22-3.72s-1.17,3.3-1.35,4.43c-.14,.89,0,3.46,0,3.46Z"/>
            <path class="cls-16" d="M187.8,60.26c-.57,1.03-.98,2.67-1.22,4.52-.04,.31,.29,.96,.28,1.55-.01,.55-.41,1.16-.53,1.95-.61,4.23,1.64,8.37,2.44,8.64,1.17,.4,2.4,.68,4.25,.36,1.12-.19,2.67-1.13,3.87-1.77,1.11-.59,2.02-1.86,3.06-2.89,4.93-4.84,3.32-10.35-.66-12.81-3.97-2.46-9.64-2.92-11.5,.43Z"/>
            <path class="cls-27" d="M189.31,58.03c-2.32,1.55-2.85,5.55-.87,5.82,7.14,.96,5.61,3.28,5.46,5.84-.03,.51,.43,3.92,.25,5.03-.3,1.82,1.89,4.97,2.18,4.78,.23-.15,5.09,.27,10.34-8.23,2.48-4.02-1.02-9.12-1.99-10.95-3.49-6.63-11.84-4.64-15.37-2.28Z"/>
          </g>
        </g>
        <g>
          <path class="cls-16" d="M181.43,113.97s-.31-1.2-.4-1.52c-.14-.49,.46-.11,1.28,.24,.65,.28,2.01,.96,2.66,1.15,.5,.15,.96,.06,1.28,.06,.07-.04,2.22-.68,3.27-1.06,3.24-1.18,8.74-2.98,14.41-5.25,1.72-.69,2.57-.37,2.57-.37,0,0,3.71,2.75,.28,5.44-2.1,1.64-15.49,3.92-16.67,4.06-1.3,.15-3.22,.79-3.22,.79-1.4,.69-4.37,1.6-5.49,1.71-1.77,.17-3.48-1.88-3.96-2.78-.26-.5-.86-2.04-.21-2.83,.45-.55,1.3,.59,4.2,.36Z"/>
          <path class="cls-20" d="M200.92,86.37c-1.07,1.08-1.27,2.31-1.13,4.34,.21,2.91,1.84,16.76,2.33,17.92,1,2.38,6.64,2.07,6.65,1.55,.06-4.82-1.34-11.07-1.83-14.58-.4-2.87-.81-4.46-1.12-6.3-.33-1.97-1.85-3.88-3.06-4.03-.35-.04-.97,.22-1.83,1.1Z"/>
        </g>
      </g>
      <path class="cls-3" d="M119.33,58.35l26.67,46.29c.24,.42,.1,.96-.32,1.21-.42,.24-.96,.1-1.21-.32,0,0,0-.01,0-.02l-25.6-46.89c-.07-.13-.02-.3,.11-.37,.13-.07,.29-.02,.37,.1Z"/>
      <path class="cls-14" d="M146.46,101.57c-.89-.13-1.15,.33-1.96,.43-.14,.16-.31,.26-.33,.27-.52,.22-.94,.22-1.29,.36-.36,.15-.6,.75,0,.77,.5,.02,2.07,.05,2.94-.17,.96-.23,.97-1.62,.64-1.66Z"/>
      <g id="man">
        <path class="cls-32" d="M16.79,230.02c3.26-3.32,12.86-8.13,18.93-5.54,4.45,1.9,1.16,5.54,1.16,5.54,0,0,9.89-.49,12.75,0,3.23,.56,4.51,2.97,2.68,5.28-1.83,2.32-14.5,9.12-19.58,6.16-6.28-3.66-2.52-6.51-6.77-5.98-4.25,.53-8.8,.54-10.06-.76-1.1-1.13-.21-3.59,.89-4.71Z"/>
        <g>
          <path class="cls-22" d="M28.44,143.06s-6.09-9-9.67-15.76c-2.57-4.86,3.31-8.35,6.57-3.46,4.57,6.88,8.65,15.37,8.65,15.37l-5.55,3.85Z"/>
          <path class="cls-22" d="M27.05,140c-.95,4.15,1.46,5.38,3.75,6.04,4.24,1.22,16.49,2.73,16.49,2.73,0,0,.96-.54,1.41-2.58,.44-1.95-.32-2.43-.32-2.43,0,0-9.79-2.46-16.24-5.2l-5.1,1.44Z"/>
        </g>
        <g>
          <path class="cls-29" d="M40.11,235.03c1.96-1.1,2.56-1.67,5.46-2.32,.87-.19,3.71-1.01,4.9,.33,1.05,1.18-.75,2.88-1.4,3.26-2.17,1.26-3.55,1.35-5.92,2.11-.44,.14-1.21,1.04-2.28,1.27-1.98,.42-3.74,.78-5.28-.53-1.7-1.45-.36-3.11,.54-3.44,.85-.31,2.43,.19,3.98-.68Z"/>
          <path class="cls-26" d="M35.72,232.49c.31-.57,1.04-1,1.64-1.22,.85-.31,1.78-.74,3.49-1.22,.98-.27,1.86,1.43,4.77,.79,.87-.19,3.53-.54,4.64,.68,.33,.36,.49,.84,.49,.84,0,0,.08,.35,.08,.47,.03,.73-.08,1.49-1.77,2.53-2.13,1.31-3.55,1.35-5.92,2.11-.44,.14-2.79,.98-3.87,1.15-.72,.11-2.04,.41-3.58-.9-.58-.5-.67-.89-.63-1.21,0,0-.12-2.55,.65-3.99Z"/>
        </g>
        <g>
          <path class="cls-29" d="M23.87,229.47c1.98-1.06,2.59-1.62,5.5-2.21,.87-.18,4.38-1.39,5.24,.18,.92,1.7-1.05,3.09-1.73,3.39-2.57,1.14-3.73,1.26-6.11,2.25-.43,.18-1.19,.72-2.24,1.06-1.86,.6-4.08,.55-5.15-.57-.82-.86-.09-2.99-.09-2.99,.89-.19,3.01-.27,4.58-1.11Z"/>
          <path class="cls-26" d="M19.19,230.73s.19-2.17,.72-3.05c.75-1.23,3.08-2.73,4.8-3.18,.98-.26,1.83,1.47,4.75,.88,.87-.18,3.6-.55,4.71,.68,.35,.39,.48,.84,.48,.84,0,0,.07,.35,.07,.47,.01,.73-.11,1.49-1.82,2.5-2.16,1.27-3.65,1.36-6.04,2.08-.44,.13-2.8,.92-3.89,1.07-.72,.1-2.34,.25-3.39-.83-.53-.55-.38-1.47-.38-1.47Z"/>
        </g>
        <g>
          <path class="cls-22" d="M31.97,164.28c-.55-2.6-5.05-4.22-7.16-4.19-1.27,.02-3.87-.16-4.45,.94-.62,1.2-1.03,5.89-.92,9.01,.13,3.77,.96,6.02,1.29,10.29,.42,5.51,.25,11.12,.17,14.64,0,.03-1.02,32.6-1.06,33.61-.02,.53-.04,1.67,3.89,.84,2.51-.53,3.02-2.59,3.1-3.21,.67-5.13,1.48-17.64,1.85-20.37,.3-2.26,.81-6.73,.95-7.97h.05c.94-5.71,2.01-15.14,2.31-23.02,.24-6.2,.91-6.25,0-10.57Z"/>
          <path class="cls-29" d="M44.08,175.8c-.06-.65-.23-1.94-.47-3.44-.52-3.33-1.32-7.62-1.68-7.8-1.85-.94-15.09-2.3-15.09-2.3,0,0-.06,7.81,.8,9.96,.55,1.37,1.18,2.12,1.8,2.71,1.03,.99,2.01,1.53,2.44,3.73,.44,2.24,3.35,14.03,3.9,20.19-.19,3.65,.14,33.53,.14,33.53,0,0-1.01,3.06,3.68,2.19,2.75-.51,3.03-3.14,3.03-3.14-.66-5.49,2.55-24.65,2.59-31.81,.08-.71,.16-5.15,.2-6.18,.24-6.03-.94-13.02-1.35-17.64Z"/>
        </g>
        <path class="cls-17" d="M54.17,148.55s1.08,5.46-7.83,4.67c-3.24-.29-12.67-1.64-15.66-1.92-.18-.02-.71-.77-.66-3.07,.04-1.58,.61-2,.98-1.99,2.48,.08,8.45,.39,12.36,.39,3.53,0,5.91-.92,5.91-.92l4.89,2.84Z"/>
        <g>
          <path class="cls-22" d="M43.61,172.37c-1.24,1.08-3.58,1.99-6.71,2.43-2.37,.33-5.19,.67-7.91,.24-3.07-.89-4.57-6.76-4.57-6.76,0,0,16.38-4.41,18.23-3.47,.36,.18,.44,4.23,.96,7.56Z"/>
          <path class="cls-29" d="M17.95,127.87c.3-2.19,1.26-4.35,2.47-5.33,.69-.57,1.71-1.04,3.2-1.04,.84,0,8.21,1.44,10.2,2.41,2.65,1.3,6.67,4.77,7.91,6.14,.99,1.09,1.61,3.53,1.74,4.02,.92,3.73,.54,8.97,0,13.35-.36,2.87-.05,7.34-.07,11.82,0,2.65,1.13,10.03,.22,10.89-1.2,1.13-4.25,2.72-7.5,3.18-3.13,.44-6.27,.7-10.19-.49-3.55-1.07-5.71-2.62-6.52-4.04-1.14-1.98-1.62-9.5-1.88-13.56-.59-9.05-.79-18.25,.44-27.35Z"/>
          <path class="cls-30" d="M43.46,147.42c.54-4.38,.92-9.62,0-13.35-.06-.25-.25-1-.56-1.82-1.42-1.13-2.73-.79-4.13,.11-1.79,1.15-2.44,4.57-.71,5.99,4.75,3.89,5.24,10.29,5.39,9.07Z"/>
          <path class="cls-30" d="M35.86,151.54c-.06-4.02-.67-8.5-1.11-12.02-.44-3.53-3.34-7.3-6.45-8.92-2.92-1.53-8.19-3.59-8.7-7.18-.81,1.12-1.42,2.77-1.65,4.44-1.23,9.1-1.02,18.29-.44,27.35,.26,4.06-.43,11.16,.7,13.15,.82,1.42,4.15,3.38,7.7,4.46,3.93,1.19,7.06,.93,10.19,.49,3.25-.46,5.67-1.53,6.87-2.66,.33-.31-4.4-1.48-6.83-6.99-1.6-3.63-.19-5.75-.28-12.11Z"/>
          <g>
            <path class="cls-15" d="M35.61,117.68l-.41,4.26-.2,2.04c0,.26-.27,.59-.81,.84-.57,.09-1.18,.13-1.73,.13-1.14-.02-3.31-.35-4.74-1.17-.31-.41-.49-.93-.48-1.57,0-.26,0-1.04,0-1.91,0-1.39,0-3,0-3l8.37,.39Z"/>
            <path class="cls-1" d="M35.15,122.72l.1,1.71c0,.26-.54,.68-1.08,.94-.57,.09-1.18,.13-1.73,.13-1.14-.02-3.31-.35-4.74-1.17-.31-.41-.49-.93-.48-1.57,0-.26,.02-.86,.02-1.73,.08,.1,1.1,1.26,3.75,1.74,1.99,.36,3.84,.07,4.17-.04Z"/>
            <path class="cls-30" d="M27.22,121.88s1.01,1.25,3.76,1.74c2.19,.39,4.25,.01,4.25,.01l1.29,1.96c-.01,.44-2.43,.79-4.09,.76-1.88-.03-6.67-1.01-6.28-3.49,.03-.21,1.06-.99,1.06-.99Z"/>
            <path class="cls-9" d="M23.49,110.46c1.35,8.26,8.53,6.1,8.52,6.62-.03,.78,.47,1.12,.84,1.23,.33,.1,.73-.12,.94-.28,.31-.24-.19,1.05,1.49,2.32,1.78,1.35,4.32,1.14,4.53-.23,.15-1.01,.43-2.16,.74-2.95,.28-.71-.1-1.08,.04-1.82,.15-.79,1.16-.91,1.11-1.7-.03-.65-1.7-2.66-1.9-3.12-.16-.37,.31-1.49,.23-1.89-.82-3.85-1.09-6.49-6.75-6.76-6.73-.31-10.69,3.04-9.79,8.56Z"/>
            <path class="cls-26" d="M23.49,105.69c.99-1.86,1.73-3.61,4.68-4.11,4.41-.75,8.99,1.34,9.31,.1,.57-2.22,2.95,1.53,1.36,3.9-.81,1.21-3.01,1.75-3.22,1.91,.06,.04,.14,.07,.18,.12,1.7,2.1-.13,2.9,.17,4.26,.22,1.03,.31,1.76-.3,2.37-.72,.72-2.01,.29-2.01,.29,0,0,.84-.57,.94-1.49,.1-.88-.45-1.54-1.57-1.35-.77,.13-1.94,.91-1.05,4.87,.94,4.19-5.73,4.72-6.82,3.42-.91-1.1,.69-.09,.2-1.35-.84-2.17-1.73-3.69-2.54-5.84-.82-2.2-.28-5.34,.68-7.13Z"/>
          </g>
          <path class="cls-17" d="M54.17,148.55c-2.05-3.62-7.86-13.48-9.95-16.72-1.78-2.78-8.19,.09-5.66,4.95,2,3.85,9.02,14.91,9.02,14.91l6.59-3.13Z"/>
          <path class="cls-9" d="M51.25,143.26c.12-.06,.47-.07,.8,.02,.22,.06,.92,.4,1.37,1.75,.67,2.42,.92,3.38,.59,3.6-.48,.33-.48-.36-.99-.15-1.01,.41-1.32,.55-1.62,.09-.22-.33,.23-.51,.59-.72,.28-.17,.47-.26,.72-.37,.1-.05,.04-.2-.04-.16-.23,.1-.42,.24-.76,.38-.53,.22-.96,.72-1.44,.26-.59-.55,.78-1.11,1.27-1.4,.34-.21,.48-.25,.42-.33-.09-.13-.29,.02-.68,.26-.64,.39-1.49,.9-1.87,.47-.48-.53,.47-1.07,1.11-1.45,.25-.15,.72-.44,.7-.56-.03-.2-.33,.09-.71,.33-.79,.48-.93,.55-1.14,.36-.21-.19-.21-.49,.49-1.29,.75-.86,.9-.93,1.19-1.08Z"/>
        </g>
      </g>
      <g>
        <path class="cls-32" d="M164.69,245.56c-4.65-2.68-11.05-3.72-17.04-3.12-7.17-4.04-19.45,3.88-19.45,3.88,1.89,1.12,3.73,1.75,5.5,2.11-3.66,4.21-2.44,9.49,3.66,13.01,7.6,4.39,19.87,4.39,27.42,0,7.55-4.39,7.51-11.5-.09-15.88Z"/>
        <path class="cls-33" d="M171.67,233.59c-7.55,4.39-19.82,4.39-27.42,0-3.82-2.21-5.73-5.1-5.72-8l-.07,24.86c0,2.89,1.9,5.79,5.72,8,7.6,4.39,19.87,4.39,27.42,0,3.75-2.18,5.63-5.03,5.64-7.89l.07-24.86c0,2.86-1.89,5.71-5.63,7.89Z"/>
        <path class="cls-1" d="M171.58,217.7c-7.6-4.39-19.87-4.39-27.42,0-7.55,4.39-7.51,11.5,.09,15.88,7.6,4.39,19.87,4.39,27.42,0,7.55-4.39,7.51-11.5-.09-15.88Z"/>
        <path class="cls-10" d="M144.25,233.59c1.8,.96,3.72,1.67,5.7,2.15,1.97,.49,3.99,.77,6.01,.87,1.01,.05,2.03,.05,3.04,.02,1.01-.04,2.02-.12,3.03-.25,2.01-.25,3.99-.7,5.89-1.37,1.9-.66,3.73-1.57,5.33-2.78,.8-.61,1.54-1.29,2.15-2.07,.15-.2,.31-.39,.44-.6l.2-.31,.18-.32,.09-.16,.08-.17,.16-.34,.13-.35,.07-.17,.05-.18c.16-.47,.24-.96,.28-1.45,.04-.49,.01-.99-.06-1.48-.16-.98-.53-1.93-1.07-2.78-.53-.86-1.2-1.63-1.94-2.31-.75-.68-1.58-1.28-2.45-1.82,1.79,.97,3.45,2.26,4.62,3.99,.58,.86,.98,1.84,1.18,2.87,.08,.52,.13,1.04,.1,1.57-.04,.52-.11,1.05-.26,1.55-.28,1.02-.8,1.94-1.43,2.77-.63,.83-1.4,1.55-2.22,2.19-.82,.64-1.71,1.18-2.62,1.66-.92,.48-1.87,.88-2.84,1.22-1.95,.67-3.97,1.13-6.01,1.37-2.04,.24-4.1,.29-6.15,.14-2.05-.15-4.08-.48-6.06-1.03-1.97-.57-3.89-1.33-5.63-2.4Z"/>
        <path class="cls-35" d="M174.42,225.68c0,.62-.16,1.24-.47,1.86-.64,1.27-1.93,2.51-3.73,3.56-3.17,1.84-7.63,2.9-12.24,2.9s-9.09-1.06-12.29-2.9c-1.84-1.06-3.16-2.33-3.81-3.62-.31-.61-.47-1.24-.47-1.85,0-1.89,1.53-3.87,4.2-5.42,3.17-1.84,7.64-2.9,12.25-2.9s9.09,1.06,12.29,2.9c2.72,1.57,4.28,3.57,4.28,5.48Z"/>
        <path class="cls-18" d="M173.95,227.54c-.64,1.27-1.93,2.51-3.73,3.56-3.17,1.84-7.63,2.9-12.24,2.9s-9.09-1.06-12.29-2.9c-1.84-1.06-3.16-2.33-3.81-3.62,.65-1.28,1.93-2.52,3.73-3.56,3.17-1.84,7.64-2.9,12.25-2.9s9.09,1.06,12.29,2.9c1.85,1.07,3.16,2.33,3.81,3.63Z"/>
      </g>
      <path class="cls-5" d="M159.04,229.04s-4.55-18.86,.63-27.54c6.21-10.41,17.82-5.89,28.38-6.4-12.36,4.2-17.73,1.86-23.35,9.11-2.72,3.51-6.3,14.1-5.66,24.82Z"/>
      <path class="cls-5" d="M159.19,228.77s-8.26-32.21-.64-45.37c5.78-9.97,8.33-8.31,14.59-19.23-5.56,12.07-5.62,12.59-8.21,21.84-2.26,8.1-6.79,32.07-5.75,42.76Z"/>
      <path class="cls-25" d="M158.88,228.62s-2.73-27.84,4.45-41.25c6.08-11.36,14.2-1.99,23.46-4.57-10.05,8.42-15.76,.22-19.79,11.51-2.82,7.92-9.16,23.61-8.12,34.3Z"/>
      <path class="cls-19" d="M157.23,227.79s12.48-22.25,8.46-36.91c-4.4-16.04-18.48-27.74-29.07-33,7.81,7.94,20.27,24.19,22.21,33.87,1.65,8.25,1.57,25.77-1.6,36.04Z"/>
      <path class="cls-5" d="M130.74,206.84s14.22-9.17,20.98-2.75c6.79,6.44,7.14,14.49,5.7,24.96-1.2-14.38-3.5-16.61-8.02-19.01-3.92-2.08-10.91,1.38-18.66-3.2Z"/>
      <path class="cls-25" d="M158.28,227.97s6.15-25.2-1.76-38.18c-6.31-10.35-16.63-13.19-27.18-13.7,12.73,5.2,17.47,9.03,21.82,17.1,3.99,7.41,7.76,24.05,7.12,34.78Z"/>
      <path class="cls-19" d="M157.42,229.05s4.55-18.86-.63-27.54c-6.21-10.41-16.63-13.19-27.18-13.7,12.73,5.2,16.5,8.42,22.12,15.67,2.72,3.51,6.33,14.84,5.7,25.56Z"/>
      <path class="cls-27" d="M153.89,228.35c-.25-.13-.34-.44-.21-.69,.41-.75,1.31-2.29,2.24-3.35,.52-.59,1.9,.02,2.36-.02,.84-.07,1.4-.78,2.15-.04,1.06,1.05,2.11,2.55,2.63,3.32,.15,.22,.04,.68-.35,.83-1.43,.54-5.65,1.6-8.82-.05Z"/>
      <g id="woman1">
        <ellipse class="cls-32" cx="102.1" cy="262.59" rx="17.63" ry="6.81"/>
        <g>
          <path class="cls-26" d="M111.15,257.13c-2.49-.82-4.78,.39-8.08,.42-.99,0-3.54-1.09-4.7,.99,.09,1.09,.87,1.92,1.74,2.25,1.6,1.02,3.54,1.4,5.19,.7,1.99-.75,4.26-1.34,5.24-1.31,.54,.02,1.69,2.74,1.69,2.74,.58,.19,.83,.03,.87-.11,.44-1.63,.96-2.72,1.67-3.45,.51-.61,.61-1.97-.02-2.46-1.02-.15-1.57,.89-3.58,.23Z"/>
          <path class="cls-15" d="M101.17,258.27c.07,.2,1.44,1.37,1.64,1.39,2.05,.22,7.46-.94,10.07-2.85,1.75-1.27,.57-3.51,.57-3.51-.29-.67-.62-1.63-.64-2.78,0-.52-5.03-1.03-5.21,1.29-.17,2.17-1.44,3.39-1.6,3.51-.84,.65-2.67,.98-3.07,1.05-.52,.13-1.42,.37-1.68,.72-.11,.16-.17,1-.1,1.18Z"/>
          <path class="cls-3" d="M113.55,253.19c-.13-.16-.73,.96-.85,1.12-.67,.93-1.87,1.98-2.82,2.51-4.14,2.29-6.46,2.44-7.65,1.67-.17-.11-.81-.9-.16-1.65,.28-.33,.52-.37,.87-.48-.91,.15-1.84,.06-3.32,.55-.94,.31-1.35,.56-1.25,1.63,.06,.67,1.46,1.7,2.56,2.23,.78,.38,1.7,.53,2.33,.48,2.36-.18,2.94-.57,4.07-.85,1.2-.29,1.85-.57,2.79-.71,.49-.07,.82-.02,1.82,.15,1,.17,2.57-.11,3.02-1,.81-1.59-.68-4.02-.68-4.02l-.72-1.63Z"/>
        </g>
        <path class="cls-15" d="M107.62,253.17c-.27-6.86-.74-11.89-.97-17.12-.14-3.04-.84-11.35-1.53-14.26-.96-4.12-.74-21.62,.4-22.39,4.84-3.28,8.03,10.06,8.03,10.06-1.75,9.6,1.07,14.65-.8,31.32-.5,4.43,.05,9.81,.09,10.06,.21,1.27-.09,2.55-2.62,2.99-.95,.16-2.58-.01-2.6-.66Z"/>
        <g>
          <path class="cls-26" d="M106.41,257.29c-2.82,1.18-3.57,1.43-6.76,2.67-.95,.37-4.79,.63-3.92,2.57,.67,1.48,1.9,2.41,2.75,2.54,1.8,.28,2.91-.15,4.66-1.15,.37-.21,1.96-2.03,4.44-2.62,.97-.23,2.57,1.71,3,2.39,.05,.08,.15,.12,.24,.09l.45-.14c.17-.05,.28-.21,.27-.39-.04-1.15,.22-2.42,.51-3.02,.28-.6,.5-1.21,.53-2.07,.04-1.14-.75-2.11-1.82-1.86-1.01,.24-2.47,.18-4.35,.96Z"/>
          <path class="cls-9" d="M98.24,261.2c.08,.22,.73,.67,.95,.68,.96,.04,6.04-.97,7.04-1.47,1.08-.55,3.11-1.95,3.53-2.52,.72-1,.49-2.59,.62-3.08,.09-.36-1.58-2.15-1.58-2.15-1.02,.24-2.88,1.03-4.82,1.67,0,0-.16,2.17-3.32,4.71-.26,.21-.79,.42-1.41,.65-.12,.15-.86,.49-.97,.6-.1,.1-.09,.78-.04,.92Z"/>
          <path class="cls-3" d="M110.19,253.92c-.74-.65-.52-.27-.71,.55-.12,.49-.22,1.48-.94,2.48-.41,.57-1.2,1.46-2.24,2.09-1.65,1-3.64,2.12-6.61,2.33-.23,.02-1-.51-.87-1.09,.08-.34,.32-.44,.43-.6-1.24,.46-3,.92-3.58,1.72-.29,.4-.02,1.09,.23,1.37,0,0,1.93,2.26,4.17,1.81,2.04-.41,3.19-1.28,6.1-3.34,1.44-1.02,3.36-.42,4.51-.95,.76-.36,2.58-1.48,1.65-3.69-.44-1.04-1.62-2.23-2.13-2.68Z"/>
        </g>
        <path class="cls-15" d="M109.82,197.24c.15-1.4,4.38-3.6,4.88-4.4,.23-.36,.81-1.12,1.22-1.84,.17-.3,3.44,1.65,3.35,1.84-.51,1-.94,1.27-1.05,2.49-.15,1.65-2.13,5.35-2.54,5.95-1.08,1.59-4.7,1.69-5.56,.58-.23-.3,2.17-3.04,1.55-4.81-.29-.84-2.34,4.59-1.86,.19Z"/>
        <path class="cls-2" d="M126,177.19c.39-3.23-.02-4.65-.42-6.11-1.6-5.76-6.35-18.24-7.13-19.23-1.22-1.56-2.85-1.41-3.73-.52-.88,.9-1.3,2.2-.9,3.66,.4,1.5,3.41,8.07,5.48,15.77,.31,1.17,1.09,4.32,1.1,6.27l5.62,.16Z"/>
        <path class="cls-2" d="M120.38,175.44c-1.13,4.19-1.88,5.94-2.48,8.23-.22,.83-2.94,9.04-2.94,9.04,0,0,.35,.7,1.57,1.01,1.92,.5,2.84-.33,2.84-.33,0,0,.88-1.8,1.46-3.13,.62-1.43,2.12-4.16,3-6.3,.68-1.65,2.27-5.5,2.32-8.32l-5.76-.21Z"/>
        <path class="cls-9" d="M109.05,252.93s.32,2.28-2.97,3.42c-1.96,.68-2.2-1.81-2.2-1.81-3.48-10.32-5.25-14.75-6.98-18.99-2.99-7.33-4.75-11.02-5.25-13.3-.3-1.35,.19-14.58,.09-14.92-.75-2.73,8.59-1.57,8.59-1.57,0,0-1.05,13.99-.7,15.22,1.29,4.57,4.42,15.78,5.2,19.93,1.35,7.18,4.22,12.03,4.22,12.03Z"/>
        <path class="cls-9" d="M75.35,166.8c1.06,.79,1.79,2.71,2.48,3.77,.25,.39,1.69,.93,1.69,1.01,0,.37-1.65,3.54-1.85,3.45-1.11-.53-1.74-1.05-2.9-1.15-1.62-.15-2.54-.94-3.23-1.46-.63-.48-1-3.26-.81-5.19,.05-.48,.51-1.76,1.15-1.71,.42,.03,.65,2.59,1.05,2.61,.15,0,2.17,1.51,1.2-1.28-.53-1.51-.14-1.59,.24-1.45,.44,.17,.52,1.06,.99,1.42Z"/>
        <g>
          <path class="cls-4" d="M89.36,213.97s4.02,2.56,15.65,1.52c4.89-.44,9.94-2.04,10.08-3.35,1-9.19,.38-11.9,.99-14.96,1.2-5.95-.7-10.55-2.01-14.49-.13-.38-.23-.75-.31-1.13-.1-.46-.17-.91-.2-1.38-.28-3.5,1.07-7.52,2.81-15.32,1.13-5.08,1.33-4.6,2.08-8.33,.18-.91,.82-3.81-1.36-5.28-.81-.55-3.88-1.39-5.61-1.27-2.35,.16-5.19-.08-7.38,.94-2.44,1.13-4.45,1.69-7.09,3.73-2.04,1.58-3.09,2.47-3.49,3.68-.7,2.11-.14,3.52-3.15,8.31-1.01,1.61,.86,3.86,1.8,4.86,1.37,1.46,2.29,6.87,2.68,8.94,.11,.6,.17,1.01,.15,1.11,0,.07-.03,.16-.07,.27-.45,1.43-2.91,6.48-3.64,9.88-.67,3.16-.18,6.93-.13,11.09,.08,6.46-1.81,11.19-1.81,11.19Z"/>
          <path class="cls-10" d="M94.94,181.82c4.01,.38,7.29,.53,10.01,.41,4.19-.19,7.55-.87,8.7-1.35-.1-.46-.09-.94-.13-1.41-2.8,.68-8.26,1.98-18.67,.98,.11,.6,.12,1.27,.09,1.38Z"/>
          <g>
            <path class="cls-6" d="M111.4,150.86l.41-9.29-8.31,3.62-.66,5.43s.44,.64,1.06,1.05c1.42,.95,3.25,1.11,4.7,.79,.87-.19,2.69-1.12,2.8-1.59Z"/>
            <path class="cls-9" d="M113.65,135.08c-.08,4.73-1.86,9.68-6.42,10.95-2.14,.6-6.57,1.29-8.24-3.77-.43-1.31-1-2.33-.92-4.89,0-.14,.43-2.18,.44-2.32,.06-.57-.52-1.1-.29-2.14,.65-3,3.73-5.13,7.15-5.06,4.73,.08,8.35,2.51,8.27,7.25Z"/>
            <path class="cls-26" d="M116.59,145.79c-1.32-1.98-1.76-3.47-1.76-5.57,0-1.78,1.04-3.9,.79-5.96-.79-5.17-4.99-8.34-9.15-8.41-4.34-.08-7.24,2.17-8.06,4.66-.1,.31-.37,.97-.38,1.38-.12,.81-.43,2.47,.04,4.94,.09,.45,.3,.91,.62,1.32,.17,.21-.12-.45-.03-1.32,.08-.73,.25-1.31,.43-1.11,.75,.9,1.45,1.79,.83,5.08-.99,5.29-2.11,6.76-2.03,8.94,.18,4.91,1.53,5.07,2.79,8.77,1.08,3.18-2.61,5.12,1.17,7.72,4.54,3.12,17.87-.01,16.29-6.51-.63-2.58-1.97-2.57-.24-6.77,1.11-2.69-.38-5.76-1.31-7.16Z"/>
          </g>
          <path class="cls-2" d="M98.84,177.51c.08-3.73,.53-11.06,.7-14.34,.15-2.94,.54-5.05-.47-6.25-1.06-1.25-2.04-1.62-3.22-1.17-2.1,.79-2.61,3.06-2.61,5.58,0,.38-.08,8.37-.36,13.32-2.61-.51-4.93-.71-6.76-1.23-3.87-1.1-7.32-2.69-7.32-2.69,0,0-1.15-.79-2.48,1.42-.65,1.08,.02,2.61,.02,2.61,0,0,4.76,2.26,5.56,2.58,4.2,1.7,6.18,2.61,10.13,3.7,2.78,.77,4.57,.81,5.49,.08,.96-.75,1.3-2.83,1.31-3.61Z"/>
        </g>
      </g>
      <path class="cls-31" d="M161.49,41.75c0-6.36,5.16-8.54,11.52-4.87,6.36,3.67,11.52,11.81,11.52,18.17,0,5.66-4.19,7.91-8.58,6.18l.72,5.57-5.72-8.26c-5.38-4.08-9.46-11.14-9.46-16.8Z"/>
      <g>
        <path class="cls-13" d="M168.58,47.07c0,.9-.73,1.21-1.63,.69s-1.63-1.67-1.63-2.57,.73-1.21,1.63-.69c.9,.52,1.63,1.67,1.63,2.57Z"/>
        <path class="cls-11" d="M173.89,50.14c0,.9-.73,1.21-1.63,.69-.9-.52-1.63-1.67-1.63-2.57s.73-1.21,1.63-.69c.9,.52,1.63,1.67,1.63,2.57Z"/>
        <path class="cls-12" d="M179.19,53.2c0,.9-.73,1.21-1.63,.69-.9-.52-1.63-1.67-1.63-2.57s.73-1.21,1.63-.69c.9,.52,1.63,1.67,1.63,2.57Z"/>
      </g>
    </g>
  </g>
</svg>