<?xml version="1.0" encoding="UTF-8"?>
<svg id="Layer_1" data-name="Layer 1" xmlns="http://www.w3.org/2000/svg" xmlns:xlink="http://www.w3.org/1999/xlink" viewBox="0 0 162.03 86.39">
  <defs>
    <style>
      .cls-1 {
        fill: none;
      }

      .cls-2 {
        clip-path: url(#clippath);
      }

      .cls-3 {
        fill: #00c1f3;
      }

      .cls-4 {
        clip-path: url(#clippath-1);
      }

      .cls-5 {
        clip-path: url(#clippath-2);
      }

      .cls-6 {
        opacity: .5;
      }
    </style>
    <clipPath id="clippath">
      <rect class="cls-1" x="112.85" y="0" width="48.41" height="38.47"/>
    </clipPath>
    <clipPath id="clippath-1">
      <rect class="cls-1" x="60.19" y="42.66" width="50.11" height="41.42"/>
    </clipPath>
    <clipPath id="clippath-2">
      <rect class="cls-1" x="0" y="0" width="42.84" height="38.79"/>
    </clipPath>
  </defs>
  <path class="cls-3" d="M136.93,60.22c-5.3-.02-9.58-3.13-9.55-6.95,.03-3.82,4.34-6.9,9.65-6.88,5.3,.02,9.58,3.13,9.55,6.95-.03,3.82-4.35,6.9-9.65,6.88"/>
  <path class="cls-3" d="M161.94,47.02c-.54-4.26-7.28-.58-7.28-.58l-1.62,8.04-3.75,3.81-2.76,2.8s-6.45,2.1-9.54,2.28c-3.09-.18-9.54-2.28-9.54-2.28l-2.76-2.8-3.75-3.81-1.62-8.04s-6.75-3.68-7.28,.58c-.54,4.27,1.53,9.04,2.03,10.26,.5,1.22,4.06,7.78,4.4,7.91,1.11,.41,6.23,5.78,6.23,5.78l-1.75,15.4,28.12,.02-1.76-15.41s5.28-4.76,6.23-5.78c.21-.23,3.9-6.69,4.4-7.91,.5-1.22,2.57-6,2.03-10.26"/>
  <g class="cls-6">
    <g class="cls-2">
      <path class="cls-3" d="M161.19,18.39c.18,1,.03,2.41-1.1,3.83-1.13,1.42-1.7,1.3-2.93,1.37-1.23,.06-1.72-.34-2.87-.81-1.15-.46-.9-.35-1.32-.4-.41-.06-.91,.64-1.13,1.36-.4,1.3-.61,1.37-.2,3.77,.43,2.59,2.29,7.52,2.71,8.1,.41,.59-.4,.53-1.54,1.07-1.14,.54-2.85,.9-5.14,1.21-2.28,.31-3.35,.26-4.49,.2-1.15-.05-1.72-.05-2.79-.45-1.06-.41-.69-.65-.62-1.12,.08-.47,.28-.17,.92-1.24,.64-1.06,.3-2.12-.2-2.82-.5-.7-1.73-1.16-3.12-1.39-1.39-.23-2.05-.16-3.68,.32-1.62,.48-1.78,1.37-1.93,2.66-.15,1.29,.68,1.82,1.34,2.52,.66,.7,.26,1.3,.26,1.3,0,0-.24,.36-1.87,.54-1.63,.19-5.56-.03-7.93-.43-2.38-.4-2.47-1.01-2.18-1.31,.06-.06,.12-.19,.16-.38,1.1-1.23,1.6-6.9,1.71-9.96,.12-3.22-.97-3.77-1.59-3.99-.62-.22-1.39,.12-2.77,.57-.04,.01-.09,.03-.14,.04-1.34,.4-2.66,.3-3.41-.02-.78-.33-2.49-2.32-2.51-4.2-.02-1.89,2.88-3.9,4.42-4.03,1.21-.1,1.94,.16,2.95,.53,.28,.1,.58,.22,.91,.33,1.55,.55,1.38-.59,1.37-1.45-.08-7.38-1.9-10.99-1.98-11.42-.02-.12-.1-.21-.25-.29,.49-.3,1.58-.91,3.28-1.38,2.36-.66,7.75-1.05,9.06-.7,1.72,.46,2.14,.69,1.65,.99-.49,.3-1.21,1.01-1.62,1.78-.48,.91-.39,1.59,.2,3,.59,1.41,2.08,1.35,3.53,1.45,1.64,.11,2.21-.01,3.51-.61,1.3-.6,1.46-1.48,1.44-2.48-.01-1-.26-1.35-.93-2.23-.66-.88-.58-.82-.34-1.53,.24-.71,1.3-.6,2.36-.66,1.07-.07,1.64,0,3.03,.1,1.39,.11,6.3,.9,6.96,1.08,.66,.18,.4,.45,.26,1-.24,.88-.55,1.95-1.11,3.42-.55,1.47-.44,4.83-.58,6.36-.15,1.53,.36,2.88,.86,3.47,.5,.59,.9,.41,1.47,.23,.57-.18,1.88-.54,3.26-.61,1.39-.07,2.21,.28,3.2,.75,.99,.46,1.24,1.58,1.42,2.58"/>
    </g>
  </g>
  <g class="cls-6">
    <g class="cls-4">
      <path class="cls-3" d="M85.19,57.91c-5.3-.02-9.58-3.13-9.55-6.95,.03-3.82,4.34-6.9,9.65-6.88,5.3,.02,9.58,3.13,9.55,6.95-.03,3.82-4.35,6.9-9.65,6.88"/>
      <path class="cls-3" d="M110.21,44.72c-.54-4.26-7.28-.58-7.28-.58l-1.63,8.04-3.75,3.81-2.76,2.8s-6.45,2.1-9.54,2.28c-3.09-.18-9.54-2.28-9.54-2.28l-2.76-2.8-3.75-3.81-1.62-8.04s-6.75-3.68-7.28,.58c-.54,4.27,1.53,9.04,2.03,10.26,.5,1.22,4.06,7.78,4.4,7.91,1.11,.41,6.23,5.78,6.23,5.78l-1.75,15.4,28.12,.02-1.76-15.41s5.28-4.76,6.23-5.78c.21-.23,3.9-6.69,4.4-7.91,.5-1.22,2.57-6,2.03-10.26"/>
    </g>
  </g>
  <path class="cls-3" d="M98.99,22.53c.41,.35,1.62,2.47,1.09,5.89-.46,2.94-.42,6.23-.69,7.37-.05,.06-.12,.12-.18,.16-1.22,.78-9.68,3.27-12.77,2.63-3.09-.65-2.17-.65-2.17-1.32,0-.66,1.33-1.82,1.73-3.51,.13-.52-.15-1.96-3.81-2.36-3.05-.34-3.84,.02-5.07,1.36-1.35,1.46-.43,3.33,.51,3.99,.93,.66,1.4,1.43,.33,1.77-1.08,.34-11.4,.73-12.5-1.15-1.1-1.88,1.89-7.33,2.35-10.45,.31-2.14,.27-3-1.27-3.21-1.54-.21-2.92,.35-4.78,.25-1.85-.1-4.64-1.3-4.37-4.3,.28-3,1.81-3.9,3.5-4.02,1.7-.12,3.39-.02,4.32,.53,.93,.55,1.55,.99,1.86,.21,.3-.78,1.26-11-1.86-14.43,0,0,6.6-2.48,10.93-1.84,4.33,.64,2.78,.43,2.18,1.87-.6,1.45-1.38,3.11-.17,4.53,.81,.95,1.73,.99,3.66,.98,2-.01,3.21-.44,3.65-1.77,.45-1.33-.03-2.67-.35-3.33-.31-.66-.94-1.32-.33-1.66,.61-.34,1.22-.78,3.23-.58,2.01,.21,6.81,1.07,7.89,1.25,1.2,.19,1.88,.32,2.22,.51-.19,.12-.28,.19-.28,.19,0,0,2.34,6.16,1.64,9.34-.7,3.18,.2,3.04-.53,3.17-.36,.06-.54,.04-.74-.05-.2-.09-.43-.26-.89-.49-.9-.46-2.07-.6-2.8-.48-.74,.12-2.11,.58-2.52,.94-.4,.36-2.12,2.94-1.82,4.95,.28,1.88,.43,2.37,1.34,2.72,.9,.35,1.88,.74,3.11,.8,.71,.03,1.47-.18,2.1-.37,.45-.13,.83-.25,1.07-.25,.57,0,.8-.2,1.21,.15"/>
  <path class="cls-3" d="M25,57.91c-5.3-.02-9.58-3.13-9.55-6.95,.03-3.82,4.34-6.9,9.65-6.88,5.3,.02,9.58,3.13,9.55,6.95-.03,3.82-4.35,6.9-9.65,6.88"/>
  <path class="cls-3" d="M50.02,44.72c-.54-4.26-7.28-.58-7.28-.58l-1.62,8.04-3.75,3.81-2.76,2.8s-6.45,2.1-9.54,2.28c-3.09-.18-9.54-2.28-9.54-2.28l-2.76-2.8-3.75-3.81-1.62-8.04s-6.75-3.68-7.28,.58c-.54,4.27,1.53,9.04,2.03,10.26,.5,1.22,4.06,7.78,4.4,7.91,1.11,.41,6.23,5.78,6.23,5.78l-1.75,15.4,28.12,.02-1.76-15.41s5.28-4.76,6.23-5.78c.21-.23,3.9-6.69,4.4-7.91,.5-1.22,2.57-6,2.03-10.26"/>
  <g class="cls-6">
    <g class="cls-5">
      <path class="cls-3" d="M41.62,22.53c.41,.35,1.62,2.47,1.09,5.89-.46,2.94-.42,6.23-.69,7.37-.05,.06-.12,.12-.18,.16-1.22,.78-9.68,3.27-12.77,2.63-3.09-.65-2.17-.65-2.17-1.32,0-.66,1.33-1.82,1.73-3.51,.13-.52-.15-1.96-3.8-2.36-3.05-.34-3.84,.02-5.07,1.36-1.35,1.46-.42,3.33,.51,3.99,.93,.66,1.4,1.43,.33,1.77-1.08,.34-11.4,.73-12.51-1.15-1.1-1.88,1.89-7.33,2.35-10.45,.31-2.14,.27-3-1.27-3.21-1.54-.21-2.92,.35-4.78,.25-1.85-.1-4.64-1.3-4.37-4.3,.27-3,1.81-3.9,3.5-4.02,1.7-.12,3.39-.02,4.32,.53,.93,.55,1.56,.99,1.86,.21,.3-.78,1.26-11-1.86-14.43C7.84,1.94,14.44-.53,18.77,.11c4.33,.64,2.78,.43,2.18,1.87-.6,1.45-1.38,3.11-.18,4.53,.81,.95,1.73,.99,3.66,.98,2.01-.01,3.21-.44,3.66-1.77,.45-1.33-.03-2.67-.35-3.33-.31-.66-.94-1.32-.33-1.66,.61-.34,1.23-.78,3.23-.58,2.01,.21,6.81,1.07,7.89,1.25,1.2,.19,1.88,.32,2.22,.51-.19,.12-.28,.19-.28,.19,0,0,2.34,6.16,1.64,9.34-.7,3.18,.21,3.04-.53,3.17-.36,.06-.54,.04-.74-.05-.21-.09-.43-.26-.89-.49-.9-.46-2.07-.6-2.8-.48-.73,.12-2.11,.58-2.52,.94-.4,.36-2.12,2.94-1.82,4.95,.28,1.88,.44,2.37,1.34,2.72,.9,.35,1.88,.74,3.11,.8,.71,.03,1.47-.18,2.09-.37,.45-.13,.83-.25,1.07-.25,.57,0,.8-.2,1.21,.15"/>
    </g>
  </g>
</svg>