<?xml version="1.0" encoding="UTF-8"?>
<svg id="Layer_1" data-name="Layer 1" xmlns="http://www.w3.org/2000/svg" viewBox="0 0 43.93 42.32">
  <defs>
    <style>
      .cls-1 {
        fill: #fff;
      }

      .cls-2 {
        fill: #0dc1f2;
      }
    </style>
  </defs>
  <path class="cls-2" d="M37.75,42.32H6.18c-3.41,0-6.18-2.77-6.18-6.18V6.18C0,2.77,2.77,0,6.18,0h31.57c3.41,0,6.18,2.77,6.18,6.18v29.96c0,3.41-2.77,6.18-6.18,6.18"/>
  <path class="cls-1" d="M28.19,14.46h-2.33c1.59-2.13,3.11-4.18,4.67-6.28,1.57,2.08,3.1,4.12,4.72,6.27h-2.38c0,.29,0,.49,0,.69-.03,2.13,.05,4.27-.11,6.39-.5,6.25-5.52,11.78-11.71,12.95-1.05,.2-2.13,.29-3.2,.31-2.86,.04-5.72,.01-8.57,.01h-.6v-1.56h.56c1.85,0,3.71,0,5.56,0,6.72,0,12.28-4.8,13.26-11.43,.08-.53,.12-1.07,.12-1.6,.01-1.89,0-3.77,0-5.75"/>
  <path class="cls-1" d="M20.41,30.39V12.95h2.3c0,.18,.03,.36,.03,.54,0,4.9,0,9.81,0,14.71,0,.37-.1,.62-.41,.83-.61,.42-1.21,.85-1.93,1.36"/>
  <path class="cls-1" d="M16.55,17.62h2.29v.49c0,4.14,0,8.27,.01,12.41,0,.39-.11,.56-.48,.64-.59,.13-1.17,.28-1.82,.43v-13.97Z"/>
  <rect class="cls-1" x="12.63" y="22.35" width="2.28" height="9.32"/>
  <rect class="cls-1" x="8.68" y="27.03" width="2.33" height="4.62"/>
</svg>