<?xml version="1.0" encoding="UTF-8"?>
<svg id="Layer_1" data-name="Layer 1" xmlns="http://www.w3.org/2000/svg" viewBox="0 0 43.93 42.32">
  <defs>
    <style>
      .cls-1 {
        fill: #fff;
      }

      .cls-2 {
        fill: #0dc1f2;
      }
    </style>
  </defs>
  <path class="cls-2" d="M37.75,42.32H6.18c-3.41,0-6.18-2.77-6.18-6.18V6.18C0,2.77,2.77,0,6.18,0h31.57c3.41,0,6.18,2.77,6.18,6.18v29.96c0,3.41-2.77,6.18-6.18,6.18"/>
  <path class="cls-1" d="M14.69,21.22H31.32c0-.56,0-1.11,0-1.65,0-.41,.1-.75,.49-.94,.4-.2,.73-.06,1.04,.21,1.44,1.26,2.89,2.52,4.33,3.79,.57,.51,.58,.99,.01,1.49-1.45,1.28-2.9,2.57-4.38,3.81-.23,.19-.71,.28-.96,.17-.25-.12-.45-.53-.5-.84-.08-.54-.02-1.1-.02-1.69h-6.12v4.48c.53,0,1.08-.06,1.61,.02,.33,.05,.73,.23,.93,.48,.27,.35,.06,.75-.23,1.07-1.26,1.42-2.5,2.86-3.75,4.28-.5,.57-.99,.57-1.49,0-1.27-1.44-2.54-2.87-3.77-4.34-.2-.24-.28-.71-.21-1.02,.09-.41,.51-.51,.92-.5,.53,.01,1.06,0,1.62,0v-4.49h-6.13c0,.56,0,1.1,0,1.64,0,.41-.11,.75-.5,.94-.4,.19-.73,.05-1.03-.23-1.44-1.26-2.89-2.52-4.33-3.79-.57-.5-.57-.98,0-1.49,1.44-1.27,2.89-2.52,4.33-3.79,.31-.27,.64-.41,1.04-.22,.4,.19,.5,.53,.49,.94-.01,.53,0,1.06,0,1.65"/>
  <path class="cls-1" d="M26.25,13.67c1.5,.91,2.43,2.92,2.16,4.65-.08,.52-.39,.77-1.01,.77-2.33,0-4.67,0-7,0-.63,0-1.25,0-1.88,0-.51,0-.82-.26-.9-.77-.27-1.73,.66-3.74,2.16-4.65,1.9,1.92,4.59,1.91,6.48,0"/>
  <path class="cls-1" d="M25.56,10.3c0,1.73-.67,2.74-2.04,3.05-1.41,.31-2.86-.68-3.03-2.12-.06-.52-.06-1.06-.04-1.59,.07-1.46,1.17-2.51,2.57-2.5,1.38,0,2.44,1.04,2.54,2.48,.01,.23,0,.45,0,.68"/>
</svg>