<?xml version="1.0" encoding="UTF-8"?>
<svg id="Layer_1" data-name="Layer 1" xmlns="http://www.w3.org/2000/svg" viewBox="0 0 43.93 42.32">
  <defs>
    <style>
      .cls-1 {
        fill: #fff;
      }

      .cls-2 {
        fill: #0dc1f2;
      }
    </style>
  </defs>
  <path class="cls-2" d="M37.75,42.32H6.18c-3.41,0-6.18-2.77-6.18-6.18V6.18C0,2.77,2.77,0,6.18,0h31.57c3.41,0,6.18,2.77,6.18,6.18v29.96c0,3.41-2.77,6.18-6.18,6.18"/>
  <path class="cls-1" d="M9.54,29.44c-2.69-4.55-2.73-12.29,2.89-17.57,5.47-5.14,13.94-5.3,19.57-.34,5.89,5.18,6.12,13.1,3.21,18.06-.02-.26-.04-.44-.04-.62,0-1.03,0-2.06,0-3.09,0-.27,.04-.58-.09-.79-.72-1.19-.4-2.52-.52-3.78-.53-5.5-5.1-10.23-10.56-10.88-6.68-.8-12.63,3.71-13.68,10.37-.07,.41-.12,.83-.12,1.25,.02,.94,.04,1.86-.47,2.74-.23,.41-.17,1-.18,1.51-.02,1,0,2,0,3.13"/>
  <path class="cls-1" d="M27.98,22.68c1.85-.04,3.67-.18,5.24,1.02,.73,.56,1.14,1.26,1.13,2.19,0,1.72,0,3.43,0,5.15,0,.91-.34,1.69-1.1,2.14-.74,.44-1.56,.83-2.39,.99-.92,.17-1.89,.04-2.88,.04v-11.53Z"/>
  <path class="cls-1" d="M16.72,34.26c-1.45,0-2.86,.14-4.21-.43-1.57-.67-2.17-1.54-2.17-3.24,0-1.41,.06-2.82-.02-4.22-.11-1.91,.92-2.73,2.26-3.3,1.32-.56,2.72-.4,4.13-.4v11.59Z"/>
</svg>