<?xml version="1.0" encoding="UTF-8"?>
<svg id="Layer_1" data-name="Layer 1" xmlns="http://www.w3.org/2000/svg" viewBox="0 0 43.93 42.32">
  <defs>
    <style>
      .cls-1 {
        fill: #fff;
      }

      .cls-2 {
        fill: #0dc1f2;
      }
    </style>
  </defs>
  <path class="cls-2" d="M37.75,42.32H6.18c-3.41,0-6.18-2.77-6.18-6.18V6.18C0,2.77,2.77,0,6.18,0h31.57c3.41,0,6.18,2.77,6.18,6.18v29.96c0,3.41-2.77,6.18-6.18,6.18"/>
  <path class="cls-1" d="M17.45,32.27c-.18-1.09-.36-2.14-.52-3.19-.1-.68-.17-1.37-.28-2.06-.03-.17-.16-.44-.28-.46-1.23-.23-2.47-.42-3.78-.64-.06,1.35-.11,2.54-.18,3.74-.02,.36-.1,.73-.23,1.06-.64,1.61-1.3,3.2-1.97,4.8-.25,.59-.77,.89-1.3,.77-.56-.12-.92-.47-.96-1.04-.02-.29,.08-.6,.19-.88,.57-1.42,1.16-2.82,1.73-4.24,.12-.31,.2-.66,.21-1,.06-3.36,.1-6.72,.13-10.08,.02-1.35,.49-1.83,1.85-1.83,.73,0,1.47-.01,2.2,0,.74,.02,1.2,.46,1.3,1.21-.42-.08-.83-.16-1.24-.24-.01,.04-.03,.08-.04,.11,.68,.33,1.36,.68,2.06,.98,.15,.07,.39-.02,.57-.09,.91-.35,1.82-.72,2.72-1.07,.69-.27,1.23-.11,1.45,.43,.23,.54-.04,1.05-.72,1.33-1.13,.46-2.26,.93-3.41,1.33-.32,.11-.77,.08-1.09-.05-.82-.33-1.61-.75-2.48-1.03,.55,.46,1.08,.95,1.66,1.35,.49,.34,.65,.74,.63,1.33-.04,1.2-.01,1.2,1.18,1.39,.28,.05,.56,.09,.84,.15,.75,.15,1.08,.5,1.18,1.27,.24,1.75,.5,3.51,.7,5.27,.05,.43-.13,.88-.2,1.34h4.43v-2.54c0-.18,0-.37,0-.55,0-.86,.04-.9,.88-.92,.09,0,.19-.01,.39-.03-.66-.5-.65-1.11-.56-1.76,.23-1.59,.41-3.19,.67-4.78,.11-.65,.33-1.3,.57-1.92,.37-.95,.75-1.89,.2-2.98,1.4-.23,1.66-1.17,1.68-2.3,0-.66,.12-1.32,.08-2-.29,.84-.6,1.67-.87,2.51-.15,.46-.41,.76-.87,.95-1.09,.45-2.17,.93-3.25,1.39-.68,.29-1.23,.14-1.46-.38-.25-.56,.02-1.06,.74-1.37,.9-.39,1.8-.76,2.69-1.16,.18-.08,.4-.24,.47-.42,.29-.73,.53-1.48,.71-2.27-.22,.33-.44,.65-.66,.99-.7-1.37-.25-2.36,1.17-2.67,.67-.15,1.35-.31,2.02-.45,.89-.19,1.61,.22,1.82,1.1,.56,2.38,1.14,4.75,1.59,7.15,.2,1.07,.11,2.19,.18,3.29,.02,.34,.09,.69,.21,1,.55,1.38,1.1,2.76,1.7,4.12,.32,.73,.36,1.37-.32,1.91,.07,.04,.1,.07,.13,.07q1.06,.03,1.06,1.12c0,2.04,0,4.08,0,6.11,0,.76-.09,.86-.83,.86-6.74,0-13.49,0-20.23,0-.74,0-.8-.07-.81-.8,0-.83,.02-1.67,0-2.51-.02-.57,.22-.75,.76-.74,1.32,.03,2.63,0,3.82,0m14.76-4.05c-1.38-3.14-3.17-6.13-2.73-9.83-.36,.09-.75,.17-.82,.36-.44,1.2-.89,2.4-1.19,3.64-.25,1.02-.26,2.1-.45,3.14-.16,.91,0,1.93-.83,2.69h6.02Z"/>
  <path class="cls-1" d="M28.4,7.11c.02,1.16-.96,2.15-2.12,2.16-1.15,0-2.14-.98-2.14-2.13,0-1.14,.95-2.1,2.09-2.12,1.17-.02,2.15,.93,2.17,2.09"/>
  <path class="cls-1" d="M15.37,14.35c0,1.18-.94,2.14-2.12,2.14s-2.09-.93-2.11-2.08c-.02-1.18,.91-2.15,2.08-2.17,1.16-.02,2.14,.94,2.15,2.11"/>
</svg>