<?xml version="1.0" encoding="UTF-8"?>
<svg id="Layer_1" data-name="Layer 1" xmlns="http://www.w3.org/2000/svg" viewBox="0 0 43.93 42.32">
  <defs>
    <style>
      .cls-1 {
        fill: #fff;
      }

      .cls-2 {
        fill: #0dc1f2;
      }
    </style>
  </defs>
  <path class="cls-2" d="M37.75,42.32H6.18c-3.41,0-6.18-2.77-6.18-6.18V6.18C0,2.77,2.77,0,6.18,0h31.57c3.41,0,6.18,2.77,6.18,6.18v29.96c0,3.41-2.77,6.18-6.18,6.18"/>
  <path class="cls-1" d="M15.92,23.47c-2.4,2.94-5.94,2.4-7.73,.62-1.97-1.96-2.02-5.11-.1-7.14,1.78-1.88,5.11-2.34,7.5,.16,2.79-1.68,5.58-3.36,8.37-5.04-.73-3.11,.33-5.54,2.85-6.56,2.31-.94,4.95-.07,6.27,2.07,1.32,2.14,.85,4.93-1.07,6.55-1.6,1.35-4.59,2.02-7.16-.6-2.76,1.66-5.53,3.33-8.35,5.02,.37,1.07,.52,2.16,.12,3.32,2.68,1.37,5.33,2.73,7.98,4.09,.41-.37,.77-.75,1.19-1.07,1.64-1.23,3.87-1.3,5.63-.21,1.82,1.13,2.71,3.18,2.32,5.3-.37,1.99-1.99,3.63-3.98,4-3.65,.69-6.76-2.47-5.95-6.08,.06-.29,.05-.44-.23-.58-2.5-1.27-5-2.55-7.5-3.83-.05-.02-.11-.03-.16-.04"/>
</svg>