<?xml version="1.0" encoding="UTF-8"?>
<svg id="Layer_1" data-name="Layer 1" xmlns="http://www.w3.org/2000/svg" viewBox="0 0 43.93 42.32">
  <defs>
    <style>
      .cls-1 {
        fill: #fff;
      }

      .cls-2 {
        fill: #0dc1f2;
      }
    </style>
  </defs>
  <path class="cls-2" d="M37.75,42.32H6.18c-3.41,0-6.18-2.77-6.18-6.18V6.18C0,2.77,2.77,0,6.18,0h31.57c3.41,0,6.18,2.77,6.18,6.18v29.96c0,3.41-2.77,6.18-6.18,6.18"/>
  <path class="cls-1" d="M15.03,14.6c.42-.41,.78-.77,1.18-1.16-.78-.78-1.55-1.54-2.31-2.31-.73-.73-.63-1.21,.33-1.58,3.63-1.39,7.43,1.37,7.24,5.28-.03,.53,.12,.88,.49,1.24,2.24,2.2,4.46,4.42,6.66,6.66,.31,.32,.6,.42,1.04,.39,3.28-.2,5.89,2.34,5.72,5.59-.03,.64-.24,1.29-.46,1.9-.23,.64-.8,.73-1.29,.25-.72-.71-1.43-1.43-2.14-2.14-.11-.11-.23-.22-.35-.33-.38,.39-.73,.75-1.19,1.22,.36,.32,.74,.65,1.1,1,.46,.44,.91,.9,1.36,1.36,.56,.57,.45,1.09-.3,1.41-3.56,1.51-7.52-1.18-7.39-5.06,.02-.68-.18-1.11-.64-1.57-2.18-2.14-4.34-4.31-6.49-6.49-.32-.33-.63-.44-1.08-.41-3.27,.2-5.87-2.36-5.7-5.62,.03-.64,.25-1.29,.46-1.9,.22-.61,.79-.7,1.26-.24,.83,.82,1.65,1.65,2.49,2.49"/>
  <path class="cls-1" d="M13.87,26.54c1.26-1.25,2.61-2.59,3.93-3.9,1.38,1.38,2.79,2.79,4.17,4.17-1.31,1.31-2.64,2.64-3.92,3.92-1.37-1.38-2.79-2.8-4.18-4.19"/>
  <path class="cls-1" d="M32.46,16.42c-1.44-1.44-2.85-2.84-4.4-4.39,.18-.11,.41-.21,.57-.38,.74-.71,1.45-1.45,2.18-2.17,.39-.39,.76-.41,1.13-.04,1.07,1.06,2.14,2.12,3.19,3.19,.35,.35,.37,.72,.03,1.06-.89,.92-1.81,1.81-2.72,2.72"/>
  <path class="cls-1" d="M31.31,17.52c-.94,.94-1.91,1.92-2.84,2.84-1.4-1.4-2.82-2.82-4.21-4.21,.91-.91,1.89-1.89,2.84-2.84,1.37,1.37,2.78,2.78,4.2,4.21"/>
  <path class="cls-1" d="M12.81,27.89c1.3,1.29,2.58,2.57,3.88,3.87-.08,.04-.2,.1-.32,.15-1.47,.59-2.93,1.17-4.4,1.77-.35,.14-.68,.2-.97-.1-.28-.28-.23-.6-.1-.93,.65-1.6,1.28-3.19,1.91-4.75"/>
</svg>