<?xml version="1.0" encoding="UTF-8"?>
<svg id="Layer_1" data-name="Layer 1" xmlns="http://www.w3.org/2000/svg" viewBox="0 0 43.93 42.32">
  <defs>
    <style>
      .cls-1 {
        fill: #fff;
      }

      .cls-2 {
        fill: #0dc1f2;
      }
    </style>
  </defs>
  <path class="cls-2" d="M37.75,42.32H6.18c-3.41,0-6.18-2.77-6.18-6.18V6.18C0,2.77,2.77,0,6.18,0h31.57c3.41,0,6.18,2.77,6.18,6.18v29.96c0,3.41-2.77,6.18-6.18,6.18"/>
  <path class="cls-1" d="M21.06,29.77c-.54-1.51-1.61-2.31-3.19-2.46-.27-1.65-1.21-2.67-2.86-3.05-.02-.22-.03-.44-.06-.65-.32-2.14-2.5-3.41-4.51-2.61-.31,.12-.49,.1-.73-.14-2.91-2.88-2.86-7.7,.12-10.55,2.96-2.83,7.76-2.68,10.5,.32,.03,.03,.04,.06,.1,.15-.87,.82-1.75,1.65-2.7,2.55,1.07,1,1.93,1.97,2.96,2.73,1.44,1.05,3.06,1.08,4.7,.37,.17-.07,.33-.16,.56-.27,.55,.56,1.08,1.13,1.64,1.69,1.51,1.51,3.02,3.02,4.53,4.53,.64,.64,.69,1.35,.14,1.88-.52,.51-1.21,.44-1.83-.17-1.37-1.36-2.73-2.73-4.1-4.09-.14-.14-.29-.28-.44-.42-.49,.49-.97,.97-1.47,1.47,.14,.15,.27,.3,.41,.44,1.39,1.39,2.79,2.78,4.17,4.18,.69,.7,.53,1.68-.32,2.03-.56,.24-1.01,.03-1.42-.38-1.38-1.38-2.76-2.76-4.13-4.14-.13-.13-.25-.28-.35-.4-.51,.53-.98,1.02-1.51,1.58,.33,.32,.76,.73,1.18,1.15,1.12,1.11,2.23,2.22,3.34,3.34,.56,.57,.6,1.23,.12,1.75-.48,.53-1.17,.51-1.79-.02-.88-.76-1.89-1.02-3.05-.78"/>
  <path class="cls-1" d="M33.84,21.13c-2.63-2.63-5.24-5.24-7.89-7.89-.79,.89-1.63,1.66-2.95,1.5-.91-.11-1.52-.66-2.12-1.33,.09-.11,.17-.23,.27-.33,.88-.89,1.76-1.78,2.66-2.66,2.22-2.17,5.43-2.76,8.2-1.51,2.77,1.25,4.45,3.98,4.34,7.07-.07,1.93-1.08,4.04-2.5,5.16"/>
  <path class="cls-1" d="M21.09,35.08c-.59,0-.97-.21-1.18-.66-.2-.44-.19-.89,.13-1.26,.34-.39,.71-.77,1.11-1.11,.44-.38,1.06-.35,1.49,.01,.43,.36,.62,1.02,.29,1.46-.4,.52-.92,.97-1.41,1.42-.12,.11-.35,.11-.43,.14"/>
  <path class="cls-1" d="M12.95,23.93c-.13,.36-.16,.61-.29,.76-.39,.44-.8,.89-1.27,1.26-.48,.38-1.1,.26-1.51-.19-.39-.42-.46-1.04-.09-1.49,.35-.43,.75-.83,1.18-1.19,.37-.31,.87-.36,1.25-.06,.31,.24,.51,.62,.73,.91"/>
  <path class="cls-1" d="M14.64,26.25c.31,.25,.7,.45,.93,.76,.29,.39,.24,.88-.07,1.25-.34,.41-.73,.8-1.14,1.15-.5,.42-1.19,.33-1.61-.14-.41-.46-.43-1.1,0-1.58,.32-.36,.66-.72,1.03-1.03,.2-.17,.49-.24,.87-.41"/>
  <path class="cls-1" d="M16.83,32.87c-.32-.25-.77-.44-.92-.77-.15-.33-.14-.89,.05-1.19,.31-.49,.78-.9,1.25-1.26,.42-.34,.92-.27,1.35,.05,.42,.31,.67,.95,.37,1.34-.45,.6-1.03,1.1-1.57,1.62-.09,.09-.28,.07-.43,.1-.03,.04-.07,.08-.1,.11"/>
</svg>