<?xml version="1.0" encoding="UTF-8"?>
<svg id="Layer_1" data-name="Layer 1" xmlns="http://www.w3.org/2000/svg" viewBox="0 0 43.93 42.32">
  <defs>
    <style>
      .cls-1 {
        fill: #fff;
      }

      .cls-2 {
        fill: #0dc1f2;
      }
    </style>
  </defs>
  <path class="cls-2" d="M37.75,42.32H6.18c-3.41,0-6.18-2.77-6.18-6.18V6.18C0,2.77,2.77,0,6.18,0h31.57c3.41,0,6.18,2.77,6.18,6.18v29.96c0,3.41-2.77,6.18-6.18,6.18"/>
  <path class="cls-1" d="M11.16,24.26c-.39,.13-.72,.25-1.05,.35-1.22,.37-2.25-.36-2.26-1.64-.02-1.65-.02-3.31,0-4.96,.02-1.82,1.45-3.24,3.28-3.26,2.17-.02,4.34,0,6.5,0,.57,0,1.03,.2,1.43,.6,.67,.68,1.36,1.34,2.02,2.04,.25,.26,.45,.28,.76,.11,.56-.31,1.12-.64,1.73-.85,.41-.14,.88-.1,1.32-.13,.22-.02,.47,.03,.66-.06,1.27-.61,2.53-1.25,3.8-1.89,.13-.07,.26-.13,.4-.19,.52-.22,.96-.09,1.18,.34,.21,.43,.05,.88-.45,1.13-1.29,.66-2.58,1.31-3.89,1.95-.33,.16-.51,.37-.65,.72-.16,.39-.48,.81-.84,1.01-1.03,.59-2.1,1.13-3.2,1.6-.4,.17-.92,.14-1.37,.1-.33-.03-.66-.21-1.08-.35v.68c0,4.3,0,8.6,0,12.9,0,.58-.12,1.1-.58,1.48-.53,.44-1.12,.55-1.75,.26-.64-.29-.98-.82-.98-1.53,0-1.78,0-3.57,0-5.35,0-.15,0-.29,0-.44-.03-.51-.37-.85-.83-.84-.47,0-.81,.34-.81,.86-.01,1.19,0,2.39,0,3.58,0,.62,0,1.25,0,1.88,0,1.23-.63,1.98-1.64,1.99-1.02,0-1.67-.75-1.67-1.97,0-3.16,0-6.32,0-9.48v-.65Z"/>
  <path class="cls-1" d="M25.44,21.33c.48-.37,1.15-.64,1.41-1.13,.58-1.1,1.61-1.48,2.59-1.98,.57-.29,1.15-.57,1.72-.86,1.35-.71,1.87-2.11,1.24-3.38-.62-1.26-2.07-1.72-3.44-1.06-1.17,.57-2.33,1.17-3.5,1.73-.21,.1-.49,.15-.72,.12-.93-.12-1.74,.23-2.5,.68-.37,.21-.6,.17-.89-.14-.54-.57-1.15-1.08-1.71-1.64-.1-.1-.19-.27-.19-.41-.01-.92-.03-1.84,0-2.76,.05-1.33,1.09-2.36,2.43-2.37,3.91-.02,7.83-.02,11.74,0,1.4,0,2.45,1.06,2.46,2.45,.02,2.78,.02,5.55,0,8.32-.01,1.35-1.03,2.41-2.36,2.43-2.74,.04-5.48,.01-8.21,.01-.03,0-.06-.03-.05-.03"/>
  <path class="cls-1" d="M17.77,10.62c0,1.36-1.15,2.48-2.5,2.47-1.36-.01-2.48-1.16-2.46-2.52,.02-1.34,1.14-2.44,2.47-2.44,1.36,0,2.49,1.13,2.48,2.49"/>
</svg>