<?xml version="1.0" encoding="UTF-8"?>
<svg id="Layer_1" data-name="Layer 1" xmlns="http://www.w3.org/2000/svg" xmlns:xlink="http://www.w3.org/1999/xlink" viewBox="0 0 305.27 322.14">
  <defs>
    <style>
      .cls-1 {
        fill: none;
      }

      .cls-2 {
        fill: url(#linear-gradient);
      }

      .cls-3 {
        clip-path: url(#clippath);
      }

      .cls-4 {
        fill: #fab494;
      }

      .cls-5 {
        fill: #010101;
      }

      .cls-6 {
        fill: #f79a6e;
      }

      .cls-7 {
        fill: #f5f6f6;
      }

      .cls-8 {
        fill: #fbc09e;
      }

      .cls-9 {
        fill: #fff;
      }

      .cls-10 {
        fill: #f3735f;
      }

      .cls-11 {
        fill: #ececec;
      }

      .cls-12 {
        fill: #fdd7bd;
      }

      .cls-13 {
        fill: #9a5e54;
      }

      .cls-14 {
        fill: #db8a77;
      }

      .cls-15 {
        fill: #c93030;
      }

      .cls-16 {
        fill: #e1e2e1;
      }

      .cls-17 {
        fill: #242122;
      }

      .cls-18 {
        fill: #1a2e36;
      }

      .cls-19 {
        fill: #385b65;
      }

      .cls-20 {
        clip-path: url(#clippath-1);
      }

      .cls-21 {
        clip-path: url(#clippath-4);
      }

      .cls-22 {
        clip-path: url(#clippath-3);
      }

      .cls-23 {
        clip-path: url(#clippath-2);
      }

      .cls-24 {
        clip-path: url(#clippath-7);
      }

      .cls-25 {
        clip-path: url(#clippath-8);
      }

      .cls-26 {
        clip-path: url(#clippath-6);
      }

      .cls-27 {
        clip-path: url(#clippath-5);
      }

      .cls-28 {
        clip-path: url(#clippath-9);
      }

      .cls-29 {
        clip-path: url(#clippath-20);
      }

      .cls-30 {
        clip-path: url(#clippath-21);
      }

      .cls-31 {
        clip-path: url(#clippath-23);
      }

      .cls-32 {
        clip-path: url(#clippath-22);
      }

      .cls-33 {
        clip-path: url(#clippath-14);
      }

      .cls-34 {
        clip-path: url(#clippath-13);
      }

      .cls-35 {
        clip-path: url(#clippath-12);
      }

      .cls-36 {
        clip-path: url(#clippath-10);
      }

      .cls-37 {
        clip-path: url(#clippath-15);
      }

      .cls-38 {
        clip-path: url(#clippath-17);
      }

      .cls-39 {
        clip-path: url(#clippath-16);
      }

      .cls-40 {
        clip-path: url(#clippath-19);
      }

      .cls-41 {
        clip-path: url(#clippath-11);
      }

      .cls-42 {
        clip-path: url(#clippath-18);
      }

      .cls-43 {
        opacity: .3;
      }

      .cls-44 {
        opacity: .6;
      }
    </style>
    <clipPath id="clippath">
      <rect class="cls-1" x="13.16" y="294.01" width="1.96" height="1.91"/>
    </clipPath>
    <clipPath id="clippath-1">
      <rect class="cls-1" x="6.22" y="296.79" width="20.78" height="16.23"/>
    </clipPath>
    <clipPath id="clippath-2">
      <rect class="cls-1" x="13.08" y="287.01" width="11.44" height="8.98"/>
    </clipPath>
    <clipPath id="clippath-3">
      <rect class="cls-1" x="77.53" y="306.48" width="1.96" height="1.96"/>
    </clipPath>
    <clipPath id="clippath-4">
      <rect class="cls-1" x="74.1" y="312.86" width="25.22" height="2.03"/>
    </clipPath>
    <clipPath id="clippath-5">
      <rect class="cls-1" x="63.66" y="152.33" width="35.43" height="12.68"/>
    </clipPath>
    <clipPath id="clippath-6">
      <rect class="cls-1" x="205.73" y="306.76" width="1.97" height="1.96"/>
    </clipPath>
    <clipPath id="clippath-7">
      <rect class="cls-1" x="185.98" y="313.1" width="25.22" height="2.09"/>
    </clipPath>
    <clipPath id="clippath-8">
      <rect class="cls-1" x="278.68" y="302.63" width="1.96" height="1.91"/>
    </clipPath>
    <clipPath id="clippath-9">
      <rect class="cls-1" x="267.52" y="305.13" width="20.2" height="17.01"/>
    </clipPath>
    <clipPath id="clippath-10">
      <rect class="cls-1" x="269.25" y="295.64" width="11.21" height="9.33"/>
    </clipPath>
    <clipPath id="clippath-11">
      <rect class="cls-1" x="201.08" y="166.89" width="27.27" height="20.88"/>
    </clipPath>
    <clipPath id="clippath-12">
      <rect class="cls-1" x="214.11" y="191.63" width="16.87" height="8.11"/>
    </clipPath>
    <clipPath id="clippath-13">
      <path class="cls-1" d="M55.8,24.95c-20.15,1.61-42.95,3.14-54.94,16.6,0,0,44.28,6.95,46.78,12.84,0,0-26.47,21.03-30.48,33.1,0,0,19.05-6.75,22.97-8.41,13.05-5.53,38.43-3.07,48.1-6.55,10.71-3.86,20.84-14.73,29.65-16.42L102.01,5.58s-26.05,17.76-46.21,19.36"/>
    </clipPath>
    <linearGradient id="linear-gradient" x1="-250.81" y1="393.86" x2="-249.81" y2="393.86" gradientTransform="translate(29350.5 46135.03) scale(117.02 -117.02)" gradientUnits="userSpaceOnUse">
      <stop offset="0" stop-color="#69aee0"/>
      <stop offset=".1" stop-color="#5fabde"/>
      <stop offset=".27" stop-color="#46a4db"/>
      <stop offset=".49" stop-color="#1c99d5"/>
      <stop offset=".58" stop-color="#0894d3"/>
      <stop offset="1" stop-color="#0580c4"/>
    </linearGradient>
    <clipPath id="clippath-14">
      <rect class="cls-1" x="59.87" y="28.24" width="31.91" height="33.44"/>
    </clipPath>
    <clipPath id="clippath-15">
      <rect class="cls-1" x="99.62" y="19.18" width="10.53" height="36.06"/>
    </clipPath>
    <clipPath id="clippath-16">
      <rect class="cls-1" x="51.96" y="297.59" width="17.56" height="17.73"/>
    </clipPath>
    <clipPath id="clippath-17">
      <rect class="cls-1" x="57.23" y="297.23" width="2.23" height="2.23"/>
    </clipPath>
    <clipPath id="clippath-18">
      <rect class="cls-1" x="153.53" y="306.89" width="1.86" height="1.85"/>
    </clipPath>
    <clipPath id="clippath-19">
      <rect class="cls-1" x="150.41" y="312.98" width="24.49" height="1.93"/>
    </clipPath>
    <clipPath id="clippath-20">
      <rect class="cls-1" x="149.89" y="297.92" width="11.81" height="2.38"/>
    </clipPath>
    <clipPath id="clippath-21">
      <rect class="cls-1" x="98.58" y="272.16" width="22.77" height="5.91"/>
    </clipPath>
    <clipPath id="clippath-22">
      <rect class="cls-1" x="131.33" y="211.46" width="4.78" height="10.18"/>
    </clipPath>
    <clipPath id="clippath-23">
      <rect class="cls-1" x="104.81" y="213.07" width="19.89" height="28"/>
    </clipPath>
  </defs>
  <path class="cls-11" d="M10.73,241.62s-4.36,1.77,.67,11.02c5.03,9.26,8.46,13.81,8.46,13.81,0,0,.91,2.16-.92,2.54-1.82,.39-5.88-.15-6.64,2.11-.79,2.35,.96,4.5,4.44,6.34,3.48,1.84,10.95,6.14,11.62,6.53,.66,.39,1.34,1.38,.14,1.84-1.2,.46-10.26,1.64-9.44,5.91,.82,4.26,11.34,7.79,12.49,8.2,1.14,.41,1.43,.88,1.35,1.5-.08,.62-3.16,.73-5.72,1.18-2.56,.44-5.45,1.4-4.78,3.82s6.99,7.38,22.02,8.46l7,.04,3.65-6.01c7.04-13.33,6.16-21.31,4.47-23.17-1.7-1.85-4.04,.09-5.77,2.03-1.73,1.94-3.45,4.5-4.02,4.23-.57-.26-.82-.75-.56-1.94,.26-1.19,2.83-11.98-.35-14.93-3.18-2.95-8.98,4.11-10.01,4.89-1.03,.78-1.51-.33-1.49-1.09,.02-.78,.32-9.39,.6-13.31,.28-3.92-.62-6.54-3.03-7.12-2.32-.55-4.01,3.17-5.3,4.52-1.29,1.34-2.64-.56-2.64-.56,0,0-2.05-5.33-7.25-14.49-5.2-9.16-9.08-6.31-9.08-6.31"/>
  <path class="cls-16" d="M51.84,316.57c-3.79-6.74-10.33-18.85-15.99-29.21-5.66-10.36-10.8-19.73-14.55-26.49-1.88-3.37-3.4-6.11-4.45-8.01-.52-.94-.93-1.67-1.21-2.18-.13-.24-.24-.43-.31-.57-.07-.13-.1-.2-.1-.2,0,0,.04,.06,.12,.19,.08,.13,.19,.32,.33,.56,.29,.5,.71,1.23,1.24,2.16,1.08,1.88,2.62,4.6,4.52,7.97,3.79,6.75,8.95,16.11,14.61,26.46,5.66,10.36,12.18,22.47,15.93,29.24"/>
  <path class="cls-16" d="M17.95,272.09s.18,.03,.49,.12c.31,.09,.76,.24,1.31,.42,1.1,.37,2.61,.92,4.27,1.56,1.63,.64,3.1,1.21,4.23,1.66,.51,.19,.94,.36,1.28,.49,.3,.11,.47,.18,.46,.2,0,.01-.18-.03-.49-.12-.31-.09-.76-.24-1.31-.43-1.1-.38-2.6-.96-4.25-1.6-1.63-.62-3.11-1.19-4.24-1.62-.51-.19-.94-.36-1.29-.49-.3-.12-.47-.19-.46-.2"/>
  <path class="cls-16" d="M30.46,276.09c-.06-.02,.95-3.18,2.24-7.06,1.3-3.88,2.39-7.01,2.45-6.99,.06,.02-.95,3.18-2.24,7.06-1.29,3.88-2.39,7.01-2.45,6.99"/>
  <path class="cls-16" d="M38.44,292.39s.09-.16,.27-.44c.21-.31,.48-.7,.8-1.15,.67-.98,1.6-2.33,2.56-3.86,.97-1.53,1.8-2.94,2.39-3.97,.28-.48,.51-.89,.7-1.22,.17-.29,.27-.44,.28-.44,.01,0-.06,.18-.2,.48-.14,.3-.36,.73-.64,1.25-.56,1.05-1.37,2.48-2.34,4.01-.97,1.53-1.91,2.88-2.62,3.83-.36,.48-.65,.86-.86,1.12-.21,.26-.33,.4-.34,.39"/>
  <path class="cls-16" d="M26.33,291.26s.17-.02,.48,0c.35,.02,.79,.04,1.3,.07,1.09,.07,2.6,.18,4.27,.31,1.67,.13,3.18,.27,4.27,.37,.51,.06,.94,.1,1.29,.14,.3,.04,.47,.07,.47,.08,0,.01-.17,.01-.48,0-.35-.02-.79-.04-1.3-.07-1.1-.07-2.61-.18-4.27-.31-1.67-.13-3.18-.27-4.27-.37-.51-.05-.94-.1-1.29-.14-.3-.04-.47-.06-.47-.08"/>
  <path class="cls-16" d="M31.54,306.55s.22-.01,.61,0c.43,.02,.99,.05,1.66,.08,1.4,.08,3.34,.2,5.48,.35,2.14,.15,4.08,.3,5.48,.42,.67,.06,1.23,.11,1.66,.15,.39,.04,.61,.07,.6,.08,0,.01-.22,.01-.61,0-.43-.02-.99-.05-1.66-.08-1.4-.08-3.34-.2-5.48-.35-2.14-.15-4.07-.3-5.48-.42-.67-.06-1.22-.11-1.66-.15-.39-.04-.61-.07-.61-.09"/>
  <path class="cls-16" d="M46.67,307.51s.11-.21,.33-.56c.25-.39,.57-.89,.96-1.5,.81-1.27,1.92-3.02,3.09-5,1.18-1.97,2.19-3.79,2.92-5.1,.35-.63,.64-1.16,.86-1.56,.2-.37,.33-.57,.34-.56,.01,0-.08,.22-.26,.6-.18,.38-.45,.93-.8,1.59-.69,1.34-1.69,3.17-2.87,5.14-1.17,1.98-2.31,3.72-3.15,4.97-.42,.62-.77,1.12-1.02,1.46-.25,.34-.39,.53-.4,.52"/>
  <path class="cls-11" d="M146.33,55.25c0,17.33,14.05,31.38,31.38,31.38s31.38-14.05,31.38-31.38-14.05-31.38-31.38-31.38-31.38,14.05-31.38,31.38"/>
  <path class="cls-7" d="M151.59,55.25c0-14.4,11.72-26.12,26.12-26.12s26.12,11.72,26.12,26.12-11.72,26.12-26.12,26.12-26.12-11.72-26.12-26.12m4.47,0c0,11.94,9.71,21.65,21.65,21.65s21.65-9.71,21.65-21.65-9.71-21.65-21.65-21.65-21.65,9.71-21.65,21.65"/>
  <path class="cls-7" d="M168.26,54.56c0-5.3,4.32-9.62,9.62-9.62s9.62,4.32,9.62,9.62-4.32,9.62-9.62,9.62-9.62-4.31-9.62-9.62m4.47,0c0,2.84,2.31,5.15,5.15,5.15s5.15-2.31,5.15-5.15-2.31-5.15-5.15-5.15-5.15,2.31-5.15,5.15"/>
  <polygon class="cls-16" points="177.88 54.56 190.04 54.56 187.92 58.31 216.53 71.42 215.57 73.03 186.86 60.07 184.89 63.8 177.88 54.56"/>
  <path class="cls-16" d="M216.53,71.42l.3-.3c1.5-1.46,3.67-2,5.68-1.42l11.41,3.32-6.36,2.79,2.55,6.79-10.71-3.82c-2.41-.86-3.98-3.2-3.85-5.77l.97-1.61Z"/>
  <path class="cls-16" d="M28.72,112.4c1.37-.83,2.84-1.46,4.34-1.89l.9-4.3,7.26-.13,1.05,4.26c1.52,.38,3.01,.95,4.41,1.74l3.67-2.41,5.23,5.05-2.28,3.75c.83,1.37,1.46,2.84,1.89,4.35l4.3,.89,.13,7.26-4.26,1.05c-.38,1.52-.95,3.01-1.73,4.41l2.41,3.67-5.05,5.23-3.75-2.28c-1.37,.83-2.84,1.46-4.35,1.89l-.9,4.3-7.26,.13-1.05-4.27c-1.52-.38-3.01-.95-4.41-1.73l-3.67,2.41-5.23-5.05,2.28-3.75c-.83-1.37-1.46-2.84-1.89-4.34l-4.3-.89-.13-7.27,4.27-1.04c.38-1.52,.95-3.01,1.73-4.41l-2.41-3.67,5.05-5.23,3.75,2.28Zm3.87,9.68c-2.99,3.1-2.9,8.03,.19,11.02,3.1,2.99,8.03,2.9,11.02-.19,2.99-3.1,2.9-8.03-.19-11.02-3.1-2.99-8.03-2.9-11.02,.19"/>
  <path class="cls-11" d="M15.83,154.27c.82-.5,1.7-.87,2.6-1.13l.54-2.57,4.35-.08,.63,2.55c.91,.22,1.8,.57,2.64,1.04l2.2-1.44,3.13,3.02-1.36,2.25c.5,.82,.87,1.7,1.13,2.6l2.57,.54,.08,4.35-2.55,.63c-.22,.91-.57,1.8-1.04,2.64l1.44,2.2-3.02,3.13-2.25-1.36c-.82,.5-1.7,.87-2.6,1.13l-.54,2.57-4.35,.08-.63-2.55c-.91-.23-1.8-.57-2.64-1.04l-2.2,1.44-3.13-3.02,1.36-2.25c-.5-.82-.87-1.7-1.13-2.6l-2.57-.54-.08-4.35,2.55-.63c.23-.91,.57-1.8,1.04-2.64l-1.44-2.2,3.02-3.13,2.25,1.36Zm2.32,5.79c-1.79,1.85-1.74,4.81,.12,6.6,1.85,1.79,4.81,1.74,6.6-.12,1.79-1.85,1.74-4.81-.12-6.6-1.85-1.79-4.81-1.74-6.6,.12"/>
  <path class="cls-11" d="M18.14,160.07s.24-.34,.87-.76c.61-.41,1.68-.86,3.04-.72,.67,.07,1.4,.29,2.07,.74,.66,.44,1.28,1.07,1.67,1.88,.2,.4,.35,.85,.42,1.31,.08,.46,.1,.95,.03,1.44-.12,.98-.58,1.93-1.29,2.69-.73,.74-1.67,1.24-2.64,1.39-.48,.09-.97,.09-1.44,.02-.47-.06-.92-.19-1.32-.38-.83-.36-1.48-.96-1.94-1.61-.46-.65-.71-1.38-.81-2.04-.19-1.35,.23-2.44,.61-3.07,.4-.64,.73-.9,.73-.9,.02,.02-.28,.31-.64,.95-.35,.63-.72,1.69-.52,2.99,.11,.64,.35,1.33,.8,1.94,.45,.61,1.07,1.18,1.86,1.51,.39,.18,.81,.29,1.26,.35,.44,.06,.9,.05,1.36-.03,.92-.15,1.81-.62,2.49-1.32,.68-.71,1.11-1.62,1.23-2.54,.07-.46,.06-.92-.02-1.36-.07-.44-.2-.86-.39-1.24-.36-.78-.95-1.38-1.57-1.81-.63-.43-1.33-.65-1.97-.73-1.3-.16-2.35,.25-2.97,.62-.63,.38-.9,.7-.92,.67"/>
  <path class="cls-11" d="M15.83,154.27s-.05-.02-.15-.08c-.11-.06-.25-.14-.43-.25-.39-.23-.96-.57-1.69-1h.05c-.77,.8-1.78,1.86-3,3.14v-.09c.45,.67,.93,1.4,1.46,2.19l.03,.04-.02,.04c-.43,.77-.79,1.65-1.02,2.62v.05s-.06,.01-.06,.01c-.8,.2-1.66,.41-2.55,.63l.07-.09c.03,1.37,.06,2.82,.09,4.35l-.08-.1c.8,.16,1.67,.34,2.58,.53h.06s.02,.08,.02,.08c.24,.84,.61,1.73,1.12,2.57l.04,.06-.04,.06c-.42,.7-.89,1.47-1.36,2.25l-.02-.15c.98,.95,2.05,1.97,3.13,3.02h-.15c.68-.46,1.43-.96,2.2-1.46l.07-.04,.07,.04c.77,.43,1.66,.79,2.61,1.02l.08,.02,.02,.08c.2,.8,.41,1.67,.63,2.55l-.13-.1c1.38-.02,2.85-.05,4.35-.08l-.13,.11c.17-.81,.35-1.69,.54-2.57l.02-.08,.08-.02c.86-.24,1.74-.62,2.57-1.11h0s.07-.04,.07-.04l.07,.04c.76,.46,1.51,.91,2.25,1.36l-.17,.02c1.02-1.06,2.03-2.1,3.02-3.13l-.02,.16c-.48-.74-.96-1.47-1.44-2.2l-.04-.07,.04-.07c.46-.83,.8-1.71,1.03-2.61l.02-.08,.08-.02c.86-.21,1.71-.42,2.55-.62l-.1,.13c-.02-1.49-.05-2.93-.07-4.35l.1,.12c-.87-.18-1.73-.36-2.57-.54h-.07s-.02-.08-.02-.08c-.26-.92-.64-1.79-1.11-2.57l-.04-.06,.04-.06c.47-.77,.92-1.51,1.37-2.24l.02,.14c-1.1-1.06-2.14-2.07-3.12-3.03h.13c-.77,.52-1.5,.99-2.2,1.45l-.05,.03-.05-.03c-.88-.49-1.75-.82-2.61-1.04h-.05s-.01-.06-.01-.06c-.22-.93-.43-1.76-.62-2.55l.08,.06c-1.68,.02-3.12,.04-4.35,.06l.06-.05c-.22,1.03-.4,1.87-.55,2.57v.02s-.03,0-.03,0c-.92,.26-1.57,.56-1.99,.76-.2,.1-.36,.19-.47,.24-.11,.06-.16,.08-.16,.08,0,0,.05-.04,.14-.1,.1-.06,.25-.15,.46-.26,.42-.22,1.06-.54,1.99-.81l-.03,.03c.14-.7,.31-1.55,.52-2.58v-.05s.06,0,.06,0c1.23-.03,2.66-.06,4.35-.1h.06s.02,.06,.02,.06c.2,.79,.4,1.62,.63,2.55l-.06-.06c.87,.21,1.77,.54,2.66,1.04h-.1c.7-.46,1.42-.93,2.19-1.44l.07-.04,.06,.06c.99,.95,2.03,1.95,3.14,3.01l.06,.06-.05,.08c-.44,.73-.89,1.48-1.36,2.25v-.12c.49,.8,.88,1.69,1.15,2.63l-.09-.08c.84,.17,1.7,.35,2.57,.53l.1,.02v.1c.03,1.41,.06,2.86,.08,4.35v.1s-.1,.02-.1,.02c-.84,.21-1.69,.42-2.55,.63l.1-.09c-.23,.92-.58,1.82-1.05,2.67v-.14c.47,.72,.95,1.46,1.44,2.2l.06,.09-.07,.08c-.99,1.03-2,2.07-3.02,3.13l-.07,.08-.09-.05c-.74-.45-1.49-.9-2.25-1.36h.14c-.84,.51-1.75,.9-2.63,1.14l.09-.1c-.18,.88-.37,1.76-.54,2.57l-.02,.1h-.11c-1.5,.03-2.97,.05-4.35,.08h-.1s-.02-.1-.02-.1c-.22-.88-.43-1.75-.62-2.55l.09,.1c-.97-.24-1.88-.61-2.67-1.05h.13c-.76,.49-1.52,.99-2.2,1.43l-.08,.05-.07-.07c-1.09-1.05-2.14-2.07-3.13-3.02l-.07-.07,.05-.08c.48-.78,.94-1.55,1.37-2.24v.12c-.52-.86-.9-1.77-1.14-2.63l.08,.08c-.9-.19-1.78-.37-2.57-.54l-.08-.02v-.08c-.02-1.53-.05-2.98-.07-4.35v-.08s.07-.02,.07-.02c.9-.22,1.76-.43,2.55-.62l-.07,.06c.24-.98,.62-1.87,1.05-2.66v.08c-.51-.79-.99-1.54-1.43-2.2l-.03-.05,.04-.04c1.24-1.27,2.26-2.31,3.04-3.11l.02-.02,.03,.02c.72,.45,1.27,.79,1.65,1.03,.18,.11,.32,.2,.43,.27,.1,.06,.14,.1,.14,.1"/>
  <polygon class="cls-7" points="263.42 145.58 263.51 134.11 274.58 136.79 263.42 145.58"/>
  <rect class="cls-7" x="273.03" y="137.21" width="6.47" height="26.17" transform="translate(-33.74 203.28) rotate(-38.25)"/>
  <polygon class="cls-11" points="248.95 173.7 250.5 150.45 272.61 157.21 248.95 173.7"/>
  <rect class="cls-11" x="267.85" y="158.23" width="13.13" height="53.12" transform="translate(-56.37 190.03) rotate(-34.86)"/>
  <path class="cls-18" d="M305.27,315.29c0,.1-68.34,.18-152.63,.18s-152.64-.08-152.64-.18,68.33-.18,152.64-.18,152.63,.08,152.63,.18"/>
  <path class="cls-19" d="M230.06,285c1.46,.49,2.6,1.71,3.25,3.11,.64,1.4,.82,2.97,.78,4.51-.09,2.98-1.51,6.1-3.11,8.61-2.67-1.96-3.56-5.69-3.89-7.61-.53-3.04,.37-8.85,2.98-8.61"/>
  <path class="cls-19" d="M234.27,305.85c-.54-1.63,0-3.52,1.18-4.77,1.18-1.25,2.93-1.88,4.65-1.9,.8,0,1.67,.15,2.18,.76,.47,.57,.5,1.43,.21,2.11-.29,.68-.84,1.23-1.43,1.67-2.04,1.53-4.29,2.64-6.79,2.12"/>
  <path class="cls-18" d="M231.85,315.16s0-.22,.04-.61c.04-.43,.1-.99,.16-1.66,.16-1.39,.35-3.38,1.25-5.38,.89-1.99,2.24-3.51,3.42-4.31,.59-.41,1.1-.67,1.47-.81,.18-.08,.33-.12,.43-.15,.1-.03,.15-.04,.16-.03,.02,.05-.84,.28-1.97,1.11-1.13,.82-2.44,2.32-3.31,4.27-.89,1.95-1.1,3.92-1.29,5.31-.09,.7-.17,1.27-.23,1.66-.06,.39-.11,.61-.12,.6"/>
  <path class="cls-18" d="M229.78,289.48s.02,.09,.05,.26c.03,.2,.06,.45,.11,.76,.09,.66,.21,1.61,.35,2.79,.28,2.36,.61,5.62,.9,9.23,.29,3.61,.48,6.89,.58,9.26,.05,1.19,.08,2.14,.1,2.81,0,.31,0,.57,.01,.76,0,.17,0,.27-.01,.27,0,0-.02-.09-.03-.26-.01-.2-.03-.45-.05-.76-.04-.69-.1-1.64-.17-2.81-.14-2.37-.35-5.64-.64-9.25-.29-3.61-.6-6.87-.84-9.23-.12-1.16-.21-2.11-.28-2.8-.03-.31-.05-.56-.07-.76-.01-.17-.02-.27,0-.27"/>
  <path class="cls-19" d="M230.13,308.01c-.87-3.52-3.55-6.55-6.94-7.83-.86-.33-1.97-.5-2.6,.18-.63,.68-.38,1.77,.02,2.6,1.69,3.46,5.64,5.67,9.48,5.29"/>
  <path class="cls-18" d="M223.83,302.94s.2,.05,.55,.19c.17,.06,.39,.15,.62,.27,.24,.12,.52,.23,.8,.41,.29,.17,.61,.35,.92,.58,.33,.21,.65,.48,.99,.76,.67,.58,1.35,1.28,1.95,2.11,.59,.83,1.04,1.7,1.38,2.52,.15,.41,.3,.81,.39,1.19,.12,.38,.18,.74,.24,1.06,.07,.33,.08,.63,.12,.89,.03,.26,.04,.49,.04,.68,0,.37,0,.58-.02,.58-.05,0-.03-.82-.29-2.12-.07-.32-.14-.67-.26-1.04-.1-.37-.25-.76-.41-1.16-.34-.8-.79-1.65-1.37-2.46-.59-.81-1.25-1.5-1.9-2.08-.33-.28-.65-.55-.97-.76-.31-.24-.62-.42-.9-.59-1.13-.67-1.91-.95-1.89-1"/>
  <path class="cls-9" d="M236.98,117.8l8.18-4.64c3.33,2.05,7.25,3.24,11.46,3.24,12.08,0,21.87-9.79,21.87-21.87s-9.79-21.87-21.87-21.87-21.87,9.79-21.87,21.87c0,5.04,1.71,9.69,4.58,13.39h-.01s-2.33,9.89-2.33,9.89Z"/>
  <path class="cls-18" d="M236.98,117.8c.14-.63,.83-3.67,2.24-9.92l.03-.14,.11,.08h.01s-.13,.14-.13,.14c-1.94-2.47-3.83-6.04-4.44-10.51-.14-1.11-.23-2.27-.18-3.47,.03-.6,.05-1.2,.1-1.82,.09-.61,.18-1.23,.28-1.85,.49-2.48,1.43-5.02,2.9-7.39,1.46-2.37,3.45-4.56,5.89-6.31,2.44-1.75,5.33-3.08,8.47-3.71,3.14-.62,6.5-.57,9.75,.26,3.24,.83,6.41,2.38,9.02,4.7,2.66,2.35,4.79,5.25,6.03,8.45,1.26,3.18,1.74,6.58,1.51,9.83-.23,3.25-1.17,6.35-2.67,9.02-1.49,2.67-3.48,4.93-5.7,6.67-2.22,1.74-4.67,2.97-7.11,3.73-2.45,.76-4.88,.96-7.13,.95-4.53-.13-8.25-1.65-10.86-3.28h.09c-5.19,2.88-7.68,4.27-8.22,4.56,.53-.31,2.99-1.74,8.13-4.72l.04-.03,.04,.03c2.61,1.59,6.3,3.07,10.78,3.18,2.22,0,4.62-.21,7.04-.97,2.4-.76,4.82-1.98,7-3.71,2.18-1.72,4.14-3.95,5.6-6.58,1.47-2.63,2.39-5.69,2.61-8.88,.23-3.2-.25-6.54-1.49-9.67-1.22-3.15-3.32-6-5.94-8.31-2.56-2.28-5.68-3.81-8.87-4.62-3.2-.81-6.51-.87-9.6-.26-3.09,.61-5.94,1.91-8.34,3.64-2.41,1.73-4.37,3.88-5.82,6.21-1.45,2.33-2.39,4.83-2.88,7.28-.1,.62-.19,1.23-.28,1.83-.05,.61-.07,1.21-.1,1.8-.06,1.18,.02,2.33,.16,3.43,.58,4.42,2.43,7.96,4.33,10.43l.43,.56-.56-.43h-.01s.14-.06,.14-.06c-1.52,6.22-2.27,9.25-2.42,9.87"/>
  <path class="cls-15" d="M253.04,92.52h1.28l2.79-3.89v-2.55s1.98-.12,1.74,3.22c-.23,3.35,.02,2.49,.02,2.49,0,0,4.2,.02,4.55,.38,.25,.27,.37,4.44,.41,6.7,.02,1.14-.68,2.2-1.73,2.47-.15,.04-.3,.06-.45,.06-1.05,0-6.4-.85-6.4-.85h-2.21v-8.03Z"/>
  <polygon class="cls-15" points="249.38 91.82 250.16 100.57 252.36 100.57 252.36 91.99 249.38 91.82"/>
  <path class="cls-10" d="M76.92,131.09l-10.5,3.85-5.54,11.66c-.26,2.4-6.3,26.7-6.3,26.7l-6.05,21.63c11.58,5.29,26.95,12.85,42.33,12.24l1.98-18.55,10.55-40.32-8.05-15.99-2.75-.37-15.66-.84Z"/>
  <path class="cls-19" d="M28.12,289.16l-7.91,10.32s7.83,11.5,6.55,13.55l-20.55-14.61,11.66-16.58,10.24,7.32Z"/>
  <g class="cls-44">
    <g class="cls-3">
      <path class="cls-9" d="M14.49,294.07c-.48-.17-1.07,.08-1.26,.55-.19,.47,.06,1.07,.53,1.25,.47,.18,1.19-.1,1.33-.58,.14-.49-.19-1.18-.7-1.25"/>
    </g>
  </g>
  <g class="cls-44">
    <g class="cls-20">
      <path class="cls-9" d="M6.22,298.42l1.24-1.62,19.24,14.62s.63,1.05,.07,1.62l-20.55-14.61Z"/>
    </g>
  </g>
  <path class="cls-18" d="M20.62,299.61c-.08,.1-.61-.21-1.33-.24-.72-.05-1.29,.21-1.35,.1-.08-.08,.5-.58,1.37-.53,.88,.04,1.4,.59,1.31,.67"/>
  <path class="cls-18" d="M22.14,302.03c-.05,.11-.6-.02-1.25,.16-.65,.16-1.06,.56-1.16,.49-.11-.05,.24-.69,1.05-.9,.8-.22,1.42,.16,1.36,.26"/>
  <path class="cls-18" d="M21.53,305.48c-.11-.04,.11-.64,.76-1.01,.65-.37,1.27-.25,1.26-.14,0,.12-.52,.2-1.04,.51-.54,.3-.86,.7-.97,.64"/>
  <path class="cls-18" d="M22.16,297.06c-.11,.06-.47-.4-1.06-.77-.59-.38-1.16-.5-1.15-.62,0-.11,.69-.18,1.38,.26,.7,.43,.94,1.09,.84,1.13"/>
  <g class="cls-43">
    <g class="cls-23">
      <polygon class="cls-5" points="24.53 294.15 23.12 295.99 13.08 288.72 14.28 287.01 24.53 294.15"/>
    </g>
  </g>
  <path class="cls-18" d="M23.72,294.95s-.47-.18-1.03-.74c-.28-.28-.57-.65-.84-1.1-.13-.23-.26-.47-.37-.73-.05-.13-.12-.27-.14-.46-.04-.18,.09-.49,.33-.57,.22-.08,.45-.02,.6,.08,.15,.1,.26,.22,.35,.33,.19,.22,.35,.45,.48,.68,.27,.46,.42,.91,.51,1.3,.16,.78,.06,1.27,.01,1.27-.07,0-.08-.48-.3-1.19-.11-.35-.29-.76-.55-1.17-.13-.2-.29-.41-.46-.6-.18-.21-.36-.35-.49-.29-.05,.02-.06,.04-.06,.13,0,.09,.05,.21,.1,.34,.1,.25,.21,.48,.32,.7,.23,.43,.49,.8,.72,1.09,.47,.58,.84,.89,.8,.94"/>
  <path class="cls-18" d="M23.48,295s0-.51,.43-1.19c.21-.33,.52-.7,.94-1.03,.21-.16,.45-.31,.71-.44,.27-.12,.61-.29,1.03-.05,.21,.14,.27,.42,.23,.59-.03,.19-.1,.32-.16,.45-.13,.27-.3,.5-.49,.69-.38,.39-.81,.63-1.2,.75-.78,.25-1.28,.07-1.27,.03,0-.07,.49-.02,1.16-.31,.33-.15,.7-.38,1.01-.74,.16-.18,.3-.38,.4-.61,.12-.24,.17-.48,.07-.51-.1-.07-.39-.03-.6,.08-.24,.11-.45,.24-.65,.38-.39,.28-.7,.6-.93,.89-.46,.58-.62,1.03-.68,1.01"/>
  <path class="cls-19" d="M90.62,296.09l-4.56,11.46s13.08,4.73,13.25,7.14l-25.21,.2,3.93-18.74,12.59-.07Z"/>
  <g class="cls-44">
    <g class="cls-22">
      <path class="cls-9" d="M78.26,306.52c-.49,.14-.82,.69-.7,1.18,.12,.49,.68,.83,1.16,.71,.49-.13,.91-.78,.74-1.25-.17-.48-.85-.84-1.29-.6"/>
    </g>
  </g>
  <g class="cls-44">
    <g class="cls-21">
      <path class="cls-9" d="M74.1,314.89l.43-2.03,23.78,.56s1.13,.48,1.01,1.27l-25.21,.2Z"/>
    </g>
  </g>
  <path class="cls-18" d="M86.47,307.42c0,.12-.62,.18-1.22,.59-.61,.38-.92,.92-1.04,.87-.11-.02,.07-.76,.8-1.23,.73-.48,1.48-.34,1.45-.23"/>
  <path class="cls-18" d="M89.13,308.49c.03,.12-.5,.33-.92,.86-.43,.51-.53,1.08-.65,1.07-.12,.02-.21-.7,.32-1.34,.52-.65,1.24-.7,1.25-.59"/>
  <path class="cls-18" d="M90.65,311.64c-.11,.03-.29-.59,.02-1.26,.31-.68,.88-.95,.94-.85,.07,.1-.3,.47-.55,1.03-.26,.55-.29,1.07-.41,1.09"/>
  <path class="cls-18" d="M87.45,305.08c-.05,.11-.62-.05-1.31,0-.7,.04-1.24,.28-1.3,.17-.07-.09,.45-.55,1.27-.6,.82-.06,1.4,.33,1.34,.43"/>
  <path class="cls-18" d="M87.69,303.57c0,.05-.48,.13-1.26,0-.39-.06-.84-.19-1.32-.4-.24-.1-.49-.23-.73-.38-.12-.07-.26-.15-.38-.29-.14-.13-.22-.45-.06-.65,.13-.19,.36-.28,.54-.29,.19,0,.34,.03,.47,.06,.28,.07,.55,.16,.79,.26,.48,.21,.88,.49,1.17,.75,.59,.54,.79,1,.75,1.02-.05,.04-.34-.34-.94-.78-.3-.22-.68-.45-1.13-.63-.23-.09-.47-.16-.73-.22-.27-.07-.5-.07-.56,.05-.02,.04-.03,.06,.03,.14,.06,.07,.17,.14,.28,.21,.23,.14,.45,.27,.67,.38,.44,.22,.86,.36,1.22,.46,.72,.2,1.2,.23,1.2,.29"/>
  <path class="cls-18" d="M87.66,303.57s-.29-.42-.34-1.22c-.02-.4,.01-.88,.16-1.38,.08-.25,.18-.51,.32-.77,.15-.25,.32-.58,.8-.64,.25-.01,.46,.18,.53,.35,.08,.17,.1,.32,.13,.46,.05,.29,.04,.58,0,.85-.08,.54-.29,.99-.53,1.31-.49,.66-1,.81-1.01,.77-.04-.06,.39-.3,.76-.93,.18-.31,.35-.72,.39-1.19,.02-.23,.02-.48-.03-.73-.04-.27-.14-.48-.24-.46-.12,0-.34,.2-.44,.42-.13,.23-.23,.46-.31,.69-.15,.46-.22,.89-.23,1.26-.03,.74,.11,1.2,.04,1.22"/>
  <path class="cls-12" d="M120.12,89.48l-3.88,26.36-17.76,17.02,6.58,11.34,20.16-18.82c1.52-1.15,2.59-2.8,3.03-4.66v-27.24s-.13-8.87-.13-8.87l-8,4.89Z"/>
  <path class="cls-17" d="M49.02,192.87c-.52,1.04-10.06,50.58-10.06,50.58l-26.66,43.38,13.86,10.09,32.94-42.92,18.01-54.56-28.08-6.56Z"/>
  <path class="cls-17" d="M85.22,198.02c.78,.52,21.17,43.07,20.91,46.18-.26,3.11-15.63,59.92-15.63,59.92l-15.66-2.89,9.7-55.42-18.41-25.84,6.01-23.51,13.08,1.56Z"/>
  <polygon class="cls-15" points="106.58 123.46 96.48 131.86 94.59 132.15 102.2 148.97 116.23 137.64 106.58 123.46"/>
  <path class="cls-15" d="M76.92,131.09l-10.5,3.85-5.54,11.66c-.26,2.4-6.3,26.7-6.3,26.7l-6.05,21.63c11.58,5.29,26.95,12.85,42.33,12.24l1.98-18.55,10.65-40.68-8.15-15.63-2.75-.37-15.66-.84Z"/>
  <path class="cls-12" d="M92.33,134.27c.25-1.94,.47-3.56,.51-3.76,0,0,6.64,.24,7.97-6.19,.64-3.11,1.44-9.62,2.09-15.52,.7-6.33-3.58-12.14-9.84-13.35l-.62-.12c-6.79-.91-11.34,4.35-12.06,11.16l-3.26,24.85s6.29,5.61,9.95,7.42c4.74,2.33,5.27-4.49,5.27-4.49"/>
  <path class="cls-4" d="M92.86,130.42s-4.14-.46-7.95-4.01c0,0,1.09,5.02,7.64,5.69l.31-1.67Z"/>
  <path class="cls-18" d="M101.31,111.83c-.14,.11-1.01-.27-2.22-.18-1.21,.08-2.09,.57-2.22,.48-.07-.04,.07-.24,.45-.46,.37-.22,1.02-.46,1.77-.51,.76-.05,1.4,.1,1.77,.27,.38,.17,.51,.35,.45,.4"/>
  <path class="cls-18" d="M91.17,110.98c-.17,.04-.78-.68-1.9-1.14-1.12-.47-2.11-.42-2.19-.56-.04-.07,.16-.18,.6-.21,.43-.03,1.11,.05,1.8,.34,.7,.29,1.21,.7,1.46,1.02,.26,.32,.3,.53,.22,.55"/>
  <path class="cls-18" d="M90.56,112.65c-.06,.38-.43,.64-.83,.59-.4-.05-.67-.4-.61-.78,.06-.38,.43-.64,.82-.59,.4,.06,.67,.41,.61,.78"/>
  <path class="cls-18" d="M100.33,114.4c-.06,.38-.43,.64-.83,.59-.4-.05-.67-.4-.61-.78,.06-.38,.43-.64,.82-.58,.4,.05,.67,.4,.61,.78"/>
  <path class="cls-18" d="M93.3,118.05c0-.06,.64-.04,1.67,.02,.26,.02,.51,.02,.58-.15,.1-.17,.04-.46-.02-.78-.12-.66-.24-1.35-.38-2.07-.51-2.95-.83-5.35-.71-5.37,.12-.02,.63,2.35,1.14,5.3,.12,.73,.23,1.42,.34,2.08,.04,.31,.14,.67-.06,1.02-.1,.18-.32,.28-.49,.29-.17,.02-.32,0-.44-.02-1.02-.14-1.64-.26-1.63-.31"/>
  <path class="cls-18" d="M91.49,106c-.13,.23-.98-.06-2.03-.13-1.05-.09-1.94,.06-2.03-.19-.04-.12,.15-.32,.53-.49,.38-.17,.95-.3,1.58-.25,.63,.05,1.17,.26,1.52,.49,.35,.23,.5,.46,.44,.57"/>
  <path class="cls-18" d="M101.59,109.25c-.14,.18-.96-.14-1.99-.29-1.02-.17-1.9-.12-1.98-.34-.04-.1,.15-.26,.53-.37,.38-.11,.94-.17,1.55-.07,.62,.1,1.14,.33,1.47,.55,.33,.23,.47,.44,.41,.52"/>
  <path class="cls-12" d="M79.97,111.37c-.1-.07-4.18-2.17-4.89,2.27s3.89,4.24,3.92,4.11c.03-.13,.97-6.38,.97-6.38"/>
  <path class="cls-4" d="M77.92,115.85s-.09,.04-.23,.08c-.14,.04-.36,.04-.58-.08-.44-.25-.72-1.05-.61-1.86,.05-.4,.2-.78,.39-1.07,.19-.3,.43-.5,.68-.5,.24-.02,.39,.15,.42,.29,.04,.13,0,.22,.02,.23,.01,.01,.11-.06,.1-.25,0-.09-.04-.2-.13-.31-.09-.1-.24-.17-.41-.18-.35-.03-.7,.23-.92,.56-.23,.32-.41,.74-.47,1.19-.11,.9,.21,1.81,.82,2.1,.3,.13,.57,.08,.73,0,.15-.09,.19-.18,.18-.19"/>
  <path class="cls-18" d="M91.88,121.01c.06-.11-.78-.47-1.3-1.36-.26-.44-.38-.9-.48-1.24-.09-.34-.17-.55-.22-.55-.05,0-.06,.23-.03,.59,.03,.36,.13,.87,.42,1.37,.29,.5,.71,.83,1.04,1.01,.32,.18,.55,.21,.57,.18"/>
  <path class="cls-18" d="M112.22,103.99c-.04-.27-.2-.51-.42-.67-.47-.36-1.07-.39-1.63-.47-1.72-.23-3.37-.96-4.71-2.07-.56-1.06-1.22-2.07-1.95-3.03-1.73-2.26-3.19-3.84-4.78-4.71-2.07-1.13-5.65-1.91-7.98-1.59-2.33,.33-4.58,1.92-5.17,4.2-1.14-1.22-3.05-1.44-4.67-1l-.04-.02c-1.79,.41-2.99,2.11-3.7,3.8-.71,1.7-1.15,3.55-2.27,5.01-.23,.31-.51,.67-.38,1.03,.1,.28,.42,.43,.72,.42,.3,0,.58-.14,.84-.27-.25,.44-.49,.87-.74,1.31,.61,.18,1.26,.21,1.89,.1,.17,1.68,.38,3.61,.67,4.77,.72,.08,1.37,.21,1.77,.66,.54,.61,.69,1.67,1.73,1.4,.53-.14,1.12-1.15,1.36-1.65,1.54-3.31,2.35-6.96,2.37-10.61,.8-.67,1.74-1.19,2.73-1.52l-.09,.06c1.89-.42,4.02-.79,5.64,.26,1.26,.82,1.88,2.3,2.75,3.53,1.65,2.32,4.07,3.77,6.87,4.22-.12,1.84-.58,4.41-.7,6.25l1.89-2.75v.02c.15-.2,.28-.4,.41-.61l.04-.06h0c.2-.34,.4-.67,.64-.99,0,0,.01,.01,.02,.02,.89,.99,2.51-.17,1.85-1.33-.13-.23-.29-.44-.49-.62,.4,.48,1.05,.76,1.67,.65,.62-.11,1.15-.66,1.17-1.28,.02-.43-.24-.84-.6-1.05,.79,.16,1.63,.08,2.38-.24,.49-.21,.99-.58,.9-1.18"/>
  <path class="cls-19" d="M87.53,96.65s-.29,.14-.72,.52c-.43,.38-.94,1.06-1.25,2.04-.16,.49-.29,1.03-.36,1.63-.07,.6-.1,1.24-.14,1.93-.04,.68-.07,1.4-.2,2.14-.07,.37-.15,.74-.28,1.11-.13,.36-.27,.75-.59,1.04-.25,.23-.64,.3-.95,.2-.32-.1-.59-.3-.77-.57-.36-.54-.39-1.17-.43-1.73l.14,.03c-.28,.46-.57,.92-.95,1.27-.38,.35-.87,.55-1.35,.54-.24,0-.47-.07-.66-.2-.19-.12-.32-.31-.4-.5-.07-.19-.1-.4-.07-.59,.03-.19,.13-.37,.27-.48l.06,.07c-.57,.51-1.14,.76-1.52,.88-.19,.06-.35,.1-.45,.12-.1,.02-.16,.02-.16,.02,0,0,.05-.02,.15-.04,.1-.03,.25-.07,.44-.14,.38-.14,.93-.39,1.47-.9l.06,.07c-.25,.21-.31,.61-.16,.96,.08,.17,.19,.34,.36,.45,.17,.11,.38,.17,.6,.17,.44,0,.9-.18,1.25-.51,.36-.33,.64-.78,.92-1.24l.12-.2,.02,.23c.04,.56,.08,1.17,.41,1.65,.17,.23,.41,.42,.69,.5,.28,.09,.59,.03,.81-.17,.28-.25,.42-.62,.54-.97,.12-.36,.21-.72,.28-1.08,.13-.73,.17-1.44,.21-2.12,.04-.68,.07-1.33,.15-1.93,.08-.61,.22-1.16,.39-1.65,.34-.99,.87-1.68,1.32-2.05,.45-.37,.76-.47,.76-.47"/>
  <path class="cls-19" d="M106.89,105.36s-.02,.02-.06,.04c-.05,.03-.11,.06-.18,.1-.08,.04-.18,.1-.3,.14-.12,.05-.26,.12-.42,.16-.64,.21-1.64,.38-2.84,.17-1.19-.21-2.58-.8-3.75-1.91-1.19-1.09-2.16-2.6-2.91-4.29-.38-.84-.67-1.7-1.01-2.49-.33-.8-.72-1.54-1.22-2.15-.49-.61-1.09-1.1-1.74-1.36-.32-.14-.65-.2-.97-.23-.32-.02-.63,0-.92,.07-.58,.12-1.07,.38-1.45,.65-.38,.28-.65,.59-.85,.87-.37,.56-.43,.94-.45,.93,0,0,0-.02,.01-.07,.02-.05,.03-.12,.05-.19,.05-.17,.16-.41,.33-.71,.19-.28,.46-.61,.85-.9,.38-.29,.88-.56,1.48-.69,.3-.06,.62-.1,.96-.08,.33,.03,.68,.09,1.01,.23,.67,.27,1.29,.76,1.8,1.39,.52,.62,.91,1.38,1.25,2.18,.34,.8,.63,1.65,1.01,2.49,.74,1.67,1.7,3.17,2.87,4.24,1.15,1.1,2.5,1.69,3.68,1.91,1.18,.23,2.17,.07,2.8-.12,.64-.2,.96-.41,.97-.39"/>
  <path class="cls-19" d="M107.83,102.57s-.09,.06-.25,.14c-.17,.08-.42,.17-.73,.27-.32,.1-.7,.18-1.14,.23-.43,.04-.92,.06-1.42,.02-.5-.05-.98-.14-1.4-.26-.42-.13-.78-.27-1.08-.42-.29-.15-.52-.28-.67-.39-.15-.1-.23-.17-.22-.17,.02-.02,.35,.2,.95,.47,.3,.14,.66,.27,1.07,.38,.41,.11,.88,.2,1.37,.25,.49,.04,.97,.03,1.39,0,.43-.04,.81-.11,1.12-.19,.63-.16,1-.33,1.01-.3"/>
  <g class="cls-43">
    <g class="cls-27">
      <path class="cls-5" d="M63.66,152.33s8.78,12.71,15.08,12.6h2.21l1.05-1.89s13.96,2.83,17.09,1.69l-17.3-6.42-3.33,1.94-14.79-7.92Z"/>
    </g>
  </g>
  <path class="cls-12" d="M74.47,158.15s31.47,9.17,35.18,8.32c3.71-.85,26.7-19.28,26.7-19.28l-5.19-6.24-23.75,13.13-28.5-9.04-4.45,13.12Z"/>
  <path class="cls-15" d="M66.56,134.89s-5.26,1.16-6.04,9.81c-.93,10.32,19.45,18.39,19.45,18.39l10.07-16.84-23.48-11.35Z"/>
  <path class="cls-18" d="M77.47,141.62s.08,.02,.23,.08c.17,.08,.38,.17,.64,.29,.59,.28,1.39,.65,2.4,1.12,2.09,1.01,5.03,2.42,8.54,4.1l.15,.07-.08,.15c-1.99,3.44-4.34,7.51-6.85,11.86-.76,1.31-1.51,2.6-2.23,3.84l-.08,.13-.14-.05c-3-1.05-5.76-2.25-8.08-3.64-2.33-1.38-4.21-2.9-5.65-4.29-2.88-2.8-4.21-4.84-4.21-4.84,0,0,.11,.1,.3,.32,.21,.24,.48,.56,.82,.96,.73,.83,1.79,2.03,3.25,3.38,1.46,1.35,3.34,2.85,5.65,4.19,2.31,1.35,5.05,2.54,8.03,3.57l-.21,.08c.71-1.24,1.46-2.52,2.22-3.84,2.53-4.34,4.89-8.4,6.9-11.84l.07,.22c-3.49-1.74-6.4-3.18-8.48-4.22-.99-.5-1.79-.91-2.36-1.2-.25-.13-.45-.24-.62-.33-.14-.08-.21-.12-.2-.13"/>
  <path class="cls-18" d="M101.9,144.2c-.1,.04-.97-2.08-2.24-4.59-1.27-2.52-2.46-4.47-2.36-4.53,.04-.03,.39,.43,.9,1.21,.5,.78,1.15,1.89,1.79,3.16,.64,1.27,1.14,2.45,1.47,3.32,.33,.87,.49,1.42,.44,1.44"/>
  <path class="cls-19" d="M26.16,296.91s.04-.08,.14-.21c.11-.15,.26-.35,.44-.61,.41-.54,.99-1.32,1.73-2.31,1.53-2.01,3.71-4.89,6.41-8.45,5.45-7.13,12.96-16.94,21.25-27.78,.97-1.26,1.92-2.5,2.82-3.68l-.03,.05c3.97-11.95,7.5-22.58,10.05-30.25,1.28-3.8,2.31-6.87,3.03-9.01,.36-1.04,.64-1.86,.84-2.43,.09-.26,.17-.47,.23-.63,.05-.14,.08-.21,.09-.21,0,0-.01,.08-.05,.22-.05,.16-.11,.37-.19,.64-.18,.58-.44,1.4-.77,2.45-.7,2.15-1.69,5.23-2.93,9.05-2.52,7.68-6.01,18.32-9.93,30.28v.03s-.03,.02-.03,.02c-.9,1.17-1.85,2.42-2.82,3.68-8.33,10.82-15.86,20.61-21.34,27.72-2.73,3.52-4.95,6.38-6.5,8.38-.76,.97-1.36,1.73-1.78,2.27-.2,.24-.35,.44-.47,.58-.11,.13-.17,.19-.17,.19"/>
  <path class="cls-19" d="M90.45,242.88c.03,.1-1.35,.67-3.08,1.28-1.74,.61-3.17,1.03-3.2,.94-.03-.1,1.35-.67,3.08-1.28,1.73-.61,3.17-1.03,3.2-.94"/>
  <path class="cls-19" d="M90.26,247.32c-.03,.1-1.25-.16-2.72-.58-1.48-.42-2.65-.84-2.62-.93,.03-.1,1.25,.17,2.72,.58,1.48,.42,2.65,.84,2.62,.93"/>
  <path class="cls-18" d="M90.76,185.56s-.27,.22-.8,.56c-.52,.34-1.31,.8-2.3,1.33-1.98,1.06-4.84,2.31-8.14,3.26-3.3,.94-6.39,1.37-8.63,1.51-1.12,.07-2.03,.1-2.66,.08-.63,0-.97-.03-.97-.05s.35-.06,.97-.09c.62-.03,1.53-.09,2.64-.2,2.22-.21,5.28-.68,8.55-1.61,3.27-.94,6.12-2.14,8.12-3.14,1-.49,1.8-.91,2.35-1.22,.55-.3,.86-.46,.87-.44"/>
  <path class="cls-19" d="M194.48,296.5l4.68,11.41s-13.03,4.87-13.17,7.28l25.21-.06-4.13-18.69-12.59,.06Z"/>
  <g class="cls-44">
    <g class="cls-26">
      <path class="cls-9" d="M206.96,306.8c.49,.13,.83,.68,.71,1.17-.11,.49-.67,.84-1.16,.72-.49-.12-.92-.77-.75-1.25,.17-.48,.84-.85,1.29-.61"/>
    </g>
  </g>
  <g class="cls-44">
    <g class="cls-24">
      <path class="cls-9" d="M211.2,315.13l-.45-2.03-23.77,.81s-1.12,.49-.99,1.28l25.21-.06Z"/>
    </g>
  </g>
  <path class="cls-18" d="M198.75,307.78c0,.12,.62,.18,1.23,.57,.62,.38,.93,.91,1.04,.86,.11-.02-.07-.76-.82-1.22-.74-.47-1.48-.32-1.46-.21"/>
  <path class="cls-18" d="M196.11,308.88c-.03,.12,.51,.33,.92,.85,.43,.51,.54,1.07,.66,1.07,.12,.02,.2-.7-.33-1.34-.53-.64-1.25-.69-1.25-.57"/>
  <path class="cls-18" d="M194.62,312.05c.11,.03,.28-.59-.04-1.26-.31-.68-.89-.94-.95-.84-.07,.1,.31,.46,.56,1.02,.26,.55,.3,1.07,.42,1.08"/>
  <path class="cls-18" d="M197.76,305.46c.05,.11,.62-.06,1.31-.01,.7,.03,1.24,.26,1.3,.16,.07-.09-.46-.54-1.28-.58-.82-.05-1.4,.35-1.34,.44"/>
  <path class="cls-18" d="M197.5,303.95c0,.05,.49,.13,1.26,0,.39-.07,.84-.19,1.32-.41,.24-.11,.48-.24,.72-.39,.12-.08,.25-.15,.38-.3,.14-.13,.21-.46,.05-.65-.13-.19-.36-.28-.54-.28-.19,0-.34,.03-.47,.07-.28,.07-.54,.16-.78,.27-.48,.22-.87,.5-1.16,.77-.58,.54-.78,1-.74,1.03,.06,.04,.34-.35,.93-.79,.3-.22,.67-.46,1.12-.64,.23-.09,.47-.17,.72-.22,.27-.07,.49-.07,.56,.04,.03,.05,.03,.06-.03,.14-.06,.07-.17,.14-.28,.22-.22,.15-.45,.27-.67,.38-.44,.22-.86,.37-1.22,.47-.72,.2-1.2,.24-1.19,.3"/>
  <path class="cls-18" d="M197.53,303.95s.29-.42,.33-1.22c.02-.4-.02-.87-.18-1.38-.08-.25-.18-.51-.32-.76-.15-.25-.33-.58-.81-.64-.25,0-.46,.19-.53,.35-.08,.17-.1,.32-.13,.46-.05,.29-.04,.58,0,.85,.08,.54,.3,.98,.54,1.3,.49,.65,1.01,.8,1.02,.76,.04-.06-.39-.3-.77-.93-.19-.31-.35-.72-.4-1.19-.03-.23-.02-.48,.02-.73,.04-.27,.14-.49,.24-.46,.13,0,.34,.2,.44,.41,.13,.23,.23,.46,.31,.68,.16,.46,.23,.89,.25,1.26,.04,.74-.09,1.2-.03,1.22"/>
  <path class="cls-17" d="M210.99,201.85c-.71,.36-26.6,36.58-34.06,46.55-1.37,1.83-2.01,4.18-1.44,6.39,3.31,12.88,16.89,52.43,16.89,52.43l18.18-3.77-11.42-47.27,28.22-30.27-3.18-24.06h-13.17Z"/>
  <path class="cls-19" d="M198.89,256.91c-.05,.09-1.11-.42-2.36-1.14-1.25-.72-2.23-1.37-2.18-1.46,.05-.09,1.11,.43,2.36,1.14,1.25,.72,2.23,1.37,2.18,1.46"/>
  <path class="cls-14" d="M135.98,117.46c.12,.07,1.18,.6,2.17,1.09,1.16,.57,2.12,1.47,2.76,2.59,.75,1.29,1.66,2.86,1.74,2.92,.14,.1,3.74,2.91,3.74,2.91l-5.09,6.99-1.4-1.13s-5.08-.27-7-1.2c-1.91-.93-3.69-2.44-3.46-3.11,.22-.67,.29-.87,.29-.87,0,0-.8-1.18-.49-2.28,0,0-1.16-1.35-.95-2.3,.34-1.54,1.79-1.75,1.79-1.75,0,0-.57-1.56,0-2.4,.57-.84,1.71-1.08,1.71-1.08l4.76,2.05-.58-2.42Z"/>
  <path class="cls-19" d="M265.46,298.35l8.32,9.98s-7.35,11.81-6,13.8l19.94-15.43-12.32-16.09-9.94,7.73Z"/>
  <g class="cls-44">
    <g class="cls-25">
      <path class="cls-9" d="M279.27,302.7c.47-.19,1.07,.03,1.28,.49,.21,.46-.01,1.07-.48,1.28-.46,.2-1.2-.05-1.36-.53-.16-.48,.15-1.19,.64-1.27"/>
    </g>
  </g>
  <g class="cls-44">
    <g class="cls-28">
      <path class="cls-9" d="M287.72,306.7l-1.31-1.57-18.63,15.39s-.59,1.07,0,1.62l19.94-15.44Z"/>
    </g>
  </g>
  <path class="cls-18" d="M273.37,308.48c.08,.1,.6-.24,1.32-.3,.72-.08,1.29,.15,1.35,.05,.08-.09-.52-.56-1.39-.47-.87,.08-1.37,.65-1.28,.72"/>
  <path class="cls-18" d="M271.95,310.97c.05,.11,.6-.05,1.25,.11,.65,.14,1.08,.52,1.18,.44,.1-.06-.27-.68-1.08-.86-.81-.18-1.41,.22-1.34,.31"/>
  <path class="cls-18" d="M272.7,314.39c.1-.05-.14-.64-.8-.98-.66-.34-1.28-.2-1.26-.09,0,.12,.52,.18,1.06,.47,.55,.27,.89,.66,1,.6"/>
  <path class="cls-18" d="M271.73,306c.11,.06,.45-.42,1.03-.81,.57-.4,1.14-.55,1.13-.67,0-.11-.7-.15-1.37,.32-.68,.46-.9,1.13-.79,1.16"/>
  <g class="cls-43">
    <g class="cls-36">
      <polygon class="cls-5" points="269.25 303.19 270.73 304.97 280.46 297.3 279.19 295.64 269.25 303.19"/>
    </g>
  </g>
  <path class="cls-18" d="M270.09,303.95s.46-.2,.99-.78c.26-.29,.55-.67,.8-1.13,.12-.23,.24-.48,.34-.75,.05-.13,.11-.27,.12-.47,.03-.19-.11-.49-.36-.55-.22-.07-.45,0-.6,.11-.15,.11-.25,.23-.33,.34-.18,.23-.33,.46-.46,.69-.25,.47-.39,.93-.45,1.32-.13,.79,0,1.27,.04,1.27,.07,0,.06-.48,.26-1.2,.1-.36,.26-.77,.5-1.19,.12-.21,.27-.42,.44-.62,.17-.22,.35-.36,.47-.31,.05,.02,.06,.03,.06,.13,0,.09-.04,.21-.09,.34-.09,.25-.19,.49-.29,.71-.21,.44-.46,.82-.68,1.12-.45,.6-.8,.92-.76,.97"/>
  <path class="cls-18" d="M270.32,304s-.03-.51-.48-1.17c-.23-.33-.55-.68-.98-.99-.22-.15-.46-.29-.72-.41-.27-.11-.62-.26-1.03-.01-.2,.14-.25,.43-.2,.6,.04,.19,.11,.31,.18,.44,.14,.26,.33,.49,.52,.67,.39,.38,.84,.6,1.23,.7,.79,.22,1.29,.02,1.27-.02,0-.07-.49,0-1.17-.26-.34-.13-.72-.35-1.04-.69-.16-.17-.31-.37-.43-.59-.13-.24-.19-.47-.09-.51,.1-.08,.39-.05,.6,.06,.24,.1,.46,.22,.67,.35,.4,.26,.73,.57,.97,.85,.48,.56,.66,1.01,.72,.98"/>
  <path class="cls-17" d="M247.55,201.02c.39,1.09,5.02,57,5.02,57l31.18,41.31-13.25,9.24-35.23-36.18c-1.69-1.71-2.85-3.88-3.35-6.23l-13.02-61.94,28.66-3.19Z"/>
  <polygon class="cls-15" points="173.83 142.44 201.27 143.03 203.16 143.33 195.55 160.14 167.53 156.11 140.01 135.76 147.36 125.46 173.83 142.44"/>
  <path class="cls-15" d="M217.68,141.74l10.53,2.73c2.68,.8,4.83,2.82,5.79,5.45l2.96,10.7,6.2,23.84,6.05,21.63c-10.77,4.92-19.31,11.64-32.83,12.06-1.89,.06-3.77-.29-5.51-1.03l-8.84-3.76,2.88-13.58-10.55-40.32,8.05-15.99,2.75-.37,12.52-1.36Z"/>
  <path class="cls-18" d="M178.26,128.62c-.07-.41,.02-.84,.23-1.2,.5-.85,1.43-1.25,2.31-1.62,.12-1.27,.03-2.55-.26-3.79-.42,.18-.89,.21-1.34,.12-.07,0-.14,.02-.22,.02-1.01-.06-1.59-1.31-1.34-2.29,.24-.98,1.02-1.73,1.76-2.41-.63,.29-1.02,.93-1.56,1.36-.54,.43-1.5,.55-1.82-.06-.1-.19-.11-.41-.12-.62l-.08-1.28c-.02-.35-.03-.73,.2-.99,.16-.18,.4-.27,.6-.41,.65-.47,.68-1.49,1.33-1.98,.47-.35,1.12-.3,1.71-.38,.59-.08,1.25-.46,1.22-1.05-.86-.15-1.75-.32-2.44-.85s-1.1-1.53-.68-2.29c.33-.59,1.03-.86,1.67-1.07,.72-.24,1.66-.42,2.11,.19,.86-.67,2.29-.38,2.81,.57,.58-.3,1.17-.59,1.75-.89-.72-.35-1.57-.4-2.24-.84-.67-.43-1.01-1.55-.34-1.99,.24-.16,.57-.19,.78-.38,.15-.14,.24-.37,.44-.45,.14-.06,.3-.03,.45,0,1.6,.34,3.21,.68,4.81,1.03l-1.97-2.02c-.61-.62-1.25-1.55-.76-2.26,.47-.69,1.66-.41,2.09,.3,.63-.48,1.68-.17,1.96,.56,.43-.4,1.13-.47,1.63-.17,.5,.3,.76,.96,.6,1.53,.65-.24,1.36-.29,2.04-.16-.34-.82,.68-1.8,1.49-1.45-.13-.39-.26-.81-.14-1.21,.12-.39,.6-.7,.95-.49-.31-.48-.29-1.15,.06-1.6,.35-.45,1-.64,1.54-.46,.11-.34,.23-.67,.34-1.01,.64-.27,1.46-.27,1.96,.22,.5,.49,.38,1.52-.29,1.71,.45-.18,.63,.58,.51,1.06-.17,.66-.34,1.32-.51,1.98,.3-.61,1.03-1.02,1.7-.84,.22-.61,1.03-.91,1.6-.6,.06-.78,1.35-1.04,1.71-.35,0-.34,.4-.52,.73-.6,.47-.13,.99-.25,1.44-.05,.45,.2,.7,.86,.34,1.19,.3-.37,.97-.13,1.15,.31,.18,.44,.01,.95-.2,1.38-.22,.43-.49,.84-.54,1.32,.23-.42,.73-.61,1.18-.77,.81-.28,1.66-.57,2.51-.43,.01-.37,.45-.55,.81-.61,1.13-.19,2.31-.04,3.35,.44,.49,.22,1.02,.64,.95,1.18-.03,.24-.19,.45-.34,.65-.63,.83-1.25,1.65-1.88,2.48,1.5-.1,3.03,.29,4.3,1.09,.6,.1,1.24-.11,1.83,.07,.58,.18,.91,1.14,.34,1.36,.46,.14,.79,.62,.77,1.1-.01,.21-.1,.4-.22,.57-.03,.14-.08,.28-.15,.41-.14,.24-.32,.44-.53,.6-.12,.43-.48,.81-.91,.93,.61,.23,1.21,.51,1.71,.94,.64,.56,1.08,1.44,.87,2.26-.01,.04-.03,.09-.05,.13,.04,.31-.02,.63-.21,.87,.16,.15,.28,.34,.32,.57,.93,0,1.85,.53,2.29,1.35,.44,.82,.39,1.88-.12,2.66-.41,.62-1.49,.95-1.81,.28-.05,.65-.45,1.27-1.02,1.59,.84,.69,.85,2.17,.01,2.87,1.34,.44,1.71,2.52,.61,3.4,.54,.63,.45,1.7-.18,2.24-.64,.54-1.7,.45-2.24-.19-.07,.64-.16,1.32-.57,1.82-.41,.5-1.27,.68-1.69,.19,.07,1.31-1.35,2.46-2.62,2.12,.27,.65-.04,1.49-.68,1.81-.64,.31-1.5,.05-1.85-.57-1.14,.43-2.28,.85-3.41,1.28-.76,.28-1.51,.57-2.31,.71-1.02,.18-2.07,.11-3.05-.2-.32-.1-.64-.22-.97-.18-.38,.06-.68,.33-.98,.56-1.59,1.23-3.84,1.53-5.7,.78-.29-.12-.59-.26-.9-.28-.36-.02-.71,.12-1.06,.25-.84,.31-1.72,.51-2.61,.6-.76,.07-1.61,.04-2.18-.47-.57-.51-.57-1.65,.15-1.91-.12-.48-.42-.95-.88-1.15-.46-.19-1.08-.03-1.28,.43-.2,.46,.24,1.09,.72,.97-.57,.83-2.05,.54-2.42-.38-.38-.93,.25-2.06,1.18-2.43-.44-.6-.74-1.3-.85-2.04-.24,.79-1.18,1.28-1.97,1.03-.16,.75-.56,1.48-1.22,1.86-.66,.38-1.61,.32-2.09-.28-.48-.59-.23-1.67,.51-1.86-.81-.61-.53-2.13,.44-2.4-.5-.85-.32-2.05,.42-2.71-.42,.56-1.38,.55-1.8,0-.17,.85-1.29,1.09-2.14,.95-.67-.11-1.37-.36-1.53-1.25"/>
  <path class="cls-19" d="M178.26,128.62s0,.1,.07,.29c.06,.18,.21,.47,.56,.68,.34,.21,.84,.34,1.43,.34,.29,0,.62-.05,.94-.19,.31-.14,.63-.41,.71-.82l-.08,.02c.37,.52,1.35,.65,1.87,0l-.08-.07c-.67,.59-1,1.79-.44,2.78l.04-.09c-.48,.13-.82,.58-.93,1.08-.11,.49,0,1.1,.46,1.44l.02-.12c-.55,.14-.85,.74-.81,1.29,.01,.59,.53,1.09,1.12,1.19,.58,.13,1.24-.05,1.7-.48,.46-.42,.75-1.02,.89-1.64l-.11,.06c.76,.25,1.79-.18,2.08-1.08h-.18c.1,.67,.38,1.42,.86,2.07l.04-.14c-.45,.18-.84,.52-1.08,.96-.25,.43-.36,.98-.19,1.48,.16,.52,.64,.89,1.16,1,.51,.13,1.15,0,1.49-.49l.16-.23-.27,.07c-.27,.07-.57-.19-.63-.49-.08-.3,.15-.61,.46-.72,.32-.11,.69-.05,.96,.17,.27,.22,.46,.56,.55,.91l.07-.13c-.26,.1-.47,.32-.55,.58-.09,.25-.1,.53-.04,.79,.05,.26,.18,.51,.38,.7,.19,.19,.43,.32,.68,.41,.5,.17,1.04,.18,1.55,.13,.52-.05,1.03-.13,1.54-.26,1.04-.17,2-.99,2.97-.34,1.02,.43,2.17,.54,3.29,.35,.56-.1,1.11-.27,1.63-.52,.52-.24,.99-.62,1.43-.94,.23-.15,.47-.23,.73-.19,.26,.03,.53,.14,.82,.22,.57,.16,1.16,.25,1.76,.25,1.21,.03,2.39-.37,3.5-.8,1.13-.42,2.27-.85,3.42-1.28l-.17-.06c.36,.63,1.22,.96,1.96,.65,.73-.32,1.12-1.24,.82-2.01l-.17,.19c1.26,.35,2.85-.75,2.8-2.27l-.25,.1c.23,.27,.62,.38,.96,.32,.34-.05,.67-.21,.92-.48,.48-.54,.56-1.28,.64-1.93l-.26,.08c.55,.65,1.64,.81,2.39,.25,.74-.57,.88-1.75,.26-2.49l-.02,.21c.56-.44,.79-1.23,.67-1.95-.1-.71-.56-1.46-1.33-1.71l.05,.26c.86-.71,.95-2.28-.01-3.1l-.02,.25c.58-.31,1.05-.97,1.1-1.71l-.29,.05c.08,.17,.23,.31,.4,.39,.17,.07,.36,.08,.53,.06,.35-.05,.66-.21,.92-.45,.5-.51,.68-1.2,.67-1.88-.02-.68-.31-1.38-.83-1.86-.51-.48-1.2-.78-1.92-.77l.15,.13c-.04-.24-.17-.49-.37-.66l.02,.21c.21-.26,.29-.63,.24-.98v.08c.28-.77-.03-1.65-.56-2.25-.55-.63-1.32-.99-2.07-1.28v.3c.45-.14,.85-.54,1-1.04l-.05,.08c.32-.25,.64-.63,.74-1.1l-.03,.06c.22-.28,.33-.72,.19-1.09-.12-.37-.42-.7-.82-.82v.3c.18-.06,.34-.23,.38-.41,.05-.18,.02-.36-.03-.52-.11-.31-.34-.6-.69-.72-.65-.2-1.29,.02-1.84-.07l.06,.02c-1.23-.78-2.81-1.22-4.39-1.11l.13,.25c.27-.36,.57-.75,.86-1.14l.65-.86c.21-.3,.45-.54,.64-.9,.09-.18,.13-.42,.07-.63-.05-.21-.17-.39-.31-.53-.27-.28-.63-.46-.96-.59-.68-.27-1.41-.41-2.14-.42-.36,0-.73,.02-1.09,.09-.19,.04-.38,.09-.55,.2-.17,.1-.35,.3-.35,.55l.18-.15c-.71-.11-1.41,.05-2.05,.26-.32,.11-.63,.21-.96,.34-.31,.14-.65,.33-.84,.68l.29,.09c.07-.65,.63-1.2,.79-1.96,.08-.36,.05-.84-.29-1.13-.16-.14-.35-.23-.57-.25-.21-.03-.46,.05-.61,.23l.22,.22c.16-.14,.24-.37,.23-.57-.01-.2-.09-.38-.2-.54-.11-.15-.27-.29-.45-.35-.17-.07-.36-.1-.54-.1-.36,0-.69,.09-1.01,.17-.17,.05-.33,.11-.49,.22-.15,.1-.32,.29-.31,.53l.29-.07c-.22-.43-.74-.54-1.14-.46-.4,.07-.83,.39-.86,.86l.23-.12c-.67-.35-1.54-.01-1.81,.68l.18-.09c-.77-.21-1.56,.25-1.88,.92l.28,.11c.15-.56,.29-1.12,.44-1.68,.08-.26,.16-.6,.1-.91-.03-.16-.07-.32-.18-.47-.05-.07-.14-.15-.24-.18-.11-.04-.22-.01-.31,.02l.1,.29c.42-.12,.66-.54,.7-.91,.04-.38-.07-.8-.36-1.07-.59-.54-1.45-.5-2.1-.23l-.06,.03-.02,.06c-.11,.34-.23,.68-.34,1.01l.19-.09c-.62-.2-1.32,.02-1.71,.52-.38,.51-.41,1.24-.06,1.77l.2-.21c-.24-.15-.54-.09-.74,.04-.21,.13-.36,.32-.43,.56-.12,.46,.03,.89,.15,1.27l.2-.18c-.48-.22-1.02,0-1.34,.32-.33,.32-.53,.85-.34,1.32l.16-.2c-.72-.14-1.45-.07-2.12,.17l.19,.17c.18-.65-.12-1.36-.68-1.7-.57-.33-1.31-.24-1.79,.2l.23,.05c-.35-.85-1.47-1.14-2.18-.62l.2,.04c-.2-.32-.51-.55-.85-.67-.34-.12-.73-.14-1.08,.02-.35,.17-.57,.54-.58,.92-.02,.38,.13,.71,.3,1.01,.35,.6,.86,1.03,1.3,1.49,.45,.46,.9,.92,1.34,1.37l.12-.22c-1.01-.21-1.99-.42-2.97-.63-.49-.1-.97-.21-1.45-.31-.25-.04-.46-.13-.77-.12-.16,.01-.31,.12-.39,.22-.09,.1-.15,.21-.22,.28-.14,.14-.37,.19-.61,.29-.25,.1-.47,.32-.55,.59-.15,.54,.07,1.06,.4,1.44,.35,.39,.83,.55,1.28,.69,.45,.14,.9,.24,1.29,.43v-.22c-.62,.32-1.19,.6-1.75,.89l.16,.05c-.64-1.08-2.11-1.28-2.99-.61l.17,.02c-.29-.4-.82-.5-1.24-.45-.43,.04-.84,.17-1.23,.3-.39,.14-.78,.3-1.11,.58-.33,.27-.56,.68-.57,1.11-.03,.86,.52,1.61,1.2,1.99,.69,.4,1.45,.53,2.17,.66l-.09-.1c.02,.29-.19,.55-.45,.71-.27,.16-.57,.24-.89,.26-.32,.03-.64,.04-.97,.12-.32,.07-.64,.26-.84,.52-.4,.52-.51,1.16-.9,1.57-.18,.21-.47,.29-.71,.51-.25,.24-.29,.59-.28,.87,.03,.57,.07,1.14,.1,1.68,.02,.27,.11,.6,.37,.77,.24,.18,.55,.21,.82,.17,.27-.04,.53-.13,.76-.28,.22-.15,.41-.34,.58-.52,.35-.36,.67-.73,1.09-.93l-.08-.13c-.45,.42-.88,.83-1.22,1.29-.33,.46-.58,.98-.61,1.52-.03,.54,.14,1.05,.44,1.44,.3,.39,.79,.63,1.25,.55h-.02c.6,.1,1.01,.01,1.37-.13l-.08-.04c.38,1.64,.35,2.82,.28,3.78l.02-.03c-.65,.27-1.21,.54-1.63,.86-.41,.32-.67,.69-.8,1-.13,.32-.14,.58-.13,.74,0,.17,.03,.24,.03,.24,.03,0-.11-.34,.14-.97,.13-.31,.39-.66,.8-.97,.41-.32,.96-.57,1.62-.84h.02s0-.03,0-.03c.09-.96,.13-2.15-.25-3.81v-.06s-.08,.02-.08,.02c-.34,.13-.73,.22-1.3,.11h-.01s0,0,0,0c-.42,.07-.86-.15-1.14-.51-.28-.36-.43-.86-.41-1.36,.03-.5,.27-1,.6-1.44,.33-.45,.75-.85,1.2-1.26l.36-.33-.44,.2c-.46,.21-.8,.6-1.14,.95-.17,.18-.35,.36-.55,.49-.21,.13-.44,.22-.69,.25-.24,.03-.51,0-.7-.15-.2-.14-.28-.39-.29-.65-.03-.54-.06-1.1-.1-1.67,0-.27,.04-.56,.23-.73,.18-.18,.51-.27,.72-.51,.44-.47,.55-1.12,.92-1.58,.36-.49,1.03-.52,1.67-.56,.33-.02,.68-.1,.98-.29,.3-.17,.58-.49,.56-.9v-.08s-.08-.01-.08-.01c-.72-.13-1.46-.26-2.1-.64-.63-.35-1.12-1.05-1.09-1.8,.02-.37,.21-.71,.5-.95,.29-.24,.66-.4,1.04-.53,.38-.14,.77-.26,1.17-.29,.39-.04,.81,.05,1.03,.36l.07,.1,.1-.08c.75-.59,2.09-.4,2.63,.54l.06,.1,.1-.05c.56-.28,1.13-.57,1.75-.88l.22-.11-.22-.11c-.43-.21-.89-.31-1.33-.45-.43-.14-.88-.3-1.16-.62-.29-.32-.46-.79-.34-1.19,.07-.19,.2-.35,.41-.43,.2-.09,.47-.14,.68-.34,.19-.21,.28-.42,.46-.43,.18-.01,.45,.07,.68,.12,.48,.1,.97,.21,1.45,.31,.98,.21,1.97,.42,2.97,.64l.43,.09-.31-.32c-.45-.45-.89-.91-1.34-1.38-.44-.47-.94-.9-1.26-1.44-.16-.27-.28-.57-.26-.85,0-.29,.18-.56,.43-.68,.52-.24,1.26,.04,1.57,.55l.08,.13,.12-.09c.53-.41,1.49-.16,1.75,.5l.08,.2,.15-.14c.37-.35,1-.42,1.45-.16,.45,.26,.7,.86,.55,1.38l-.08,.27,.26-.1c.61-.22,1.3-.28,1.96-.15l.27,.05-.11-.25c-.29-.67,.6-1.57,1.29-1.26l.3,.14-.1-.32c-.12-.38-.24-.76-.14-1.1,.08-.31,.48-.58,.74-.42l.58,.37-.38-.57c-.28-.41-.26-1.02,.05-1.42,.3-.4,.89-.59,1.38-.42l.14,.05,.05-.14c.11-.33,.22-.67,.34-1.01l-.08,.09c.58-.25,1.32-.26,1.78,.17,.43,.38,.36,1.32-.21,1.48l.1,.29c.09-.03,.13-.02,.2,.06,.06,.08,.1,.21,.12,.33,.05,.26-.01,.5-.09,.79-.15,.56-.29,1.11-.44,1.68l.28,.1c.26-.55,.94-.92,1.53-.76l.14,.04,.05-.13c.18-.51,.9-.79,1.38-.52l.21,.12v-.24c.04-.61,1.16-.85,1.43-.29l.34,.7-.05-.77c-.01-.2,.29-.37,.58-.44,.31-.08,.62-.16,.92-.16,.3,0,.58,.09,.74,.32,.16,.22,.2,.54,.02,.69l.22,.21c.15-.2,.52-.14,.73,.05,.22,.18,.26,.53,.19,.84-.12,.65-.69,1.19-.79,1.99l-.1,.76,.39-.67c.29-.5,1.01-.65,1.62-.87,.62-.2,1.27-.35,1.9-.25l.18,.03v-.18c0-.23,.34-.4,.65-.46,.34-.06,.68-.08,1.03-.08,.69,0,1.38,.15,2.03,.4,.33,.13,.63,.28,.85,.52,.23,.23,.32,.53,.18,.81-.14,.27-.4,.56-.61,.85l-.65,.86c-.29,.39-.59,.78-.86,1.14l-.21,.27,.34-.02c1.51-.11,3.03,.32,4.2,1.07l.03,.02h.03c.66,.1,1.28-.1,1.8,.07,.22,.07,.41,.29,.49,.52,.08,.24,.04,.48-.15,.54l-.47,.15,.48,.14c.29,.09,.52,.34,.61,.62,.1,.29,.03,.58-.15,.81l-.02,.03v.03c-.08,.39-.35,.7-.63,.93l-.04,.03v.05c-.13,.4-.46,.73-.81,.83l-.45,.13,.44,.17c.74,.28,1.46,.63,1.94,1.19,.48,.55,.74,1.32,.5,1.94v.04s0,.04,0,.04c.04,.27-.03,.56-.18,.75l-.09,.11,.11,.1c.15,.13,.24,.31,.27,.48l.02,.13h.13c.63,0,1.25,.26,1.7,.68,.46,.42,.72,1.03,.74,1.64,.02,.6-.18,1.25-.57,1.65-.21,.19-.48,.33-.75,.37-.27,.04-.52-.05-.62-.27l-.25-.54-.04,.6c-.04,.63-.45,1.2-.95,1.46l-.2,.11,.17,.14c.81,.66,.73,2.06,.01,2.64l-.21,.17,.26,.09c.62,.2,1.03,.84,1.12,1.47,.1,.64-.1,1.31-.56,1.67l-.12,.1,.1,.12c.51,.59,.39,1.62-.22,2.07-.6,.46-1.55,.32-1.99-.21l-.22-.27-.04,.34c-.07,.65-.17,1.32-.57,1.77-.37,.43-1.12,.55-1.44,.16l-.28-.33,.03,.43c.04,.62-.32,1.23-.8,1.59-.48,.38-1.11,.53-1.64,.38l-.28-.08,.11,.27c.26,.61-.08,1.41-.67,1.65-.59,.25-1.33-.03-1.61-.53l-.06-.1-.11,.04c-1.15,.43-2.29,.86-3.42,1.28-1.12,.43-2.25,.82-3.41,.79-.58,0-1.15-.09-1.69-.24-.27-.07-.54-.19-.85-.23-.32-.05-.66,.06-.9,.23-.49,.36-.89,.69-1.4,.93-.49,.24-1.02,.41-1.56,.5-1.07,.18-2.18,.08-3.15-.33-.24-.1-.5-.22-.79-.26-.3-.04-.58,.03-.84,.12-.51,.19-.99,.35-1.49,.48-.5,.12-1.01,.21-1.51,.25-.5,.05-1.01,.04-1.46-.12-.45-.15-.83-.48-.91-.94-.11-.44,.05-.96,.45-1.11l.09-.03-.02-.1c-.1-.39-.31-.77-.63-1.03-.32-.27-.79-.35-1.17-.2-.38,.12-.71,.55-.6,.97,.08,.38,.45,.75,.88,.65l-.11-.16c-.27,.4-.81,.51-1.27,.4-.46-.1-.88-.42-1.01-.86-.28-.9,.35-1.88,1.16-2.2l.12-.05-.08-.1c-.46-.61-.74-1.34-.83-1.99l-.06-.4-.12,.38c-.25,.79-1.19,1.2-1.86,.97l-.09-.03-.02,.1c-.13,.6-.4,1.16-.83,1.56-.42,.4-1.02,.56-1.55,.45-.53-.1-.98-.53-1-1.04-.04-.5,.23-1.03,.69-1.15l.14-.04-.11-.09c-.8-.64-.44-2.06,.42-2.29l.08-.02-.04-.07c-.53-.93-.23-2.08,.4-2.64l-.08-.07c-.46,.58-1.38,.47-1.72,0l-.06-.08-.02,.1c-.07,.37-.36,.63-.66,.77-.3,.14-.62,.18-.91,.19-.58,0-1.07-.12-1.41-.31-.34-.2-.49-.47-.56-.65-.07-.18-.08-.29-.09-.29"/>
  <path class="cls-14" d="M217.93,142.46l-8.33-24.02c-1.98-6.54-7.43-10.84-13.91-8.68l-.59,.23c-5.91,2.36-9.02,8.86-7.14,14.95,1.75,5.66,3.75,11.88,4.96,14.81,2.51,6.06,8.97,4.57,8.97,4.57,.01,0,.52,1.43,1.16,3.24,0,0,1.03,6.09,5.8,4.64,4.76-1.46,9.09-9.74,9.09-9.74"/>
  <path class="cls-13" d="M201.85,144.34s3.93-1.31,6.99-5.51c0,0-.02,5.39-6.32,7.26l-.67-1.76Z"/>
  <path class="cls-18" d="M191.32,129.16c.17,.47,.7,.71,1.19,.54,.49-.17,.75-.68,.58-1.14-.17-.46-.7-.71-1.19-.54-.49,.17-.75,.68-.58,1.14"/>
  <path class="cls-18" d="M190.24,126.96c.15,.07,.62-.68,1.55-1.05,.93-.38,1.81-.18,1.86-.33,.03-.07-.16-.23-.55-.33-.38-.1-.97-.11-1.55,.12-.58,.24-.99,.65-1.18,.98-.2,.33-.22,.58-.14,.61"/>
  <path class="cls-18" d="M200.03,126.37c.17,.47,.7,.71,1.19,.54,.49-.16,.75-.68,.58-1.14-.17-.46-.7-.71-1.19-.54-.49,.17-.75,.68-.58,1.14"/>
  <path class="cls-18" d="M199.55,123.68c.15,.07,.62-.68,1.55-1.05,.93-.38,1.81-.18,1.86-.33,.03-.07-.16-.23-.55-.33-.38-.1-.97-.11-1.55,.12-.58,.24-.99,.65-1.18,.98-.2,.33-.22,.58-.14,.61"/>
  <path class="cls-18" d="M199.06,132.21c-.02-.05-.64,.08-1.63,.33-.25,.07-.49,.11-.6-.03-.12-.15-.13-.45-.12-.77,0-.67-.01-1.37-.02-2.1-.05-2.98-.19-5.39-.31-5.39-.12,0-.17,2.42-.12,5.4,.02,.73,.04,1.43,.05,2.1,.02,.31-.01,.68,.25,.99,.14,.15,.36,.21,.53,.19,.17-.01,.31-.07,.43-.11,.97-.33,1.56-.56,1.54-.61"/>
  <path class="cls-18" d="M198.07,120.6c.19,.22,1.08-.27,2.23-.58,1.15-.33,2.16-.36,2.21-.64,.02-.14-.23-.31-.68-.42-.45-.11-1.11-.11-1.8,.07-.69,.19-1.25,.53-1.58,.86-.34,.32-.46,.6-.38,.71"/>
  <path class="cls-18" d="M189.36,123.66c.25,.15,.81-.31,1.59-.61,.77-.33,1.5-.39,1.57-.68,.03-.13-.16-.31-.52-.4-.36-.1-.9-.08-1.43,.13-.53,.22-.92,.59-1.11,.91-.19,.32-.2,.58-.09,.65"/>
  <path class="cls-13" d="M199.09,134.97c.26,.31,.52,.62,.86,.85,.34,.22,.76,.35,1.15,.24,.42-.12,.73-.49,.84-.9,.12-.42,.05-.86-.1-1.27-.14-.36-.45-.75-.83-.67-.16,.03-.29,.14-.41,.25-.56,.47-1.11,.95-1.67,1.42"/>
  <path class="cls-18" d="M200.38,136.31c-.01-.06,.47-.03,.99-.47,.25-.21,.49-.55,.54-.96,.06-.41-.07-.91-.39-1.27-.08-.09-.17-.17-.26-.23-.1-.06-.09-.06-.17-.02-.07,.05-.18,.15-.27,.22-.09,.08-.18,.16-.27,.23-.36,.3-.68,.57-.96,.79-.55,.45-.91,.7-.95,.66-.03-.04,.26-.36,.77-.86,.26-.25,.56-.54,.91-.85,.09-.08,.18-.16,.27-.24,.1-.08,.17-.16,.3-.26,.07-.05,.17-.09,.29-.09,.12,0,.2,.05,.27,.1,.12,.09,.24,.18,.34,.29,.4,.45,.54,1.05,.45,1.56-.09,.52-.41,.9-.72,1.12-.31,.22-.62,.29-.82,.31-.21,.01-.32-.02-.32-.04"/>
  <path class="cls-18" d="M184.4,120.48c-.07-.32-.19-.64-.22-.97-.04-.53,.17-1.01,.37-1.46,.73-1.6,1.5-3.26,2.82-4.2,.81-.58,1.77-.85,2.59-1.42,.5-.35,.94-.81,1.4-1.22,1.92-1.7,4.34-2.55,6.79-3.05,1.37-.28,2.77-.45,4.19-.23,1.55,.24,3.06,.96,4.51,1.75,2.17,1.18,4.29,2.59,6.03,4.55,1.33,1.5,2.43,3.39,2.72,5.45,.28,2.05-.4,4.26-1.93,5.15l-.87-.55-1.35-.8c.33,.4,.16,.42-.14,.79-.3,.36-.87,.37-1.23,.01-.18,.5-1,.29-1.06-.28-.32,.32-.96-.04-.97-.55-.39,.3-.85-.33-1.22-.74-.2-.22-.44-.39-.66-.59-.69-.61-1.22-1.48-1.49-2.42-.76-.48-1.19-1.44-1.58-2.33-.24-.56-.48-1.11-.72-1.67-.15-.1-.29-.21-.44-.31,.14,.41-.06,.86-.36,1.08-.3,.22-.69,.26-1.05,.29-.36,.03-.73,.07-1.09,.1-.2,.12-.39,.25-.59,.38,.35,.48,.34,1.15,.3,1.74-.02,.41-.06,.86-.32,1.12-.26,.26-.81,.09-.84-.32-.15,.33-.59,.34-.88,.11-.29-.23-.45-.62-.55-1-.24-.92-.21-1.91,.09-2.76-.43,.74-.87,1.48-1.3,2.21-.1,.16-.2,.33-.36,.4,.14,.29-.08,.63-.35,.67-.27,.05-.54-.11-.8-.25-.57-.33-1.27-.98-1.03-1.61-.22,.02-.42-.29-.34-.52-.53,.72-1.06,1.44-1.58,2.15,.17-.18,.49,.07,.52,.35,.03,.28-.11,.52-.25,.73,.26,.22,.44,.55,.52,.9,.27-.44,1,.01,1.04,.57,.04,.56-.38,.99-.83,1.16-.37,.14-.89,.1-1.09-.33-.42,.23-1.03-.26-1.02-.82-.26,.31-.72-.19-.86-.62-.26-.76-.38-1.58-.34-2.37-.02,.07-.08,.12-.15,.1-.03-.01-.05-.04-.07-.07-.1,.98-.2,1.96-.3,2.94-.09,.83-.17,1.69,.06,2.52,.09,.34,.19,.81-.08,.92-.07,.03-.16,.02-.24,0-.93-.16-1.79-.8-2.47-1.6-.23-.27-.44-.57-.57-.9-.28-.7-.18-1.48-.34-2.22"/>
  <path class="cls-19" d="M192.78,116.26s-.24-.08-.41-.42c-.08-.17-.11-.41,0-.64,.11-.22,.38-.42,.69-.41h.18s-.11-.13-.11-.13c-.19-.23-.24-.63-.05-.92,.19-.29,.64-.42,.98-.25l.09-.16s-.06-.05-.08-.08c-.07-.11-.08-.26-.04-.38,.04-.13,.14-.23,.26-.29,.12-.06,.26-.09,.39-.1,.13,0,.29,.04,.46-.03,.18-.09,.22-.25,.3-.34,.07-.11,.16-.19,.25-.27,.18-.16,.39-.26,.58-.32,.39-.13,.74-.1,.97-.04,.23,.06,.34,.12,.35,.11,0,0-.1-.1-.33-.18-.23-.08-.6-.13-1.03-.01-.21,.06-.44,.17-.64,.33-.1,.09-.2,.18-.28,.3-.09,.11-.14,.24-.23,.28-.09,.04-.23,.01-.39,0-.16,0-.33,.03-.48,.11-.15,.08-.29,.21-.35,.39-.06,.17-.04,.38,.07,.54,.04,.05,.08,.1,.13,.13l.09-.16c-.43-.22-.97-.06-1.21,.31-.24,.37-.17,.84,.07,1.12l.06-.13c-.38,0-.68,.24-.81,.51-.13,.27-.07,.56,.03,.73,.1,.18,.23,.28,.33,.33,.1,.05,.16,.06,.16,.05"/>
  <path class="cls-19" d="M188.76,118.65s-.24-.06-.47-.39c-.11-.16-.2-.4-.15-.67,.04-.26,.23-.56,.54-.7l.12-.05-.11-.07c-.28-.17-.56-.48-.57-.86-.01-.19,.08-.37,.24-.49,.15-.12,.37-.18,.53-.08l.65,.38-.54-.52c-.19-.18-.29-.46-.27-.75,.02-.28,.19-.55,.45-.69,.18-.1,.4-.15,.6-.11l.23,.04-.14-.19c-.21-.27,0-.7,.29-.83,.31-.15,.67-.11,.99-.04l.19,.04-.11-.17c-.13-.21-.09-.48,.03-.68,.12-.2,.32-.34,.52-.44,.4-.2,.8-.27,1.12-.3,.66-.04,1.03,.09,1.03,.06,0,0-.09-.05-.26-.09-.18-.04-.44-.08-.78-.07-.34,.01-.75,.08-1.18,.27-.21,.1-.44,.24-.59,.48-.14,.23-.21,.57-.04,.85l.09-.12c-.33-.07-.72-.14-1.1,.04-.19,.09-.34,.26-.42,.45-.08,.19-.09,.45,.07,.65l.09-.15c-.24-.04-.5,0-.72,.13-.31,.17-.52,.5-.54,.83-.03,.33,.1,.67,.33,.89l.1-.14c-.25-.14-.55-.05-.73,.1-.19,.15-.31,.4-.29,.63,.03,.47,.36,.79,.66,.98v-.12c-.35,.17-.54,.51-.58,.81-.04,.31,.07,.57,.2,.73,.13,.17,.27,.26,.38,.3,.1,.04,.16,.05,.16,.04"/>
  <path class="cls-19" d="M179.64,122.17s-.11-.22,.09-.54c.09-.15,.27-.31,.52-.38,.25-.07,.55-.07,.89-.04h.11s-.04-.09-.04-.09c-.13-.3,.06-.71,.4-.91,.35-.21,.82-.2,1.29-.16l.6,.04-.57-.21c-.31-.12-.39-.59-.21-.9,.19-.32,.6-.49,1.01-.57h.05s.35-.08,.35-.08l-.34-.11c-.42-.13-.51-.77-.23-1.07,.28-.32,.79-.36,1.15-.22l.44,.18-.35-.32c-.45-.41-.57-1.05-.44-1.53,.13-.49,.5-.81,.84-.96,.34-.15,.65-.15,.85-.13,.2,.02,.31,.07,.31,.05,0,0-.02-.02-.07-.04-.05-.02-.13-.05-.23-.07-.21-.04-.53-.05-.9,.09-.36,.14-.79,.47-.94,1.01-.15,.52-.04,1.22,.46,1.69l.09-.14c-.42-.17-.99-.14-1.35,.25-.18,.2-.24,.48-.19,.75,.04,.26,.22,.53,.51,.62v-.18s-.05,.01-.05,.01c-.43,.08-.89,.26-1.13,.66-.11,.2-.14,.44-.1,.65,.04,.21,.19,.42,.4,.5l.04-.17c-.48-.03-.98-.04-1.39,.2-.39,.24-.61,.72-.44,1.1l.06-.09c-.34-.02-.66-.01-.93,.08-.27,.08-.46,.27-.55,.44-.1,.17-.1,.34-.08,.44,.02,.1,.06,.14,.06,.14"/>
  <path class="cls-19" d="M181.96,111.84s.09,.03,.25,.02c.17-.01,.4-.07,.69-.16,.28-.09,.64-.21,1.02-.14,.19,.04,.37,.14,.47,.33,.1,.17,.12,.42-.03,.56l.15,.05c-.03-.24,.21-.46,.41-.68,.21-.22,.44-.44,.72-.59,.28-.16,.59-.2,.87-.11,.28,.08,.51,.29,.55,.54l.04,.22,.12-.19c.26-.4,.64-.67,1.01-.8,.37-.14,.73-.17,1.02-.14,.59,.06,.88,.29,.89,.26,0,0-.06-.06-.21-.15-.14-.08-.37-.18-.67-.22-.3-.04-.68-.03-1.08,.11-.4,.13-.82,.41-1.1,.85l.16,.03c-.05-.33-.34-.6-.66-.69-.32-.11-.71-.05-1.01,.12-.3,.17-.55,.4-.76,.63-.11,.12-.22,.22-.31,.36-.09,.13-.17,.3-.15,.47l.02,.17,.12-.12c.22-.23,.18-.56,.05-.77-.12-.23-.36-.36-.58-.39-.44-.07-.8,.08-1.08,.18-.28,.11-.51,.18-.66,.21-.16,.03-.25,.03-.25,.04"/>
  <path class="cls-19" d="M189.67,105.95s.17-.08,.48-.07c.15,0,.34,.04,.52,.15,.18,.1,.36,.27,.45,.51l.03,.09,.08-.06c.2-.14,.55-.05,.74,.17,.2,.24,.27,.59,.31,.96l.05,.36,.13-.34s.01-.04,.02-.05c.09-.22,.31-.37,.53-.42,.22-.06,.46-.02,.64,.08,.39,.21,.59,.61,.65,.93,.07,.33,.04,.62,.02,.81-.02,.2-.04,.3-.03,.31,.01,0,.05-.1,.1-.3,.04-.19,.09-.49,.03-.85-.06-.36-.26-.8-.7-1.06-.42-.27-1.16-.16-1.43,.42,0,.02-.02,.05-.03,.07l.18,.02c-.05-.37-.11-.76-.37-1.05-.25-.28-.67-.39-.96-.18l.12,.04c-.11-.28-.33-.46-.54-.56-.21-.11-.41-.13-.58-.13-.16,0-.29,.05-.37,.08-.08,.04-.11,.07-.11,.07"/>
  <path class="cls-19" d="M198.87,109.05s.09-.02,.22-.12c.12-.1,.29-.27,.42-.53,.13-.26,.21-.61,.14-1-.04-.19-.1-.37-.02-.51,.06-.15,.25-.29,.33-.53,.14-.49-.15-1-.57-1.12l.04,.13c.3-.47,.41-.93,.45-1.26,.03-.33,0-.52-.02-.51-.02,0-.02,.19-.08,.5-.06,.31-.19,.75-.49,1.18l-.06,.09,.11,.03c.32,.1,.56,.52,.44,.9-.04,.18-.22,.3-.32,.52-.1,.23-.01,.45,.02,.62,.07,.34,0,.67-.1,.91-.22,.5-.54,.67-.52,.7"/>
  <path class="cls-19" d="M201.57,109.94s.05,0,.15-.02c.1-.03,.24-.07,.41-.16,.33-.17,.79-.51,1.08-1.11l-.11,.03c.31,.23,.75,.33,1.19,.25,.22-.04,.44-.13,.63-.27,.18-.14,.38-.32,.43-.6,.01-.11,0-.2,0-.27,0-.07,.02-.14,.06-.19,.08-.12,.22-.21,.35-.3,.14-.08,.29-.18,.4-.32,.11-.13,.19-.32,.12-.5l-.09,.11c.42,.04,.8-.09,1.08-.29,.28-.19,.46-.43,.58-.64,.11-.22,.15-.41,.16-.54,0-.13,0-.2-.01-.2-.03,0,0,.29-.24,.68-.12,.19-.3,.41-.56,.58-.26,.17-.61,.28-.98,.24l-.13-.02,.04,.12c.04,.11,0,.23-.1,.34-.09,.11-.21,.19-.36,.27-.14,.09-.3,.18-.41,.35-.06,.08-.09,.19-.09,.29,0,.1,.02,.18,0,.25-.03,.19-.2,.36-.36,.48-.17,.12-.36,.2-.56,.24-.39,.08-.79,0-1.07-.2l-.08-.05-.04,.08c-.26,.57-.68,.91-.99,1.1-.31,.18-.52,.24-.51,.26"/>
  <path class="cls-19" d="M216.99,111.32s0-.02,0-.07c0-.04,0-.11-.02-.19-.03-.17-.11-.41-.29-.67-.17-.27-.43-.55-.76-.85-.17-.14-.33-.31-.55-.44-.11-.06-.23-.12-.37-.15-.14-.03-.32,0-.43,.12l.13,.04c-.08-.42-.41-.82-.87-.95-.46-.13-1.02,.05-1.33,.48l.16,.03c-.07-.26-.27-.47-.52-.56-.25-.1-.56-.04-.78,.13-.12,.09-.22,.22-.27,.36h.18c-.03-.16-.17-.28-.3-.35-.14-.06-.3-.08-.44-.05-.29,.06-.5,.25-.7,.41h.12c-.26-.23-.6-.32-.91-.31-.31,0-.61,.11-.86,.25-.5,.29-.83,.7-1.13,1.04l.11,.05c.02-.11-.04-.23-.12-.29-.08-.06-.18-.09-.27-.1-.18-.02-.34,0-.49,.07-.27,.13-.48,.28-.64,.41-.16,.14-.26,.26-.33,.35-.07,.09-.09,.14-.09,.14,.01,.01,.14-.18,.46-.43,.16-.12,.37-.26,.63-.37,.12-.05,.28-.07,.43-.04,.15,.02,.3,.11,.28,.26l-.04,.22,.15-.17c.31-.33,.64-.73,1.11-.99,.23-.13,.5-.21,.79-.22,.28,0,.58,.08,.79,.27l.06,.05,.06-.05c.19-.16,.39-.32,.62-.37,.21-.05,.49,.06,.53,.27l.06,.32,.11-.3c.04-.11,.11-.21,.21-.28,.17-.13,.4-.18,.6-.1,.2,.07,.36,.24,.41,.44l.05,.19,.11-.16c.25-.37,.74-.53,1.13-.42,.4,.11,.69,.46,.76,.81l.03,.15,.1-.11c.15-.17,.43-.08,.62,.04,.2,.12,.37,.28,.54,.41,.33,.28,.59,.55,.77,.8,.36,.51,.35,.89,.38,.88"/>
  <path class="cls-19" d="M217.5,116.74s.02-.04,.06-.14c.03-.09,.07-.23,.1-.41,.03-.18,.05-.42-.05-.68-.05-.13-.13-.26-.25-.36-.12-.11-.28-.19-.47-.18l.06,.08c.09-.28,.03-.63-.22-.88-.25-.24-.68-.32-1.02-.12l.12,.1c.11-.28-.02-.6-.25-.77-.24-.18-.57-.2-.85-.13-.15,.04-.28,.1-.39,.11-.11,.02-.21-.04-.3-.14-.1-.09-.18-.23-.34-.31-.14-.09-.32-.12-.48-.11-.35,.03-.65,.16-.94,.25-.29,.09-.59,.13-.82,0-.11-.06-.21-.17-.34-.27-.13-.1-.28-.15-.43-.17-.3-.04-.61,.07-.81,.28l.14,.08c.09-.33-.11-.63-.33-.78-.24-.16-.52-.17-.75-.14-.47,.09-.82,.31-1.11,.48-.28,.18-.48,.35-.61,.48-.13,.12-.19,.2-.18,.2,.02,.02,.28-.26,.84-.6,.28-.15,.64-.35,1.08-.43,.21-.03,.46-.01,.65,.13,.19,.13,.34,.38,.26,.61l-.11,.33,.24-.25c.16-.17,.42-.26,.67-.22,.13,.02,.25,.06,.35,.14,.11,.08,.21,.19,.35,.28,.15,.08,.32,.12,.48,.11,.17,0,.32-.05,.48-.09,.3-.09,.6-.22,.9-.24,.14-.01,.27,.02,.38,.08,.11,.06,.19,.17,.3,.28,.1,.11,.28,.22,.45,.19,.17-.02,.29-.09,.42-.12,.25-.06,.52-.04,.7,.1,.18,.13,.28,.39,.2,.58l-.09,.22,.2-.12c.27-.16,.64-.11,.84,.09,.21,.2,.27,.5,.2,.73l-.03,.09h.09c.3-.02,.53,.23,.62,.45,.1,.23,.09,.46,.07,.63-.05,.36-.11,.55-.09,.56"/>
  <path class="cls-19" d="M221.59,125.77s.06-.02,.15-.1c.09-.08,.21-.22,.31-.43,.09-.21,.16-.51,.08-.83-.07-.32-.28-.66-.64-.88l.03,.09c.1-.29,.23-.62,.2-1.01-.01-.19-.08-.39-.2-.55-.12-.16-.31-.3-.54-.31l.06,.15c.25-.28,.29-.69,.17-1.04-.07-.2-.19-.38-.35-.52-.15-.14-.38-.21-.56-.23-.19-.02-.29-.08-.34-.25-.06-.17-.15-.35-.27-.48-.24-.29-.58-.41-.86-.51-.29-.1-.55-.2-.8-.28-.49-.17-.92-.23-1.22-.19-.15,.01-.26,.04-.33,.07-.07,.03-.11,.04-.11,.05,0,.02,.16-.04,.44-.05,.28-.01,.69,.07,1.17,.24,.24,.09,.51,.19,.79,.3,.28,.11,.58,.22,.78,.48,.1,.13,.17,.26,.23,.43,.03,.08,.08,.19,.18,.26,.1,.07,.2,.09,.3,.1,.36,.02,.64,.28,.76,.63,.1,.3,.06,.65-.13,.87l-.12,.14h.18c.33,.04,.57,.4,.59,.71,.03,.33-.08,.65-.18,.94l-.02,.06,.05,.03c.32,.18,.52,.49,.6,.77,.08,.29,.03,.56-.04,.77-.16,.41-.4,.55-.38,.57"/>
  <path class="cls-19" d="M201.54,116.26s.2-.1,.46-.36c.13-.13,.27-.31,.35-.55,.08-.24,.1-.54-.05-.81-.03-.06-.08-.11-.12-.16v.13c.2-.2,.28-.47,.26-.71-.02-.24-.15-.43-.28-.54-.27-.22-.51-.19-.5-.17,0,.03,.2,.04,.42,.26,.1,.11,.19,.27,.2,.46,0,.19-.06,.41-.22,.56l-.07,.06,.07,.07s.07,.08,.09,.12c.12,.21,.11,.46,.05,.67-.06,.21-.18,.38-.29,.51-.22,.27-.38,.42-.36,.44"/>
  <path class="cls-19" d="M196.91,115.56s-.25-.17-.31-.61c-.02-.21,.03-.49,.25-.67,.21-.18,.58-.27,.88-.11l.14,.07-.02-.16c-.02-.19,0-.39,.05-.58,.05-.18,.18-.37,.35-.44,.27-.12,.66,.05,.65,.3l.17-.02c-.07-.38,.04-.75,.23-1.01,.18-.27,.44-.43,.67-.51,.47-.16,.77-.05,.77-.08,0,0-.07-.04-.21-.07-.14-.02-.35-.03-.6,.04-.25,.07-.54,.23-.76,.52-.21,.29-.35,.7-.28,1.13h.18c0-.22-.15-.4-.32-.47-.17-.08-.38-.09-.58-.01-.25,.11-.38,.34-.45,.56-.07,.22-.07,.44-.05,.65l.13-.09c-.38-.18-.81-.07-1.05,.16-.26,.23-.31,.57-.26,.8,.04,.24,.16,.4,.25,.49,.09,.09,.16,.11,.16,.1"/>
  <path class="cls-14" d="M210.87,123.16c.09-.09,3.69-2.91,5.22,1.31s-3.02,4.88-3.07,4.76c-.05-.12-2.15-6.07-2.15-6.07"/>
  <path class="cls-13" d="M213.73,127.17s.09,.03,.24,.04c.14,.01,.36-.03,.55-.19,.39-.33,.5-1.17,.25-1.94-.13-.39-.34-.72-.59-.98-.24-.26-.52-.4-.76-.36-.24,.03-.35,.22-.36,.36-.01,.14,.04,.21,.02,.23,0,.01-.12-.04-.15-.23-.01-.09,0-.21,.07-.32,.07-.12,.2-.22,.37-.25,.33-.1,.73,.1,1,.38,.29,.27,.54,.65,.68,1.08,.28,.86,.13,1.81-.41,2.21-.27,.18-.55,.18-.71,.13-.17-.06-.22-.14-.21-.16"/>
  <g class="cls-43">
    <g class="cls-41">
      <path class="cls-5" d="M201.73,187.64s8.4,1,14.02-2.7c5.61-3.7,12.6-18.06,12.6-18.06,0,0-14.03,16.2-27.27,18.28l.65,2.47Z"/>
    </g>
  </g>
  <path class="cls-15" d="M217.66,153.09c-4.78,6.22-13.78,17.96-13.78,17.96l-33.32,4.89,1.74,11.04,33.1-1.9c4.88-.44,9.4-2.71,12.67-6.37,4.05-4.53,9.57-10.81,13.01-15.17,3.11-3.93,2.16-9.68-2.04-12.4-3.72-2.41-8.67-1.57-11.37,1.95"/>
  <path class="cls-19" d="M231.9,266.15c-.1,.02-2.25-9.79-4.79-21.91-2.55-12.12-4.54-21.97-4.44-21.99,.1-.02,2.24,9.79,4.79,21.91,2.55,12.12,4.53,21.96,4.44,21.99"/>
  <path class="cls-19" d="M251.67,258.18c.07,.07-.42,.7-1.1,1.42-.68,.71-1.3,1.23-1.37,1.16-.07-.07,.42-.7,1.11-1.42,.68-.71,1.29-1.23,1.37-1.17"/>
  <path class="cls-18" d="M223.01,146.79s-.11,.16-.33,.45c-.24,.3-.57,.74-1,1.3-.89,1.14-2.18,2.8-3.83,4.92-3.33,4.25-8.1,10.32-13.87,17.69l-.04,.05h-.06c-9.54,1.42-20.96,3.1-33.31,4.93l.15-.21c.33,2.03,.68,4.19,1.04,6.37,.26,1.62,.52,3.24,.78,4.83l-.19-.15c13.06-.81,25.14-1.56,35.28-2.19h-.02c2.24-.48,4.3-1.42,6.07-2.52,1.78-1.12,3.28-2.45,4.51-3.87,2.46-2.83,4.6-5.3,6.37-7.33,1.76-2.01,3.14-3.59,4.09-4.68,.47-.53,.83-.93,1.08-1.22,.25-.28,.38-.41,.38-.41,0,0-.11,.15-.35,.44-.25,.29-.6,.71-1.05,1.25-.94,1.1-2.3,2.7-4.03,4.74-1.75,2.04-3.87,4.53-6.32,7.38-2.43,2.87-6.1,5.47-10.71,6.53h0s-.01,0-.01,0c-10.14,.65-22.21,1.42-35.27,2.26h-.16s-.03-.15-.03-.15c-.26-1.59-.52-3.2-.79-4.83-.35-2.18-.7-4.34-1.03-6.37l-.03-.18,.18-.03c12.35-1.8,23.77-3.46,33.32-4.86l-.1,.05c5.81-7.33,10.61-13.38,13.97-17.61,1.67-2.09,2.99-3.74,3.89-4.87,.44-.55,.79-.97,1.03-1.27,.24-.28,.37-.43,.37-.43"/>
  <path class="cls-18" d="M227.12,184.42s-.13,.27-.41,.73c-.28,.46-.73,1.1-1.32,1.87-1.17,1.54-2.98,3.53-5.28,5.39-2.31,1.85-4.64,3.19-6.39,4.01-.88,.41-1.6,.71-2.11,.89-.51,.18-.79,.27-.8,.25-.02-.06,1.09-.49,2.8-1.36,1.71-.87,3.99-2.23,6.27-4.06,2.28-1.84,4.09-3.78,5.3-5.26,1.22-1.48,1.88-2.48,1.93-2.44"/>
  <path class="cls-18" d="M230.18,189.37c.05,.09-2.91,1.87-6.62,3.97-3.71,2.11-6.75,3.74-6.8,3.65-.05-.09,2.91-1.87,6.62-3.97,3.7-2.1,6.75-3.74,6.8-3.65"/>
  <path class="cls-18" d="M196.92,169.75s-.09-.25-.23-.71c-.16-.54-.34-1.18-.57-1.94-.49-1.73-1.11-3.96-1.8-6.42-.69-2.51-1.3-4.79-1.73-6.44-.19-.77-.35-1.42-.48-1.96-.11-.47-.15-.73-.13-.73,.02,0,.12,.24,.27,.69,.15,.45,.35,1.11,.6,1.93,.49,1.64,1.14,3.9,1.83,6.42,.69,2.51,1.29,4.79,1.7,6.45,.41,1.65,.62,2.7,.55,2.71"/>
  <g class="cls-43">
    <g class="cls-35">
      <path class="cls-5" d="M214.11,199.74c3.28-.35,6.63-.43,9.69-1.67,3.06-1.24,5.87-3.42,7.18-6.45-5.38,3.18-11.03,5.9-16.87,8.11"/>
    </g>
  </g>
  <path class="cls-8" d="M156.09,190.35c-.07,.08-.68,.67-1.26,1.23-.67,.65-1.15,1.45-1.39,2.31-.27,.99-.45,1.76-.49,1.82l-1.36,4.33,5.04,3.69,.81-3.64s2.1-.83,3.21-1.9c1.11-1.07,1.62-1.55,1.9-2.48,.18-.6-.14-1.04-.14-1.04,0,0-.07-1.99-.78-2.05,0,0,.4-1.04,.14-1.6-.46-1-1.86-.92-1.86-.92,0,0,.48-.42-.05-.78-.53-.36-.91,.16-.91,.16l-2.82,2.5-.04-1.63Z"/>
  <path class="cls-15" d="M115.77,202.94c-2.06,3.25-1.45,7.51,1.45,10.04,6.64,5.79,24.62,15.87,27.32,15.42,3.9-.65,14.09-23.35,14.09-23.35l-7.58-6.25-9.49,15.38s-7.83-7.39-13.95-12.24c-3.72-2.95-9.29-3.01-11.84,1"/>
  <path class="cls-18" d="M127.24,201.62s.09,.07,.27,.21c.19,.16,.44,.37,.76,.64,.68,.58,1.65,1.42,2.89,2.48,2.51,2.18,6.1,5.3,10.5,9.12l-.21,.03c2.71-4.41,5.93-9.66,9.46-15.4l.1-.17,.15,.13c2.43,2,4.97,4.09,7.59,6.25l.11,.09-.06,.12c-.81,1.78-1.69,3.65-2.6,5.53-1.61,3.3-3.24,6.48-4.95,9.49-.86,1.5-1.73,2.96-2.66,4.35-.47,.69-.95,1.37-1.47,2-.53,.63-1.06,1.25-1.75,1.72-.34,.22-.78,.42-1.21,.36-.42-.04-.8-.15-1.17-.26-.75-.23-1.46-.52-2.16-.81-1.39-.6-2.7-1.24-3.96-1.88-2.52-1.29-4.81-2.58-6.88-3.8-4.14-2.45-7.37-4.62-9.53-6.21-1.08-.8-1.9-1.45-2.44-1.9-.27-.22-.47-.41-.61-.53-.13-.12-.2-.19-.2-.19,0,0,.08,.05,.22,.16,.16,.12,.36,.29,.63,.5,.55,.44,1.38,1.07,2.47,1.85,2.18,1.55,5.43,3.69,9.58,6.1,2.07,1.2,4.37,2.49,6.88,3.76,1.26,.63,2.57,1.27,3.95,1.85,.69,.29,1.4,.57,2.13,.79,.36,.11,.74,.21,1.1,.24,.36,.04,.68-.1,1-.31,.63-.43,1.16-1.04,1.67-1.65,.51-.62,.98-1.29,1.45-1.98,.92-1.38,1.79-2.83,2.64-4.33,1.7-3,3.33-6.18,4.93-9.47,.91-1.88,1.79-3.74,2.6-5.52l.05,.21c-2.61-2.16-5.15-4.25-7.58-6.26l.26-.04c-3.55,5.73-6.79,10.96-9.52,15.36l-.09,.14-.12-.11c-4.37-3.86-7.93-7.01-10.42-9.21-1.22-1.09-2.17-1.94-2.84-2.54-.31-.29-.55-.51-.73-.67-.16-.15-.25-.23-.24-.24"/>
  <path class="cls-12" d="M118.43,78.46c0,.07-.13,.33-.33,.66-.84,1.45-.8,3.25,.12,4.65l1.59,2.44,.19,3.75,8.13,1.95-.38-6.61s1.34-2.79,1.36-4.67c.02-1.88-.48-3.89-1.1-3.97-.62-.08-.81-.11-.81-.11,0,0-.62-1.1-1.61-1.28,0,0-.49-2.44-1.33-2.65-.84-.21-1.59,.65-1.59,.65,0,0-1.04-1.99-1.92-1.86-1.8,.27-1.8,2.08-1.8,2.08l-.53,5.15,.03-.17Z"/>
  <path class="cls-16" d="M99.47,1.45c-.34-1.09-1.5-1.69-2.58-1.35-1.09,.34-1.69,1.5-1.35,2.58l98.03,312.29,4.29,.18L99.47,1.45Z"/>
  <g class="cls-34">
    <rect class="cls-2" x=".86" y="5.58" width="117.02" height="81.89"/>
  </g>
  <g>
    <g class="cls-43">
      <g class="cls-33">
        <polygon class="cls-9" points="71.85 28.24 80.09 36.52 91.57 34.43 86.24 44.82 91.78 55.1 80.25 53.24 72.19 61.68 70.39 50.14 59.87 45.08 70.29 39.81 71.85 28.24"/>
      </g>
    </g>
    <path class="cls-18" d="M94,23.73s-.04,.17-.15,.48c-.13,.34-.3,.79-.51,1.34-.22,.58-.5,1.29-.87,2.1-.36,.81-.75,1.74-1.26,2.73-.49,1-1.03,2.1-1.68,3.24-.61,1.16-1.35,2.35-2.11,3.61-1.57,2.49-3.43,5.15-5.57,7.8-2.16,2.63-4.38,4.99-6.5,7.05-1.08,1-2.1,1.97-3.11,2.8-.98,.86-1.94,1.62-2.83,2.3-.87,.7-1.7,1.27-2.42,1.79-.71,.52-1.35,.94-1.88,1.28-.5,.32-.9,.58-1.21,.77-.28,.17-.43,.26-.44,.25,0-.01,.13-.12,.4-.31,.3-.21,.68-.49,1.17-.83,.51-.35,1.14-.79,1.84-1.33,.7-.53,1.52-1.11,2.38-1.83,.87-.69,1.82-1.46,2.79-2.33,1-.84,2-1.81,3.07-2.82,2.1-2.05,4.31-4.41,6.45-7.03,2.13-2.64,3.98-5.28,5.57-7.75,.76-1.25,1.51-2.43,2.13-3.58,.66-1.13,1.21-2.21,1.71-3.2,.52-.98,.92-1.9,1.3-2.7,.38-.8,.68-1.49,.92-2.07,.24-.54,.43-.98,.57-1.31,.13-.3,.21-.45,.22-.45"/>
    <path class="cls-18" d="M108.75,50.79s-.07-.13-.15-.38c-.1-.29-.22-.66-.37-1.11-.32-1.02-.77-2.41-1.31-4.11-1.09-3.47-2.56-8.28-4.16-13.6-1.59-5.32-3-10.15-3.98-13.66-.49-1.75-.87-3.18-1.11-4.17-.12-.49-.21-.88-.25-1.15-.02-.13-.04-.24-.04-.31,0-.02,0-.09,.04-.07,.01,.02,.01,.03,.01,.03-.05-.07,0,.07,.06,.33,.08,.3,.19,.67,.32,1.13,.3,1.02,.71,2.42,1.22,4.13,1.06,3.53,2.49,8.32,4.08,13.62,1.58,5.3,3,10.1,4.05,13.63,.49,1.71,.9,3.12,1.2,4.14,.12,.46,.23,.83,.31,1.13,.07,.26,.1,.4,.08,.4"/>
    <g class="cls-43">
      <g class="cls-37">
        <path class="cls-5" d="M99.64,19.2c.29,6.4,.59,12.84,2.02,19.08,1.43,6.24,4.07,12.34,8.49,16.97-4-11.87-7.52-23.91-10.53-36.06"/>
      </g>
    </g>
    <path class="cls-14" d="M153.23,172.77c.19,.02,3.33,.01,5.2,0,.88,0,1.73,.32,2.39,.91,1.46,1.31,3.96,3.56,3.96,3.56l5.78-.66,1.6,9.55-7.99-.3s-3.43,.99-5.55,.96c-2.13-.03-4.38-.65-4.45-1.35-.08-.7-.1-.91-.1-.91,0,0-1.23-.73-1.41-1.85,0,0-2.74-.62-2.96-1.57-.22-.96,.78-1.78,.78-1.78,0,0-2.21-1.22-2.05-2.22s1.12-1.54,1.12-1.54l4.33-.58-.64-2.22Z"/>
    <path class="cls-18" d="M140.44,168.93c1.89,2.55,2.41,6.05,1.35,9.04-.52,1.45-1.39,3.03-.73,4.43,.65,1.38,2.53,1.86,3.14,3.26,.71,1.65-.74,3.42-.81,5.22-.07,1.68,1.29,3.31,2.96,3.54-2.31,1.03-4.91,1.41-7.42,1.08-.4-.96-.81-1.93-1.21-2.89,.48,1.03-.07,2.31-.98,2.97-.91,.67-2.09,.85-3.22,.9-5.4,.23-10.85-2.24-14.23-6.46"/>
    <path class="cls-18" d="M109.02,174.46c.68-1.04,1.59-1.92,2.16-3.02,1.22-2.37,.76-5.53,2.6-7.46,1.3-1.37,3.37-1.66,5.26-1.73,1.89-.06,3.89-.01,5.55-.94,1.21-.68,2.11-1.83,3.32-2.51,1.72-.98,3.85-.89,5.79-.49,1.99,.41,3.97,1.15,5.49,2.49,1.53,1.34,2.55,3.36,2.34,5.39-.1,.99-.49,1.95-.44,2.94,.06,1.09,.63,2.08,.86,3.15,.49,2.25-.79,4.76-2.9,5.69l-18.17,13.72c-3.11,.3-9.61-2.85-11.23-5.53-1.62-2.68-2.35-9.08-.63-11.7"/>
    <path class="cls-8" d="M139.29,175.66c.52-4.09-1.22-9.57-5.33-9.91l-13.2,.78c-1.25-.1-2.37,.77-2.58,2l-4.44,30.62s-.06,0-.09,0c0,0,1.22,9.11,10.04,8.1,1.75-.2,2.33,.54,3.02-1.25,.05-.22,0,0,.05-.22,.54-2.26,1.54-6.95,1.54-6.95,.5-2.45,.69-3.45,.68-3.43,0,0,5.33,.13,7.69-6.41,1.17-3.25,2.05-8.79,2.62-13.34"/>
    <path class="cls-18" d="M128.05,179.72c-.07,.46-.52,.78-1,.71-.48-.07-.81-.49-.74-.95s.52-.78,1-.71c.48,.07,.82,.49,.74,.95"/>
    <path class="cls-18" d="M136.93,181.05c-.07,.46-.52,.78-1,.71-.48-.07-.81-.49-.74-.95s.52-.78,1-.71c.48,.07,.82,.49,.74,.95"/>
    <path class="cls-18" d="M137.88,178.48c-.13,.13-.79-.58-1.81-.71-1.02-.14-1.84,.38-1.94,.22-.05-.07,.1-.32,.46-.56,.35-.24,.93-.44,1.57-.36,.64,.08,1.15,.43,1.42,.74,.28,.32,.36,.6,.3,.65"/>
    <path class="cls-18" d="M128.43,177.05c-.16,.11-.78-.66-1.85-.9-1.07-.26-1.99,.15-2.07-.01-.04-.08,.14-.3,.54-.49,.4-.19,1.03-.32,1.7-.16,.67,.16,1.17,.55,1.43,.89,.27,.35,.33,.62,.25,.67"/>
    <path class="cls-18" d="M130.43,184.27c0-.05,.6-.04,1.56,.02,.24,.02,.48,.02,.55-.14,.09-.16,.04-.44-.02-.74-.11-.62-.23-1.26-.36-1.94-.48-2.76-.79-5.02-.68-5.04,.11-.02,.6,2.21,1.08,4.97,.11,.68,.22,1.33,.33,1.95,.04,.29,.14,.62-.05,.96-.1,.16-.3,.26-.46,.27-.16,.02-.3,0-.42-.02-.95-.13-1.54-.24-1.53-.29"/>
    <path class="cls-6" d="M128.97,195.41s-4.59-.57-8.58-4.13c0,0,1.31,5.05,8.18,5.71l.4-1.58Z"/>
    <path class="cls-10" d="M129.61,186.44c-.25-.51-.79-.86-1.39-.91-.41-.03-.86,.08-1.17,.37s-.45,.74-.29,1.1c.18,.4,.69,.58,1.16,.54,.47-.04,.91-.26,1.32-.48,.12-.06,.23-.13,.32-.22,.08-.1,.12-.24,.07-.35"/>
    <path class="cls-18" d="M127.57,184.4c.15,.02-.04,1.03,.69,1.91,.73,.88,1.83,.98,1.81,1.12,0,.07-.28,.15-.73,.08-.45-.07-1.07-.34-1.52-.88-.44-.54-.56-1.17-.51-1.59,.04-.43,.2-.66,.27-.64"/>
    <path class="cls-18" d="M129.19,173.92c-.14,.24-1.05-.06-2.16-.14-1.12-.1-2.06,.05-2.16-.2-.04-.12,.16-.33,.56-.51,.4-.18,1.01-.3,1.68-.25,.67,.05,1.25,.27,1.62,.51,.37,.24,.53,.48,.47,.59"/>
    <path class="cls-18" d="M137.72,175.54c-.23,.18-.92-.18-1.8-.36-.87-.2-1.65-.17-1.78-.42-.05-.12,.1-.31,.47-.45,.36-.14,.93-.2,1.53-.07,.6,.13,1.09,.42,1.36,.7,.27,.28,.33,.51,.23,.6"/>
    <path class="cls-18" d="M117.82,166.76c.86-.77,2.09-.96,3.25-1.08,4.98-.52,10.02-.44,14.98,.23,.33,1.14-.58,2.33-1.68,2.8-1.09,.47-2.33,.44-3.51,.55-1.19,.11-2.46,.43-3.19,1.37-.78,1-.74,2.44-1.47,3.48-1.25,1.79-4.19,1.67-5.43,3.47-.94,1.36-.5,3.19-.71,4.82-.24,1.85-1.41,3.56-3.06,4.45-1.3,.7-2.86,.87-4.28,.51,1.21-5.77,2.43-11.54,3.64-17.31,.25-1.2,.55-2.49,1.47-3.31"/>
    <path class="cls-18" d="M102.49,178c1.11-.56,2.43-.95,3.1-2,.98-1.53,.16-3.87,1.45-5.16,1.17-1.18,3.48-.47,4.6-1.7,.88-.96,.48-2.12,.96-3.03,.48-.92,2.1-1.39,3.06-1.01l4.71,13.35c-.3,3.97-.12,6.17-1.53,8.16-.77,1.09-1.67,2.11-2.19,3.34s-.59,2.77,.25,3.8c-4.74-.89-8.42-4.5-11.8-7.94-1.19-1.21-2.38-2.43-3.58-3.64-.37-.38-.76-.78-.9-1.29-.34-1.2,.77-2.32,1.88-2.88"/>
    <path class="cls-19" d="M105.28,184.64s.15,.11,.47,.23c.32,.12,.81,.27,1.47,.29,.65,.02,1.48-.09,2.31-.54,.83-.43,1.62-1.25,2.06-2.35,.22-.55,.34-1.17,.33-1.82-.02-.65-.2-1.31-.39-1.96-.19-.65-.41-1.33-.4-2.03,0-.69,.21-1.46,.78-1.9,.58-.45,1.4-.38,2.2-.47,.41-.05,.85-.17,1.19-.46,.34-.29,.54-.71,.65-1.13,.22-.85,.07-1.73,.13-2.56,.03-.42,.11-.83,.31-1.19,.2-.35,.53-.62,.92-.76,.8-.3,1.67-.14,2.52,.01,.84,.16,1.76,.21,2.58-.06,.83-.24,1.56-.72,2.12-1.33,.55-.62,.9-1.36,1.21-2.06,.31-.7,.6-1.39,1.02-1.96,.42-.57,.96-1.02,1.54-1.35,1.18-.64,2.49-.79,3.6-.58,1.12,.21,2.04,.77,2.71,1.38,.67,.61,1.12,1.28,1.42,1.85,.58,1.15,.63,1.89,.67,1.88,0,0,0-.04-.01-.13-.02-.09-.03-.22-.07-.38-.07-.34-.21-.83-.5-1.42-.28-.59-.73-1.27-1.41-1.91-.67-.64-1.61-1.23-2.78-1.46-1.16-.23-2.52-.08-3.75,.57-.61,.34-1.18,.8-1.62,1.41-.44,.6-.74,1.3-1.06,2-.31,.7-.65,1.4-1.17,1.99-.52,.57-1.22,1.02-2,1.24-.78,.25-1.61,.21-2.46,.04-.83-.15-1.77-.33-2.66,0-.44,.15-.84,.47-1.07,.88-.24,.41-.32,.87-.35,1.31-.06,.88,.09,1.73-.12,2.51-.1,.39-.27,.74-.56,.99-.29,.24-.66,.36-1.05,.4-.39,.05-.79,.05-1.19,.11-.4,.05-.81,.17-1.14,.43-.66,.52-.87,1.37-.87,2.1,0,.76,.23,1.45,.43,2.1,.2,.65,.38,1.28,.4,1.9,.02,.62-.1,1.21-.3,1.74-.41,1.06-1.16,1.85-1.95,2.29-.79,.44-1.6,.57-2.23,.57-1.3-.02-1.93-.46-1.94-.41"/>
    <path class="cls-18" d="M101.26,174.97s-.12,.09-.26,.34c-.13,.24-.24,.68-.11,1.2,.07,.26,.2,.54,.42,.79,.23,.24,.54,.44,.92,.53,.74,.21,1.73,0,2.38-.74,.33-.36,.58-.81,.71-1.32,.14-.51,.15-1.07,.09-1.62-.1-1.1-.5-2.26-.2-3.44,.14-.57,.44-1.15,.97-1.45,.53-.31,1.19-.24,1.83-.07,.64,.15,1.31,.42,2.07,.34,.37-.04,.74-.21,1.01-.47,.28-.26,.48-.59,.62-.93,.28-.7,.3-1.43,.39-2.11,.08-.68,.29-1.32,.63-1.88,.67-1.13,1.77-1.93,2.93-2.25,1.17-.33,2.35-.08,3.42,.14,1.07,.23,2.11,.44,3.06,.33,.95-.09,1.77-.39,2.43-.74,.66-.35,1.17-.78,1.53-1.15,.74-.76,.95-1.32,.95-1.32-.03-.02-.28,.52-1.03,1.24-.37,.36-.87,.76-1.53,1.09-.65,.34-1.46,.61-2.38,.68-.92,.09-1.92-.12-3-.36-1.06-.23-2.28-.51-3.53-.16-1.23,.33-2.38,1.17-3.1,2.36-.36,.59-.59,1.28-.67,1.99-.09,.69-.12,1.4-.38,2.04-.24,.64-.75,1.17-1.41,1.23-.65,.08-1.31-.17-1.96-.33-.65-.17-1.41-.26-2.03,.1-.62,.35-.94,1.01-1.09,1.62-.16,.62-.13,1.26-.04,1.84,.08,.59,.2,1.14,.26,1.68,.06,.54,.06,1.06-.07,1.54-.12,.48-.35,.91-.65,1.25-.6,.69-1.5,.9-2.2,.72-.35-.08-.65-.26-.86-.47-.22-.22-.34-.48-.42-.72-.14-.49-.05-.91,.06-1.15,.11-.25,.22-.35,.21-.36"/>
    <path class="cls-18" d="M149.39,191.01s.13,.51-.34,1.21c-.23,.32-.65,.68-1.23,.72-.56,.04-1.24-.29-1.58-.93-.17-.31-.21-.7-.14-1.08,.08-.38,.26-.76,.5-1.13,.46-.72,1.19-1.44,1.39-2.48,.21-1.01-.02-2.16-.68-3.06-.33-.45-.75-.85-1.24-1.15-.48-.32-1.04-.51-1.59-.69-.55-.18-1.09-.34-1.56-.6-.47-.26-.86-.64-1.04-1.11-.18-.48-.18-1-.08-1.49,.1-.5,.29-.96,.51-1.4,.44-.88,.96-1.7,1.15-2.6,.19-.89,.07-1.77-.22-2.48-.29-.72-.77-1.25-1.17-1.69-.41-.44-.75-.82-.98-1.16-.48-.69-.46-1.2-.49-1.18,0,0,0,.03,0,.09,0,.06,0,.14,.03,.25,.04,.22,.15,.54,.38,.9,.22,.37,.56,.76,.96,1.21,.39,.45,.84,.96,1.1,1.66,.26,.68,.37,1.52,.17,2.36-.18,.85-.7,1.65-1.16,2.54-.23,.44-.43,.93-.54,1.46-.11,.52-.12,1.1,.08,1.65,.2,.55,.65,.98,1.16,1.26,.51,.28,1.06,.45,1.61,.63,.54,.18,1.07,.36,1.53,.65,.46,.29,.86,.66,1.17,1.08,.63,.84,.84,1.91,.65,2.85-.17,.96-.86,1.65-1.34,2.41-.24,.38-.43,.79-.51,1.21-.08,.42-.03,.86,.17,1.21,.39,.7,1.14,1.04,1.76,.99,.64-.05,1.08-.46,1.31-.81,.24-.36,.3-.71,.3-.93,0-.23-.05-.34-.05-.34"/>
    <path class="cls-10" d="M58.42,294.26l13.61-2.89,2.27,11.16-10.01,.22,.1,9.03c4.49,1.27,5.12,3.54,5.12,3.54l-9.39-.22-8.17-16.61,6.47-4.23Z"/>
    <g class="cls-44">
      <g class="cls-39">
        <polygon class="cls-9" points="51.96 298.49 60.13 315.1 69.52 315.32 68.49 313.88 60.87 313.29 53.33 297.59 51.96 298.49"/>
      </g>
    </g>
    <path class="cls-18" d="M64.43,307.65c-.07,.09-.61-.22-1.33-.22-.73-.02-1.27,.29-1.34,.2-.09-.07,.46-.62,1.34-.61,.89,0,1.42,.56,1.33,.63"/>
    <path class="cls-18" d="M64.33,305.41c-.1,.06-.5-.5-1.25-.66-.74-.17-1.35,.17-1.41,.07-.03-.04,.08-.2,.35-.33,.26-.14,.69-.24,1.15-.14,.46,.1,.81,.38,.99,.61,.18,.24,.22,.43,.17,.45"/>
    <path class="cls-18" d="M64.46,302.53c-.1,.05-.41-.5-1.06-.74-.65-.25-1.24-.04-1.29-.15-.02-.05,.1-.18,.36-.27,.26-.09,.66-.13,1.07,.03,.41,.15,.69,.45,.82,.69,.14,.24,.14,.42,.09,.44"/>
    <path class="cls-18" d="M65.15,302.53c-.12-.03-.04-.62-.33-1.25-.26-.64-.74-1-.68-1.1,.03-.11,.73,.15,1.06,.94,.34,.78,.05,1.47-.05,1.42"/>
    <path class="cls-18" d="M66.26,301.47c-.06,0-.14-.48-.22-1.26-.04-.45-.08-.91-.13-1.38,0-.26-.08-.52,0-.88,.05-.18,.15-.35,.33-.47,.18-.12,.47-.1,.64,.03,.33,.26,.42,.55,.53,.83,.1,.29,.15,.57,.17,.85,.03,.55-.09,1.04-.25,1.42-.33,.77-.81,1.04-.82,1.01-.06-.05,.32-.39,.55-1.11,.11-.36,.19-.8,.14-1.29-.03-.24-.08-.49-.17-.74-.09-.24-.23-.52-.39-.63-.08-.05-.13-.05-.2-.01-.07,.04-.13,.12-.15,.22-.06,.2-.01,.49-.01,.75,.01,.47,.02,.93,.04,1.38,0,.79-.01,1.28-.07,1.28"/>
    <path class="cls-18" d="M66.41,301.88s.24-.43,.96-.67c.7-.22,1.92-.17,2.66,.95,.04,.11,.03,.26-.04,.36-.07,.11-.17,.17-.25,.2-.17,.07-.31,.07-.44,.09-.27,.02-.52,.02-.76,0-.49-.05-.91-.17-1.24-.32-.67-.29-.98-.64-.95-.67,.04-.05,.4,.19,1.06,.4,.32,.1,.72,.19,1.17,.21,.22,.01,.46,0,.7-.02,.12-.02,.24-.03,.32-.06,.08-.05,.06-.03,.06-.06,0-.05-.1-.14-.19-.22-.09-.08-.18-.16-.28-.22-.19-.13-.4-.23-.6-.29-.41-.13-.81-.12-1.14-.06-.66,.14-.99,.44-1.03,.39"/>
    <g class="cls-44">
      <g class="cls-38">
        <path class="cls-9" d="M59.46,298.37c-.01,.62-.52,1.1-1.14,1.09-.62-.01-1.1-.52-1.09-1.14,.01-.61,.52-1.1,1.14-1.09,.62,.01,1.1,.52,1.09,1.14"/>
      </g>
    </g>
    <path class="cls-10" d="M161.73,295.48l-.13,12.3s13.09,4.87,13.29,7.14h-24.49l-.59-19.17,11.91-.27Z"/>
    <g class="cls-44">
      <g class="cls-42">
        <path class="cls-9" d="M154.2,306.93c-.46,.14-.76,.67-.65,1.13,.12,.46,.65,.78,1.11,.65,.46-.13,.85-.75,.68-1.2s-.82-.78-1.23-.55"/>
      </g>
    </g>
    <g class="cls-44">
      <g class="cls-40">
        <path class="cls-9" d="M150.41,314.92l.02-1.93,22.86,.14s1.71,1.04,1.61,1.79h-24.49Z"/>
      </g>
    </g>
    <path class="cls-18" d="M161.99,307.64c0,.12-.58,.18-1.15,.57-.57,.38-.86,.89-.97,.84-.11-.02,.05-.72,.74-1.18,.69-.47,1.39-.35,1.37-.24"/>
    <path class="cls-18" d="M164.52,308.62c.03,.11-.47,.32-.85,.83-.4,.49-.48,1.03-.6,1.02-.11,.02-.21-.66,.28-1.28,.48-.62,1.17-.69,1.17-.58"/>
    <path class="cls-18" d="M166.01,311.57c-.11,.03-.28-.55,0-1.19,.28-.65,.82-.91,.87-.82,.07,.09-.28,.44-.5,.98-.24,.53-.26,1.02-.37,1.03"/>
    <path class="cls-18" d="M161.71,304.84c-.05,.11-.58-.04-1.24,.02-.66,.05-1.16,.28-1.23,.18-.07-.08,.42-.53,1.2-.59,.77-.07,1.33,.29,1.28,.38"/>
    <g class="cls-43">
      <g class="cls-29">
        <polygon class="cls-5" points="161.7 297.92 161.68 300.11 149.96 300.3 149.89 298.33 161.7 297.92"/>
      </g>
    </g>
    <path class="cls-18" d="M161.69,302.36s-.46,.13-1.2,.02c-.37-.05-.8-.16-1.26-.35-.23-.09-.46-.21-.7-.35-.11-.07-.24-.14-.37-.27-.13-.12-.21-.42-.07-.62,.12-.19,.33-.27,.5-.28,.18-.01,.32,.02,.45,.05,.27,.06,.52,.14,.75,.24,.46,.2,.84,.45,1.12,.69,.57,.5,.77,.93,.73,.95-.05,.04-.33-.32-.9-.73-.29-.2-.65-.41-1.08-.57-.22-.08-.45-.15-.69-.19-.26-.06-.47-.06-.53,.06-.02,.04-.02,.06,.03,.13,.06,.07,.16,.13,.27,.2,.21,.13,.43,.25,.64,.34,.42,.2,.82,.33,1.17,.41,.69,.17,1.14,.19,1.14,.26"/>
    <path class="cls-18" d="M161.54,302.53s-.28-.39-.34-1.15c-.03-.37,0-.83,.13-1.31,.07-.24,.16-.49,.29-.73,.13-.24,.3-.56,.75-.62,.24-.01,.44,.16,.51,.32,.08,.16,.1,.3,.13,.43,.05,.28,.05,.55,.02,.81-.06,.51-.26,.94-.48,1.25-.45,.63-.93,.78-.94,.74-.04-.06,.36-.29,.7-.9,.17-.3,.32-.69,.35-1.13,.02-.22,0-.46-.04-.69-.04-.25-.15-.45-.24-.43-.12,0-.32,.2-.41,.4-.12,.22-.21,.44-.28,.65-.14,.44-.19,.85-.2,1.2-.02,.7,.12,1.13,.06,1.15"/>
    <path class="cls-17" d="M96.78,269.46c.84,0,4.85,16.38,4.85,16.38l-37.13,5.53,2.35,14.81s43.84-2.93,46.84-3.61c5.35-1.22,9.39-6.39,9.21-13.17-.2-7.81-4.77-26.21-4.77-26.21l-21.36,6.28Z"/>
    <g class="cls-43">
      <g class="cls-30">
        <path class="cls-5" d="M120.13,272.16l-21.55,1.56s1.79,3.72,7.86,4.16c6.07,.43,14.91,0,14.91,0l-1.22-5.72Z"/>
      </g>
    </g>
    <path class="cls-17" d="M166.09,256.96c-.49-6.71-6.25-11.82-12.98-11.83h-6.6s-35.69,1.84-35.69,1.84l-19.37-5.9s-6.73,12.04-2.86,22.1c2.43,6.32,7.81,10.57,14.23,11.66,8.06,1.37,45-6.4,45-6.4v32.9l16.76-.43,1.53-43.31c0-.21-.02-.43-.03-.64"/>
    <path class="cls-19" d="M147.83,268.44s-.07,.03-.22,.06c-.16,.03-.38,.08-.65,.13-.6,.11-1.43,.27-2.5,.47-2.2,.4-5.34,.96-9.21,1.66-3.9,.69-8.53,1.51-13.67,2.42-2.57,.45-5.28,.92-8.08,1.41-2.81,.5-5.78,.73-8.81,.5-1.51-.11-3-.34-4.44-.7-1.43-.37-2.83-.82-4.1-1.51-2.56-1.35-4.51-3.46-5.91-5.68-1.41-2.23-2.28-4.62-2.73-6.92-.45-2.3-.46-4.5-.24-6.48,.57-3.94,1.62-6.99,2.43-9.04,.41-1.03,.78-1.8,1.05-2.32,.13-.26,.24-.45,.32-.58,.08-.13,.12-.19,.13-.19,0,0-.03,.07-.09,.21-.07,.15-.17,.35-.29,.6-.24,.53-.59,1.31-.98,2.34-.76,2.06-1.78,5.12-2.31,9.02-.21,1.95-.18,4.13,.28,6.39,.45,2.26,1.32,4.61,2.71,6.8,1.38,2.18,3.3,4.23,5.8,5.54,1.23,.67,2.61,1.11,4.02,1.47,1.41,.36,2.88,.58,4.38,.69,2.99,.23,5.93,0,8.72-.49,2.8-.48,5.5-.95,8.08-1.39,5.15-.88,9.78-1.67,13.68-2.34,3.88-.65,7.03-1.18,9.23-1.55,1.07-.17,1.92-.31,2.51-.4,.27-.04,.49-.07,.66-.1,.15-.02,.22-.03,.23-.02"/>
    <path class="cls-19" d="M103.81,303.64s-.06,.02-.18,.03c-.14,.01-.31,.03-.53,.05-.49,.04-1.18,.1-2.07,.17-1.82,.14-4.44,.33-7.71,.58-6.6,.47-15.83,1.12-26.45,1.88h-.16s-.02-.15-.02-.15c-.61-3.81-1.26-7.88-1.93-12.07-.15-.93-.29-1.85-.43-2.73l-.03-.18,.18-.03c15.38-2.26,28.84-4.24,37.14-5.46h.03s.03,0,.03,0c2.56,1.26,4.37,2.63,5.53,3.63,.58,.5,1,.92,1.27,1.21,.12,.14,.22,.25,.3,.33,.07,.08,.1,.12,.09,.12,0,0-.04-.03-.12-.1-.08-.08-.19-.19-.32-.32-.29-.27-.72-.68-1.3-1.16-1.18-.97-2.99-2.31-5.54-3.53h.06c-8.3,1.26-21.74,3.3-37.12,5.62l.15-.21c.14,.89,.29,1.81,.43,2.73,.67,4.19,1.31,8.26,1.92,12.07l-.19-.15c10.63-.7,19.86-1.31,26.46-1.75,3.27-.2,5.89-.36,7.72-.48,.89-.05,1.58-.09,2.07-.11,.22,0,.4-.02,.54-.02,.12,0,.18,0,.18,0"/>
    <path class="cls-19" d="M151.55,264.42c.04,.1-1.21,.5-2.27,1.65-1.08,1.13-1.4,2.4-1.51,2.37-.04,0-.03-.34,.15-.85,.17-.5,.53-1.17,1.09-1.77,.56-.6,1.21-.99,1.7-1.2,.49-.21,.82-.24,.84-.2"/>
    <path class="cls-19" d="M121.56,246.53s-.35,.08-1,.15c-.64,.07-1.58,.14-2.73,.21-2.31,.13-5.51,.2-9.03,.23-3.53,.04-6.71,.09-9.02,.22-1.15,.06-2.08,.13-2.72,.18-.64,.06-1,.08-1,.05,0-.03,.35-.09,.99-.19,.64-.1,1.57-.21,2.73-.3,2.31-.2,5.5-.29,9.03-.33,3.52-.04,6.71-.06,9.02-.13,1.1-.04,2.02-.07,2.73-.09,.65-.03,1-.03,1.01,0"/>
    <path class="cls-15" d="M114.42,194.46l-.37,.45c-4.93,.92-8.93,4.84-10.3,9.67-1.36,4.79-1.77,13.67-4.55,25.69,0,0-6.82,6.17-8.09,10.82l19.7,5.94,10.75-.6,4.15-12.9c4.03,0,5.74-2.02,7.19-5.32,1.92-4.39-4.42-24.55-4.42-24.55l.46,3.44-14.51-12.64Z"/>
    <g class="cls-43">
      <g class="cls-32">
        <path class="cls-5" d="M131.33,211.46l4.78,9.74-2.94,.45s-1.82-9.46-1.84-10.18"/>
      </g>
    </g>
    <path class="cls-18" d="M127.65,233.52s.34-.11,.93-.37c.58-.26,1.38-.74,2.17-1.56,.78-.82,1.53-1.99,1.98-3.42,.46-1.43,.58-3.11,.45-4.85-.13-1.74-.48-3.38-.8-4.87-.33-1.49-.63-2.83-.82-3.98-.19-1.14-.27-2.08-.28-2.73-.02-.65,.02-1.01,.04-1,.03,0,.04,.36,.1,1,.06,.64,.18,1.56,.4,2.69,.22,1.13,.54,2.46,.89,3.95,.35,1.49,.7,3.14,.84,4.92,.13,1.77,0,3.5-.5,4.98-.49,1.48-1.28,2.67-2.11,3.5-.84,.83-1.69,1.29-2.3,1.51-.31,.11-.55,.18-.72,.21-.17,.03-.26,.04-.26,.03"/>
    <g class="cls-43">
      <g class="cls-31">
        <path class="cls-5" d="M104.81,213.07s6.66,22.95,11.01,26.45c4.39,3.53,8.08-.06,8.08-.06l.8-3.95-19.89-22.44Z"/>
      </g>
    </g>
    <path class="cls-8" d="M167.68,211.24c-.76-.68-1.21-.44-1.21-.44,0,0,.41-1.86-.56-2.51-.3-.2-.46-.31-.54-.36-.1-.25-.7-1.58-1.7-1.81,0,0-.14-1.74-.87-1.91-1.4-.31-1.98,1.18-1.98,1.18l-2.51,4.8-1.2,4.87-20.56,9.58,2.2,9.43,23.08-11.92,4.12-3.95s2.5-6.29,1.73-6.97"/>
    <path class="cls-15" d="M106.33,206.15c-.03,.74,11.6,31.02,17.1,33.14,2.09,.81,33.75-11.06,33.75-11.06l-3.85-11.67s-22.15,7.44-22.89,7.41c-.73-.02-7.66-19.19-7.66-19.19,0,0-4.35-9.09-10.87-6.26-4.18,1.81-5.59,7.63-5.59,7.63"/>
    <path class="cls-18" d="M130.45,223.97s.14-.06,.41-.16c.29-.1,.69-.24,1.21-.41,1.08-.36,2.63-.88,4.61-1.54,4-1.31,9.71-3.19,16.61-5.45l.14-.05,.05,.14c1.17,3.54,2.48,7.48,3.87,11.66l.05,.16-.15,.06c-4.97,1.92-10.41,3.96-16.11,5.99-3.48,1.24-6.9,2.41-10.23,3.45-1.67,.5-3.31,1.01-4.96,1.37-.41,.1-.82,.19-1.24,.24l-.63,.09c-.21,.04-.46,0-.67-.06-.86-.28-1.45-.9-2.01-1.48-1.09-1.21-1.94-2.53-2.74-3.83-.79-1.3-1.49-2.6-2.15-3.87-1.31-2.53-2.43-4.94-3.42-7.16-1.97-4.43-3.42-8.07-4.4-10.6-.49-1.26-.86-2.25-1.1-2.92-.11-.32-.2-.58-.27-.76-.06-.17-.09-.26-.08-.26,0,0,.04,.08,.11,.25,.08,.19,.18,.43,.3,.75,.27,.68,.66,1.65,1.16,2.89,1.02,2.51,2.51,6.14,4.5,10.55,1,2.2,2.13,4.6,3.45,7.12,.66,1.26,1.37,2.55,2.16,3.84,.79,1.28,1.65,2.6,2.71,3.76,.54,.56,1.14,1.14,1.86,1.38,.35,.12,.75,0,1.15-.04,.4-.04,.81-.14,1.21-.23,1.63-.36,3.26-.87,4.93-1.37,3.32-1.04,6.73-2.22,10.22-3.45,5.7-2.02,11.14-4.07,16.11-5.97l-.1,.21c-1.38-4.19-2.67-8.13-3.83-11.68l.19,.1c-6.92,2.21-12.64,4.04-16.65,5.33-1.99,.62-3.55,1.12-4.64,1.46-.52,.16-.93,.28-1.22,.37-.28,.08-.42,.11-.42,.11"/>
    <path class="cls-18" d="M113.75,198.26s.11-.03,.32-.04c.21-.02,.53-.03,.93,0,.8,.05,2.01,.2,3.28,.95,.63,.37,1.24,.92,1.8,1.55,.57,.63,1.12,1.36,1.65,2.16,1.07,1.6,1.92,3.52,2.82,5.52,1.75,4.03,3.02,7.8,3.92,10.53,.45,1.37,.79,2.48,1.02,3.25,.23,.77,.35,1.2,.32,1.21-.02,0-.18-.41-.46-1.16-.29-.81-.67-1.9-1.13-3.21-.96-2.71-2.27-6.45-4.01-10.47-.9-1.99-1.73-3.91-2.76-5.48-.51-.79-1.04-1.51-1.6-2.14-.55-.64-1.11-1.16-1.71-1.53-1.2-.75-2.38-.94-3.16-1.03-.79-.07-1.24-.06-1.24-.09"/>
    <path class="cls-6" d="M163.67,206.2c.09,.05-.17,.67-.58,1.38-.41,.71-.81,1.25-.9,1.2-.09-.05,.17-.67,.58-1.38,.41-.71,.81-1.25,.9-1.2"/>
    <path class="cls-6" d="M165.09,207.87c.08,.06-.22,.61-.61,1.28-.39,.66-.73,1.2-.82,1.15-.09-.04,.1-.66,.5-1.34,.4-.68,.84-1.15,.92-1.09"/>
    <path class="cls-6" d="M166.49,210.79c.09,.04-.03,.48-.27,.97-.24,.49-.5,.86-.59,.81-.09-.04,.03-.48,.27-.97,.24-.49,.5-.85,.59-.81"/>
    <path class="cls-18" d="M130.5,223.67c.09,.06-.6,1.12-1.1,2.57-.52,1.44-.65,2.7-.76,2.69-.09,0-.12-1.31,.42-2.81,.53-1.5,1.38-2.5,1.45-2.44"/>
    <path class="cls-14" d="M136.88,118.13l-5.51-2.23s-.93,1.36,.56,2.72c1.49,1.36,3.27,2.15,3.27,2.15,0,0,.63,2.8,2.04,4.23,1.41,1.43,4.61-.82,4.61-.82,0,0,0-4.18-4.97-6.04"/>
    <path class="cls-12" d="M145.16,136.05c-.66-.92-1.31-.37-1.31-.37,0,0,.78-1.96-.16-2.85-.29-.27-.45-.42-.53-.49-.07-.29-.48-1.86-1.54-2.28,0,0,0-1.84-.79-2.14-1.24-.47-2.62,.94-2.62,.94l-3.18,4.69-4.74,7.87,2.64,8.4,7.52-4.68,1.5-1.45s3.99-6.56,3.22-7.64"/>
    <path class="cls-4" d="M141.67,129.98c.09,.05-.15,.59-.52,1.19-.37,.6-.74,1.05-.83,1-.09-.05,.15-.58,.52-1.19,.37-.6,.74-1.05,.83-1"/>
    <path class="cls-4" d="M143.14,132.14c.09,.02-.06,.92-.69,1.83-.63,.91-1.42,1.37-1.47,1.29-.06-.09,.59-.64,1.17-1.49,.59-.85,.89-1.65,.99-1.62"/>
    <path class="cls-4" d="M143.8,135.38c.09,.04-.07,.59-.49,1.13-.42,.54-.92,.83-.97,.75-.06-.08,.3-.47,.69-.98,.4-.5,.68-.95,.78-.91"/>
    <path class="cls-14" d="M129.4,125.44c.9,1.07,2.05,1.93,3.34,2.48,.52,.22,1.1,.4,1.66,.28,.56-.12,1.06-.63,1-1.19-.04-.42-.37-.75-.67-1.04-.83-.8-1.66-1.6-2.49-2.41,.29,.44,.59,.88,.99,1.21,.4,.33,.94,.54,1.45,.43,.51-.11,.96-.59,.9-1.11-.04-.32-.25-.6-.45-.85-1.08-1.37-2.17-2.75-3.25-4.12"/>
    <path class="cls-13" d="M135.39,127.28s.04,.12-.05,.32c-.08,.19-.29,.43-.61,.62-.32,.18-.74,.34-1.24,.34-.5,0-1.03-.18-1.5-.45-1.91-1.14-2.75-2.79-2.66-2.81,.09-.08,1.04,1.42,2.84,2.49,.44,.26,.9,.42,1.33,.43,.42,.01,.82-.1,1.11-.23,.63-.27,.73-.73,.78-.71"/>
    <path class="cls-13" d="M135.52,124.5s0,.12-.11,.3c-.1,.18-.37,.38-.73,.47-.74,.16-1.77-.08-2.67-.75-.87-.7-1.34-1.59-1.65-2.21-.3-.63-.44-1.04-.4-1.06,.05-.02,.27,.35,.63,.93,.36,.58,.86,1.41,1.65,2.04,.8,.6,1.76,.86,2.39,.78,.66-.08,.83-.56,.89-.51"/>
    <path class="cls-13" d="M134.58,128.18s.14,.01,.31,.17c.17,.15,.39,.44,.42,.88,.04,.43-.17,.98-.66,1.3-.51,.33-1.2,.26-1.77,.04-1.16-.43-2.02-1.18-2.53-1.79-.51-.62-.69-1.08-.66-1.1,.05-.03,.31,.38,.85,.93,.53,.54,1.38,1.21,2.46,1.62,.53,.2,1.08,.25,1.47,.01,.39-.23,.59-.66,.58-1,0-.35-.15-.63-.27-.79-.12-.17-.22-.24-.21-.26"/>
    <path class="cls-13" d="M138.34,125.43s-.81,0-1.68-.88c-.42-.43-.81-1.05-1.05-1.81-.12-.38-.21-.78-.27-1.2-.03-.2-.07-.4-.15-.54-.08-.14-.24-.22-.45-.31-.8-.37-1.59-.73-2.21-1.24-.63-.5-1.02-1.13-1.24-1.69-.22-.56-.23-1.08-.15-1.4,.08-.33,.21-.48,.22-.47,.03,.01-.05,.18-.09,.49-.03,.31,.02,.77,.25,1.28,.23,.51,.61,1.08,1.21,1.52,.59,.46,1.35,.8,2.16,1.17,.19,.09,.45,.2,.6,.45,.14,.23,.17,.47,.2,.68,.05,.41,.13,.79,.24,1.15,.21,.72,.54,1.31,.92,1.73,.76,.86,1.52,.99,1.49,1.05"/>
    <path class="cls-8" d="M155.73,190.49l4.29-3.32s1.16,.97,.18,2.53c-.98,1.57-2.35,2.7-2.35,2.7,0,0,.14,2.61-.75,4.22-.89,1.6-4.25,.42-4.25,.42,0,0-1.04-3.68,2.88-6.54"/>
    <path class="cls-8" d="M162.32,194.82c-.59,.82-1.22,1.68-2.11,2.15-.36,.19-.92,.17-1.32,.12-.41-.05-.8-.39-.79-.8,0-.3,.22-.56,.42-.78,.55-.62,1.11-1.25,1.66-1.87-.18,.33-.37,.66-.64,.92-.27,.26-.65,.44-1.02,.4-.37-.05-.72-.37-.71-.75,0-.23,.14-.44,.27-.64,.7-1.05,1.4-2.1,2.1-3.15"/>
    <path class="cls-8" d="M162.32,196.3c-.44,.89-1.18,1.63-2.06,2.08-.35,.18-.75,.31-1.13,.2-.33-.1-.59-.39-.65-.73-.06-.34,.09-.71,.37-.91"/>
    <path class="cls-6" d="M158.84,196.93s-.28,.28-.25,.79c.02,.24,.18,.51,.46,.65,.27,.14,.65,.07,1.01-.1,.75-.35,1.31-.87,1.67-1.28,.36-.41,.53-.72,.58-.69,.04,.02-.05,.37-.38,.85-.32,.48-.9,1.07-1.72,1.45-.4,.19-.91,.29-1.32,.07-.39-.21-.58-.61-.57-.94,0-.33,.16-.55,.28-.67,.12-.12,.22-.15,.23-.13"/>
    <path class="cls-6" d="M158.21,196.33s.15,.29,.61,.43c.22,.07,.5,.13,.8,.09,.29-.04,.61-.18,.91-.38,1.22-.86,1.84-1.97,1.93-1.91,.09,.02-.41,1.27-1.73,2.21-.33,.23-.71,.39-1.08,.41-.37,.02-.69-.07-.93-.19-.24-.12-.41-.29-.48-.43-.07-.14-.05-.23-.03-.24"/>
    <path class="cls-6" d="M157.95,194.54c.05-.04,.21,.27,.67,.28,.44,.01,1.11-.23,1.64-.7,.52-.49,.84-1.11,1.07-1.54,.23-.44,.38-.71,.43-.69,.04,.02-.02,.32-.2,.8-.18,.47-.47,1.14-1.06,1.71-.62,.54-1.36,.77-1.91,.68-.28-.05-.48-.19-.56-.32-.09-.13-.1-.21-.08-.22"/>
    <path class="cls-6" d="M156.26,197.27s.59-.36,1.04-1.3c.22-.46,.36-1.06,.37-1.74,0-.34-.02-.7-.08-1.07-.02-.19-.06-.41,0-.65,.07-.26,.27-.42,.42-.55,.62-.53,1.2-1.01,1.6-1.56,.41-.54,.6-1.13,.68-1.63,.08-.51,.01-.92-.09-1.18-.1-.26-.21-.39-.19-.41,.01-.01,.16,.08,.32,.35,.16,.27,.27,.72,.22,1.27-.05,.54-.24,1.2-.67,1.8-.42,.6-1.03,1.12-1.64,1.64-.16,.13-.28,.24-.31,.38-.04,.14-.03,.32,0,.5,.05,.38,.07,.76,.06,1.12-.02,.72-.21,1.37-.48,1.85-.55,.98-1.27,1.22-1.27,1.18"/>
    <path class="cls-4" d="M125.22,75.84s.19,.7,.24,1.87c.01,.58-.01,1.3-.25,2.06-.12,.37-.28,.78-.6,1.12-.16,.17-.38,.31-.62,.37-.24,.07-.54,.03-.77-.12-.45-.32-.58-.8-.69-1.21-.1-.41-.18-.81-.23-1.2-.12-.77-.15-1.47-.15-2.05,.02-1.17,.17-1.88,.21-1.88,.06,0,0,.72,.04,1.87,.03,.57,.09,1.26,.22,2,.07,.37,.15,.76,.25,1.16,.1,.38,.25,.8,.54,.99,.29,.2,.7,.07,.94-.19,.26-.26,.42-.63,.54-.97,.24-.7,.29-1.39,.31-1.96,.02-1.15-.04-1.87,.02-1.87"/>
    <path class="cls-4" d="M127.75,77.59s.09,.39,.08,1.02c-.02,.62-.08,1.54-.58,2.43-.13,.22-.26,.42-.45,.59-.18,.17-.43,.31-.7,.3-.54-.03-.83-.44-.95-.75-.19-.65-.08-1.04-.05-1.04,.07-.01,.06,.41,.29,.94,.11,.24,.39,.52,.71,.51,.32,0,.61-.35,.84-.74,.45-.79,.56-1.65,.64-2.26,.07-.62,.12-1,.17-1"/>
    <path class="cls-12" d="M120.15,88.86c2.22-1.41,.36-8.96-1.02-10.74,1.52-1.54,2.21-3.27,1.13-5.14-1.41,1.4-3.78,3.14-4.22,7l.43,2.94,3.67,5.94Z"/>
    <path class="cls-4" d="M120.68,85.72c-.06-.02,.21-.76,.23-2.01,.03-1.23-.34-2.99-1.53-4.47-.23-.29-.49-.57-.75-.8l-.16-.15,.18-.13c.65-.46,1.12-1.07,1.41-1.68,.29-.61,.4-1.22,.41-1.73,.02-1.02-.25-1.62-.19-1.64,.02,0,.11,.13,.21,.4,.1,.28,.21,.7,.22,1.23,.02,.54-.07,1.19-.36,1.86-.29,.67-.79,1.34-1.49,1.85l.02-.28c.28,.25,.54,.53,.79,.85,1.25,1.56,1.6,3.43,1.5,4.7-.04,.64-.16,1.15-.27,1.49-.11,.34-.2,.52-.22,.51"/>
  </g>
</svg>