<?xml version="1.0" encoding="UTF-8"?>
<svg id="Layer_1" data-name="Layer 1" xmlns="http://www.w3.org/2000/svg" xmlns:xlink="http://www.w3.org/1999/xlink" viewBox="0 0 475.08 241.23">
  <defs>
    <style>
      .cls-1 {
        fill: none;
      }

      .cls-2 {
        fill: url(#linear-gradient);
      }

      .cls-3 {
        clip-path: url(#clippath);
      }

      .cls-4 {
        fill: #f3fafe;
      }

      .cls-5 {
        fill: #faab76;
      }

      .cls-6 {
        fill: #f7cba4;
      }

      .cls-7 {
        fill: #f79034;
      }

      .cls-8 {
        fill: #f79152;
      }

      .cls-9 {
        fill: #fbbe81;
      }

      .cls-10 {
        fill: #fcdaba;
      }

      .cls-11 {
        fill: #fff;
      }

      .cls-12 {
        fill: #ffe24c;
      }

      .cls-13 {
        fill: #f37722;
      }

      .cls-14 {
        fill: #85401e;
      }

      .cls-15 {
        fill: #b73e38;
      }

      .cls-16 {
        fill: #9dbee4;
      }

      .cls-17 {
        fill: #944120;
      }

      .cls-18 {
        fill: #bdcfeb;
      }

      .cls-19 {
        fill: #dde8f7;
      }

      .cls-20 {
        fill: #c93030;
      }

      .cls-21 {
        fill: #abcaea;
      }

      .cls-22 {
        fill: #242122;
      }

      .cls-23 {
        fill: #1e3966;
      }

      .cls-24 {
        fill: #1a3a67;
      }

      .cls-25 {
        fill: #1a2e36;
      }

      .cls-26 {
        fill: #28a8e0;
      }

      .cls-27 {
        fill: #76321c;
      }

      .cls-28 {
        fill: #71a1d5;
      }

      .cls-29 {
        fill: #833c1d;
      }

      .cls-30 {
        fill: #4d9ba8;
      }

      .cls-31 {
        clip-path: url(#clippath-1);
      }

      .cls-32 {
        clip-path: url(#clippath-4);
      }

      .cls-33 {
        clip-path: url(#clippath-3);
      }

      .cls-34 {
        clip-path: url(#clippath-2);
      }

      .cls-35 {
        fill: url(#linear-gradient-2);
      }

      .cls-36 {
        opacity: .26;
      }

      .cls-37 {
        opacity: .38;
      }

      .cls-38 {
        opacity: .6;
      }
    </style>
    <clipPath id="clippath">
      <rect class="cls-1" x="10.59" y="1.51" width="442.31" height="239.17"/>
    </clipPath>
    <clipPath id="clippath-1">
      <path class="cls-1" d="M444.32,239.16h0c-.03,.06-.07,.12-.1,.18-.25,.44-.5,.89-.76,1.34l-397.92-.12s-.39-.43-1.08-1.26c-.04-.05-.08-.09-.12-.14-1.78-2.13-5.35-6.62-9.54-12.96,0,0,0,0,0,0-11.11-16.81-26.51-46.57-23.92-79.6,.73-9.32,2.89-18.91,6.99-28.54,12.43-29.2,49.51-48.89,82.92-49.28,12.93-.15,25.31,2.58,35.5,8.78,1.81,1.1,4.08,1.95,6.72,2.52,2.23,.49,4.72,.79,7.42,.88,21.7,.76,56.98-11.46,77.91-42.22,11.11-16.33,28.17-27.03,47.78-32.6,.91-.26,1.83-.51,2.76-.74,4.46-1.15,9.04-2.03,13.7-2.67,.84-.11,1.68-.22,2.53-.32C315.8,0,337.96,2.48,358.29,9.35c2.68,.9,5.32,1.88,7.93,2.94,38.25,15.49,68.02,47.13,65.4,91.3-.1,1.75-.26,3.51-.46,5.3-.39,3.4-.97,6.87-1.76,10.42-.46,2.09-.99,4.2-1.59,6.33-15.77,55.99,47.27,58.52,16.51,113.52"/>
    </clipPath>
    <linearGradient id="linear-gradient" x1="-193.2" y1="348.17" x2="-192.2" y2="348.17" gradientTransform="translate(85463.63 154121.9) scale(442.31 -442.31)" gradientUnits="userSpaceOnUse">
      <stop offset="0" stop-color="#69aee0"/>
      <stop offset=".1" stop-color="#5fabde"/>
      <stop offset=".27" stop-color="#46a4db"/>
      <stop offset=".49" stop-color="#1c99d5"/>
      <stop offset=".58" stop-color="#0894d3"/>
      <stop offset="1" stop-color="#0580c4"/>
    </linearGradient>
    <clipPath id="clippath-2">
      <rect class="cls-1" x="121.53" y="85.61" width="318.31" height="153.8"/>
    </clipPath>
    <clipPath id="clippath-3">
      <path class="cls-1" d="M431.26,239.37h0s-309.73,.03-309.73,.03l2.67-92.56v-25.15h11.59v-19.64h23.11v16.67h7.06v-30.83h1.54v-2.16h.27v2.16h5.57v-2.16h.28v2.16h7.89v-2.16h.28v2.16h4.97v-2.16h.27v2.16h2.04v28.78h7.8v-4.65l9.2,.04v-7.54h1.85v-1.49h.25v1.49h7.1s1.42,0,1.42,0v-1.5h.24v1.5h1.71v15h10.95v5.52h6.09v-3.21h5.65v-12.73h2.82v-5.94h.42v5.94h6.75v-11.13h.66v11.13h4.46v-.15h0v-1.41h0v-1.34h0v-2.23h0v-1.42h0v-2.23h0v-1.42h0v-2.23h0v-1.54h0v-2.22h0v-1.95h0v-2.22h0v-1.48h1.33v-1.66h.21v1.66h9.86v-1.66h.21v1.66h1.8v11.64h1.27s0,0,0,0h-.01v-2.23h.01v-1.54h-.01v-2.22h.01v-1.53h-.01v-2.23h.01s11.95,0,11.95,0h0s2.05,0,2.05,0c.1,.06,.21,.12,.32,.18v14.84h2.2v-2.14h25.23v16.67h7.7v-30.83h1.67v-2.16h.3v2.16h6.08v-2.16h.3v2.16h8.61v-2.16h.3v2.16h5.42v-2.16h.3v2.16h2.23v28.78h8.51v-4.65l10.04,.04v-7.54h2.02v-1.49h.27v1.49h7.75s1.55,0,1.55,0v-1.5h.27v1.5h1.87v15h11.95v5.52h6.65v-3.21h6.16v-12.73h3.07v-5.94h.47v5.94h7.37v-11.13h.72v11.13h3.62c-.39,3.4-.97,6.87-1.76,10.41-.46,2.09-.99,4.2-1.59,6.33-15.77,55.99,47.26,58.52,16.51,113.52"/>
    </clipPath>
    <linearGradient id="linear-gradient-2" x1="-193.32" y1="348.21" x2="-192.32" y2="348.21" gradientTransform="translate(61658.23 110999.69) scale(318.31 -318.31)" xlink:href="#linear-gradient"/>
    <clipPath id="clippath-4">
      <rect class="cls-1" x="141.29" y="167.12" width="43.21" height="72.46"/>
    </clipPath>
  </defs>
  <g class="cls-36">
    <g class="cls-3">
      <g class="cls-31">
        <rect class="cls-2" x="8.29" width="466.79" height="240.68"/>
      </g>
    </g>
  </g>
  <g class="cls-37">
    <g class="cls-34">
      <g class="cls-33">
        <rect class="cls-35" x="121.53" y="85.61" width="340.48" height="153.8"/>
      </g>
    </g>
  </g>
  <path class="cls-16" d="M282.05,2.62V30.56c0,2.18-.53,3.95-1.18,3.95h-.17c-.65,0-1.18-1.78-1.18-3.95V2.93c.84-.11,1.68-.22,2.53-.32"/>
  <path class="cls-12" d="M280.13,27.79c-9.21,0-16.67,7.89-16.67,17.63h33.34c0-9.74-7.46-17.63-16.67-17.63"/>
  <path class="cls-9" d="M281.45,28c-.48-.1-.97-.16-1.46-.16-6,0-10.86,7.87-10.86,17.57h2.93c0-8.9,4.09-16.26,9.4-17.41"/>
  <path class="cls-28" d="M382.1,213.37s-4.44-5.18-.27-8.46c0,0,3.04-1.84,5.52-1.69,0,0-3.51,5.89-2.38,6.48,1.14,.59,3.44-6.85,3.44-6.85,0,0,6.92-.67,9.15,.4,0,0-5.91,4.84-4.67,5.13,1.25,.29,7.64-4.46,7.64-4.46,0,0,6.44,1.1,6.1,5.03s-2.56,5.14-3.54,5.04c-.98-.11-6.68-2.28-6.81-1.48-.12,.8,3.31,3.41,5.72,3.53,0,0-4.54,5.01-7.56,3.56-3.02-1.44-3.28-3.74-5.16-4.6s-3.49-.86-2.71,.02c.78,.88,4.18,1.73,5.26,3.63s2.04,3.19-1.08,2.72c-3.12-.47-8.2-2.76-8.42-5.37l-.22-2.62Z"/>
  <path class="cls-28" d="M403.46,209.04s-17.49-.67-21.36,4.33c0,0-.85,2.56-3.48,4.89l-.41,1.12s3.03-3.2,4.12-3.39c0,0-1.7-6.2,21.13-6.95"/>
  <path class="cls-28" d="M378.62,218.26s-3.76,2.78-4.02,7.74l.68,.06s1.2-5.13,3.37-7.14c2.17-2.01-.03-.66-.03-.66"/>
  <path class="cls-28" d="M366.59,206.86s7.06-3.95,3.76-9.32c0,0-2.64-3.29-5.46-4.14,0,0,1.51,8,0,8.19s-1.03-9.03-1.03-9.03c0,0-7.43-3.58-10.35-3.29,0,0,4.61,7.81,3.11,7.62-1.51-.19-6.68-8.09-6.68-8.09,0,0-7.62-1.41-8.85,3.11-1.22,4.52,.75,6.78,1.88,7.06,1.13,.28,8.38,.19,8.19,1.13-.19,.94-5.08,2.45-7.81,1.6,0,0,3.01,7.43,6.96,7.06,3.95-.38,5.18-2.82,7.62-3.01,2.45-.19,4.23,.47,3.01,1.13-1.22,.66-5.36,.22-7.34,1.9-1.98,1.68-3.58,2.71,.09,3.47,3.67,.75,10.26,.28,11.57-2.54l1.32-2.82Z"/>
  <path class="cls-28" d="M344.57,193.31s19.76,6.4,22.02,13.55c0,0-.09,3.2,1.88,6.87v1.41s-2.07-4.8-3.2-5.46c0,0,4.42-6.21-20.7-16.37"/>
  <path class="cls-28" d="M368.47,213.73s3.05,4.63,1.31,10.26l-.78-.21s.76-6.21-.83-9.33c-1.6-3.12,.31-.73,.31-.73"/>
  <path class="cls-16" d="M377.82,201.41s-9.3-5.21-4.96-12.28c0,0,3.47-4.34,7.2-5.46,0,0-1.98,10.54,0,10.79s1.36-11.91,1.36-11.91c0,0,9.8-4.71,13.65-4.34,0,0-6.08,10.3-4.09,10.05,1.98-.25,8.81-10.67,8.81-10.67,0,0,10.05-1.86,11.66,4.09,1.61,5.96-.99,8.93-2.48,9.3s-11.04,.25-10.79,1.49c.25,1.24,6.7,3.23,10.3,2.11,0,0-3.97,9.8-9.18,9.3-5.21-.5-6.82-3.72-10.05-3.97-3.23-.25-5.58,.62-3.97,1.49,1.61,.87,7.07,.29,9.68,2.5,2.61,2.22,4.71,3.58-.12,4.57-4.84,.99-13.52,.37-15.26-3.35l-1.74-3.72Z"/>
  <path class="cls-16" d="M406.84,183.55s-26.05,8.44-29.03,17.86c0,0,.12,4.22-2.48,9.05v1.86s2.73-6.33,4.22-7.19c0,0-5.83-8.19,27.29-21.58"/>
  <path class="cls-16" d="M375.34,210.46s-4.02,6.1-1.73,13.53l1.03-.28s-1-8.18,1.1-12.29c2.1-4.11-.4-.96-.4-.96"/>
  <path class="cls-16" d="M377.5,240.1c10.06,0,18.22-8.16,18.22-18.22h-36.45c0,10.07,8.16,18.22,18.22,18.22"/>
  <path class="cls-21" d="M381.99,239.96c-.74,.09-1.5,.14-2.26,.14-10.07,0-18.22-8.16-18.22-18.23h4.53c0,9.3,6.96,16.97,15.96,18.08"/>
  <rect class="cls-16" x="358.68" y="221.87" width="37.46" height=".56"/>
  <path class="cls-28" d="M300.48,239.2l-17.91-74.33,1.25-2.93,17.74,77.25c.04,.2-.11,.39-.31,.39h-.3c-.23,0-.43-.16-.48-.38"/>
  <path class="cls-28" d="M219.66,239.58h0c-.37,0-.65-.33-.59-.69l5.27-31.97h2.26l-6.29,32.12c-.06,.31-.34,.54-.66,.54"/>
  <path class="cls-28" d="M270.26,239.58h0c-.37,0-.65-.33-.59-.69l5.27-31.97h2.26l-6.29,32.12c-.06,.31-.34,.54-.66,.54"/>
  <polygon class="cls-4" points="282.53 206.98 219.54 206.98 232.59 125.16 295.58 125.16 282.53 206.98"/>
  <rect class="cls-28" x="214.9" y="206.36" width="72.34" height="2.41"/>
  <path class="cls-26" d="M257.53,142.28c-.05,.65-.14,1.28-.28,1.9-1.31,5.85-6.52,10.33-12.4,10.34-6.51,.01-11.38-5.45-10.89-12.2s6.18-12.23,12.69-12.24c1.36,0,2.66,.24,3.84,.68,.53,.2,1.05,.44,1.54,.71,1.05,.6,1.99,1.37,2.78,2.28,.44,.51,.84,1.06,1.18,1.65,.2,.34,.38,.69,.55,1.06,.46,1.01,.77,2.11,.93,3.27,.08,.58,.11,1.18,.1,1.79,0,.25-.01,.51-.03,.77"/>
  <path class="cls-11" d="M256.54,136.45l-10.79,5.85s4.45-7.84,6.28-10.83c1.05,.6,1.99,1.37,2.78,2.28,.44,.51,.84,1.06,1.18,1.65,.2,.34,.38,.69,.55,1.06"/>
  <path class="cls-12" d="M257.66,134.97l-9.85,5.34s4.07-7.16,5.73-9.89c.96,.55,1.82,1.25,2.54,2.08,.4,.46,.76,.97,1.08,1.5,.18,.31,.35,.63,.5,.97"/>
  <path class="cls-18" d="M277.51,200.76h-51.85s5.25-29.92,5.25-29.92h51.85s-5.25,29.92-5.25,29.92Zm-51.43-.31h51.12s5.14-29.31,5.14-29.31h-51.12s-5.14,29.31-5.14,29.31Z"/>
  <path class="cls-12" d="M274.42,196.66h-45.98s8.16-4.38,10.4-4.15c2.24,.23,5.45,2,7.52,2.07s4.31-6.14,6.61-5.85c2.3,.29,3.17,5.78,4.36,5.25,1.19-.54,4.77-.77,6.83,0,2.06,.77,5.07-2.44,6.88-2.34,1.81,.1,3.39,5.02,3.39,5.02"/>
  <polygon class="cls-12" points="239.5 187.87 230.71 187.87 230.79 187.4 239.58 187.4 239.5 187.87"/>
  <polygon class="cls-12" points="239.32 188.86 230.54 188.86 230.62 188.4 239.4 188.4 239.32 188.86"/>
  <path class="cls-26" d="M231.07,181.66h45.98s-6.62-4.37-8.94-4.14c-2.32,.23-6.15,2-8.25,2.07-2.09,.07-2.15-6.14-4.56-5.85-2.4,.29-5.2,5.78-6.2,5.25-1-.54-4.5-.77-6.83,0-2.33,.77-4.21-2.44-6.06-2.35-1.85,.1-5.15,5.02-5.15,5.02"/>
  <polygon class="cls-26" points="241.98 173.73 233.19 173.73 233.28 173.26 242.06 173.26 241.98 173.73"/>
  <polygon class="cls-26" points="241.8 174.72 233.02 174.72 233.1 174.26 241.88 174.26 241.8 174.72"/>
  <polygon class="cls-26" points="234.05 166.67 232.03 166.67 233.79 157.22 235.8 157.22 234.05 166.67"/>
  <polygon class="cls-26" points="236.8 166.67 234.78 166.67 236.14 159.35 238.16 159.35 236.8 166.67"/>
  <polygon class="cls-26" points="239.55 166.67 237.53 166.67 238.94 159.04 240.96 159.04 239.55 166.67"/>
  <polygon class="cls-26" points="242.29 166.67 240.28 166.67 241.35 160.86 243.37 160.86 242.29 166.67"/>
  <polygon class="cls-26" points="245.04 166.67 243.02 166.67 244.18 160.44 246.2 160.44 245.04 166.67"/>
  <polygon class="cls-26" points="247.79 166.67 245.77 166.67 246.67 161.84 248.68 161.84 247.79 166.67"/>
  <polygon class="cls-12" points="261.03 166.67 259.01 166.67 260.77 157.22 262.78 157.22 261.03 166.67"/>
  <polygon class="cls-12" points="263.78 166.67 261.76 166.67 263.12 159.35 265.14 159.35 263.78 166.67"/>
  <polygon class="cls-12" points="266.53 166.67 264.51 166.67 265.92 159.04 267.94 159.04 266.53 166.67"/>
  <polygon class="cls-12" points="269.27 166.67 267.26 166.67 268.33 160.86 270.35 160.86 269.27 166.67"/>
  <polygon class="cls-12" points="272.02 166.67 270 166.67 271.16 160.44 273.18 160.44 272.02 166.67"/>
  <polygon class="cls-12" points="274.77 166.67 272.75 166.67 273.65 161.84 275.66 161.84 274.77 166.67"/>
  <polygon class="cls-26" points="270.74 135.82 264.18 135.82 264.34 134.92 270.91 134.92 270.74 135.82"/>
  <polygon class="cls-26" points="278.79 135.82 271.55 135.82 271.71 134.92 278.96 134.92 278.79 135.82"/>
  <polygon class="cls-26" points="283.96 135.82 279.34 135.82 279.51 134.92 284.13 134.92 283.96 135.82"/>
  <polygon class="cls-26" points="288.28 135.82 284.71 135.82 284.88 134.92 288.45 134.92 288.28 135.82"/>
  <polygon class="cls-26" points="270.02 139.66 263.46 139.66 263.62 138.76 270.19 138.76 270.02 139.66"/>
  <polygon class="cls-26" points="278.07 139.66 270.83 139.66 270.99 138.76 278.24 138.76 278.07 139.66"/>
  <polygon class="cls-26" points="283.24 139.66 278.62 139.66 278.79 138.76 283.41 138.76 283.24 139.66"/>
  <polygon class="cls-26" points="287.56 139.66 283.99 139.66 284.16 138.76 287.73 138.76 287.56 139.66"/>
  <polygon class="cls-26" points="274.64 133.72 264.57 133.72 264.74 132.82 274.81 132.82 274.64 133.72"/>
  <polygon class="cls-26" points="281.41 133.72 275.6 133.72 275.77 132.82 281.58 132.82 281.41 133.72"/>
  <polygon class="cls-26" points="288.68 133.72 282.23 133.72 282.4 132.82 288.84 132.82 288.68 133.72"/>
  <polygon class="cls-26" points="273.88 137.8 263.8 137.8 263.97 136.9 274.05 136.9 273.88 137.8"/>
  <polygon class="cls-26" points="280.64 137.8 274.84 137.8 275.01 136.9 280.81 136.9 280.64 137.8"/>
  <polygon class="cls-26" points="287.91 137.8 281.46 137.8 281.63 136.9 288.08 136.9 287.91 137.8"/>
  <polygon class="cls-26" points="269.3 143.49 262.73 143.49 262.9 142.6 269.47 142.6 269.3 143.49"/>
  <polygon class="cls-26" points="277.35 143.49 270.1 143.49 270.27 142.6 277.52 142.6 277.35 143.49"/>
  <polygon class="cls-26" points="282.52 143.49 277.9 143.49 278.07 142.6 282.69 142.6 282.52 143.49"/>
  <polygon class="cls-26" points="286.84 143.49 283.27 143.49 283.44 142.6 287 142.6 286.84 143.49"/>
  <polygon class="cls-26" points="273.16 141.64 263.08 141.64 263.25 140.74 273.32 140.74 273.16 141.64"/>
  <polygon class="cls-26" points="279.92 141.64 274.12 141.64 274.28 140.74 280.09 140.74 279.92 141.64"/>
  <polygon class="cls-26" points="287.19 141.64 280.74 141.64 280.91 140.74 287.36 140.74 287.19 141.64"/>
  <polygon class="cls-26" points="268.62 147.09 262.06 147.09 262.23 146.19 268.79 146.19 268.62 147.09"/>
  <polygon class="cls-26" points="276.68 147.09 269.43 147.09 269.6 146.19 276.85 146.19 276.68 147.09"/>
  <polygon class="cls-26" points="281.85 147.09 277.22 147.09 277.39 146.19 282.01 146.19 281.85 147.09"/>
  <polygon class="cls-26" points="286.16 147.09 282.59 147.09 282.76 146.19 286.33 146.19 286.16 147.09"/>
  <polygon class="cls-26" points="272.48 145.24 262.41 145.24 262.58 144.34 272.65 144.34 272.48 145.24"/>
  <polygon class="cls-26" points="279.25 145.24 273.44 145.24 273.61 144.34 279.42 144.34 279.25 145.24"/>
  <polygon class="cls-26" points="286.51 145.24 280.06 145.24 280.23 144.34 286.68 144.34 286.51 145.24"/>
  <polygon class="cls-26" points="253.68 158.63 250.47 158.63 250.55 158.19 253.77 158.19 253.68 158.63"/>
  <polygon class="cls-26" points="257.63 158.63 254.08 158.63 254.16 158.19 257.71 158.19 257.63 158.63"/>
  <polygon class="cls-26" points="253.33 160.5 250.12 160.5 250.2 160.06 253.41 160.06 253.33 160.5"/>
  <polygon class="cls-26" points="257.27 160.5 253.72 160.5 253.81 160.06 257.36 160.06 257.27 160.5"/>
  <polygon class="cls-26" points="255.59 157.6 250.66 157.6 250.75 157.16 255.68 157.16 255.59 157.6"/>
  <polygon class="cls-26" points="258.9 157.6 256.06 157.6 256.15 157.16 258.99 157.16 258.9 157.6"/>
  <polygon class="cls-26" points="255.22 159.6 250.29 159.6 250.37 159.16 255.3 159.16 255.22 159.6"/>
  <polygon class="cls-26" points="258.53 159.6 255.69 159.6 255.77 159.16 258.61 159.16 258.53 159.6"/>
  <polygon class="cls-26" points="279.43 158.63 276.21 158.63 276.29 158.19 279.51 158.19 279.43 158.63"/>
  <polygon class="cls-26" points="283.37 158.63 279.82 158.63 279.9 158.19 283.45 158.19 283.37 158.63"/>
  <polygon class="cls-26" points="279.07 160.5 275.86 160.5 275.94 160.06 279.16 160.06 279.07 160.5"/>
  <polygon class="cls-26" points="283.01 160.5 279.47 160.5 279.55 160.06 283.1 160.06 283.01 160.5"/>
  <polygon class="cls-26" points="281.34 157.6 276.41 157.6 276.49 157.16 281.42 157.16 281.34 157.6"/>
  <polygon class="cls-26" points="284.65 157.6 281.8 157.6 281.89 157.16 284.73 157.16 284.65 157.6"/>
  <polygon class="cls-26" points="280.96 159.6 276.03 159.6 276.11 159.16 281.04 159.16 280.96 159.6"/>
  <polygon class="cls-26" points="284.27 159.6 281.43 159.6 281.51 159.16 284.35 159.16 284.27 159.6"/>
  <path class="cls-5" d="M296.52,238.36c-.11,1.54-2.28,1.55-4.75,1.27-2.46-.29-1.81,.34-5.25,.39-3.45,.05-4.64-1.09-4.8-1.58-.15-.44,1.51-.81,3.29-1.24,.22-.05,.45-.11,.67-.17,2-.51,3.33-2.01,5.04-3.32,1.62-1.24,3.72-5.73,3.72-5.73l4.71-.21s-1.98,4.02-2.73,5.76c-.44,1.02-.25,2.27-.06,3.24,.1,.52,.2,1.06,.16,1.6"/>
  <path class="cls-23" d="M291.78,239.63c-2.46-.29-1.81,.34-5.26,.39-3.45,.05-4.64-1.09-4.8-1.58-.15-.44,1.51-.81,3.29-1.24l.02,.03s2.22,1.19,5.06,.91c2.31-.23,4.67-1.2,6.27-1.37,.1,.52,.2,1.06,.16,1.6-.11,1.54-2.28,1.56-4.74,1.27"/>
  <path class="cls-5" d="M329.05,238.68c-.11,1.54-2.28,1.56-4.74,1.27-2.46-.28-1.81,.34-5.26,.39-3.45,.05-4.64-1.09-4.8-1.58-.15-.44,1.51-.81,3.29-1.24,.22-.05,.45-.11,.67-.17,2-.51,3.33-2.01,5.04-3.32,1.62-1.24,0-8.59,0-8.59l5.18-.5s-.25,6.19-.24,9c0,1.11,.51,2.18,.7,3.14,.1,.52,.21,1.06,.17,1.6"/>
  <path class="cls-23" d="M324.3,239.96c-2.46-.28-1.81,.34-5.26,.39-3.45,.05-4.64-1.09-4.8-1.58-.15-.44,1.51-.81,3.29-1.24l.02,.03s2.22,1.19,5.06,.9c2.31-.23,4.67-1.2,6.27-1.38,.1,.52,.21,1.06,.16,1.6-.11,1.54-2.28,1.56-4.74,1.27"/>
  <path class="cls-25" d="M313.93,111.64c-.89-3.67,.4-5.38,1.57-6.28,.55-1.35,1.18-2.32,1.83-2.69,1.18-.67,2.59-.74,3.58-.68-.25-.26-.75-.36-.75-.36,.61-.09,1.98,.52,1.98,.52,8.51-3.28,9.85,9.25,9.67,12.16-.18,2.91-.15,6.34,4.27,8.64,8.45,4.38-2.81,20.87-2.81,20.87,.22-2.35-10.64-14.77-16.31-18.49-1.38-2.03-1.87-5.62-1.91-5.9,.24,2.84,.72,4.44,1.16,5.34-2.58-2.38-2.96-8.08-2.28-13.12"/>
  <path class="cls-5" d="M317.29,125.51s2.73,1.45,4.81,.88c1.95-.53,3.23-3.07,3.21-3.07-.83-.16-1.07-1.3-1.05-6.19l-.38,.07-6.29,1.25s.14,1.98,.15,3.85c0,1.57-.09,3.05-.45,3.22"/>
  <path class="cls-8" d="M317.6,118.45s.14,1.98,.15,3.85c3.52-.1,5.38-3.31,6.15-5.09l-6.29,1.25Z"/>
  <path class="cls-20" d="M291.99,230.48c-.31,.97,.38,1.96,1.4,2.01l2.46,.11,2.6,.08c.65,.02,1.27-.26,1.68-.77,2.08-2.55,8.47-11.04,12.35-23.37,.11-.35,.22-.7,.35-1.05,2.56-7.47,7.87-16.84,10.66-25.32,.45-1.35,.85-2.62,1.2-3.83,.12-.39,.23-.76,.33-1.14,2.06-7.16,2.66-11.87,3.21-16.89l-20.2,.16s-4.25,33.05-16.05,70"/>
  <path class="cls-11" d="M310.86,148.88c.05,9.61-1.41,13.74-1.41,13.74,0,0,8.65,4.39,18.93,1.16,.12-.04,7.35-2.09,7.35-2.09-.17-.39-1.6-6.82-1.77-7.18-2.17-4.66-2.76-6.62-3.02-8.05-.48-2.67-.49-5.44-.25-8.05,.63-6.91,2.49-12.65,2.49-12.65-2.8-.64-5.42-1.76-8.34-2.85-.67,.84-2.72,1.71-4.5,1.67-2.05-.04-2.71-.92-2.6-1.88-2.18,1.21-3.92,2.36-3.92,2.36-1.85,3.22-5.62,6.35-5.89,11.29-.07,1.21,2.93,12.26,2.93,12.52"/>
  <path class="cls-30" d="M328.24,149.95c.88,1.25,2.58,8.85,6.79,9.8-2.17-5.41-3.82-7.79-4.08-9.45-.48-3.11-.49-6.32-.25-9.35-1.41-2.47-2.46-4.17-2.46-4.17-.11-.4-2.24-6.99-2.92-1.1-.68,5.89,1.94,12.87,2.92,14.27"/>
  <path class="cls-5" d="M316.42,120.21s8.33,.14,8.34-5.05c0-5.19,1.09-8.67-4.23-8.98-5.32-.31-6.35,1.67-6.78,3.4-.42,1.73,.51,10.45,2.68,10.62"/>
  <path class="cls-25" d="M316.73,106.06s2.28,6.09,5.78,6.99c3.5,.9,5.02-.04,5.02-.04,0,0-2.68-2.13-3.24-5.86,0,0-5.84-3.99-7.56-1.09"/>
  <path class="cls-25" d="M317.29,106.55s-1.7,1.36-2.12,2.68c-.42,1.32-.6,4.04-1.4,3.95,0,0-1.72-4.14,.21-6.48,2.05-2.48,3.3-.15,3.3-.15"/>
  <polygon class="cls-5" points="303.31 155.55 299.37 167.55 301.62 168.45 308.13 157.85 303.31 155.55"/>
  <path class="cls-7" d="M313.92,124.35s-4.64,1.84-5.98,4.71-3.38,22.13-4.19,24.1c-.81,1.98-1.42,3.54-1.42,3.54,0,0,2.34,1.97,4.69,2.12,2.35,.15,6.9-34.48,6.9-34.48"/>
  <path class="cls-7" d="M317.75,122.7s-4.82,11.91-4.96,14.32c-.14,2.41-.57,39.41-.57,39.41,0,0,.28,1.7-2.98,.99-3.26-.71-4.11-1.42-4.11-1.42,0,0,3.12-22.82,2.27-30.76-.85-7.94,6.52-20.89,6.52-20.89l3.83-1.65Z"/>
  <path class="cls-29" d="M295.85,232.61l2.82,.09c.51,.01,.99-.2,1.31-.59,1.9-2.3,8.52-10.91,12.5-23.56,.11-.35,.22-.7,.35-1.05,2.56-7.47,7.87-16.84,10.67-25.32,.45-1.35,.85-2.62,1.2-3.83,.11-.39,.23-.76,.33-1.14l-2.97-2.26s-8.93,14.46-11.7,28.07c-2.4,11.82-12.02,26.05-14.51,29.58"/>
  <path class="cls-20" d="M321.74,204.29c-.05,6.26,.25,20.22,1.01,27.04,.07,.62,.6,1.1,1.23,1.1h2.11c.89,0,1.55,0,1.99-.01,.38,0,.71-.28,.78-.65,2.1-10.67,3.6-19.53,4.69-27.18,.92-6.41,1.73-11.9,2.36-16.63,.63-4.76,1.07-8.74,1.23-12.11,.02-.53,.04-1.05,.05-1.55,.01-.5,.01-.99,0-1.47l-17.45-1.7c.22,11.6,2.01,29.33,1.99,33.17"/>
  <path class="cls-20" d="M326.09,232.42c.8,0,1.41,0,1.85-.01,.46,0,.86-.34,.95-.79,2.08-10.6,3.57-19.42,4.67-27.04,.92-6.41,1.73-11.9,2.36-16.63,.63-4.76,1.07-8.75,1.23-12.11l-6.4,3.77s4.09,1.44,2.53,12.36c-1.56,10.92-5.02,38.92-7.19,40.47"/>
  <path class="cls-7" d="M325.26,175.72s1.23,4.44,5.48,3.88c4.25-.57,10.3-3.12,10.3-3.12,0,0-1.82-5.74-4.08-13.29-2.74-9.13-6.12-20.91-7.72-28.34-.45-2.08-.76-3.82-.87-5.06l-3.53-6.85s-5.26,11.81-5.54,14.79c-.28,2.98,5.95,37.99,5.95,37.99"/>
  <path class="cls-5" d="M329.51,137.28l-4.66-14.34s5.88,1.75,8.83,3.24c0,0,1.85,2.38,2.99,7.87,0,0,1.21,13.18-1.49,18,0,0-8.51,1.7-22.12-2.98v-3.12s14.89,.78,17.93,1.13l-1.49-9.8Z"/>
  <path class="cls-13" d="M325.45,143.97c.19,4.82,1.32,14.18,11.44,19.19,.03,.01,.05,.03,.08,.04-2.74-9.13-6.12-20.91-7.72-28.34-1.86,2.78-3.9,6.46-3.8,9.11"/>
  <path class="cls-7" d="M324.85,122.94s8.63,.61,10.71,5.24c2.08,4.63,2.74,20.04,.09,24.57,0,0-3.64,1.04-10.09-.17-.08-.01-.16-.03-.24-.04,0,0-2.06-5.03-.21-6.03,0,0,5.43,.28,4.87-1.51-.57-1.79-5.14-22.06-5.14-22.06"/>
  <path class="cls-15" d="M303.21,147.88l.25,.82,14.17-4.41s.19-.22,.1-.5c-.1-.32-.35-.32-.35-.32l-14.17,4.41Z"/>
  <polygon class="cls-15" points="302.18 148.65 303.21 147.88 303.46 148.7 302.18 148.65"/>
  <path class="cls-5" d="M299.93,167.22s-3.59,1.99-4.07,3.5c-.47,1.51-.15,4.68,.42,4.63s1.42-3.4,1.89-3.64c.47-.24,1.13-.94,1.13-.43s-.47,1.47-.24,1.61c.24,.14,.99-1.32,1.51-1.61,.52-.28,.74-2.62,1.24-3.25,.51-.63-1.91-.82-1.91-.82"/>
  <path class="cls-5" d="M313.07,145.95s-3.21-1.98-4.56-1.67c-1.35,.3-4.78,2.79-3.13,3.33,1.65,.54,2.99-.03,3.63,.36,.64,.39,1.1,1.11,4.07,1.1,2.96,0,0-3.12,0-3.12"/>
  <g class="cls-38">
    <g class="cls-32">
      <path class="cls-28" d="M157.42,239.57h-.05c-.31,0-.56-.26-.56-.57l.84-36.57,2.49-.29-2.12,36.87c-.02,.32-.28,.57-.6,.57"/>
      <path class="cls-28" d="M142.94,239.57h-.05c-.31,0-.56-.26-.56-.57l.84-36.57,2.49-.29-2.12,36.87c-.02,.32-.28,.57-.6,.57"/>
      <path class="cls-28" d="M182.91,239.57h.05c.31,0,.56-.26,.56-.57l-.84-36.57-2.49-.29,2.12,36.87c.02,.32,.28,.57,.6,.57"/>
      <path class="cls-28" d="M141.29,200.16v-25.06c0-4.41,3.57-7.98,7.98-7.98h18.06c4.41,0,7.98,3.57,7.98,7.98v26.02l-34.03-.96Z"/>
      <path class="cls-28" d="M178.55,204.12h-34.19c-1.7,0-3.08-1.38-3.08-3.08v-.88h37.26v3.96Z"/>
      <path class="cls-28" d="M182.97,204.12h-26.85c-.85,0-1.54-.69-1.54-1.54v-.88c0-.85,.69-1.54,1.54-1.54h26.85c.85,0,1.54,.69,1.54,1.54v.88c0,.85-.69,1.54-1.54,1.54"/>
    </g>
  </g>
  <path class="cls-5" d="M202.46,224.99c.25,1.26,2.05,1.05,4.05,.56,2.01-.49,1.53,.09,4.38-.22,2.85-.32,3.72-1.38,3.81-1.81,.08-.38-1.33-.51-2.85-.68-.19-.02-.38-.04-.57-.07-1.71-.21-2.96-1.32-4.51-2.22-1.47-.86-3.66-4.35-3.66-4.35l-3.92,.31s2.05,3.12,2.85,4.48c.47,.8,.44,1.85,.39,2.67-.03,.44-.06,.9,.03,1.34"/>
  <path class="cls-23" d="M206.52,225.55c2.01-.49,1.53,.09,4.38-.22,2.85-.32,3.72-1.38,3.81-1.81,.08-.38-1.33-.51-2.85-.68v.03s-1.73,1.21-4.1,1.27c-1.94,.05-3.99-.51-5.33-.49-.03,.44-.06,.9,.03,1.34,.25,1.26,2.05,1.05,4.05,.56"/>
  <path class="cls-5" d="M168.82,230.62c-.78,1.02,.57,2.23,2.26,3.41,1.69,1.18,.94,1.21,3.07,3.14,2.13,1.93,3.5,1.88,3.87,1.66,.33-.19-.5-1.34-1.37-2.59-.11-.16-.22-.32-.33-.47-.97-1.42-.97-3.09-1.32-4.85-.33-1.67,2.4-7.81,2.4-7.81l-4.38-.55s-.57,3.71-1.06,5.2c-.29,.88-1.51,1.46-2.16,1.95-.35,.27-.71,.55-.98,.91"/>
  <path class="cls-23" d="M171.08,234.03c1.69,1.18,.94,1.21,3.07,3.14,2.13,1.93,3.5,1.88,3.87,1.66,.33-.19-.5-1.34-1.37-2.59h-.03s-2.04-.47-3.66-2.22c-1.32-1.42-2.26-3.33-3.16-4.31-.35,.27-.71,.55-.98,.91-.78,1.02,.57,2.23,2.26,3.41"/>
  <path class="cls-29" d="M186.7,199.25l-4,10.77-5.22,14.06s-1.42,.14-2.78-.25c-1.25-.36-2.68-1.31-2.68-1.31,0,0,1.45-15.09,4.16-23.75,.69-2.22,1.47-4.02,2.33-5.04,4.19-4.96,8.2,5.53,8.2,5.53"/>
  <path class="cls-20" d="M182.64,182.16c-2.62-.84-10.52-.34-18.03,1.13l-1.15-2.01-16.22-1.27s-5.35,11.87-2.42,19.43c.43,1.11,1.29,1.82,2.74,1.85,0,0,.24,0,.24,0,0,0,9.65,0,12.79,0,8.07,0,17.07-5.54,18.23-5.78,1.91-.38,2.67,3.43,4.58,7.44,1.91,4,17.92,17.73,17.92,17.73,0,0,2.46,.03,3.48-.36,1.09-.41,1.49-.94,1.49-.94,0,0-17.75-35.31-23.66-37.21"/>
  <path class="cls-25" d="M157.78,132.18c-2.28-.54-5.38,.1-5.9,.16-6.16,.72-7.54,10.29-7.08,12.96,.85,4.93-1.52,6.32-4.35,10.27-5.67,7.91-1.75,14.42,2.86,16.04,2.77,.97,6.54-1.67,6.54-1.67,.07,.03,9.79-9.26,14.6-13.77,8.09-3.33-.86-22.6-6.68-23.99"/>
  <path class="cls-5" d="M159.1,154.74s-2.51,1.67-4.58,1.32c-1.95-.33-4-2.86-3.98-2.87,.79-.24,1.48-1.16,.99-5.89l.37,.04,6.21,.6s.05,1.93,.23,3.74c.15,1.52,.38,2.95,.75,3.07"/>
  <path class="cls-8" d="M158.12,147.93s.05,1.93,.23,3.74c-3.42,.25-5.53-2.68-6.44-4.33l6.21,.6Z"/>
  <path class="cls-5" d="M159.43,149.52s-8.05,.94-8.56-4.08c-.51-5.02-1.89-8.29,3.23-9.1,5.12-.81,6.32,1,6.89,2.64,.58,1.64,.52,10.17-1.56,10.55"/>
  <path class="cls-25" d="M160.03,136.4s-3.89,5.57-7.19,6.78c-3.3,1.21-4.86,.45-4.86,.45,0,0,1.58-2.17,2.09-5.15,.15-.88,.76-1.61,1.61-1.91,2.37-.83,6.93-2.09,8.35-.17"/>
  <path class="cls-25" d="M156.81,136.81s2.08,1.19,2.91,2.25c.8,1.02,1.66,3.75,1.53,4.95,0,0,1.31-5.71-.79-7.79-2.22-2.21-3.65,.6-3.65,.6"/>
  <path class="cls-11" d="M165.29,168.07c-.24,16.27-.07,12.87-1.85,14.41-.43,.37-1.64,.59-3.22,.7-4.99,.33-13.76-.49-14.09-1.41-1.15-3.19-.34-4.18-1.3-9.06-.1-.52-.22-1.08-.37-1.69-.8-3.35-1.58-4.5,1.26-9.88,2.57-4.88,5.36-8.78,5.6-8.64,6.79,4.03,7.24,.58,7.24,.58,0,0,6.85,7.07,6.73,15"/>
  <path class="cls-20" d="M182.7,210.02l-5.34,14.64s-1.92,.62-3.32,.42c-1.42-.21-2.2-.98-2.2-.98,0,0,1.63-16.67,4.34-25.34l6.53,11.26Z"/>
  <path class="cls-11" d="M158.56,153.07s6.99,1.19,7.81,4.2c.82,3.01,6.82,19.6,6.82,19.6,0,0-4.73,1.75-6.37,.1s-5.71-15.23-5.71-15.23l-2.55-8.67Z"/>
  <path class="cls-19" d="M160.22,183.18c-4.99,.33-13.76-.49-14.09-1.41-1.15-3.19-.34-4.18-1.3-9.06l2.34-5.33s-.33,6.1,1.89,8.08c2.22,1.98,9.11,3.83,10.19,5.49,.52,.8,.87,1.59,.97,2.23"/>
  <path class="cls-5" d="M160.63,179.71s1.49,1.28,1.91,1.39c.42,.1,.66,0,.66,0l-1.08-1.27-1.49-.12Z"/>
  <path class="cls-5" d="M160.04,178.2l3.76,.97s-.1,.27-.52,.33c-.43,.07-1.57-.11-1.57-.11l-1.67-1.2Z"/>
  <path class="cls-5" d="M153.66,180.27s5.37-2.39,6.38-2.07c1.01,.32,3.59,1.68,4,2.26,.4,.58-2.12-.07-2.9-.12-.51-.03-1.7,.67-2.28,1.01-2.48,1.42-4.19,1.29-4.19,1.29l-1-2.37Z"/>
  <path class="cls-11" d="M151.32,152.49s-7.6,1.43-9.01,3.53c-3.07,4.59-9.61,23.63-5.95,26.18,4.12,2.88,18.76,.75,18.76,.75,0,0,.49-2.28-.19-3.38-.68-1.1-11.69-2.88-12.2-3.39-.51-.51,5.02-7.86,4.43-9.27-1.89-4.51,4.15-14.43,4.15-14.43"/>
  <path class="cls-5" d="M181.36,179.46s5.32,1.44,5.86,2.26c.55,.83,1.62,3.35,1.57,4.01-.05,.66-1.5-1.3-2.04-1.8-.35-.33-1.63-.52-2.25-.62-1.58-.26-2.34-.98-2.93-1.34-.4-.24-.88-.2-.88-.2l.68-2.31Z"/>
  <path class="cls-5" d="M186.75,183.17s.32,1.81,.57,2.14c.25,.33,.48,.4,.48,.4l-.04-1.56-1.01-.97Z"/>
  <path class="cls-5" d="M187.22,181.72l2.16,2.93s-.23,.14-.58-.07c-.35-.2-1.08-1.01-1.08-1.01l-.51-1.86Z"/>
  <path class="cls-5" d="M181.56,181.97s.49,1.2,1.48,1.62c.98,.43,1.71,1.07,1.86,.84,.16-.23-.74-1.45-.74-1.45l-2.6-1.02Z"/>
  <path class="cls-11" d="M171.78,172.94l11.18,7.07s-1.17,1.57-1.57,1.71c-2.07,.76-11.38,.03-14.57-4.76l4.96-4.03Z"/>
  <path class="cls-10" d="M167.35,180.62c.66,0,7.22-.45,7.22-.45,0,0-.19,1.16,.22,1.79l-6.4,1.22-1.32-.38,.27-2.17Z"/>
  <path class="cls-7" d="M156.4,181.68l10.95-1.05s-.39,2.02,1.04,2.55l-12.07,.88s-.97-1.37,.08-2.38"/>
  <path class="cls-7" d="M174.56,180.31l-7.4,.57s.05-.25,.19-.26c.14,0,7.35-.53,7.35-.53l-.02,.2h-.12Z"/>
  <polygon class="cls-7" points="168.39 183.18 174.91 181.94 174.85 181.77 167.91 183.1 168.39 183.18"/>
  <path class="cls-28" d="M92.57,239.52h-.06c-.35,0-.63-.29-.62-.64l.94-40.84,2.76-.32-2.35,41.16c-.02,.35-.31,.63-.67,.63"/>
  <path class="cls-28" d="M76.49,239.52h-.06c-.35,0-.63-.29-.62-.64l.94-40.84,2.76-.32-2.35,41.16c-.02,.35-.31,.63-.67,.63"/>
  <path class="cls-28" d="M120.86,239.52h.06c.35,0,.63-.29,.62-.64l-.94-40.84-2.76-.32,2.35,41.16c.02,.35,.31,.63,.67,.63"/>
  <path class="cls-28" d="M74.66,195.51v-27.98c0-4.92,3.97-8.91,8.86-8.91h20.04c4.89,0,8.86,3.99,8.86,8.91v29.05l-37.77-1.07Z"/>
  <path class="cls-28" d="M116.03,199.93h-37.93c-1.9,0-3.43-1.54-3.43-3.43v-.98h41.36v4.42Z"/>
  <path class="cls-28" d="M120.92,199.93h-29.78c-.95,0-1.72-.77-1.72-1.72v-.98c0-.95,.77-1.72,1.72-1.72h29.78c.95,0,1.72,.77,1.72,1.72v.98c0,.95-.77,1.72-1.72,1.72"/>
  <path class="cls-10" d="M104.92,148.27s-1.68,1.43-2.04,5.13c-.28,2.81,1.67,24.63,3.14,26.36,4.13,4.88,9.3,2.82,11.33,3.56l1.91-1.72s-6.72-4.96-7.23-6.58c-1.97-6.23-.75-24.4-7.1-26.75"/>
  <path class="cls-25" d="M103.72,130.48s.11-4-5.16-4.79c-5.28-.79-6.74,.45-7.63,1.79-.9,1.35-2.58,6.84-2.41,9.03,.17,2.19,6.19,4.89,6.09,6.17s9.12-12.21,9.12-12.21"/>
  <path class="cls-17" d="M128.19,236.06c-.17,1.35,1.67,1.75,3.82,1.94,2.15,.19,1.48,.61,4.41,1.26,2.93,.65,4.14-.13,4.36-.52,.2-.35-1.15-.96-2.58-1.65-.18-.09-.36-.17-.54-.26-1.62-.79-2.49-2.33-3.72-3.77-1.17-1.36-2.17-5.62-2.17-5.62l-3.97-1.02s.99,3.84,1.32,5.47c.2,.96-.18,2.01-.51,2.81-.18,.43-.36,.88-.42,1.36"/>
  <path class="cls-23" d="M132.01,238c2.14,.19,1.48,.61,4.41,1.26,2.93,.65,4.14-.12,4.36-.52,.2-.35-1.15-.96-2.58-1.65l-.02,.02s-2.1,.64-4.46-.11c-1.93-.61-3.77-1.86-5.1-2.3-.18,.44-.36,.88-.42,1.36-.17,1.35,1.67,1.75,3.82,1.94"/>
  <path class="cls-22" d="M98.46,180.93s26.55,2.76,30.93,6.82c4.38,4.07,3.6,41.93,3.6,41.93-.68,.71-1.18,.69-2.26,.61-1.03-.08-3.14-.97-3.14-.97,0,0-5.69-18.59-5.76-22.9-.07-4.31-.97-11.61-2.78-12.04s-23.3,1.98-25.66-4.81,1.56-12.38,1.56-12.38l3.51,3.74Z"/>
  <path class="cls-10" d="M86.05,187.76c1.15,.77,3.19,1.95,6.63,2.07,6.15,.22,13.83-.51,15.34-1.94,.39-.37,.58-.98,.64-1.75,.17-2.36-.96-6.24-1.72-9.46-.49-2.09-.83-3.89-.55-4.81,.83-2.81,3.43-8.52,3.65-10.4,.22-1.88-2.02-11.95-5.12-13.19-3.1-1.25-15.07,0-15.07,0-4.67,.95-4.87,10.92-3.32,19.4,.04,.22,.08,.44,.12,.65,1.68,8.62-3.8,17.29-.6,19.43"/>
  <path class="cls-14" d="M101.51,150.11c-.08,.55-1.58,1.43-4.78,.59-3.06-.81-3.43-1.81-3.43-2.47,0-.78,1.33-1.83,1.32-6.63l.37,.07,6.18,1.22s-.14,1.94-.14,3.78c0,1.54,.63,2.53,.49,3.43"/>
  <path class="cls-27" d="M101.16,142.9s-.14,1.95-.15,3.78c-3.46-.1-5.29-3.25-6.04-5l6.18,1.22Z"/>
  <path class="cls-17" d="M102.32,144.63s-8.18,.14-8.19-4.96c0-5.1-1.07-8.51,4.16-8.81,5.23-.3,6.24,1.64,6.66,3.34,.42,1.7-.5,10.27-2.63,10.43"/>
  <path class="cls-25" d="M102.02,130.73s-2.24,5.98-5.68,6.86c-3.44,.88-4.93-.04-4.93-.04,0,0,2.64-2.1,3.18-5.75,0,0,5.73-3.92,7.42-1.08"/>
  <path class="cls-25" d="M101.46,131.22s1.67,1.34,2.08,2.63c.41,1.3,.59,3.97,1.37,3.88,0,0,1.69-4.07-.21-6.36-2.01-2.44-3.24-.15-3.24-.15"/>
  <path class="cls-17" d="M108.25,237.17c-.02,1.36,1.86,1.55,4.01,1.49,2.15-.06,1.54,.44,4.52,.75,2.98,.31,4.1-.6,4.28-1.02,.16-.37-1.25-.83-2.75-1.35-.19-.07-.38-.13-.57-.2-1.69-.6-2.73-2.03-4.11-3.31-1.31-1.22,1.58-7.11,1.58-7.11l-3.79-1.88s-.72,4.21-1.64,7.89c-.24,.95-1.02,2.52-1.26,3.35-.13,.45-.26,.92-.26,1.4"/>
  <path class="cls-6" d="M86.22,186.75c1.15,.77,3.03,2.96,6.47,3.09,5.67-1.29,12.13-2.79,15.98-3.69,.17-2.36-.96-6.24-1.72-9.46-4.48,1.37-11.15-3.29-13.39-5.13-2.36-1.93-2.28-8.38-2.28-8.38l-4.74,4.51c.04,.22,.08,.44,.12,.65,1.68,8.62-3.64,16.28-.44,18.42"/>
  <path class="cls-23" d="M112.26,238.66c2.15-.06,1.54,.44,4.52,.75,2.98,.31,4.1-.6,4.28-1.02,.16-.37-1.25-.83-2.75-1.35l-.02,.03s-2.01,.88-4.45,.4c-1.99-.38-3.96-1.42-5.32-1.69-.13,.45-.26,.92-.26,1.4-.02,1.36,1.86,1.55,4.01,1.49"/>
  <path class="cls-22" d="M92.73,182.55c6.74-.19,26.88,1.42,30.74,4.33,4.76,3.59-8.84,42.41-8.84,42.41,0,0-1.58,.15-2.08,.1-2.16-.24-3.04-.9-3.04-.9,0,0,.05-22.85,1.64-27.22,1.47-4.04,2.37-5.47,.53-5.71-1.84-.24-24.8,2.69-26.72-4.24-1.5-5.41,.71-10.43,.71-10.43,0,0,.83,1.84,7.05,1.66"/>
  <path class="cls-10" d="M89.85,148.27s-4.68,.4-5.05,4.1c-.28,2.81-2.31,22.75-.85,24.48,4.13,4.88,17.89,5.91,19.92,6.65l.56-2.31s-14.69-7.4-14.47-9.08c.22-1.68,4.38-24.51-.11-23.84"/>
  <path class="cls-25" d="M93.47,127.7s.34-2.13-2.62-2.69c-2.96-.55-3.02,5.74-3.33,7.25-.32,1.52,.47,2.43,1.6,2.52,1.13,.09,4.36-7.09,4.36-7.09"/>
  <path class="cls-17" d="M104.59,181.1s4.18-1.18,5.18-.91c1,.28,4.41,2.54,3.93,3.15-.48,.61-3.49-.37-4.87-.18s-2.46,.87-3.45,.72c-1-.15-2.04-.54-2.04-.54l1.25-2.25Z"/>
  <path class="cls-17" d="M104.59,181.1s2.05-1.05,2.63-1.65c.07-.08,.2-.06,.25,.03,.16,.25,.3,.72-.42,1.19-1.03,.68-2.47,.43-2.47,.43"/>
  <path class="cls-17" d="M119.26,181.61s4.34,.24,5.19,.82,3.35,3.83,2.7,4.26c-.65,.43-3.18-1.48-4.55-1.75-1.37-.27-2.6,.03-3.5-.44-.89-.46-1.75-1.17-1.75-1.17l1.91-1.72Z"/>
  <path class="cls-17" d="M89.43,239.87h-17.67c-.85-1.04-.54-4.86-.41-6.11,.03-.25,.05-.4,.05-.4,0,0,6.03-4.83,6.86-1.13,.02,.12,.06,.23,.09,.34,1.04,3.46,5.73,5.03,8.43,5.46,1.76,.29,2.41,1.2,2.65,1.84"/>
  <path class="cls-22" d="M41.22,182.46c.64,0,30.26,5.56,35.17,11.63,2.45,3.03,2.81,38.03,2.81,38.03,0,0-3.03,3.76-9.57,1.57,0,0-4.8-23.94-4.44-31.21,.1-2.01-20.24-.29-23.97-1.25-3.72-.96-12.82-9.06-10.82-13.01,2-3.95,10.82-5.76,10.82-5.76"/>
  <path class="cls-17" d="M62.67,180.82s1.9,1.64,3.84,2.1c1.11,.26,2.18,.56,2.82,.86,1.76,.81,5.1,4.41,4.79,4.77-.99,1.15-5-1.84-5.77-1.63-.77,.21,1.26,1.95,.45,2.42-.42,.25-1.21-1.26-1.95-1.47-1-.29-1.66-1.8-1.96-1.9-.58-.2-3.02-2.38-3.02-2.38l.8-2.77Z"/>
  <path class="cls-17" d="M97.24,239.87h-17.67c-.85-1.04-.54-4.86-.41-6.11,.03-.25,.05-.4,.05-.4,0,0,6.03-4.83,6.86-1.13,.02,.12,.06,.23,.09,.34,1.04,3.46,5.73,5.03,8.43,5.46,1.76,.29,2.41,1.2,2.65,1.84"/>
  <path class="cls-22" d="M49.95,182.46c.64,0,30.26,5.56,35.17,11.63,2.45,3.03,2.81,38.03,2.81,38.03,0,0-3.03,3.76-9.57,1.57,0,0-4.8-23.94-4.44-31.21,.1-2.01-20.24-.29-23.97-1.25-3.72-.96-12.82-9.06-10.82-13.01,2-3.95,10.82-5.76,10.82-5.76"/>
  <path class="cls-14" d="M48.09,146.46c-2.13-.18-4.37-.74-6.3-1.37-2.41-.78-4.36-1.93-3.11-4.14,1.16-2.03,3.03-6.58,2.9-10.34l4.49,3.62,3.05,2.46s-.01,1.45-.35,3.99c-.06,.46-.13,.96-.22,1.5-.07,.43,.13,.86,.5,1.09,.02,.01,.05,.03,.07,.04,1.52,.95,.74,3.29-1.05,3.14"/>
  <path class="cls-27" d="M49.13,136.09s.16,.53-.11,2.47c-2.72-.44-5.26-2.61-5.26-2.61,1.38-.38,1.89-1.88,2.92-1.74l2.46,1.88Z"/>
  <path class="cls-17" d="M51.65,136.53s-10.47,1.74-11.45-4.79c-.98-6.53-2.99-10.71,3.65-12.1,6.64-1.39,8.32,.91,9.17,3.01,.86,2.1,1.32,13.26-1.37,13.88"/>
  <path class="cls-25" d="M54.56,119.76c.45,1.57-.75,3.49-2.77,4.12-3,.94-2.34,4.61-3.68,4.56-1.35-.05-1.89-2.11-3.1-.46-1.03,1.41,.86,3.07,.73,3.84-.22,1.32-2.3,4.03-4.16,3.9-1.87-.13-5.36-9.01-4.67-11.76,.7-2.75,3.5-5.65,6.14-6.04,2.65-.4,6.32,.74,7.17,.74s4.1,.26,4.34,1.1"/>
  <path class="cls-11" d="M57.16,180.5c-.18,1.51-.49,2.53-.99,2.87-1.56,1.04-3.63,2.35-5.94,3.63-8.19,4.57-19.39,8.97-21.67,1.26-2.68-9.06-.92-26.07,1.71-36.64,1.51-6.09,5.69-12.48,8.52-12.47,4.82,0,11.74,1.28,14.54,8.18,1.08,2.67,2.67,11.93,3.48,20.41,.48,5.05,.69,9.83,.35,12.77"/>
  <path class="cls-19" d="M38.3,139.2l1.09-2.46s9.67,.99,11.31,6.54c0,0-7.47-3.97-12.4-4.08"/>
  <path class="cls-19" d="M57.16,180.5c-.18,1.51-.49,2.53-.99,2.87-1.56,1.04-3.63,2.35-5.94,3.63-2.41-1.46-7.36-4.96-8.51-9.08-1.51-5.38-.45-12.01-.45-12.01l15.89,14.59Z"/>
  <path class="cls-11" d="M40.26,147.49s.84,23.14,2.15,27.72c2.24,7.8,22.71,10.58,22.71,10.58,0,0,1.21-1.37,.67-3.64,0,0-12.24-9.64-12.6-11.48-.36-1.84,2.67-14.28-.79-18.8-3.46-4.53-9.83-8.45-12.15-4.38"/>
  <path class="cls-28" d="M14.6,239.65h-.07c-.55-.01-.98-.46-.92-.98l3.68-36.72,3.21,.29-5.28,36.92c-.04,.29-.3,.5-.61,.5"/>
  <path class="cls-28" d="M33.52,239.65h-.07c-.55-.01-.98-.46-.92-.98l3.68-36.72,3.21,.29-5.28,36.92c-.04,.29-.3,.5-.61,.5"/>
  <path class="cls-28" d="M69.06,239.65h.07c.55-.01,.98-.46,.92-.98l-3.68-36.72-3.21,.29,5.28,36.92c.04,.29,.3,.5,.61,.5"/>
  <path class="cls-28" d="M15.64,196.75l-3.49-30.67c-.46-4.42,1.02-8.75,7.4-9.08l11.22-.68c6.65-.28,9.65,5.26,10.5,9.52l6.66,33.72-32.29-2.8Z"/>
  <path class="cls-28" d="M17.98,202.49h48.87c1.26,0,2.29-1.03,2.29-2.28v-1.31c0-1.26-1.03-2.29-2.29-2.29H15.69v3.59c0,1.26,1.03,2.28,2.29,2.28"/>
  <path class="cls-28" d="M17.98,202.49h27.66c1.26,0,2.29-1.03,2.29-2.28v-1.31c0-1.26-1.03-2.29-2.29-2.29H15.69v3.59c0,1.26,1.03,2.28,2.29,2.28"/>
  <path class="cls-24" d="M443.87,241.23H.71c-.39,0-.71-.32-.71-.71v-.41c0-.39,.32-.71,.71-.71H443.87c.39,0,.71,.32,.71,.71v.41c0,.39-.32,.71-.71,.71"/>
  <path class="cls-28" d="M88.41,103.58h-4.95c-4.17,0-7.59-3.41-7.59-7.59v-4.35c0-4.17,3.41-7.59,7.59-7.59h4.95c4.17,0,7.59,3.41,7.59,7.59v4.34c0,4.17-3.41,7.59-7.59,7.59"/>
  <path class="cls-19" d="M88.19,102.73h-4.52c-3.81,0-6.93-3.12-6.93-6.93v-3.97c0-3.81,3.12-6.93,6.93-6.93h4.52c3.81,0,6.93,3.12,6.93,6.93v3.97c0,3.81-3.12,6.93-6.93,6.93"/>
  <path class="cls-24" d="M85.52,86.68c0-.23,.19-.42,.42-.42s.42,.19,.42,.42-.19,.42-.42,.42-.42-.19-.42-.42"/>
  <path class="cls-24" d="M88.88,87.27c.11-.2,.37-.27,.57-.16s.27,.37,.16,.57c-.11,.2-.37,.27-.57,.16s-.27-.37-.16-.57"/>
  <path class="cls-24" d="M91.76,89.56c.19-.12,.45-.07,.58,.12,.12,.19,.07,.45-.12,.58-.19,.12-.45,.07-.58-.12-.12-.19-.07-.45,.12-.58"/>
  <path class="cls-24" d="M93.19,93.11c.23,0,.42,.19,.42,.42s-.19,.42-.42,.42-.42-.19-.42-.42,.19-.42,.42-.42"/>
  <path class="cls-24" d="M92.46,97.22c.16,.16,.16,.43,0,.59-.16,.16-.43,.16-.59,0-.16-.16-.16-.43,0-.59,.16-.16,.43-.16,.59,0"/>
  <path class="cls-24" d="M89.84,99.84c.16,.16,.16,.43,0,.59-.16,.16-.43,.16-.59,0-.16-.16-.16-.43,0-.59,.16-.16,.43-.16,.59,0"/>
  <path class="cls-24" d="M85.52,101.19c0-.23,.19-.42,.42-.42s.42,.19,.42,.42-.19,.42-.42,.42-.42-.19-.42-.42"/>
  <path class="cls-24" d="M82.98,87.27c-.11-.2-.37-.27-.57-.16s-.27,.37-.16,.57c.11,.2,.37,.27,.57,.16s.27-.37,.16-.57"/>
  <path class="cls-24" d="M80.09,89.56c-.19-.12-.45-.07-.58,.12-.12,.19-.07,.45,.12,.58,.19,.12,.45,.07,.58-.12,.12-.19,.07-.45-.12-.58"/>
  <path class="cls-24" d="M78.67,93.11c-.23,0-.42,.19-.42,.42s.19,.42,.42,.42,.42-.19,.42-.42-.19-.42-.42-.42"/>
  <path class="cls-24" d="M79.4,97.22c-.16,.16-.16,.43,0,.59,.16,.16,.43,.16,.59,0,.16-.16,.16-.43,0-.59-.16-.16-.43-.16-.59,0"/>
  <path class="cls-24" d="M82.01,99.84c-.16,.16-.16,.43,0,.59,.16,.16,.43,.16,.59,0,.16-.16,.16-.43,0-.59-.16-.16-.43-.16-.59,0"/>
  <path class="cls-28" d="M85.82,93.52c0-.23,.19-.42,.42-.42s.42,.19,.42,.42-.19,.42-.42,.42-.42-.19-.42-.42"/>
  <rect class="cls-28" x="86.18" y="88.32" width=".11" height="5.21"/>
  <rect class="cls-28" x="85.81" y="92.26" width="3.51" height=".34" transform="translate(-38.38 73.76) rotate(-38.11)"/>
</svg>