<?xml version="1.0" encoding="UTF-8"?>
<svg id="Layer_1" data-name="Layer 1" xmlns="http://www.w3.org/2000/svg" xmlns:xlink="http://www.w3.org/1999/xlink" viewBox="0 0 221.39 108.64">
  <defs>
    <style>
      .cls-1 {
        fill: none;
      }

      .cls-2 {
        fill: url(#linear-gradient);
      }

      .cls-3 {
        clip-path: url(#clippath);
      }

      .cls-4 {
        fill: #003768;
      }

      .cls-5 {
        fill: #fff;
      }

      .cls-6 {
        clip-path: url(#clippath-1);
      }

      .cls-7 {
        clip-path: url(#clippath-4);
      }

      .cls-8 {
        clip-path: url(#clippath-3);
      }

      .cls-9 {
        clip-path: url(#clippath-2);
      }

      .cls-10 {
        fill: url(#linear-gradient-3);
      }

      .cls-11 {
        fill: url(#linear-gradient-4);
      }

      .cls-12 {
        fill: url(#linear-gradient-2);
      }

      .cls-13 {
        fill: url(#linear-gradient-5);
      }
    </style>
    <clipPath id="clippath">
      <path class="cls-1" d="M99.92,94.72c0,7.69,6.23,13.92,13.92,13.92s13.92-6.23,13.92-13.92-6.23-13.92-13.92-13.92-13.92,6.23-13.92,13.92"/>
    </clipPath>
    <linearGradient id="linear-gradient" x1="-248.81" y1="533.27" x2="-247.81" y2="533.27" gradientTransform="translate(7028.83 14945.5) scale(27.85 -27.85)" gradientUnits="userSpaceOnUse">
      <stop offset="0" stop-color="#005bab"/>
      <stop offset=".52" stop-color="#008bcc"/>
      <stop offset="1" stop-color="#00c1f3"/>
    </linearGradient>
    <clipPath id="clippath-1">
      <path class="cls-1" d="M72.95,11.57c0,6.39,5.18,11.57,11.57,11.57s11.57-5.18,11.57-11.57S90.91,0,84.52,0s-11.57,5.18-11.57,11.57"/>
    </clipPath>
    <linearGradient id="linear-gradient-2" x1="-248.81" y1="533.28" x2="-247.81" y2="533.28" gradientTransform="translate(5831.83 12354.49) scale(23.15 -23.15)" xlink:href="#linear-gradient"/>
    <clipPath id="clippath-2">
      <path class="cls-1" d="M146.87,31.99c0,9.85,7.98,17.83,17.83,17.83s17.83-7.98,17.83-17.83-7.98-17.83-17.83-17.83-17.83,7.98-17.83,17.83"/>
    </clipPath>
    <linearGradient id="linear-gradient-3" x1="-248.8" y1="533.26" x2="-247.8" y2="533.26" gradientTransform="translate(9020.33 19050.76) scale(35.66 -35.66)" xlink:href="#linear-gradient"/>
    <clipPath id="clippath-3">
      <path class="cls-1" d="M197.31,80.85c0,6.65,5.39,12.04,12.04,12.04s12.04-5.39,12.04-12.04-5.39-12.04-12.04-12.04-12.04,5.39-12.04,12.04"/>
    </clipPath>
    <linearGradient id="linear-gradient-4" x1="-248.81" y1="533.28" x2="-247.81" y2="533.28" gradientTransform="translate(6188.21 12921.08) scale(24.08 -24.08)" xlink:href="#linear-gradient"/>
    <clipPath id="clippath-4">
      <path class="cls-1" d="M0,57.68c0,5.19,4.21,9.39,9.39,9.39s9.39-4.21,9.39-9.39-4.21-9.39-9.39-9.39S0,52.49,0,57.68"/>
    </clipPath>
    <linearGradient id="linear-gradient-5" x1="-248.82" y1="533.29" x2="-247.82" y2="533.29" gradientTransform="translate(4674.57 10076.44) scale(18.79 -18.79)" xlink:href="#linear-gradient"/>
  </defs>
  <g class="cls-3">
    <rect class="cls-2" x="99.92" y="80.8" width="27.85" height="27.85"/>
  </g>
  <g>
    <path class="cls-5" d="M109.38,89.13c0-2.47,2-4.47,4.47-4.47s4.47,2,4.47,4.47-2,4.47-4.47,4.47-4.47-2-4.47-4.47"/>
    <path class="cls-5" d="M113.85,93.6c-4.32,0-7.82,3.5-7.82,7.82h15.64c0-4.32-3.5-7.82-7.82-7.82"/>
    <path class="cls-4" d="M77.9,10.51c.13-.43,.59-.67,1.02-.54,.43,.13,.67,.59,.54,1.02s-.59,.67-1.02,.54-.67-.59-.54-1.02"/>
    <path class="cls-4" d="M81.52,11.63c.13-.43,.59-.67,1.02-.54,.43,.13,.67,.59,.54,1.02-.13,.43-.59,.67-1.02,.54s-.67-.59-.54-1.02"/>
    <path class="cls-4" d="M85.73,13.78c-.43-.13-.67-.59-.54-1.02s.59-.67,1.02-.54,.67,.59,.54,1.02c-.13,.43-.59,.67-1.02,.54"/>
    <path class="cls-4" d="M88.85,13.88c.13-.43,.59-.67,1.02-.54,.43,.13,.67,.59,.54,1.02s-.59,.67-1.02,.54-.67-.59-.54-1.02"/>
    <path class="cls-4" d="M92.47,14.99c.13-.43,.59-.67,1.02-.54,.43,.13,.67,.59,.54,1.02s-.59,.67-1.02,.54c-.43-.13-.67-.59-.54-1.02"/>
    <path class="cls-4" d="M96.67,17.14c-.43-.13-.67-.59-.54-1.02s.59-.67,1.02-.54,.67,.59,.54,1.02c-.13,.43-.59,.67-1.02,.54"/>
    <path class="cls-4" d="M99.65,17.2c.13-.43,.59-.67,1.02-.54,.43,.13,.67,.59,.54,1.02s-.59,.67-1.02,.54c-.43-.13-.67-.59-.54-1.02"/>
    <path class="cls-4" d="M103.26,18.32c.13-.43,.59-.67,1.02-.54,.43,.13,.67,.59,.54,1.02s-.59,.67-1.02,.54c-.43-.13-.67-.59-.54-1.02"/>
    <path class="cls-4" d="M107.47,20.47c-.43-.13-.67-.59-.54-1.02,.13-.43,.59-.67,1.02-.54s.67,.59,.54,1.02c-.13,.43-.59,.67-1.02,.54"/>
    <path class="cls-4" d="M110.59,20.57c.13-.43,.59-.67,1.02-.54,.43,.13,.67,.59,.54,1.02s-.59,.67-1.02,.54c-.43-.13-.67-.59-.54-1.02"/>
    <path class="cls-4" d="M114.21,21.69c.13-.43,.59-.67,1.02-.54,.43,.13,.67,.59,.54,1.02s-.59,.67-1.02,.54c-.43-.13-.67-.59-.54-1.02"/>
    <path class="cls-4" d="M118.42,23.83c-.43-.13-.67-.59-.54-1.02,.13-.43,.59-.67,1.02-.54,.43,.13,.67,.59,.54,1.02-.13,.43-.59,.67-1.02,.54"/>
    <path class="cls-4" d="M121.55,23.94c.13-.43,.59-.67,1.02-.54,.43,.13,.67,.59,.54,1.02s-.59,.67-1.02,.54c-.43-.13-.67-.59-.54-1.02"/>
    <path class="cls-4" d="M125.16,25.06c.13-.43,.59-.67,1.02-.54,.43,.13,.67,.59,.54,1.02s-.59,.67-1.02,.54c-.43-.13-.67-.59-.54-1.02"/>
    <path class="cls-4" d="M129.37,27.21c-.43-.13-.67-.59-.54-1.02,.13-.43,.59-.67,1.02-.54s.67,.59,.54,1.02c-.13,.43-.59,.67-1.02,.54"/>
    <path class="cls-4" d="M132.49,27.31c.13-.43,.59-.67,1.02-.54,.43,.13,.67,.59,.54,1.02s-.59,.67-1.02,.54c-.43-.13-.67-.59-.54-1.02"/>
    <path class="cls-4" d="M136.11,28.42c.13-.43,.59-.67,1.02-.54,.43,.13,.67,.59,.54,1.02s-.59,.67-1.02,.54c-.43-.13-.67-.59-.54-1.02"/>
    <path class="cls-4" d="M140.31,30.57c-.43-.13-.67-.59-.54-1.02,.13-.43,.59-.67,1.02-.54,.43,.13,.67,.59,.54,1.02-.13,.43-.59,.67-1.02,.54"/>
    <path class="cls-4" d="M143.29,30.63c.13-.43,.59-.67,1.02-.54,.43,.13,.67,.59,.54,1.02s-.59,.67-1.02,.54c-.43-.13-.67-.59-.54-1.02"/>
    <path class="cls-4" d="M146.91,31.75c.13-.43,.59-.67,1.02-.54,.43,.13,.67,.59,.54,1.02s-.59,.67-1.02,.54c-.43-.13-.67-.59-.54-1.02"/>
    <path class="cls-4" d="M151.11,33.9c-.43-.13-.67-.59-.54-1.02,.13-.43,.59-.67,1.02-.54,.43,.13,.67,.59,.54,1.02-.13,.43-.59,.67-1.02,.54"/>
    <path class="cls-4" d="M154.24,34c.13-.43,.59-.67,1.02-.54,.43,.13,.67,.59,.54,1.02s-.59,.67-1.02,.54c-.43-.13-.67-.59-.54-1.02"/>
    <path class="cls-4" d="M157.85,35.11c.13-.43,.59-.67,1.02-.54,.43,.13,.67,.59,.54,1.02s-.59,.67-1.02,.54c-.43-.13-.67-.59-.54-1.02"/>
    <path class="cls-4" d="M162.06,37.26c-.43-.13-.67-.59-.54-1.02,.13-.43,.59-.67,1.02-.54s.67,.59,.54,1.02c-.13,.43-.59,.67-1.02,.54"/>
    <path class="cls-4" d="M123.6,80.48c-.36-.27-.44-.78-.18-1.14,.27-.36,.78-.44,1.14-.18,.36,.27,.44,.78,.18,1.14-.27,.36-.78,.44-1.14,.18"/>
    <path class="cls-4" d="M125.84,77.42c-.36-.27-.44-.78-.18-1.14,.27-.36,.78-.44,1.14-.18,.36,.27,.44,.78,.18,1.14-.27,.36-.78,.44-1.14,.18"/>
    <path class="cls-4" d="M129.25,74.15c-.27,.36-.78,.44-1.14,.18-.36-.27-.44-.78-.18-1.14,.27-.36,.78-.44,1.14-.18,.36,.27,.44,.78,.18,1.14"/>
    <path class="cls-4" d="M130.37,71.24c-.36-.27-.44-.78-.18-1.14,.27-.36,.78-.44,1.14-.18,.37,.27,.44,.78,.18,1.14-.27,.36-.78,.44-1.14,.18"/>
    <path class="cls-4" d="M132.61,68.18c-.36-.27-.44-.78-.18-1.14,.27-.36,.78-.44,1.14-.18,.36,.27,.44,.78,.18,1.14-.27,.36-.78,.44-1.14,.18"/>
    <path class="cls-4" d="M136.01,64.92c-.27,.36-.78,.44-1.14,.18-.36-.27-.44-.78-.18-1.14,.27-.36,.78-.44,1.14-.18,.36,.27,.44,.78,.18,1.14"/>
    <path class="cls-4" d="M137.14,61.99c-.36-.27-.44-.78-.18-1.14,.27-.36,.78-.44,1.14-.18,.36,.27,.44,.78,.18,1.14-.27,.36-.78,.44-1.14,.18"/>
    <path class="cls-4" d="M139.38,58.94c-.36-.27-.44-.78-.18-1.14,.27-.36,.78-.44,1.14-.18,.36,.27,.44,.78,.18,1.14-.27,.36-.78,.44-1.14,.18"/>
    <path class="cls-4" d="M142.79,55.67c-.27,.36-.78,.44-1.14,.18-.36-.27-.44-.78-.18-1.14,.27-.37,.78-.44,1.14-.18,.36,.27,.44,.78,.18,1.14"/>
    <path class="cls-4" d="M143.91,52.75c-.36-.27-.44-.78-.18-1.14,.27-.36,.78-.44,1.14-.18,.37,.27,.44,.78,.18,1.14-.27,.36-.78,.44-1.14,.18"/>
    <path class="cls-4" d="M146.15,49.7c-.36-.27-.44-.78-.18-1.14,.27-.36,.78-.44,1.14-.18,.36,.27,.44,.78,.18,1.14-.27,.36-.78,.44-1.14,.18"/>
    <path class="cls-4" d="M149.56,46.43c-.27,.36-.78,.44-1.14,.18-.36-.27-.44-.78-.18-1.14,.27-.37,.78-.44,1.14-.18,.36,.27,.44,.78,.18,1.14"/>
    <path class="cls-4" d="M150.59,43.64c-.36-.27-.44-.78-.18-1.14,.27-.36,.78-.44,1.14-.18,.37,.27,.44,.78,.18,1.14-.27,.36-.78,.44-1.14,.18"/>
    <path class="cls-4" d="M152.82,40.59c-.36-.27-.44-.78-.18-1.14,.27-.36,.78-.44,1.14-.18,.36,.27,.44,.78,.18,1.14-.27,.36-.78,.44-1.14,.18"/>
    <path class="cls-4" d="M156.23,37.32c-.27,.36-.78,.44-1.14,.18-.36-.27-.44-.78-.18-1.14,.27-.37,.78-.44,1.14-.18,.36,.27,.44,.78,.18,1.14"/>
    <path class="cls-4" d="M157.35,34.4c-.36-.27-.44-.78-.18-1.14,.27-.36,.78-.44,1.14-.18,.36,.27,.44,.78,.18,1.14-.27,.36-.78,.44-1.14,.18"/>
    <path class="cls-4" d="M159.59,31.35c-.36-.27-.44-.78-.18-1.14,.27-.36,.78-.44,1.14-.18,.37,.27,.44,.78,.18,1.14-.27,.36-.78,.44-1.14,.18"/>
    <path class="cls-4" d="M163,28.08c-.27,.36-.78,.44-1.14,.18-.36-.27-.44-.78-.18-1.14,.27-.37,.78-.44,1.14-.18,.36,.27,.44,.78,.18,1.14"/>
    <path class="cls-4" d="M130.37,93.29c-.07-.45,.23-.87,.67-.94,.45-.07,.87,.23,.94,.67,.07,.45-.23,.87-.67,.94-.45,.07-.87-.23-.94-.68"/>
    <path class="cls-4" d="M134.1,92.68c-.07-.45,.23-.87,.67-.94,.45-.07,.87,.23,.94,.67,.07,.45-.23,.87-.67,.94-.45,.07-.87-.23-.94-.68"/>
    <path class="cls-4" d="M138.83,92.73c-.45,.07-.87-.23-.94-.67-.07-.45,.23-.87,.67-.94,.45-.07,.87,.23,.94,.67,.07,.45-.23,.87-.67,.94"/>
    <path class="cls-4" d="M141.67,91.44c-.07-.45,.23-.87,.67-.94,.45-.07,.87,.23,.94,.67,.07,.45-.23,.87-.67,.94-.45,.07-.87-.23-.94-.68"/>
    <path class="cls-4" d="M145.41,90.83c-.07-.45,.23-.87,.67-.94,.45-.07,.87,.23,.94,.67,.07,.45-.23,.87-.67,.94-.45,.07-.87-.23-.94-.68"/>
    <path class="cls-4" d="M150.13,90.88c-.45,.07-.87-.23-.94-.67-.07-.45,.23-.87,.68-.94,.45-.07,.87,.23,.94,.67,.07,.45-.23,.87-.67,.94"/>
    <path class="cls-4" d="M152.98,89.58c-.07-.45,.23-.87,.67-.94,.45-.07,.87,.23,.94,.67,.07,.45-.23,.87-.67,.94-.45,.07-.87-.23-.94-.68"/>
    <path class="cls-4" d="M156.72,88.97c-.07-.45,.23-.87,.67-.94,.45-.07,.87,.23,.94,.67,.07,.45-.23,.87-.67,.94-.45,.07-.87-.23-.94-.68"/>
    <path class="cls-4" d="M161.44,89.03c-.45,.07-.87-.23-.94-.67-.07-.45,.23-.87,.67-.94,.45-.07,.87,.23,.94,.67,.07,.45-.23,.87-.67,.94"/>
    <path class="cls-4" d="M164.28,87.73c-.07-.45,.23-.87,.67-.94,.45-.07,.87,.23,.94,.67,.07,.45-.23,.87-.67,.94-.45,.07-.87-.23-.94-.68"/>
    <path class="cls-4" d="M168.02,87.12c-.07-.45,.23-.87,.67-.94,.45-.07,.87,.23,.94,.67,.07,.45-.23,.87-.67,.94-.45,.07-.87-.23-.94-.68"/>
    <path class="cls-4" d="M172.74,87.17c-.45,.07-.87-.23-.94-.67-.07-.45,.23-.87,.67-.94,.45-.07,.87,.23,.94,.67,.07,.45-.23,.87-.67,.94"/>
    <path class="cls-4" d="M175.43,85.9c-.07-.45,.23-.87,.67-.94,.45-.07,.87,.23,.94,.67,.07,.45-.23,.87-.67,.94-.45,.07-.87-.23-.94-.68"/>
    <path class="cls-4" d="M179.17,85.29c-.07-.45,.23-.87,.67-.94,.45-.07,.87,.23,.94,.67,.07,.45-.23,.87-.67,.94-.45,.07-.87-.23-.94-.68"/>
    <path class="cls-4" d="M183.89,85.35c-.45,.07-.87-.23-.94-.67-.07-.45,.23-.87,.67-.94,.45-.07,.87,.23,.94,.67,.07,.45-.23,.87-.67,.94"/>
    <path class="cls-4" d="M186.73,84.05c-.07-.45,.23-.87,.67-.94,.45-.07,.87,.23,.94,.67,.07,.45-.23,.87-.67,.94-.45,.07-.87-.23-.94-.68"/>
    <path class="cls-4" d="M190.47,83.44c-.07-.45,.23-.87,.67-.94,.45-.07,.87,.23,.94,.68,.07,.45-.23,.87-.67,.94-.45,.07-.87-.23-.94-.68"/>
    <path class="cls-4" d="M195.19,83.49c-.45,.07-.87-.23-.94-.67-.07-.45,.23-.87,.67-.94,.45-.07,.87,.23,.94,.67,.07,.45-.23,.87-.67,.94"/>
    <path class="cls-4" d="M108.88,78.37c-.43,.14-.89-.1-1.03-.53-.14-.43,.1-.89,.53-1.03,.43-.14,.89,.1,1.03,.53s-.1,.89-.53,1.03"/>
    <path class="cls-4" d="M107.72,74.77c-.43,.14-.89-.1-1.03-.53-.14-.43,.1-.89,.53-1.03,.43-.14,.89,.1,1.03,.53s-.1,.89-.53,1.03"/>
    <path class="cls-4" d="M107.09,70.09c.14,.43-.1,.89-.53,1.03-.43,.14-.89-.1-1.03-.53-.14-.43,.1-.89,.53-1.03,.43-.14,.89,.1,1.03,.53"/>
    <path class="cls-4" d="M105.39,67.47c-.43,.14-.89-.1-1.03-.53-.14-.43,.1-.89,.53-1.03,.43-.14,.89,.1,1.03,.53,.14,.43-.1,.89-.53,1.03"/>
    <path class="cls-4" d="M104.24,63.86c-.43,.14-.89-.1-1.03-.53-.14-.43,.1-.89,.53-1.03,.43-.14,.89,.1,1.03,.53,.14,.43-.1,.89-.53,1.03"/>
    <path class="cls-4" d="M103.6,59.18c.14,.43-.1,.89-.53,1.03-.43,.14-.89-.1-1.03-.53-.14-.43,.1-.89,.53-1.03,.43-.14,.89,.1,1.03,.53"/>
    <path class="cls-4" d="M101.9,56.55c-.43,.14-.89-.1-1.03-.53-.14-.43,.1-.89,.53-1.03,.43-.14,.89,.1,1.03,.53s-.1,.89-.53,1.03"/>
    <path class="cls-4" d="M100.75,52.94c-.43,.14-.89-.1-1.03-.53-.14-.43,.1-.89,.53-1.03,.43-.14,.89,.1,1.03,.53,.14,.43-.1,.89-.53,1.03"/>
    <path class="cls-4" d="M100.11,48.27c.14,.43-.1,.89-.53,1.03-.43,.14-.89-.1-1.03-.53-.14-.43,.1-.89,.53-1.03,.43-.14,.89,.1,1.03,.53"/>
    <path class="cls-4" d="M98.41,45.64c-.43,.14-.89-.1-1.03-.53-.14-.43,.1-.89,.53-1.03,.43-.14,.89,.1,1.03,.53,.14,.43-.1,.89-.53,1.03"/>
    <path class="cls-4" d="M97.26,42.04c-.43,.14-.89-.1-1.03-.53-.14-.43,.1-.89,.53-1.03,.43-.14,.89,.1,1.03,.53s-.1,.89-.53,1.03"/>
    <path class="cls-4" d="M96.62,37.36c.14,.43-.1,.89-.53,1.03-.43,.14-.89-.1-1.03-.53-.14-.43,.1-.89,.53-1.03,.43-.14,.89,.1,1.03,.53"/>
    <path class="cls-4" d="M94.97,34.88c-.43,.14-.89-.1-1.03-.53-.14-.43,.1-.89,.53-1.03,.43-.14,.89,.1,1.03,.53,.14,.43-.1,.89-.53,1.03"/>
    <path class="cls-4" d="M93.82,31.28c-.43,.14-.89-.1-1.03-.53-.14-.43,.1-.89,.53-1.03,.43-.14,.89,.1,1.03,.53,.14,.43-.1,.89-.53,1.03"/>
    <path class="cls-4" d="M93.18,26.6c.14,.43-.1,.89-.53,1.03-.43,.14-.89-.1-1.03-.53-.14-.43,.1-.89,.53-1.03,.43-.14,.89,.1,1.03,.53"/>
    <path class="cls-4" d="M91.49,23.97c-.43,.14-.89-.1-1.03-.53-.14-.43,.1-.89,.53-1.03,.43-.14,.89,.1,1.03,.53s-.1,.89-.53,1.03"/>
    <path class="cls-4" d="M90.33,20.37c-.43,.14-.89-.1-1.03-.53-.14-.43,.1-.89,.53-1.03,.43-.14,.89,.1,1.03,.53s-.1,.89-.53,1.03"/>
    <path class="cls-4" d="M89.7,15.69c.14,.43-.1,.89-.53,1.03-.43,.14-.89-.1-1.03-.53-.14-.43,.1-.89,.53-1.03,.43-.14,.89,.1,1.03,.53"/>
    <path class="cls-4" d="M16.16,53.09c-.26-.37-.16-.88,.21-1.14,.37-.26,.88-.16,1.14,.21,.26,.37,.16,.88-.21,1.14-.37,.26-.88,.16-1.14-.21"/>
    <path class="cls-4" d="M19.27,50.94c-.26-.37-.16-.88,.21-1.14,.37-.26,.88-.16,1.14,.21,.26,.37,.16,.88-.21,1.14-.37,.26-.88,.16-1.14-.21"/>
    <path class="cls-4" d="M23.56,48.97c-.37,.26-.88,.16-1.14-.21-.26-.37-.16-.88,.21-1.14,.37-.26,.88-.16,1.14,.21,.26,.37,.16,.88-.21,1.14"/>
    <path class="cls-4" d="M25.58,46.59c-.26-.37-.16-.88,.21-1.14,.37-.26,.88-.16,1.14,.21,.26,.37,.16,.88-.21,1.14-.37,.26-.88,.16-1.14-.21"/>
    <path class="cls-4" d="M28.7,44.44c-.26-.37-.16-.88,.21-1.14,.37-.26,.88-.16,1.14,.21,.26,.37,.16,.88-.21,1.14-.37,.26-.88,.16-1.14-.21"/>
    <path class="cls-4" d="M32.99,42.47c-.37,.26-.88,.16-1.14-.21-.26-.37-.16-.88,.21-1.14,.37-.26,.88-.16,1.14,.21,.26,.37,.16,.88-.21,1.14"/>
    <path class="cls-4" d="M35.01,40.08c-.26-.37-.16-.88,.21-1.14,.37-.26,.88-.16,1.14,.21,.26,.37,.16,.88-.21,1.14-.37,.26-.88,.16-1.14-.21"/>
    <path class="cls-4" d="M38.13,37.93c-.26-.37-.16-.88,.21-1.14,.37-.26,.88-.16,1.14,.21,.26,.37,.16,.88-.21,1.14-.37,.26-.88,.16-1.14-.21"/>
    <path class="cls-4" d="M42.42,35.96c-.37,.26-.88,.16-1.14-.21-.26-.37-.16-.88,.21-1.14,.37-.26,.88-.16,1.14,.21,.26,.37,.16,.88-.21,1.14"/>
    <path class="cls-4" d="M44.44,33.57c-.26-.37-.16-.88,.21-1.14,.37-.26,.88-.16,1.14,.21,.26,.37,.16,.88-.21,1.14-.37,.26-.88,.16-1.14-.21"/>
    <path class="cls-4" d="M47.55,31.42c-.26-.37-.16-.88,.21-1.14,.37-.26,.88-.16,1.14,.21,.26,.37,.16,.88-.21,1.14-.37,.26-.88,.16-1.14-.21"/>
    <path class="cls-4" d="M51.85,29.45c-.37,.26-.88,.16-1.14-.21-.26-.37-.16-.88,.21-1.14,.37-.26,.88-.16,1.14,.21,.26,.37,.16,.88-.21,1.14"/>
    <path class="cls-4" d="M53.74,27.15c-.26-.37-.16-.88,.21-1.14,.37-.26,.88-.16,1.14,.21,.26,.37,.16,.88-.21,1.14-.37,.26-.88,.16-1.14-.21"/>
    <path class="cls-4" d="M56.85,25c-.26-.37-.16-.88,.21-1.14,.37-.26,.88-.16,1.14,.21,.26,.37,.16,.88-.21,1.14-.37,.26-.88,.16-1.14-.21"/>
    <path class="cls-4" d="M61.14,23.03c-.37,.26-.88,.16-1.14-.21-.26-.37-.16-.88,.21-1.14,.37-.26,.88-.16,1.14,.21,.26,.37,.16,.88-.21,1.14"/>
    <path class="cls-4" d="M63.16,20.65c-.26-.37-.16-.88,.21-1.14,.37-.26,.88-.16,1.14,.21,.26,.37,.16,.88-.21,1.14-.37,.26-.88,.16-1.14-.21"/>
    <path class="cls-4" d="M66.28,18.5c-.26-.37-.16-.88,.21-1.14,.37-.26,.88-.16,1.14,.21,.26,.37,.16,.88-.21,1.14-.37,.26-.88,.16-1.14-.21"/>
    <path class="cls-4" d="M70.57,16.53c-.37,.26-.88,.16-1.14-.21-.26-.37-.16-.88,.21-1.14,.37-.26,.88-.16,1.14,.21,.26,.37,.16,.88-.21,1.14"/>
    <path class="cls-4" d="M172.5,41.91c.33-.31,.84-.3,1.16,.03,.31,.33,.3,.84-.02,1.16-.33,.31-.84,.3-1.16-.03-.31-.33-.3-.84,.03-1.16"/>
    <path class="cls-4" d="M175.12,44.64c.33-.31,.84-.3,1.16,.03,.31,.33,.3,.84-.02,1.16-.33,.31-.84,.3-1.16-.03-.31-.33-.3-.84,.03-1.16"/>
    <path class="cls-4" d="M177.75,48.56c-.31-.33-.3-.84,.02-1.16,.33-.31,.84-.3,1.16,.02,.31,.33,.3,.84-.03,1.16-.33,.31-.84,.3-1.16-.03"/>
    <path class="cls-4" d="M180.43,50.18c.33-.31,.84-.3,1.16,.03,.31,.33,.3,.84-.02,1.16-.33,.31-.84,.3-1.16-.03-.31-.33-.3-.84,.03-1.16"/>
    <path class="cls-4" d="M183.05,52.91c.33-.31,.84-.3,1.16,.03,.31,.33,.3,.84-.02,1.16-.33,.31-.84,.3-1.16-.03-.31-.33-.3-.84,.03-1.16"/>
    <path class="cls-4" d="M185.67,56.83c-.31-.33-.3-.84,.02-1.16,.33-.31,.84-.3,1.16,.02,.31,.33,.3,.84-.03,1.16-.33,.31-.84,.3-1.16-.03"/>
    <path class="cls-4" d="M188.36,58.45c.33-.31,.84-.3,1.16,.03,.31,.33,.3,.84-.02,1.16-.33,.31-.84,.3-1.16-.03-.31-.33-.3-.84,.03-1.16"/>
    <path class="cls-4" d="M190.97,61.19c.33-.31,.84-.3,1.16,.03,.31,.33,.3,.84-.02,1.16-.33,.31-.84,.3-1.16-.03-.31-.33-.3-.84,.03-1.16"/>
    <path class="cls-4" d="M193.6,65.11c-.31-.33-.3-.84,.02-1.16,.33-.31,.84-.3,1.16,.02,.31,.33,.3,.84-.03,1.16-.33,.31-.84,.3-1.16-.03"/>
    <path class="cls-4" d="M196.28,66.72c.33-.31,.84-.3,1.16,.03,.31,.33,.3,.84-.02,1.16-.33,.31-.84,.3-1.16-.03-.31-.33-.3-.84,.03-1.16"/>
    <path class="cls-4" d="M198.9,69.45c.33-.31,.84-.3,1.16,.03,.31,.33,.3,.84-.02,1.16-.33,.31-.84,.3-1.16-.03-.31-.33-.3-.84,.03-1.16"/>
    <path class="cls-4" d="M201.52,73.38c-.31-.33-.3-.84,.02-1.16,.33-.31,.84-.3,1.16,.02,.31,.33,.3,.84-.03,1.16-.33,.31-.84,.3-1.16-.03"/>
  </g>
  <g class="cls-6">
    <rect class="cls-12" x="72.95" width="23.14" height="23.14"/>
  </g>
  <g>
    <path class="cls-5" d="M80.81,6.93c0-2.05,1.66-3.71,3.71-3.71s3.71,1.66,3.71,3.71-1.66,3.71-3.71,3.71-3.71-1.66-3.71-3.71"/>
    <path class="cls-5" d="M84.52,10.64c-3.59,0-6.5,2.91-6.5,6.5h13c0-3.59-2.91-6.5-6.5-6.5"/>
  </g>
  <g class="cls-9">
    <rect class="cls-10" x="146.87" y="14.15" width="35.66" height="35.67"/>
  </g>
  <g>
    <path class="cls-5" d="M158.98,24.83c0-3.16,2.56-5.72,5.72-5.72s5.72,2.56,5.72,5.72-2.56,5.72-5.72,5.72-5.72-2.56-5.72-5.72"/>
    <path class="cls-5" d="M164.7,30.56c-5.53,0-10.02,4.48-10.02,10.02h20.03c0-5.53-4.48-10.02-10.02-10.02"/>
  </g>
  <g class="cls-8">
    <rect class="cls-11" x="197.31" y="68.81" width="24.08" height="24.08"/>
  </g>
  <g class="cls-7">
    <rect class="cls-13" y="48.28" width="18.79" height="18.79"/>
  </g>
  <path class="cls-5" d="M205.77,76.6c0-2.03,1.65-3.68,3.68-3.68s3.68,1.65,3.68,3.68-1.65,3.68-3.68,3.68-3.68-1.65-3.68-3.68"/>
  <path class="cls-5" d="M209.45,80.27c-3.56,0-6.44,2.88-6.44,6.44h12.88c0-3.56-2.88-6.44-6.44-6.44"/>
  <path class="cls-5" d="M6.66,55.28c0-1.51,1.22-2.73,2.73-2.73s2.74,1.22,2.74,2.73-1.23,2.74-2.74,2.74-2.73-1.22-2.73-2.74"/>
  <path class="cls-5" d="M9.39,58.02c-2.64,0-4.79,2.14-4.79,4.79H14.18c0-2.64-2.14-4.79-4.79-4.79"/>
</svg>