<?xml version="1.0" encoding="UTF-8"?>
<svg id="Layer_1" data-name="Layer 1" xmlns="http://www.w3.org/2000/svg" viewBox="0 0 448.48 306.18">
  <defs>
    <style>
      .cls-1 {
        fill: none;
        stroke: #404041;
        stroke-linecap: round;
        stroke-miterlimit: 10;
        stroke-width: 1.5px;
      }

      .cls-2 {
        fill: #006042;
      }

      .cls-3 {
        fill: #005bab;
      }

      .cls-4 {
        fill: #ba7119;
      }

      .cls-5 {
        fill: #c92f2f;
      }

      .cls-6 {
        fill: #404041;
      }
    </style>
  </defs>
  <path class="cls-3" d="M440.38,139.42H248.07c-4.47,0-8.1-3.63-8.1-8.1V8.1c0-4.47,3.63-8.1,8.1-8.1h192.31c4.47,0,8.1,3.63,8.1,8.1v123.22c0,4.47-3.63,8.1-8.1,8.1"/>
  <path class="cls-5" d="M440.38,303.51H248.07c-4.47,0-8.1-3.63-8.1-8.1v-123.22c0-4.47,3.63-8.1,8.1-8.1h192.31c4.47,0,8.1,3.63,8.1,8.1v123.22c0,4.47-3.63,8.1-8.1,8.1"/>
  <path class="cls-2" d="M204.42,139.42H12.11c-4.47,0-8.1-3.63-8.1-8.1V8.1C4.01,3.63,7.64,0,12.11,0H204.42c4.47,0,8.1,3.63,8.1,8.1v123.22c0,4.47-3.63,8.1-8.1,8.1"/>
  <path class="cls-4" d="M204.42,303.51H12.11c-4.47,0-8.1-3.63-8.1-8.1v-123.22c0-4.47,3.63-8.1,8.1-8.1H204.42c4.47,0,8.1,3.63,8.1,8.1v123.22c0,4.47-3.63,8.1-8.1,8.1"/>
  <line class="cls-1" x1="226.19" y1="8.95" x2="226.19" y2="295.59"/>
  <polygon class="cls-6" points="220.64 13.17 226.19 10.81 231.75 13.17 226.19 0 220.64 13.17"/>
  <polygon class="cls-6" points="226.19 306.18 220.09 291.26 226.19 294.8 232.29 291.26 226.19 306.18"/>
  <line class="cls-1" x1="439.52" y1="153.09" x2="10.59" y2="153.09"/>
  <polygon class="cls-6" points="435.31 147.54 437.67 153.09 435.31 158.65 448.48 153.09 435.31 147.54"/>
  <polygon class="cls-6" points="0 153.09 14.92 146.99 11.38 153.09 14.92 159.19 0 153.09"/>
</svg>