<?xml version="1.0" encoding="UTF-8"?>
<svg id="Layer_1" data-name="Layer 1" xmlns="http://www.w3.org/2000/svg" xmlns:xlink="http://www.w3.org/1999/xlink" viewBox="0 0 350.43 224.11">
  <defs>
    <style>
      .cls-1 {
        fill: none;
      }

      .cls-2 {
        clip-path: url(#clippath);
      }

      .cls-3 {
        fill: #f5f5f5;
      }

      .cls-4 {
        fill: #ff9b6c;
      }

      .cls-5 {
        fill: #fff;
      }

      .cls-6 {
        fill: #ececec;
      }

      .cls-7 {
        fill: #ffc09d;
      }

      .cls-8 {
        fill: #fafafa;
      }

      .cls-9 {
        fill: #ffb49e;
      }

      .cls-10 {
        fill: #ff4f5b;
      }

      .cls-11 {
        fill: #ff9178;
      }

      .cls-12 {
        fill: #bf654e;
      }

      .cls-13 {
        fill: #c78976;
      }

      .cls-14 {
        fill: #c92f2f;
      }

      .cls-15 {
        fill: #e1e1e1;
      }

      .cls-16 {
        fill: #375a64;
      }

      .cls-17 {
        fill: #1a2e35;
      }

      .cls-18 {
        clip-path: url(#clippath-1);
      }

      .cls-19 {
        clip-path: url(#clippath-4);
      }

      .cls-20 {
        clip-path: url(#clippath-3);
      }

      .cls-21 {
        clip-path: url(#clippath-2);
      }

      .cls-22 {
        clip-path: url(#clippath-7);
      }

      .cls-23 {
        clip-path: url(#clippath-8);
      }

      .cls-24 {
        clip-path: url(#clippath-6);
      }

      .cls-25 {
        clip-path: url(#clippath-5);
      }

      .cls-26 {
        clip-path: url(#clippath-9);
      }

      .cls-27 {
        clip-path: url(#clippath-14);
      }

      .cls-28 {
        clip-path: url(#clippath-13);
      }

      .cls-29 {
        clip-path: url(#clippath-12);
      }

      .cls-30 {
        clip-path: url(#clippath-10);
      }

      .cls-31 {
        clip-path: url(#clippath-15);
      }

      .cls-32 {
        clip-path: url(#clippath-17);
      }

      .cls-33 {
        clip-path: url(#clippath-16);
      }

      .cls-34 {
        clip-path: url(#clippath-19);
      }

      .cls-35 {
        clip-path: url(#clippath-11);
      }

      .cls-36 {
        clip-path: url(#clippath-18);
      }

      .cls-37 {
        opacity: .2;
      }

      .cls-38 {
        opacity: .3;
      }

      .cls-39 {
        opacity: .4;
      }

      .cls-40 {
        opacity: .5;
      }
    </style>
    <clipPath id="clippath">
      <rect class="cls-1" x="31.92" y="134.07" width="35.41" height="8.26"/>
    </clipPath>
    <clipPath id="clippath-1">
      <rect class="cls-1" x="57.95" y="220.78" width="3.42" height="2.72"/>
    </clipPath>
    <clipPath id="clippath-2">
      <rect class="cls-1" x="57.98" y="222.3" width="15.76" height="1.6"/>
    </clipPath>
    <clipPath id="clippath-3">
      <rect class="cls-1" x="57.93" y="219.51" width="9.45" height=".78"/>
    </clipPath>
    <clipPath id="clippath-4">
      <rect class="cls-1" x="88.5" y="220.27" width="3.5" height="2.78"/>
    </clipPath>
    <clipPath id="clippath-5">
      <rect class="cls-1" x="88.53" y="221.82" width="16.13" height="1.64"/>
    </clipPath>
    <clipPath id="clippath-6">
      <rect class="cls-1" x="88.47" y="218.97" width="9.68" height=".8"/>
    </clipPath>
    <clipPath id="clippath-7">
      <rect class="cls-1" x="250.72" y="219.52" width="3.84" height="3.14"/>
    </clipPath>
    <clipPath id="clippath-8">
      <rect class="cls-1" x="236.68" y="221.57" width="17.89" height="1.76"/>
    </clipPath>
    <clipPath id="clippath-9">
      <rect class="cls-1" x="223.28" y="193.65" width="4.77" height="3.14"/>
    </clipPath>
    <clipPath id="clippath-10">
      <rect class="cls-1" x="210.6" y="188.93" width="16.21" height="8"/>
    </clipPath>
    <clipPath id="clippath-11">
      <rect class="cls-1" x="274.28" y="106.2" width="3.19" height="18.45"/>
    </clipPath>
    <clipPath id="clippath-12">
      <rect class="cls-1" x="255.04" y="135.09" width="29.67" height="3.72"/>
    </clipPath>
    <clipPath id="clippath-13">
      <rect class="cls-1" x="147.39" y="220.6" width="3.45" height="2.64"/>
    </clipPath>
    <clipPath id="clippath-14">
      <rect class="cls-1" x="147.44" y="221.77" width="15.82" height="1.75"/>
    </clipPath>
    <clipPath id="clippath-15">
      <rect class="cls-1" x="113.07" y="121.38" width="38.12" height="43.32"/>
    </clipPath>
    <clipPath id="clippath-16">
      <rect class="cls-1" x="159.5" y="220.59" width="3.45" height="2.64"/>
    </clipPath>
    <clipPath id="clippath-17">
      <rect class="cls-1" x="159.55" y="221.75" width="15.82" height="1.75"/>
    </clipPath>
    <clipPath id="clippath-18">
      <rect class="cls-1" x="138.93" y="165.83" width="24.48" height="13.23"/>
    </clipPath>
    <clipPath id="clippath-19">
      <rect class="cls-1" x="183.65" y="70.6" width="4.87" height="18.28"/>
    </clipPath>
  </defs>
  <rect class="cls-6" x="253.09" y="3.29" width="67.25" height="120.81"/>
  <rect class="cls-8" x="255.78" y="6.8" width="61.18" height="113.7"/>
  <polygon class="cls-3" points="316.96 8.14 255.78 85.96 255.78 6.8 316.96 6.8 316.96 8.14"/>
  <rect class="cls-6" x="255.78" y="39.51" width="62.51" height="1.21"/>
  <rect class="cls-6" x="255.78" y="66.58" width="62.51" height="1.21"/>
  <rect class="cls-6" x="255.78" y="93.66" width="62.51" height="1.21"/>
  <rect class="cls-6" x="284.82" y="40.11" width="3.09" height="83.61"/>
  <rect class="cls-6" x="267.56" y="6.8" width="1.4" height="33.31"/>
  <rect class="cls-6" x="279.64" y="6.8" width="1.4" height="33.31"/>
  <rect class="cls-6" x="291.71" y="6.8" width="1.4" height="33.31"/>
  <rect class="cls-6" x="303.79" y="6.8" width="1.4" height="33.31"/>
  <rect class="cls-3" x="250.25" y="1.25" width="2.84" height="123.6"/>
  <polygon class="cls-15" points="323.18 125.19 320.34 124.1 320.34 1.25 323.18 1.25 323.18 125.19"/>
  <rect class="cls-15" x="250.25" width="72.93" height="3.3"/>
  <rect class="cls-15" x="248.23" y="125.6" width="76.88" height="3.07"/>
  <polygon class="cls-6" points="320.34 124.1 325.11 125.6 248.23 125.6 253.09 124.1 320.34 124.1"/>
  <g>
    <path class="cls-6" d="M336.16,172.95c2.72-1.4,5.92-1.58,8.94-1.09,1.62,.27,3.31,.75,4.42,1.97,1.1,1.22,1.31,3.36,.05,4.41-.75,.62-1.81,.72-2.78,.71-2.36-.03-4.98-.44-6.87,.98-1.08,.81-1.79,2.16-3.08,2.56-1.26,.39-2.68-.35-3.35-1.49-.67-1.14-.69-2.56-.38-3.84,0,0,.33-2.79,3.07-4.21"/>
    <path class="cls-6" d="M329.93,160.93c1.66,2.38,4.89,1.59,6.39,.14,1.5-1.45,2.13-3.55,2.71-5.55,1.32-4.58,2.65-9.38,1.67-14.04-.29-1.39-.81-2.78-1.79-3.82s-2.48-1.65-3.86-1.29c-1.63,.43-2.64,2.03-3.37,3.54-2.15,4.46-3.29,9.41-3.31,14.36,0,2.31,.26,4.74,1.57,6.65"/>
    <path class="cls-6" d="M325.37,164.34c1.8-2.14,2.15-5.27,1.34-7.95-.8-2.68-2.62-4.97-4.71-6.83-2.45-2.18-5.33-3.89-8.43-4.98-1.22-.43-2.51-.77-3.79-.65-1.29,.12-2.58,.78-3.18,1.93-.89,1.69-.04,3.75,.88,5.42,1.62,2.95,3.48,5.77,5.54,8.43,1.66,2.14,3.56,4.25,6.09,5.22,2.53,.97,5.16,.85,6.5-.9"/>
    <path class="cls-15" d="M329.82,196.75s.08-.38,.15-1.08c.08-.79,.17-1.77,.29-2.94,.14-1.24,.32-2.71,.66-4.32,.34-1.6,.88-3.34,1.57-5.1,.72-1.75,1.59-3.34,2.6-4.61,1.01-1.28,2.19-2.2,3.29-2.74,1.1-.54,2.09-.76,2.77-.86,.69-.07,1.07-.12,1.08-.15,0-.03-.39-.04-1.09-.02-.7,.05-1.73,.22-2.89,.75-1.16,.52-2.41,1.46-3.47,2.76-1.07,1.3-1.97,2.92-2.7,4.71-.7,1.79-1.23,3.54-1.56,5.18-.33,1.63-.48,3.12-.58,4.37-.09,1.25-.13,2.26-.15,2.96-.02,.7,0,1.09,.02,1.09"/>
    <path class="cls-15" d="M330.02,194.48s.02-.17,.03-.5c0-.38,0-.85,0-1.43,0-1.24,0-3.04,.06-5.26,.11-4.44,.49-9.22,1.23-15.96,.7-6.34,1.64-13.71,2.63-18.5,.21-1.09,.43-2.07,.63-2.93,.19-.86,.36-1.6,.51-2.21,.14-.57,.25-1.03,.34-1.39,.07-.32,.1-.49,.09-.49-.01,0-.07,.16-.17,.47-.11,.36-.25,.82-.42,1.37-.18,.6-.37,1.33-.59,2.19-.23,.85-.46,1.83-.69,2.92-.98,4.34-2.02,10.42-2.76,17.17-.74,6.75-1.07,12.9-1.1,17.35-.03,2.23,.02,4.03,.08,5.27,.03,.58,.06,1.06,.09,1.43,.03,.33,.05,.5,.06,.5"/>
    <path class="cls-15" d="M330.05,182.63s.03-.53-.01-1.5c-.05-.96-.19-2.35-.46-4.05-.29-1.7-.69-3.71-1.32-5.9-.27-1-.92-3.4-2.47-6.99-2.05-4.86-4.83-8.83-7.25-11.29-.57-.65-1.2-1.12-1.71-1.59-.26-.22-.49-.44-.73-.62-.24-.16-.46-.32-.66-.46-.8-.55-1.24-.83-1.26-.81-.07,.1,1.78,1.19,4.13,3.68,2.33,2.49,5.04,6.43,7.07,11.25,1.13,2.61,1.92,4.94,2.48,6.92,.65,2.17,1.08,4.16,1.4,5.85,.31,1.68,.49,3.06,.6,4.01,.09,.95,.15,1.48,.18,1.48"/>
    <polygon class="cls-15" points="318.59 203.54 319.78 219.82 340.69 219.82 341.88 203.54 318.59 203.54"/>
    <rect class="cls-15" x="316.57" y="197.13" width="27.8" height="6.42"/>
    <polygon class="cls-6" points="316.57 219.2 316.57 220.98 317.88 220.98 343.92 220.98 343.92 219.2 316.57 219.2"/>
    <polygon class="cls-15" points="319.16 224.11 317.88 220.98 342.92 220.98 341.43 224.11 319.16 224.11"/>
    <path class="cls-3" d="M341.49,208.86s-.03,.06-.1,.15c-.08,.11-.18,.25-.31,.42-.3,.38-.71,.9-1.22,1.56l-.05,.07-.05-.07c-.76-1.06-1.79-2.47-2.99-4.14h.17c-.89,1.26-1.88,2.66-2.95,4.17l-.09,.13-.1-.12c-1.09-1.29-2.27-2.7-3.49-4.16h.2c-.06,.07-.13,.16-.19,.24-1.08,1.36-2.13,2.67-3.12,3.92l-.1,.13-.1-.14c-1.06-1.5-2.05-2.9-2.95-4.17h.17c-1.45,1.66-2.68,3.07-3.63,4.15l-.06,.07-.05-.08c-.48-.8-.86-1.45-1.14-1.91-.12-.21-.22-.38-.29-.51-.06-.12-.09-.18-.09-.18,0,0,.05,.05,.12,.16,.09,.13,.19,.29,.32,.49,.29,.46,.69,1.09,1.19,1.88h-.11c.93-1.1,2.14-2.52,3.57-4.2l.09-.11,.08,.11c.9,1.26,1.9,2.66,2.97,4.15h-.2c.99-1.25,2.04-2.57,3.12-3.93,.07-.08,.13-.17,.19-.24l.1-.12,.1,.12c1.22,1.46,2.4,2.87,3.48,4.17h-.2c1.08-1.49,2.08-2.89,2.98-4.14l.09-.12,.09,.12c1.18,1.68,2.18,3.11,2.93,4.18h-.11c.53-.64,.96-1.15,1.27-1.52,.14-.16,.25-.29,.34-.39,.08-.09,.12-.13,.13-.13"/>
    <path class="cls-3" d="M342.17,203.44c0,.07-5.24,.13-11.7,.13s-11.7-.06-11.7-.13,5.24-.13,11.7-.13,11.7,.06,11.7,.13"/>
    <path class="cls-3" d="M343.23,221.15c0,.07-5.7,.13-12.72,.13s-12.72-.06-12.72-.13,5.69-.13,12.72-.13,12.72,.06,12.72,.13"/>
    <path class="cls-17" d="M347.99,223.35c0,.08-83.99,.15-187.57,.15S-.08,223.35,0,223.35c31.72,0,56.81-.15,160.42-.15s187.57,.07,187.57,.15"/>
    <rect class="cls-16" x="48.61" y="167.07" width="4.11" height="49.28"/>
    <path class="cls-16" d="M79.39,167.07H20.56c0-3.53,2.86-6.39,6.39-6.39h46.06c3.53,0,6.39,2.86,6.39,6.39"/>
    <path class="cls-17" d="M54.28,167.2c0,.08-1.62,.15-3.61,.15s-3.61-.07-3.61-.15,1.62-.15,3.61-.15,3.61,.07,3.61,.15"/>
    <path class="cls-16" d="M68.66,220.82h-.58c0-9.65-7.85-17.5-17.5-17.5s-17.5,7.85-17.5,17.5h-.58c0-9.97,8.11-18.08,18.08-18.08s18.08,8.11,18.08,18.08"/>
    <path class="cls-17" d="M35.49,220.49c0,1.5-1.21,2.71-2.71,2.71s-2.71-1.21-2.71-2.71,1.21-2.71,2.71-2.71,2.71,1.21,2.71,2.71"/>
    <path class="cls-16" d="M71.2,220.62c0,1.5-1.21,2.71-2.71,2.71s-2.71-1.21-2.71-2.71,1.21-2.71,2.71-2.71,2.71,1.21,2.71,2.71"/>
    <path class="cls-16" d="M68.49,216.36c0,.08-7.87,.15-17.57,.15s-17.58-.07-17.58-.15,7.87-.15,17.58-.15,17.57,.07,17.57,.15"/>
    <path class="cls-16" d="M19.21,118.29v36.28c0,4.76,3.86,8.62,8.61,8.62h27.95l-3.8-44.89c0-2.12-1.72-3.84-3.84-3.84H23.05c-2.12,0-3.84,1.72-3.84,3.84"/>
    <path class="cls-17" d="M29.1,160.69s-.12-.11-.31-.34c-.2-.23-.48-.58-.81-1.05-.66-.95-1.53-2.4-2.18-4.36-.32-.98-.6-2.09-.75-3.3-.17-1.21-.14-2.51-.15-3.87,0-2.72,0-5.71-.01-8.85,.02-6.26,.03-11.94,.04-16.08,.02-2.03,.04-3.69,.05-4.87,.01-.55,.02-.99,.03-1.32,.01-.3,.02-.46,.03-.46s.02,.16,.03,.46c0,.33,.02,.77,.03,1.32,.01,1.18,.03,2.84,.05,4.87,.01,4.14,.03,9.81,.04,16.08,0,3.14,0,6.12-.01,8.85,0,1.36-.04,2.65,.12,3.84,.13,1.19,.4,2.29,.71,3.26,.62,1.95,1.45,3.41,2.08,4.36,.32,.48,.58,.84,.76,1.08,.18,.24,.27,.37,.27,.38"/>
    <path class="cls-17" d="M44.32,160.58s-.32,.04-.89,.06c-.62,.02-1.44,.04-2.42,.06-2.04,.04-4.87,.08-7.99,.1-1.56,.01-3.04,.02-4.4,.03-1.35,0-2.56,.06-3.54,.32-.98,.24-1.69,.68-2.14,1.02-.45,.34-.65,.59-.68,.57,0,0,.04-.07,.14-.18,.1-.12,.25-.28,.47-.47,.43-.38,1.15-.85,2.16-1.13,1-.29,2.24-.37,3.59-.39,1.35-.04,2.84-.04,4.4-.05,3.12-.02,5.95-.03,7.99-.01,.98,.01,1.8,.02,2.42,.03,.57,.01,.89,.03,.89,.05"/>
    <path class="cls-13" d="M106.62,99.29l-2.73,2.8-5.46-5.82,1.82-3.11c.1-.4,.2-.84,.29-1.34,.11-.59,.12-1.19,.03-1.78-.1-.72-.28-1.67-.54-2.15-.31-.61,.25-1.28,.79-1.01,.55,.27,1.45,1.92,1.58,4.11,.13,2.2,2.1-.6,2.83-1.61,.73-1.01,3.15-4.01,3.64-4.02,.71-.02,.86,.76,.1,1.75-.77,1-2.82,4.11-2.29,4.49,0,0,0,0,.02,0,1.13-.13,2.22,.49,2.7,1.51,.47,.99,.98,2.39,.5,3-.91,1.14-3.3,3.19-3.3,3.19"/>
    <polygon class="cls-13" points="98.43 96.27 78.82 112.41 86.7 123.41 103.89 102.09 98.43 96.27"/>
    <path class="cls-12" d="M108.55,92.06s-.35,.45-.98,1.1c-.34,.35-.72,.73-1.12,1.13-.22,.21-.44,.43-.67,.66-.24,.22-.53,.5-.98,.49-.22-.01-.43-.14-.54-.31-.11-.17-.15-.37-.14-.56,.03-.39,.26-.67,.46-.9,.41-.45,.8-.82,1.14-1.12,.69-.6,1.16-.9,1.19-.87,.03,.04-.4,.4-1.04,1.02-.32,.32-.7,.7-1.08,1.15-.18,.22-.36,.47-.38,.74-.02,.27,.14,.56,.41,.57,.26,.02,.54-.2,.76-.41,.23-.22,.46-.44,.68-.65,.42-.39,.81-.75,1.16-1.09,.67-.61,1.09-.98,1.12-.95"/>
    <path class="cls-12" d="M109.25,93.48s-.33,.43-.94,1.06c-.33,.33-.69,.7-1.07,1.09-.21,.2-.4,.42-.66,.64-.13,.1-.27,.21-.45,.27-.17,.07-.39,.09-.59,0-.41-.19-.51-.65-.42-1,.09-.35,.32-.6,.51-.81,.4-.43,.78-.78,1.11-1.07,.66-.57,1.12-.86,1.14-.83,.03,.03-.38,.38-1,.99-.31,.3-.67,.67-1.05,1.1-.18,.21-.37,.44-.43,.7-.06,.24,.03,.57,.26,.66,.23,.1,.51-.05,.74-.23,.22-.19,.44-.41,.65-.61,.4-.37,.77-.72,1.12-1.04,.64-.59,1.05-.94,1.08-.91"/>
    <path class="cls-12" d="M110.04,94.82s-.32,.42-.9,1.02c-.32,.32-.66,.67-1.03,1.04-.2,.19-.39,.41-.67,.6-.14,.09-.3,.17-.49,.18-.19,.02-.4-.05-.54-.19-.28-.29-.29-.72-.16-1.03,.13-.31,.35-.53,.54-.73,.38-.4,.75-.75,1.07-1.02,.64-.55,1.08-.82,1.1-.79,.03,.03-.37,.37-.96,.95-.3,.29-.64,.64-1.01,1.05-.18,.2-.37,.41-.47,.66-.11,.23-.07,.54,.1,.71,.17,.17,.45,.13,.68-.02,.23-.14,.43-.36,.63-.55,.38-.36,.74-.69,1.07-1,.62-.56,1.01-.9,1.04-.87"/>
    <path class="cls-12" d="M103.81,98.21s.07-.32,.13-.83c.07-.5,.06-1.22-.19-1.94-.25-.73-.7-1.29-1.06-1.64-.36-.36-.64-.52-.62-.56,.01-.03,.33,.07,.76,.41,.42,.33,.92,.91,1.2,1.7,.27,.78,.24,1.56,.12,2.07-.12,.52-.31,.81-.34,.79"/>
    <path class="cls-14" d="M65.04,114.54l2.92,29.37-36.08,.79,.19-23.65-2.61-20.39c1.71-9.54,15.09-10.2,15.09-10.2l10.5-.17s4.94-.65,10.33,2.29c0,0,10.65,5.8,10.56,20.54"/>
    <path class="cls-14" d="M32.21,95.69c-3.15,3.01-6.2,9.05-5.07,21.15l16.78-.69-.43-16.55c-.04-1.68-.84-3.24-2.16-4.27-2.72-2.11-6.62-2.01-9.12,.37"/>
    <path class="cls-8" d="M67.33,139.71s-.1,.09-.3,.22c-.21,.13-.53,.31-.97,.46-.88,.31-2.28,.48-3.93,.15-1.65-.3-3.48-1.12-5.59-1.68-2.11-.54-4.54-.76-7.03-.44-2.51,.29-4.75,1.22-6.8,2.01-2.04,.81-3.96,1.42-5.63,1.57-1.67,.17-3.04-.07-3.92-.38-.44-.16-.77-.32-.98-.44-.21-.12-.32-.2-.32-.2,.02-.03,.45,.25,1.33,.54,.88,.27,2.22,.48,3.86,.29,1.64-.17,3.52-.79,5.55-1.62,2.03-.81,4.31-1.76,6.86-2.05,2.54-.33,5-.1,7.14,.47,1.07,.28,2.05,.65,2.97,.97,.92,.32,1.78,.6,2.59,.77,1.61,.34,2.98,.22,3.85-.06,.88-.27,1.29-.6,1.31-.57"/>
    <g class="cls-37">
      <g class="cls-2">
        <path d="M31.92,139.5c.12,.1,.02,.02,.14,.12,3.88,3.04,9.56,3.6,13.95,1.34,1.69-.87,3.2-2.12,5.01-2.74,2.56-.87,5.36-.37,8.03,.06,2.67,.43,5.86,.71,8.28-.5l-.32-3.71-35.01,.91"/>
      </g>
    </g>
    <path class="cls-10" d="M67.4,221.28l-.09-3.51-9.38,.32,.05,5.48,.58,.04c2.58,.15,13.13,.57,14.86,.05,1.92-.58-6.02-2.38-6.02-2.38"/>
    <g class="cls-40">
      <g class="cls-18">
        <path class="cls-5" d="M61.37,223.5c-.13-.78-.5-1.57-1.13-2.05-.62-.49-1.2-.76-2.29-.63l.04,2.62,3.38,.07Z"/>
      </g>
    </g>
    <g class="cls-40">
      <g class="cls-21">
        <path class="cls-5" d="M71.28,222.3s2.78,.81,2.43,1.27c-.35,.46-11.03,.43-15.73,0v-.21s12.47,.14,12.47,.14c0,0,.29-1.18,.83-1.2"/>
      </g>
    </g>
    <path class="cls-17" d="M57.85,223.35s.05,.01,.16,.02c.14,0,.29,.02,.46,.03,.46,.02,1.03,.05,1.7,.08,1.43,.06,3.42,.11,5.61,.11,2.19,0,4.18-.03,5.61-.08,.67-.03,1.24-.05,1.7-.07,.17,0,.32-.02,.46-.03,.11,0,.16-.01,.16-.02s-.06,0-.16,0c-.14,0-.29,0-.46,0-.46,0-1.03,.02-1.7,.03-1.44,.03-3.42,.05-5.61,.04-2.19,0-4.17-.04-5.61-.08-.67-.02-1.24-.03-1.7-.04-.17,0-.32,0-.46,0-.11,0-.16,0-.16,0"/>
    <path class="cls-17" d="M70.44,223.64s.06-.4,.32-.81c.25-.41,.6-.62,.58-.65,0-.03-.41,.15-.68,.59-.27,.44-.25,.88-.22,.87"/>
    <path class="cls-17" d="M67.69,222.24s.16-.14,.3-.36c.14-.22,.23-.4,.2-.42s-.16,.14-.3,.36-.23,.4-.2,.42"/>
    <path class="cls-17" d="M66.93,221.83s.17-.07,.33-.22c.16-.15,.28-.28,.26-.3-.02-.02-.17,.07-.33,.22-.16,.14-.28,.28-.25,.3"/>
    <path class="cls-17" d="M66.46,220.95s.22,.06,.49,.06c.27,0,.49-.02,.49-.05s-.22-.06-.49-.06c-.27,0-.49,.02-.49,.05"/>
    <path class="cls-17" d="M66.29,220.33s.23,.14,.54,.16c.32,.03,.57-.04,.56-.07,0-.03-.25-.01-.55-.04-.3-.02-.54-.08-.55-.05"/>
    <path class="cls-17" d="M68.01,221.42s.23,.04,.6,0c.18-.02,.4-.06,.64-.14,.12-.04,.24-.07,.37-.15,.06-.04,.12-.1,.15-.19,.02-.09-.02-.19-.09-.24-.57-.3-1.15,.02-1.36,.32-.12,.15-.17,.3-.2,.4-.02,.1-.02,.16-.02,.16,.02,0,.04-.24,.27-.51,.11-.13,.29-.27,.51-.33,.21-.06,.51-.08,.72,.05,.1,.07,.06,.18-.05,.25-.1,.06-.23,.1-.34,.14-.23,.08-.44,.13-.62,.16-.36,.06-.59,.06-.59,.08"/>
    <path class="cls-17" d="M68.16,221.45s.1-.15,.07-.42c-.01-.13-.06-.29-.16-.44-.11-.13-.24-.32-.5-.31-.14,.02-.21,.18-.19,.28,.01,.1,.06,.2,.1,.27,.09,.15,.19,.27,.28,.36,.19,.18,.34,.26,.34,.24,.01-.01-.12-.11-.29-.3-.08-.1-.17-.22-.25-.36-.08-.13-.14-.35,.01-.38,.15-.01,.3,.14,.4,.26,.09,.13,.15,.27,.17,.39,.04,.25-.01,.4,0,.4"/>
    <path class="cls-17" d="M58.04,220.8s.27-.02,.69,.03c.42,.05,1,.22,1.51,.62,.51,.41,.8,.94,.94,1.33,.14,.4,.15,.67,.18,.67,0,0,.01-.07,0-.19,0-.12-.04-.3-.1-.5-.12-.42-.42-.97-.94-1.4-.53-.42-1.14-.59-1.57-.62-.22-.01-.39,0-.51,.01s-.18,.04-.18,.04"/>
    <path class="cls-17" d="M62.55,222.59s.6,.13,1.36,.14c.76,0,1.37-.08,1.37-.11,0-.03-.61,0-1.37,0-.75,0-1.36-.06-1.37-.03"/>
    <path class="cls-17" d="M60.71,222.59s.05,.13,.11,.27c.06,.14,.09,.26,.13,.26,.03,0,.05-.15-.02-.31-.07-.16-.2-.25-.21-.22"/>
    <path class="cls-17" d="M60.03,221.72s.04,.12,.13,.22c.1,.1,.19,.16,.22,.14,.02-.02-.04-.12-.13-.22-.1-.1-.19-.16-.21-.14"/>
    <path class="cls-17" d="M59.04,221.33s.13,.03,.27,.08c.14,.04,.24,.12,.26,.1,.02-.02-.05-.15-.22-.21-.17-.06-.31,0-.3,.03"/>
    <path class="cls-17" d="M58.34,221.14s.04,.08,.12,.11c.08,.03,.15,.03,.16,0,.01-.03-.04-.08-.12-.11-.08-.03-.15-.03-.16,0"/>
    <g class="cls-38">
      <g class="cls-20">
        <polygon points="57.95 220.29 67.38 219.89 67.38 219.51 57.93 219.51 57.95 220.29"/>
      </g>
    </g>
    <path class="cls-10" d="M98.16,220.78l-.09-3.59-9.61,.33,.05,5.61,.59,.04c2.64,.15,13.44,.58,15.2,.05,1.97-.59-6.16-2.44-6.16-2.44"/>
    <g class="cls-40">
      <g class="cls-19">
        <path class="cls-5" d="M92,223.05c-.14-.8-.52-1.6-1.16-2.1-.64-.5-1.23-.78-2.34-.65l.04,2.68,3.46,.07Z"/>
      </g>
    </g>
    <g class="cls-40">
      <g class="cls-25">
        <path class="cls-5" d="M102.14,221.82s2.85,.83,2.49,1.3c-.36,.47-11.28,.44-16.1,0l.02-.21,12.75,.14s.29-1.21,.85-1.23"/>
      </g>
    </g>
    <path class="cls-17" d="M88.39,222.9s.06,.01,.16,.02c.14,0,.3,.02,.47,.03,.47,.02,1.05,.05,1.74,.08,1.47,.06,3.5,.11,5.74,.12,2.24,0,4.27-.03,5.74-.08,.68-.03,1.27-.05,1.74-.07,.18,0,.33-.02,.47-.03,.11,0,.17-.01,.16-.02,0,0-.06,0-.17,0-.14,0-.3,0-.47,0-.47,0-1.05,.02-1.74,.03-1.47,.03-3.5,.05-5.74,.04-2.24,0-4.27-.05-5.74-.08-.69-.02-1.27-.03-1.74-.04-.18,0-.33,0-.47,0-.11,0-.16,0-.16,0"/>
    <path class="cls-17" d="M101.28,223.2s.06-.41,.33-.83c.26-.42,.61-.63,.6-.66,0-.03-.42,.15-.69,.6-.28,.45-.26,.9-.23,.89"/>
    <path class="cls-17" d="M98.46,221.76s.16-.15,.3-.37c.14-.22,.23-.41,.21-.43-.03-.02-.16,.15-.3,.37-.14,.22-.23,.41-.2,.43"/>
    <path class="cls-17" d="M97.69,221.35s.17-.08,.34-.22c.17-.15,.28-.29,.26-.31-.02-.02-.17,.08-.34,.22-.17,.15-.28,.29-.26,.31"/>
    <path class="cls-17" d="M97.2,220.44s.22,.06,.5,.07,.5-.02,.5-.05c0-.03-.22-.06-.5-.07s-.5,.02-.5,.05"/>
    <path class="cls-17" d="M97.04,219.81s.23,.14,.56,.16c.32,.03,.58-.04,.58-.07,0-.03-.26-.01-.57-.04-.31-.02-.56-.08-.57-.05"/>
    <path class="cls-17" d="M98.79,220.92s.23,.04,.61,0c.19-.02,.41-.07,.65-.14,.12-.04,.25-.07,.38-.15,.06-.04,.13-.1,.15-.19,.03-.09-.02-.2-.09-.25-.59-.31-1.18,.02-1.39,.33-.12,.15-.18,.31-.2,.41-.02,.1-.02,.16-.02,.17,.02,0,.04-.24,.28-.52,.12-.14,.3-.27,.53-.34,.22-.06,.53-.08,.73,.05,.1,.07,.06,.19-.05,.25-.1,.07-.23,.1-.35,.15-.23,.08-.45,.13-.63,.16-.37,.06-.6,.06-.6,.08"/>
    <path class="cls-17" d="M98.95,220.96s.1-.15,.07-.43c-.02-.14-.06-.3-.17-.45-.11-.14-.25-.32-.51-.31-.14,.02-.21,.18-.19,.28,.01,.11,.06,.2,.1,.27,.09,.15,.2,.28,.29,.37,.19,.19,.34,.26,.35,.25,.01-.01-.12-.11-.29-.31-.08-.1-.17-.22-.26-.37-.08-.13-.14-.36,.01-.39,.15-.01,.31,.14,.4,.26,.1,.13,.15,.28,.17,.4,.05,.25-.01,.41,0,.41"/>
    <path class="cls-17" d="M88.59,220.28s.27-.02,.71,.03c.43,.05,1.02,.23,1.54,.64,.52,.42,.82,.96,.96,1.37,.15,.41,.16,.69,.18,.68,0,0,.01-.07,0-.19,0-.12-.04-.3-.1-.52-.12-.42-.43-1-.97-1.43-.54-.43-1.16-.6-1.6-.63-.22-.02-.4,0-.53,.01-.12,.02-.19,.04-.19,.04"/>
    <path class="cls-17" d="M93.2,222.12s.62,.13,1.4,.14c.78,.01,1.4-.08,1.4-.11,0-.03-.63,0-1.4,0-.77,0-1.39-.06-1.4-.03"/>
    <path class="cls-17" d="M91.33,222.12s.05,.13,.11,.28c.07,.14,.1,.27,.13,.27,.03,0,.05-.15-.03-.32-.07-.17-.2-.25-.22-.23"/>
    <path class="cls-17" d="M90.62,221.24s.04,.12,.14,.22c.1,.1,.2,.16,.22,.14,.02-.02-.04-.12-.14-.22-.1-.1-.2-.16-.22-.14"/>
    <path class="cls-17" d="M89.61,220.83s.13,.03,.27,.08c.14,.05,.24,.12,.27,.1,.03-.02-.05-.15-.23-.21-.17-.06-.32,0-.31,.03"/>
    <path class="cls-17" d="M88.89,220.64s.04,.08,.12,.11c.08,.03,.15,.03,.16,0,.01-.03-.04-.08-.12-.11-.08-.03-.15-.03-.16,0"/>
    <g class="cls-38">
      <g class="cls-24">
        <polygon points="88.49 219.77 98.15 219.36 98.15 218.97 88.47 218.97 88.49 219.77"/>
      </g>
    </g>
    <path class="cls-17" d="M90.12,144.25l-38.34-.48,8.01,18.02,21.99,.17c1.48,.01,2.69,1.18,2.76,2.66l2.36,55.13,14.83-1.12-1.5-63.11c-.13-5.74-4.42-10.52-10.11-11.27"/>
    <path class="cls-17" d="M53.7,163.27l1.63,56.94,18.39-1.31s-1.01-53.7-2.39-68.45c-.94-10.09-39.45-5.75-39.45-5.75-.56,20.09,21.82,18.57,21.82,18.57"/>
    <path class="cls-16" d="M53.48,158.82c.08,0,.22,1.14,.3,2.56,.08,1.42,.08,2.57,0,2.57-.08,0-.22-1.14-.3-2.56-.08-1.42-.08-2.57,0-2.58"/>
    <path class="cls-16" d="M52.8,143.88s.11-.01,.33-.01c.25,0,.56,.01,.94,.02,.81,.02,1.99,.06,3.45,.15,1.46,.08,3.19,.21,5.1,.49,1.9,.31,4.01,.87,5.91,2.12,.47,.31,.89,.69,1.27,1.1,.37,.42,.65,.91,.83,1.42,.34,1.01,.5,2.02,.61,2.99,.21,1.93,.2,3.67,.21,5.12,0,1.42,0,2.59,0,3.45,0,.38,0,.69,0,.94,0,.21,0,.33-.01,.33-.01,0-.03-.11-.05-.32-.02-.21-.05-.53-.07-.94-.04-.81-.07-1.99-.1-3.45-.04-1.45-.06-3.19-.28-5.09-.12-.95-.28-1.94-.61-2.92-.32-.96-1.09-1.76-1.99-2.37-1.83-1.21-3.91-1.78-5.78-2.1-1.89-.3-3.62-.45-5.07-.56-1.42-.1-2.58-.18-3.44-.24-.38-.03-.69-.06-.93-.08-.21-.02-.33-.04-.32-.05"/>
    <path class="cls-17" d="M27.15,116.84s.1,.01,.29,.01c.22,0,.5,0,.84-.02,.77-.03,1.81-.07,3.08-.11,2.6-.11,6.2-.28,10.16-.49,.7-.04,1.38-.07,2.03-.11h.13s0-.14,0-.14c-.02-3.47-.04-6.54-.05-8.8-.02-1.08-.03-1.95-.04-2.61,0-.28-.02-.51-.02-.7,0-.16-.02-.24-.03-.24s-.02,.08-.03,.24c0,.19-.01,.42-.02,.7-.01,.65-.02,1.53-.04,2.61-.01,2.25-.03,5.33-.05,8.8l.13-.14c-.65,.03-1.34,.07-2.03,.1-3.97,.21-7.56,.41-10.16,.57-1.27,.08-2.31,.15-3.08,.2-.34,.03-.61,.05-.83,.07-.19,.02-.29,.03-.29,.04"/>
    <path class="cls-17" d="M34.93,93.03c0,.06,.75-.18,1.96-.06,1.19,.11,2.85,.68,4.15,1.99,1.3,1.32,1.9,2.95,2.13,4.12,.24,1.19,.19,1.96,.25,1.95,.02,0,.05-.19,.06-.53,.01-.34,0-.85-.11-1.46-.19-1.21-.78-2.92-2.13-4.29-1.36-1.37-3.1-1.93-4.34-1.99-.62-.04-1.12,.02-1.46,.1-.34,.07-.52,.15-.51,.16"/>
    <path class="cls-17" d="M65.05,101.5s-.08,.6-.1,1.59c-.02,.99-.03,2.36,0,3.87,.03,1.43,.06,2.73,.08,3.79,0,.6,.01,1.04,.02,1.47,0-.49,0-.98,.02-1.67,.02-1.06,.05-2.36,.08-3.79,.03-1.45,.02-2.75,0-3.71-.02-.95-.06-1.55-.1-1.55"/>
    <path class="cls-13" d="M29.1,116.85l.4,16.54c.21,3.87,3.83,6.63,7.62,5.81l25.01-6.92,1.88-9.24-23.39,4.49-.3-11.24-11.23,.56Z"/>
    <path class="cls-12" d="M37.98,131.57s-.11-.3-.08-.79c.03-.49,.2-1.18,.62-1.82,.42-.64,.99-1.07,1.43-1.29,.44-.23,.75-.27,.76-.24,.05,.08-1.15,.48-1.94,1.69-.8,1.21-.7,2.46-.79,2.45"/>
    <path class="cls-8" d="M43.26,105.75s0,.07-.02,.2c-.02,.13-.07,.32-.14,.56-.17,.47-.5,1.15-1.14,1.79-.63,.64-1.59,1.26-2.79,1.44-1.21,.18-2.53-.14-3.81-.58-1.29-.43-2.5-.87-3.66-.93-1.15-.08-2.17,.28-2.92,.72-.75,.45-1.24,.98-1.54,1.37-.3,.39-.42,.64-.45,.63,0,0,.01-.07,.07-.19,.05-.12,.15-.29,.28-.5,.28-.42,.76-.99,1.52-1.48,.76-.48,1.83-.88,3.04-.81,1.21,.05,2.46,.5,3.74,.92,1.27,.43,2.54,.74,3.68,.59,1.14-.15,2.06-.72,2.69-1.32,.63-.6,.98-1.24,1.18-1.69,.19-.45,.24-.73,.27-.72"/>
    <path class="cls-8" d="M41.69,95.5s-.08,.15-.29,.37c-.21,.22-.53,.53-.96,.85-.86,.65-2.25,1.36-3.92,1.57-1.67,.21-3.19-.15-4.18-.57-.5-.21-.89-.43-1.14-.59-.25-.17-.38-.28-.37-.29,.03-.05,.59,.33,1.59,.69,.99,.37,2.47,.67,4.07,.47,1.61-.2,2.96-.85,3.84-1.45,.88-.6,1.33-1.09,1.37-1.06"/>
    <path class="cls-8" d="M72.96,101.65s-.23-.4-.88-.86c-.63-.47-1.76-.9-3.18-.8-1.42,.08-3,.83-4.58,1.85-.8,.5-1.62,1.07-2.54,1.58-.91,.5-1.91,.96-3.02,1.15-1.11,.21-2.24,.06-3.22-.31-.99-.35-1.87-.86-2.69-1.35-1.61-.99-3.11-1.86-4.52-2.08-1.4-.24-2.57,.13-3.23,.56-.67,.43-.89,.85-.92,.82,0,0,.05-.1,.17-.28,.13-.17,.35-.41,.68-.64,.66-.46,1.86-.89,3.32-.67,1.47,.2,3.01,1.07,4.62,2.05,.82,.48,1.68,.97,2.64,1.31,.96,.35,2.02,.49,3.08,.29,1.06-.18,2.04-.63,2.93-1.12,.9-.49,1.72-1.05,2.53-1.56,1.6-1.02,3.23-1.77,4.71-1.83,1.47-.07,2.63,.41,3.26,.92,.33,.25,.52,.5,.65,.67,.12,.18,.17,.28,.16,.28"/>
    <path class="cls-8" d="M65.05,92.79s-.41,.34-1.18,.69c-.77,.36-1.9,.72-3.2,.86-1.3,.14-2.48,.02-3.31-.16-.83-.18-1.31-.39-1.3-.42,.02-.1,2.04,.58,4.58,.29,2.55-.26,4.37-1.36,4.41-1.27"/>
    <path class="cls-8" d="M60.42,117.81s-.22-.2-.68-.47c-.45-.27-1.17-.55-2.11-.59-.94-.06-2.05,.15-3.21,.62-1.16,.45-2.37,1.14-3.73,1.69-2.72,1.12-5.47,1.33-7.36,.94-.95-.18-1.68-.46-2.16-.7-.24-.11-.42-.23-.54-.3-.12-.07-.18-.12-.18-.12,.03-.07,1.04,.62,2.91,.92,1.85,.33,4.54,.09,7.21-1.01,1.33-.54,2.55-1.23,3.74-1.67,1.18-.47,2.35-.66,3.32-.58,.97,.08,1.72,.4,2.16,.7,.23,.15,.38,.29,.48,.39,.1,.1,.14,.16,.14,.17"/>
    <path class="cls-13" d="M51.37,97.59h0c3.33,0,6.02-2.72,5.98-6.05-.02-2.08-.06-3.88-.06-3.88,0,0,4.81-.45,5.16-5.21,.35-4.76,.2-15.75,.2-15.75-5.37-2.71-11.78-2.3-16.76,1.06l-.74,.5,.23,23.4c.03,3.28,2.7,5.93,5.98,5.93"/>
    <path class="cls-12" d="M57.31,87.59s-3.03,.06-6.1-2.15c0,0,1.26,3.52,6.04,3.38l.07-1.24Z"/>
    <path class="cls-13" d="M46.39,73.54c-.09-.03-3.01-.41-2.74,3.04,.28,3.45,3.67,2.03,3.67,1.93,0-.1-.93-4.97-.93-4.97"/>
    <path class="cls-12" d="M46.17,77.38s-.06,.05-.16,.1c-.09,.05-.26,.1-.45,.04-.38-.1-.73-.66-.8-1.28-.03-.31,0-.62,.1-.88,.08-.26,.23-.45,.42-.5,.18-.06,.32,.04,.37,.14,.05,.09,.04,.16,.06,.17,.01,0,.07-.06,.03-.2-.02-.07-.07-.14-.15-.21-.09-.06-.21-.09-.34-.06-.26,.04-.49,.3-.59,.59-.12,.29-.17,.63-.13,.98,.08,.69,.49,1.32,1,1.42,.25,.04,.44-.05,.54-.14,.1-.09,.11-.17,.1-.18"/>
    <path class="cls-17" d="M62.69,67.53c1.18-.29,1.6-2.05,1.56-3.26-.04-1.21-.88-2.32-1.98-2.83s-2.42-.43-3.53,.06c-.33-1.76-2.06-3.15-3.85-3.1-1.79,.05-3.43,1.53-3.67,3.3-.11-.92-1.16-1.43-2.08-1.49-.92-.05-1.91,.22-2.51,.92-.6,.7-.66,1.88,.02,2.51-1.03-.12-2.12,.1-2.96,.71-.84,.61-1.39,1.64-1.31,2.67,.08,1.03,.85,2.01,1.86,2.22,.35,.07,.43-.16,.62,.14,.1,.17,.14,.8,.14,1-.03,1.14-.04,2.12,.19,3.26,.6-.3,1.37,.13,1.66,.74,.29,.61,.24,1.32,.19,1.99,.29,.44,1.03,.31,1.35-.11,.32-.42,.34-.99,.35-1.52,.02-1.84,.05-3.67,.07-5.51,.54,.3,1.23,.3,1.77,0,.54-.3,.91-.89,.94-1.51,.78,.75,1.89,1.12,2.96,.99,1.07-.13,2.06-.76,2.64-1.67,.57,.45,1.15,.91,1.81,1.2,.66,.3,1.43,.42,2.12,.18,.69-.24,1.65-.18,1.64-.91"/>
    <path class="cls-17" d="M61.4,74.33c.01,.35-.28,.65-.64,.67-.37,.02-.68-.25-.69-.6-.01-.35,.28-.65,.64-.67,.37-.02,.68,.25,.69,.6"/>
    <path class="cls-17" d="M61.55,73.58c-.08,.09-.59-.29-1.31-.28-.72,0-1.24,.36-1.32,.27-.04-.04,.05-.2,.28-.36,.23-.17,.61-.33,1.06-.33,.45,0,.82,.17,1.04,.34,.22,.17,.3,.33,.26,.37"/>
    <path class="cls-17" d="M54.37,74.5c.01,.35-.28,.65-.64,.67-.37,.02-.67-.25-.69-.6-.01-.35,.28-.65,.64-.67,.37-.02,.68,.25,.69,.6"/>
    <path class="cls-17" d="M54.49,73.71c-.08,.09-.59-.29-1.31-.28-.72,0-1.24,.36-1.32,.27-.04-.04,.04-.2,.28-.36,.23-.17,.61-.33,1.06-.33,.45,0,.82,.17,1.04,.34,.22,.17,.29,.33,.26,.37"/>
    <path class="cls-17" d="M57.09,79.04s.44-.12,1.17-.21c.18-.02,.36-.05,.39-.18,.04-.13-.03-.33-.12-.54-.17-.44-.35-.91-.54-1.4-.75-1.99-1.3-3.62-1.22-3.65,.08-.03,.76,1.56,1.51,3.55,.18,.49,.35,.96,.52,1.4,.07,.21,.19,.45,.1,.72-.05,.14-.18,.24-.3,.27-.12,.04-.22,.04-.31,.04-.73,.04-1.18,.04-1.18,0"/>
    <path class="cls-17" d="M54.98,79.54c.12,0,.12,.77,.79,1.33,.67,.55,1.5,.47,1.5,.58,.01,.05-.18,.15-.53,.16-.35,.01-.85-.1-1.26-.44-.41-.34-.58-.79-.61-1.11-.03-.33,.06-.52,.11-.52"/>
    <path class="cls-17" d="M54.67,70.9c-.07,.2-.79,.1-1.63,.2-.85,.08-1.52,.33-1.64,.16-.05-.08,.07-.27,.34-.46,.27-.19,.71-.37,1.21-.43,.51-.05,.97,.03,1.28,.15,.31,.12,.47,.28,.44,.37"/>
    <path class="cls-17" d="M61.28,71.5c-.13,.16-.62,0-1.22-.01-.6-.03-1.1,.11-1.22-.06-.05-.08,.03-.25,.25-.4,.22-.15,.58-.28,.99-.27,.41,.01,.76,.16,.97,.33,.21,.17,.28,.33,.22,.41"/>
    <path class="cls-16" d="M42.07,66.53s0,.21,.22,.51c.22,.3,.71,.59,1.4,.75,.68,.15,1.57,.33,2.54,.1,.48-.12,.98-.35,1.37-.74,.38-.38,.7-.97,.52-1.54-.08-.27-.35-.47-.64-.5-.3-.04-.56,.17-.58,.48-.05,.63,.49,1.26,1.12,1.55,.65,.31,1.45,.32,2.16,.02,.71-.29,1.35-.83,1.84-1.49,.23-.33,.42-.71,.43-1.1,.01-.39-.22-.75-.61-.85-.37-.11-.82-.01-1.09,.28-.27,.3-.37,.74-.31,1.16,.13,.85,.96,1.47,1.83,1.7,.88,.24,1.86,.12,2.7-.3,.84-.41,1.53-1.14,1.82-1.99,.14-.42,.15-.89-.1-1.23-.23-.35-.68-.51-1.02-.3-.35,.2-.55,.62-.51,1.02,.03,.41,.24,.8,.51,1.12,.54,.65,1.32,1.08,2.12,1.21,1.6,.27,3.29-.7,3.69-2.08,.21-.68-.17-1.44-.78-1.63-.62-.2-1.24,.34-1.35,.91-.13,.59,.07,1.2,.4,1.63,.34,.44,.8,.73,1.27,.88,.47,.15,.95,.15,1.35,.03,.41-.11,.74-.34,.99-.58,.5-.49,.7-1.03,.77-1.39,.07-.37,.04-.57,.06-.57,0,0,.05,.2,0,.58-.05,.37-.24,.94-.75,1.46-.26,.25-.6,.5-1.03,.63-.43,.14-.94,.14-1.44,0-.5-.15-1-.45-1.37-.93-.36-.47-.6-1.12-.46-1.79,.07-.33,.26-.66,.55-.87,.28-.22,.69-.33,1.07-.21,.75,.23,1.18,1.14,.95,1.91-.21,.78-.8,1.41-1.51,1.82-.72,.41-1.6,.61-2.46,.46-.86-.14-1.7-.59-2.29-1.29-.29-.35-.54-.78-.58-1.28-.05-.5,.2-1.03,.65-1.29,.23-.13,.52-.17,.78-.09,.26,.08,.47,.26,.62,.47,.31,.44,.3,1.02,.14,1.48-.33,.95-1.07,1.72-1.97,2.16-.9,.45-1.95,.58-2.91,.32-.48-.13-.93-.35-1.3-.68-.37-.32-.66-.76-.73-1.26-.08-.49,.04-1.02,.38-1.39,.35-.38,.9-.5,1.37-.36,.24,.07,.46,.22,.6,.43,.14,.2,.2,.46,.2,.7-.02,.48-.24,.9-.49,1.25-.52,.69-1.18,1.26-1.96,1.57-.77,.32-1.65,.3-2.36-.04-.35-.17-.67-.41-.9-.72-.22-.31-.39-.68-.34-1.07,.02-.19,.11-.39,.27-.52,.16-.13,.37-.17,.56-.15,.37,.04,.71,.3,.82,.64,.21,.7-.17,1.34-.58,1.74-.43,.42-.96,.65-1.46,.77-1.02,.22-1.92,.02-2.61-.15-.7-.18-1.2-.5-1.42-.82-.11-.16-.15-.31-.17-.4-.01-.1-.01-.15,0-.15"/>
    <polygon class="cls-15" points="49.3 132.29 92.92 132.29 100.11 104.43 63.72 104.43 57.96 130.47 49.3 130.68 49.3 132.29"/>
    <rect class="cls-16" x="267.5" y="165.86" width="4.11" height="49.28"/>
    <path class="cls-17" d="M240.45,168.09h58.83c0-3.53-2.86-6.39-6.39-6.39h-46.06c-3.53,0-6.39,2.86-6.39,6.39"/>
    <path class="cls-17" d="M265.56,168.22c0,.08,1.62,.15,3.61,.15s3.61-.07,3.61-.15-1.62-.15-3.61-.15-3.61,.07-3.61,.15"/>
    <path class="cls-16" d="M251.57,219.61h.58c0-9.65,7.85-17.5,17.5-17.5s17.5,7.85,17.5,17.5h.58c0-9.97-8.11-18.08-18.08-18.08s-18.08,8.11-18.08,18.08"/>
    <path class="cls-17" d="M284.73,220.5c0,1.5,1.21,2.71,2.71,2.71s2.71-1.21,2.71-2.71-1.21-2.71-2.71-2.71-2.71,1.21-2.71,2.71"/>
    <path class="cls-16" d="M249.01,220.13c0,1.5,1.21,2.71,2.71,2.71s2.71-1.21,2.71-2.71-1.21-2.71-2.71-2.71-2.71,1.21-2.71,2.71"/>
    <path class="cls-16" d="M251.74,215.14c0,.08,7.87,.15,17.57,.15s17.58-.07,17.58-.15-7.87-.15-17.58-.15-17.57,.07-17.57,.15"/>
    <path class="cls-17" d="M301.01,117.07v36.28c0,4.76-3.86,8.62-8.62,8.62h-27.95l3.8-44.89c0-2.12,1.72-3.84,3.84-3.84h25.09c2.12,0,3.84,1.72,3.84,3.84"/>
    <path class="cls-16" d="M291.13,161.7s.02-.04,.06-.11c.06-.08,.12-.18,.21-.3,.19-.26,.45-.64,.77-1.15,.63-1.02,1.47-2.56,2.08-4.62,.31-1.03,.56-2.18,.69-3.43,.15-1.25,.11-2.6,.11-4.03,0-2.85,0-5.99-.01-9.27,.02-6.57,.03-12.51,.04-16.85,.02-2.13,.04-3.87,.05-5.11,.01-.58,.02-1.04,.03-1.39,0-.32,.02-.48,.03-.48s.02,.17,.03,.48c0,.34,.02,.81,.03,1.39,.01,1.23,.03,2.97,.05,5.11,.01,4.34,.03,10.28,.04,16.85,0,3.29,0,6.42-.01,9.27,0,1.42,.02,2.79-.14,4.06-.14,1.27-.41,2.43-.74,3.46-.65,2.07-1.52,3.61-2.18,4.62-.34,.5-.62,.88-.82,1.13-.2,.25-.31,.38-.32,.37"/>
    <path class="cls-16" d="M275.91,161.72s.32-.04,.89-.05c.62,0,1.44-.02,2.42-.03,2.04-.01,4.87,0,7.99,.01,1.56,.01,3.05,.02,4.4,.05,1.35,.02,2.59,.1,3.59,.39,1,.28,1.72,.75,2.16,1.13,.22,.19,.37,.35,.47,.47,.1,.12,.15,.18,.14,.18-.02,.02-.23-.22-.68-.57-.45-.34-1.16-.77-2.14-1.02-.98-.26-2.19-.31-3.54-.32-1.36,0-2.84-.02-4.4-.03-3.12-.02-5.94-.06-7.99-.1-.98-.03-1.8-.05-2.42-.06-.57-.02-.89-.04-.89-.06"/>
    <path class="cls-7" d="M289.61,125.48c-.66-5.44-1.53-10.07-1.53-10.07h-11.78s1.46,6.9,1.14,8.5c-.28,1.39-23.12,2.32-29.07,2.41-.35-.27-.87,.18-1.33-.22-.41-.35-.75-.78-1.01-1.25-.32-.57-.72-1.35-.81-1.84-.11-.61-.89-.77-1.13-.26-.24,.51,.03,2.21,1.16,3.85,1.13,1.64-1.83,.79-2.92,.5-1.08-.29-4.48-1.03-4.84-.76-.51,.4-.19,1.04,.9,1.3,1.1,.27,4.31,1.29,4.13,1.87-.17,.57-5.68-.98-5.68-.98,0,0-1.12-.53-1.35,.14-.41,1.2,5.57,2.41,6.14,2.51,.4,.07,.23,.71-.19,.61-.43-.1-5.46-1.68-5.88-.47-.33,.93,4.9,1.04,5.77,1.97,.86,.92-3.96-.5-4.23,.4-.1,.34,1.9,.49,4.79,.9,2.7,.38,7.72,.35,8.92,.32,6.69,.37,30.33,.86,35.38,.5,5.89-.42,3.68-8.05,3.45-9.92"/>
    <path class="cls-9" d="M219.34,97.28s-3.25-3.31-3.87-3.44c-.63-.13-6.71-3.18-6.71-3.18,0,0-.72,.83,.18,1.55,.9,.72,3.03,2,3.03,2l-1.5,2.93s1.44,4.81,1.7,4.71c.26-.1,.5-.94,.5-.94l-.45-1.52,2.94,2.46,1.28-.15,2.9-4.43Z"/>
    <path class="cls-11" d="M216.83,95.69s-.83-.35-2.05-1h.03c-.49-.12-1.03-.27-1.6-.42l.18-.12c-.04,.45,.12,.93,.43,1.35,.45,.61,1.07,1.05,1.64,1.36l.11,.06-.04,.11c-.33,.88-.22,1.71-.07,2.24,.16,.54,.33,.83,.3,.85-.02,.02-.25-.25-.46-.8-.2-.54-.37-1.43-.03-2.39l.07,.17c-.61-.32-1.26-.77-1.76-1.43-.34-.45-.53-1.02-.47-1.55l.02-.17,.16,.05c.57,.17,1.1,.33,1.59,.47h.01s.01,.01,.01,.01c1.2,.69,1.96,1.16,1.93,1.2"/>
    <path class="cls-9" d="M211.4,97.23c.28,1.27,.7,2.51,1.26,3.69,.28-.34,.47-.75,.57-1.18"/>
    <path class="cls-11" d="M213.24,99.74s.03,.58-.48,1.26l-.12,.16-.09-.18c-.17-.34-.36-.74-.53-1.19-.53-1.36-.69-2.54-.62-2.55,.08-.02,.37,1.11,.89,2.45,.17,.44,.34,.84,.49,1.19l-.21-.03c.5-.57,.61-1.12,.67-1.09"/>
    <path class="cls-11" d="M213.31,95.01s.28,.45,.58,1.25c.14,.4,.29,.9,.35,1.47,.05,.57,0,1.23-.26,1.85-.11,.25-.25,.49-.42,.69l-.15,.17-.1-.2c-.47-1.01-.78-1.95-.95-2.64-.17-.68-.22-1.1-.19-1.11,.08-.02,.44,1.64,1.39,3.62l-.24-.03c.15-.18,.28-.39,.38-.62,.49-1.16,.21-2.35-.02-3.14-.24-.8-.42-1.3-.38-1.31"/>
    <polygon class="cls-9" points="219.34 97.28 242.39 112.88 235.66 121.29 216.44 101.71 219.34 97.28"/>
    <path class="cls-10" d="M243.82,220.3l-.12-5.67,10.61-.29,.26,8.29-.66,.06c-2.92,.24-14.88,1.02-16.86,.48-2.2-.6,6.76-2.88,6.76-2.88"/>
    <g class="cls-40">
      <g class="cls-22">
        <path class="cls-5" d="M250.72,222.66c.13-.89,.6-1.73,1.29-2.3s1.56-.89,2.46-.84l.08,2.97-3.83,.17Z"/>
      </g>
    </g>
    <g class="cls-39">
      <g class="cls-23">
        <path class="cls-5" d="M239.44,221.57s-3.14,1-2.73,1.51c.41,.51,12.52,.18,17.86-.44l-.02-.24-14.13,.51s-.36-1.33-.98-1.34"/>
      </g>
    </g>
    <path class="cls-17" d="M254.72,222.39s-.06,.01-.18,.03c-.16,.01-.33,.03-.52,.05-.52,.04-1.17,.08-1.93,.14-1.63,.1-3.88,.22-6.37,.29-2.49,.07-4.74,.08-6.37,.07-.76-.01-1.41-.02-1.93-.03-.19,0-.37-.01-.52-.02-.12,0-.18-.01-.18-.01s.06,0,.18-.01c.16,0,.33,0,.53,0,.52,0,1.17,0,1.93-.01,1.63-.01,3.88-.04,6.37-.11,2.49-.07,4.73-.17,6.36-.25,.76-.04,1.4-.07,1.93-.1,.19,0,.37-.02,.52-.02,.12,0,.18,0,.18,0"/>
    <path class="cls-17" d="M240.43,223.08s-.08-.45-.39-.91c-.29-.46-.7-.69-.68-.72,0-.03,.47,.15,.79,.65,.32,.49,.31,.99,.28,.98"/>
    <path class="cls-17" d="M243.51,221.4s-.18-.16-.35-.4c-.16-.24-.27-.45-.24-.47,.03-.02,.18,.16,.35,.4,.16,.24,.27,.45,.24,.47"/>
    <path class="cls-17" d="M244.36,220.92s-.19-.08-.38-.24c-.19-.16-.32-.31-.3-.34,.02-.03,.19,.08,.38,.24,.19,.16,.32,.31,.3,.34"/>
    <path class="cls-17" d="M244.88,219.91s-.25,.07-.55,.09c-.31,.01-.56,0-.56-.04,0-.04,.24-.07,.55-.09,.31-.01,.56,0,.56,.04"/>
    <path class="cls-17" d="M245.04,219.19s-.25,.16-.61,.2c-.36,.04-.65-.04-.64-.07,0-.04,.29-.02,.63-.06,.34-.03,.61-.1,.63-.07"/>
    <path class="cls-17" d="M243.13,220.48s-.26,.05-.68,.02c-.21-.02-.46-.06-.73-.14-.14-.04-.27-.07-.42-.16-.07-.04-.15-.11-.17-.21-.03-.1,.02-.22,.1-.27,.64-.36,1.3,0,1.56,.32,.14,.17,.2,.34,.23,.45,.03,.12,.03,.18,.02,.18-.02,0-.05-.27-.33-.57-.14-.15-.34-.29-.59-.36-.24-.06-.59-.07-.81,.08-.11,.08-.06,.21,.06,.28,.11,.07,.26,.11,.39,.15,.26,.08,.5,.13,.71,.16,.41,.06,.67,.05,.67,.08"/>
    <path class="cls-17" d="M242.95,220.52s-.12-.16-.09-.47c.01-.15,.06-.33,.17-.5,.12-.15,.26-.37,.56-.36,.16,.02,.24,.19,.22,.31,0,.12-.06,.22-.11,.31-.1,.17-.21,.31-.31,.42-.21,.21-.38,.3-.38,.29-.01-.02,.13-.13,.31-.35,.09-.11,.19-.25,.28-.42,.09-.15,.15-.41-.03-.43-.17-.01-.34,.16-.44,.3-.1,.15-.16,.31-.18,.45-.04,.28,.02,.45,0,.46"/>
    <path class="cls-17" d="M254.42,219.49s-.31-.02-.78,.05c-.47,.07-1.13,.28-1.69,.75-.56,.47-.88,1.08-1.03,1.54-.15,.46-.16,.77-.18,.76,0,0-.01-.08,0-.21,0-.14,.03-.34,.1-.58,.13-.47,.45-1.12,1.03-1.61,.59-.49,1.27-.7,1.76-.74,.25-.02,.45-.02,.58,0,.14,.02,.21,.03,.21,.04"/>
    <path class="cls-17" d="M253.2,215.11s.1,.97,.15,2.18c.05,1.2,.06,2.18,.02,2.18-.04,0-.1-.97-.15-2.18-.05-1.2-.06-2.18-.02-2.18"/>
    <path class="cls-17" d="M249.36,221.66s-.68,.17-1.55,.2c-.86,.03-1.56-.05-1.55-.08,0-.04,.7-.01,1.55-.05,.85-.03,1.55-.1,1.55-.07"/>
    <path class="cls-17" d="M251.44,221.6s-.05,.15-.12,.31c-.07,.16-.1,.3-.14,.3-.03,0-.06-.17,.02-.35,.08-.19,.21-.29,.24-.26"/>
    <path class="cls-17" d="M252.2,220.6s-.04,.14-.15,.25c-.11,.11-.21,.19-.24,.16-.03-.02,.04-.14,.15-.25,.11-.11,.21-.19,.24-.16"/>
    <path class="cls-17" d="M253.3,220.13s-.15,.04-.3,.1c-.16,.06-.26,.15-.29,.12-.03-.02,.06-.17,.25-.24,.19-.07,.36,0,.35,.02"/>
    <path class="cls-17" d="M254.1,219.89s-.05,.09-.13,.13c-.09,.04-.17,.04-.18,0-.01-.03,.04-.09,.13-.12,.09-.04,.17-.04,.18,0"/>
    <path class="cls-10" d="M218.19,189.99l2.46-5.1,9.59,4.55-3.52,7.51-.61-.24c-2.72-1.11-13.73-5.82-15.25-7.2-1.69-1.53,7.33,.49,7.33,.49"/>
    <g class="cls-40">
      <g class="cls-26">
        <path class="cls-5" d="M223.28,195.21c.52-.74,1.31-1.27,2.19-1.46,.88-.19,1.79-.08,2.57,.37l-1.27,2.68-3.5-1.58Z"/>
      </g>
    </g>
    <g class="cls-39">
      <g class="cls-30">
        <path class="cls-5" d="M213.71,189.14s-3.25-.53-3.11,.11c.13,.64,11.09,5.82,16.12,7.69l.09-.22-12.83-5.94s.28-1.35-.26-1.64"/>
      </g>
    </g>
    <path class="cls-17" d="M226.96,196.78s-.06-.02-.17-.06c-.15-.06-.31-.12-.49-.2-.48-.2-1.08-.45-1.78-.75-1.5-.64-3.56-1.56-5.81-2.62-2.25-1.06-4.27-2.07-5.72-2.82-.67-.35-1.24-.65-1.71-.9-.17-.09-.32-.18-.46-.25-.1-.06-.16-.09-.16-.1,0,0,.06,.02,.17,.07,.14,.07,.3,.14,.47,.23,.47,.23,1.05,.52,1.73,.86,1.46,.73,3.48,1.72,5.73,2.78,2.25,1.06,4.3,1.99,5.79,2.66,.7,.31,1.28,.57,1.76,.79,.18,.08,.33,.15,.48,.22,.11,.05,.16,.08,.16,.08"/>
    <path class="cls-17" d="M213.91,190.93s.13-.44,.07-.99c-.05-.55-.31-.93-.28-.95,.02-.03,.35,.35,.41,.93,.07,.59-.17,1.02-.2,1"/>
    <path class="cls-17" d="M217.42,190.83s-.09-.22-.13-.51c-.04-.29-.04-.52,0-.53,.03,0,.09,.22,.13,.51,.04,.29,.04,.52,0,.53"/>
    <path class="cls-17" d="M218.39,190.79s-.14-.16-.23-.39c-.1-.23-.15-.42-.11-.44,.03-.01,.14,.16,.23,.39,.1,.23,.15,.42,.11,.44"/>
    <path class="cls-17" d="M219.31,190.11s-.25-.04-.53-.17c-.28-.13-.49-.26-.48-.29,.02-.03,.25,.04,.53,.17,.28,.13,.49,.26,.48,.29"/>
    <path class="cls-17" d="M219.78,189.55s-.3,.03-.64-.1c-.34-.13-.56-.32-.54-.35,.02-.03,.27,.11,.59,.23,.32,.12,.59,.18,.59,.22"/>
    <path class="cls-17" d="M217.49,189.84s-.26-.07-.62-.3c-.18-.11-.38-.26-.59-.46-.1-.1-.21-.19-.3-.33-.04-.07-.08-.16-.06-.26,.02-.1,.12-.18,.21-.2,.73-.03,1.17,.58,1.24,.99,.05,.21,.03,.39,0,.51-.03,.12-.05,.18-.06,.18-.02,0,.07-.26-.03-.66-.05-.2-.17-.42-.36-.59-.19-.17-.49-.33-.76-.3-.13,.03-.15,.16-.07,.28,.07,.11,.18,.22,.28,.31,.2,.19,.39,.35,.56,.47,.34,.24,.57,.35,.56,.37"/>
    <path class="cls-17" d="M217.32,189.79s-.03-.2,.13-.46c.08-.13,.21-.27,.38-.37,.17-.09,.4-.21,.66-.07,.13,.09,.13,.28,.05,.38-.06,.1-.15,.17-.23,.23-.16,.11-.33,.19-.47,.24-.28,.1-.47,.1-.47,.08,0-.02,.18-.05,.44-.17,.13-.06,.28-.14,.43-.25,.15-.09,.32-.3,.17-.4-.15-.09-.38,0-.53,.07-.16,.09-.28,.21-.36,.32-.17,.23-.18,.42-.21,.41"/>
    <path class="cls-17" d="M228.01,194.06s-.26-.16-.72-.31c-.45-.16-1.13-.26-1.85-.1-.72,.17-1.28,.57-1.61,.91-.34,.34-.49,.61-.51,.6,0,0,.02-.07,.09-.19,.07-.12,.18-.29,.35-.47,.33-.37,.9-.79,1.65-.97,.75-.17,1.45-.05,1.91,.13,.23,.09,.41,.19,.52,.26s.17,.13,.17,.13"/>
    <path class="cls-17" d="M228.9,189.6s-.35,.92-.85,2.01c-.5,1.1-.93,1.97-.97,1.96-.03-.01,.35-.92,.85-2.01,.5-1.1,.93-1.97,.97-1.96"/>
    <path class="cls-17" d="M222.52,193.71s-.68-.16-1.47-.52c-.78-.36-1.37-.75-1.35-.78,.02-.03,.63,.3,1.4,.66,.78,.36,1.42,.61,1.41,.64"/>
    <path class="cls-17" d="M224.4,194.59s-.11,.11-.25,.22c-.13,.11-.23,.22-.26,.21-.03-.01,.02-.17,.18-.3,.15-.13,.32-.16,.33-.12"/>
    <path class="cls-17" d="M225.52,194.05s-.1,.1-.24,.16c-.15,.05-.28,.07-.29,.04-.01-.03,.1-.1,.24-.16,.15-.05,.28-.07,.29-.04"/>
    <path class="cls-17" d="M226.73,194.12s-.15-.03-.31-.05c-.16-.02-.3,.01-.32-.02-.02-.03,.13-.13,.33-.1,.2,.02,.32,.15,.3,.18"/>
    <path class="cls-17" d="M227.54,194.27s-.08,.06-.18,.05c-.09,0-.17-.04-.17-.08,0-.04,.08-.06,.17-.05,.09,0,.17,.04,.17,.08"/>
    <path class="cls-17" d="M288.34,115.23c0,.09-2.75,.17-6.15,.19-3.4,.01-6.15-.05-6.15-.14,0-.09,2.75-.17,6.15-.19,3.4-.01,6.15,.05,6.15,.14"/>
    <path class="cls-14" d="M288.17,115.82l-2.26-11.32c-1.66-9.26-14.65-9.9-14.65-9.9l-10.19-.17s-7.56-1.02-12.22,4.24c-4.83,5.44-10.75,11.87-10.75,11.87l4.53,11.39,10.72-8.85s-1.44,2.34-1.44,5.15c0,3.02,3.15,4.41,3.15,4.41l.96,9.18-3.2,14.83,33.28-1.33c-.65-5.38-2.37-9.98-4.91-13.99l.62-15.52h6.35Z"/>
    <path class="cls-17" d="M252.16,116.14s.12-.59,.4-1.53c.14-.47,.31-1.02,.53-1.63,.11-.31,.22-.62,.36-.95,.08-.18,.17-.33,.22-.47,.05-.15,.06-.32,.06-.49,0-.34-.1-.7-.16-1.05-.06-.34-.12-.67-.18-.99-.1-.6-.2-1.17-.29-1.69-.16-.96-.23-1.56-.19-1.57,.04,0,.2,.57,.42,1.52,.11,.51,.23,1.07,.36,1.67,.07,.32,.13,.65,.2,.99,.07,.34,.16,.7,.17,1.1,0,.2-.01,.4-.08,.6-.07,.2-.17,.35-.23,.5-.14,.32-.26,.63-.37,.93-.21,.58-.41,1.11-.59,1.6-.33,.92-.58,1.47-.62,1.46"/>
    <g class="cls-37">
      <g class="cls-35">
        <path d="M274.28,106.2c.41,6.31,.66,12.13,.78,18.45,.94-.11,1.8-.3,2.38-.75,.33-2.7-1.72-10.9-3.16-17.71"/>
      </g>
    </g>
    <path class="cls-16" d="M286.21,143.84s-43.52-9.12-47.73-7.12c-4.21,2-23.65,50.03-23.65,50.03l15.64,6.73,16.84-40.81s30.47,11.13,35.79,10.02,3.11-18.85,3.11-18.85"/>
    <path class="cls-16" d="M266.76,146.4c-.67,.22-25.84,10.57-27.61,13.9-1.78,3.33,2.58,58.56,2.58,58.56h14.32l-.89-49.09,27.94-7.08-16.35-16.29Z"/>
    <path class="cls-17" d="M283.25,162.8s-.14,0-.41-.05c-.3-.05-.69-.12-1.17-.21-1.02-.19-2.48-.48-4.29-.86-3.61-.76-8.59-1.92-14.01-3.47-2.71-.78-5.27-1.6-7.58-2.4-2.3-.82-4.37-1.59-6.07-2.31-.86-.35-1.62-.69-2.29-.99-.67-.3-1.24-.57-1.71-.8-.44-.22-.79-.4-1.06-.54-.24-.13-.36-.2-.36-.21,0,0,.14,.04,.39,.15,.28,.12,.64,.28,1.09,.48,.47,.22,1.05,.47,1.72,.75,.67,.29,1.44,.62,2.3,.95,1.71,.7,3.77,1.44,6.08,2.24,2.31,.78,4.87,1.58,7.57,2.37,5.41,1.55,10.37,2.74,13.97,3.56,1.77,.4,3.22,.73,4.27,.96,.48,.11,.86,.2,1.16,.27,.27,.06,.4,.1,.4,.11"/>
    <path class="cls-17" d="M239.15,172.98s-.07-.29-.13-.83c-.06-.6-.14-1.36-.24-2.26-.09-.98-.2-2.11-.31-3.36-.1-1.26-.28-2.68,0-4.17,.27-1.5,1.14-2.74,2.09-3.6,.96-.88,1.99-1.44,2.86-1.84,.88-.4,1.62-.66,2.13-.84,.51-.17,.8-.26,.8-.24,.02,.06-1.11,.45-2.83,1.28-.85,.43-1.85,.99-2.76,1.85-.91,.85-1.72,2.02-1.97,3.44-.26,1.41-.1,2.81-.02,4.08,.09,1.25,.17,2.39,.24,3.37,.05,.91,.1,1.67,.14,2.27,.02,.54,.03,.83,0,.84"/>
    <path class="cls-17" d="M251.71,168.24c.04-.08,.82,.18,1.76,.6,.94,.41,1.66,.81,1.63,.9-.04,.08-.83-.18-1.76-.6s-1.66-.81-1.63-.9"/>
    <path class="cls-17" d="M252.97,166.73c.09-.04,.48,.76,1.14,1.62,.65,.87,1.3,1.46,1.24,1.54-.05,.07-.83-.44-1.51-1.34-.68-.9-.96-1.79-.88-1.81"/>
    <path class="cls-17" d="M258.47,168.99s-.04,.12-.22,.23c-.17,.11-.47,.19-.83,.2-.35,.02-.77-.04-1.19,.03-.43,.05-.71,.4-.71,.91-.02,2.1-.09,3.83-.18,3.82-.09,0-.17-1.71-.15-3.84,.02-.27,.07-.58,.27-.81,.19-.24,.48-.35,.72-.38,.5-.06,.9,.03,1.24,.04,.69,.07,1.02-.22,1.05-.19"/>
    <g class="cls-37">
      <g class="cls-29">
        <polygon points="255.04 136.43 284.7 138.81 283.43 135.5 255.33 135.09 255.04 136.43"/>
      </g>
    </g>
    <path class="cls-17" d="M255.8,67.91c-2.17,.7-4.7,2.15-3.45,8.96,.55,3,1.25,6.05,3.26,8.34,.3,.35,.71,.71,1.16,.64,.33-.05,.58-.3,.8-.55,2.28-2.49,4.23-5.43,4.84-8.75,.62-3.32-.31-7.06-2.92-9.2"/>
    <path class="cls-9" d="M259.97,97.48c-.07-3.13-.21-6.49-.21-6.49,0,0-4.77-.6-4.97-5.47-.21-4.87-.25-13.39-.25-13.39l9.3-6.89,6.54,8.99,.16,23.09c.02,2.93-2.35,5.32-5.29,5.32s-5.22-2.29-5.28-5.16"/>
    <path class="cls-11" d="M259.77,90.99s3.19,.09,6.31-2.07c0,0-1.48,3.54-6.23,3.26l-.08-1.19Z"/>
    <path class="cls-11" d="M260.2,85.32c-.08-.18-.06-.41,.06-.57,.12-.16,.33-.26,.53-.23,.03-.45,.46-.81,.91-.8,.45,.02,.84,.39,.92,.83,.08,.44-.15,.91-.52,1.15-.37,.24-.87,.27-1.28,.09-.32-.14-.61-.42-.65-.76"/>
    <path class="cls-17" d="M255.7,78.24c-.01,.35,.28,.65,.64,.67,.37,.02,.68-.25,.69-.6,.01-.35-.28-.65-.64-.67-.37-.02-.68,.25-.69,.6"/>
    <path class="cls-17" d="M255.55,77.49c.08,.09,.59-.29,1.31-.28,.72,0,1.24,.36,1.32,.27,.04-.04-.05-.2-.28-.36-.23-.17-.61-.33-1.06-.33-.45,0-.82,.17-1.04,.34-.22,.17-.3,.33-.25,.37"/>
    <path class="cls-17" d="M262.74,78.41c-.01,.35,.28,.65,.64,.67,.37,.02,.67-.25,.69-.6,.01-.35-.28-.65-.64-.67-.37-.02-.68,.25-.69,.6"/>
    <path class="cls-17" d="M262.62,77.62c.08,.09,.59-.29,1.31-.28,.72,0,1.24,.36,1.32,.27,.04-.04-.04-.2-.28-.36-.23-.17-.61-.33-1.06-.33-.45,0-.82,.17-1.04,.34-.22,.17-.3,.33-.25,.37"/>
    <path class="cls-17" d="M260.01,82.95s-.44-.12-1.17-.21c-.18-.02-.36-.05-.39-.18-.04-.13,.03-.33,.12-.54,.17-.44,.35-.91,.54-1.4,.75-1.99,1.3-3.62,1.22-3.65-.08-.03-.76,1.56-1.51,3.55-.18,.49-.35,.96-.52,1.4-.07,.21-.19,.45-.09,.72,.05,.14,.18,.24,.3,.27,.12,.04,.22,.04,.31,.04,.73,.04,1.18,.04,1.18,0"/>
    <path class="cls-17" d="M262.12,83.45c-.12,0-.12,.77-.79,1.33-.67,.55-1.5,.47-1.5,.58-.01,.05,.18,.15,.53,.16,.34,.01,.85-.1,1.26-.44,.41-.34,.58-.79,.61-1.11,.03-.33-.06-.52-.11-.52"/>
    <path class="cls-17" d="M262.29,76.02c.07,.2,.79,.1,1.63,.2,.84,.08,1.52,.33,1.64,.16,.05-.08-.07-.27-.34-.46-.27-.19-.71-.37-1.21-.43-.51-.05-.97,.03-1.28,.15-.31,.12-.47,.28-.43,.37"/>
    <path class="cls-17" d="M255.82,75.41c.13,.16,.62,0,1.22-.01,.6-.03,1.1,.11,1.22-.06,.05-.08-.03-.25-.25-.4-.22-.15-.58-.28-.99-.27s-.76,.16-.97,.33c-.21,.17-.28,.33-.22,.41"/>
    <path class="cls-17" d="M266.06,75.62c.87-.02,1.71-.28,2.37-.84,.43,1.15,.42,2.42,.82,3.58,.39,1.16,1.32,5.95,2.54,5.77,1.11-.17,1.9-4.99,2.19-6.08,.79-3.01-.2-6.33-2.2-8.71-2.38-2.83-6.33-5.24-10.02-4.98-1.63,.12-3.28,.59-4.56,1.61,0,0-1.99,1.53-1.82,3.49,.23,2.72,4.2,4.48,6.93,4.39l.39,.38c.9,.88,2.11,1.43,3.37,1.4"/>
    <path class="cls-17" d="M254.52,74.73c.69-.53,1.13-1.34,1.36-2.18,.23-.84,.27-1.72,.32-2.59,.01-.25-.03-.58-.27-.64-.23-.07-.43,.18-.55,.39-.85,1.6-1.16,3.48-.86,5.27,.05-.05-.16,.14-.11,.09"/>
    <path class="cls-17" d="M272.13,94.92c1.39-1.21,2.13-3.14,1.9-4.97-.17-1.4-.87-2.73-.8-4.14,.05-1.11,.58-2.13,.93-3.19,.58-1.72,.73-3.58,.42-5.37-.24-1.41-.82-2.86-1.98-3.7-1.17-.84-3.01-.82-3.87,.33l-.42,.13c-1.97,3.95-1.36,9.05,1.49,12.43-2.17,2.29-2.12,6.32,.11,8.55-1.52,1.94-1.88,4.73-.88,6.99,.01,.03,.03,.06,.04,.08-.84,.91-1.42,2.06-1.6,3.28-.27,1.74,.25,3.59,1.39,4.94-1.03,.95-1.89,2.17-2.07,3.56-.17,1.36,.47,2.88,1.72,3.44-.95,.83-1.48,2.13-1.36,3.39,.14,1.41,1.11,2.71,2.42,3.25,.61-.61,1.28-1.16,2-1.64-.39-.19-.72-.51-.92-.89,.45,.33,1,.5,1.56,.49-.22-1.02-.45-2.04-.67-3.06-.12-.55-.25-1.12-.59-1.57-.02-.03-.05-.06-.08-.09,.78-.39,1.43-1.08,1.75-1.9,.61-1.57,.19-3.38-.62-4.85,.86-1.76,1.67-3.61,1.69-5.57,0-.88-.19-1.78-.57-2.58,.71-1.2,1.26-2.54,1.21-3.93-.05-1.44-.85-2.92-2.2-3.43"/>
    <path class="cls-16" d="M271.51,110.27c.05,.06-.49,.48-1.31,.49-.81,.02-1.37-.39-1.32-.45,.04-.08,.59,.17,1.31,.15,.72,0,1.27-.27,1.31-.19"/>
    <path class="cls-16" d="M272.77,103.3c.05,.08-1.54,.77-2.79,2.41-1.27,1.63-1.53,3.35-1.62,3.32-.03,0-.02-.43,.17-1.1,.18-.66,.58-1.55,1.22-2.39,.65-.84,1.41-1.44,2-1.79,.6-.35,1.01-.47,1.02-.44"/>
    <path class="cls-16" d="M272.21,102.34c.05,.06-.49,.46-1.28,.45-.79,0-1.33-.39-1.28-.45,.04-.08,.58,.16,1.28,.16,.7,0,1.24-.24,1.28-.16"/>
    <path class="cls-16" d="M273.09,101.39c-.09,0,.01-1.46-.78-3.01-.76-1.56-1.99-2.37-1.93-2.44,.02-.03,.35,.13,.8,.5,.45,.37,.99,1,1.39,1.8,.4,.81,.56,1.62,.59,2.2,.03,.59-.05,.94-.08,.94"/>
    <path class="cls-16" d="M272.36,94.13c.06,.04-.23,.51-.84,.74-.61,.24-1.14,.1-1.12,.02,0-.08,.49-.08,1.02-.3,.53-.2,.88-.53,.95-.47"/>
    <path class="cls-16" d="M270.62,94.46s-.38-.31-.62-1.04c-.24-.71-.28-1.82,.13-2.9,.42-1.08,1.09-1.9,1.58-2.44,.51-.54,.86-.84,.88-.81,.03,.03-.27,.38-.73,.95-.45,.57-1.07,1.38-1.47,2.41-.39,1.02-.39,2.05-.21,2.74,.17,.7,.47,1.07,.42,1.09"/>
    <path class="cls-16" d="M272.64,86.59c.03,.07-.61,.3-1.4,.14-.79-.16-1.28-.62-1.23-.67,.05-.07,.57,.25,1.29,.39,.71,.15,1.32,.06,1.34,.15"/>
    <path class="cls-16" d="M274.89,78.85s-.49,.15-1.3,.09c-.8-.05-1.93-.33-2.97-1.01-1.04-.69-1.74-1.61-2.11-2.33-.37-.72-.46-1.22-.43-1.23,.05-.02,.2,.45,.61,1.13,.4,.67,1.09,1.53,2.09,2.18,.99,.65,2.06,.95,2.83,1.05,.78,.11,1.27,.06,1.28,.11"/>
    <path class="cls-16" d="M274.46,81.75s-.11,.13-.38,.24c-.27,.11-.7,.19-1.21,.11-1.04-.15-2.31-.94-3.3-2.15-1-1.21-1.47-2.61-1.6-3.61-.07-.51-.07-.92-.06-1.2,.03-.28,.05-.44,.07-.44,.06,0,0,.63,.19,1.61,.18,.97,.66,2.3,1.62,3.46,.96,1.16,2.15,1.94,3.11,2.13,.98,.22,1.54-.2,1.55-.15"/>
    <path class="cls-16" d="M273.42,72.84s-.18,.12-.55,.27c-.37,.15-.93,.31-1.65,.37-.72,.07-1.6,.03-2.54-.25-.94-.26-1.94-.78-2.78-1.58l.15,.03c-.62,.21-1.29,.35-1.98,.39-1.4,.09-2.75-.24-3.83-.79-1.09-.55-1.9-1.33-2.46-2.04-.56-.72-.87-1.4-1.05-1.88-.08-.24-.14-.43-.17-.56-.03-.13-.04-.2-.03-.2,.06-.03,.29,1.11,1.42,2.51,.56,.68,1.36,1.41,2.42,1.93,1.05,.52,2.34,.82,3.69,.74,.67-.04,1.31-.17,1.91-.37l.08-.03,.06,.06c.8,.77,1.75,1.28,2.66,1.55,.9,.28,1.76,.34,2.46,.3,1.41-.09,2.19-.52,2.21-.46"/>
    <path class="cls-16" d="M271.24,68.92s-.21,.05-.58,.1c-.38,.04-.92,.1-1.6,.15-.7,.06-1.5,.12-2.37,.19-.89,.07-1.89,.15-2.93,.03-2.1-.23-3.84-1.15-4.91-1.98-.54-.42-.93-.81-1.19-1.1-.25-.29-.37-.46-.36-.47,.04-.04,.58,.62,1.67,1.4,1.08,.78,2.78,1.64,4.82,1.86,1.01,.11,1.99,.05,2.88,0,.88-.05,1.67-.09,2.38-.13,.68-.03,1.22-.05,1.6-.06,.38,0,.59,0,.59,.02"/>
    <path class="cls-16" d="M271.5,116.61c.06,.05-.52,.57-1.42,.62-.9,.06-1.54-.38-1.49-.44,.04-.08,.66,.21,1.47,.15,.81-.04,1.39-.4,1.44-.32"/>
    <path class="cls-16" d="M270.37,117.48s.04-.34,.08-.88c.04-.54,0-1.29-.23-2.07-.24-.78-.62-1.43-.96-1.85-.33-.43-.58-.65-.55-.69,.02-.03,.32,.15,.71,.56,.39,.41,.83,1.07,1.08,1.9,.25,.83,.25,1.63,.16,2.18-.09,.55-.25,.87-.28,.86"/>
    <path class="cls-9" d="M289.61,125.48c-.66-5.44-1.53-10.07-1.53-10.07h-11.78s1.46,6.9,1.14,8.5c-.28,1.39-23.12,2.32-29.07,2.41-.35-.27-.87,.18-1.33-.22-.41-.35-.75-.78-1.01-1.25-.32-.57-.72-1.35-.81-1.84-.11-.61-.89-.77-1.13-.26-.24,.51,.03,2.21,1.16,3.85,1.13,1.64-1.83,.79-2.92,.5-1.08-.29-4.48-1.03-4.84-.76-.51,.4-.19,1.04,.9,1.3,1.1,.27,4.31,1.29,4.13,1.87-.17,.57-5.68-.98-5.68-.98,0,0-1.12-.53-1.35,.14-.41,1.2,5.57,2.41,6.14,2.51,.4,.07,.23,.71-.19,.61-.43-.1-5.46-1.68-5.88-.47-.33,.93,4.9,1.04,5.77,1.97,.86,.92-3.96-.5-4.23,.4-.1,.34,1.9,.49,4.79,.9,2.7,.38,7.72,.35,8.92,.32,6.69,.37,30.33,.86,35.38,.5,5.89-.42,3.68-8.05,3.45-9.92"/>
    <polygon class="cls-15" points="211.46 103.9 221.15 132.24 265.06 132.24 264.74 130.78 246.98 130.23 238.8 103.89 211.46 103.9"/>
    <path class="cls-5" d="M230.91,117.21c.29,1.16-.21,2.3-1.11,2.54s-1.87-.5-2.16-1.67c-.29-1.16,.21-2.3,1.11-2.54,.9-.24,1.87,.5,2.16,1.66"/>
    <polygon class="cls-17" points="38.82 132.23 38.82 135.91 152.02 135.91 152.02 218.71 177.6 218.71 177.6 135.91 290.55 135.91 290.55 132.23 38.82 132.23"/>
    <polygon class="cls-4" points="147.78 220.71 147.21 192.35 158.08 190.55 156.37 220.59 147.78 220.71"/>
    <path class="cls-10" d="M156.83,220.84l-.03-1-9.43,.23,.06,3.3,.58,.03c2.59,.08,13.19,.25,14.91-.31,1.92-.63-6.1-2.25-6.1-2.25"/>
    <g class="cls-39">
      <g class="cls-28">
        <path class="cls-5" d="M150.84,223.22c-.15-.78-.6-1.5-1.24-1.97-.64-.47-1.42-.71-2.21-.63l.06,2.62,3.4-.02Z"/>
      </g>
    </g>
    <g class="cls-39">
      <g class="cls-27">
        <path class="cls-5" d="M160.75,221.77s2.81,.74,2.47,1.21c-.34,.47-11.05,.7-15.79,.39v-.21s12.51-.17,12.51-.17c0,0,.26-1.19,.8-1.23"/>
      </g>
    </g>
    <path class="cls-17" d="M147.3,223.16s.06,0,.16,.01c.14,0,.29,.01,.46,.02,.46,0,1.03,.02,1.71,.04,1.44,.02,3.43,.02,5.64-.02,2.2-.05,4.19-.13,5.63-.21,.67-.04,1.24-.08,1.71-.11,.17-.01,.32-.03,.46-.04,.11,0,.16-.02,.16-.02,0,0-.06,0-.16,0-.14,0-.29,.01-.46,.02-.46,.02-1.03,.04-1.71,.07-1.44,.06-3.43,.13-5.63,.18-2.2,.05-4.19,.06-5.63,.06h-1.71c-.17,0-.32,0-.46,0-.11,0-.16,0-.16,0"/>
    <path class="cls-17" d="M159.95,223.14s.05-.4,.3-.82c.24-.42,.59-.64,.57-.67,0-.03-.41,.16-.67,.61-.26,.45-.23,.89-.2,.88"/>
    <path class="cls-17" d="M157.15,221.8s.16-.15,.29-.37c.13-.22,.22-.41,.19-.43-.03-.02-.16,.15-.29,.37-.13,.22-.22,.41-.19,.42"/>
    <path class="cls-17" d="M156.38,221.41s.17-.08,.33-.23c.16-.15,.27-.29,.25-.31-.02-.02-.17,.08-.33,.23-.16,.15-.27,.29-.25,.31"/>
    <path class="cls-17" d="M155.88,220.54s.22,.06,.49,.05c.27,0,.49-.03,.49-.06s-.22-.05-.49-.05c-.27,0-.49,.03-.49,.06"/>
    <path class="cls-17" d="M155.7,219.91s.23,.13,.55,.15c.32,.02,.57-.06,.56-.09,0-.03-.25,0-.56-.03-.3-.01-.55-.06-.56-.03"/>
    <path class="cls-17" d="M157.45,220.97s.23,.04,.6-.02c.18-.03,.4-.07,.64-.16,.12-.04,.24-.08,.36-.16,.06-.04,.12-.1,.15-.19,.02-.09-.03-.19-.1-.24-.58-.29-1.15,.05-1.36,.35-.11,.15-.16,.3-.19,.41-.02,.1-.02,.16-.01,.16,.02,0,.04-.24,.26-.52,.11-.14,.28-.27,.51-.35,.21-.07,.51-.09,.72,.03,.1,.07,.06,.18-.04,.25-.1,.07-.23,.11-.34,.15-.23,.08-.44,.14-.62,.18-.36,.07-.59,.08-.59,.1"/>
    <path class="cls-17" d="M157.61,221s.09-.15,.06-.42c-.02-.13-.07-.29-.17-.44-.11-.13-.25-.31-.51-.3-.14,.02-.2,.18-.18,.28,.01,.1,.06,.19,.11,.27,.09,.15,.2,.27,.29,.36,.19,.18,.34,.25,.35,.24,.01-.01-.12-.11-.29-.29-.08-.09-.18-.21-.26-.36-.09-.13-.15-.35,0-.38,.15-.02,.31,.13,.4,.25,.1,.13,.15,.27,.18,.39,.05,.24,0,.4,.02,.41"/>
    <path class="cls-17" d="M147.43,220.59s.27-.03,.69,0c.42,.04,1.01,.2,1.53,.59s.83,.92,.97,1.32c.15,.4,.17,.67,.19,.67,0,0,0-.07,0-.19-.01-.12-.04-.3-.11-.5-.13-.41-.44-.97-.98-1.38-.54-.41-1.15-.56-1.59-.58-.22,0-.4,0-.52,.02-.12,.02-.18,.04-.18,.05"/>
    <path class="cls-17" d="M152,222.28s.61,.12,1.37,.11c.76,0,1.38-.11,1.37-.14,0-.03-.62,.02-1.37,.03-.76,.01-1.37-.02-1.37,0"/>
    <path class="cls-17" d="M150.16,222.32s.05,.13,.12,.27c.07,.14,.1,.26,.14,.26,.03,0,.04-.15-.03-.31-.08-.16-.2-.24-.22-.22"/>
    <path class="cls-17" d="M149.45,221.47s.04,.12,.14,.22c.1,.1,.2,.16,.22,.13,.02-.02-.04-.12-.14-.22-.1-.1-.2-.16-.22-.13"/>
    <path class="cls-17" d="M148.45,221.1s.13,.03,.27,.07c.14,.04,.24,.12,.26,.1,.03-.02-.06-.15-.23-.2-.17-.06-.32,0-.3,.03"/>
    <path class="cls-17" d="M147.74,220.93s.04,.08,.12,.11c.08,.03,.15,.03,.16,0,.01-.03-.04-.08-.12-.11-.08-.03-.15-.03-.16,0"/>
    <polygon class="cls-7" points="159.74 220.53 158.99 191.78 169.91 190.55 168.49 220.46 159.74 220.53"/>
    <path class="cls-14" d="M130.62,139.9c10.64,.07,21.3,.14,31.9,1.11,4.23,.39,8.8,1.08,11.74,4.15,2.75,2.87,3.4,7.1,3.9,11.04,1.55,12.02,3.09,24.04,4.64,36.07-14.7,1.5-29.59,1.03-44.17-1.4,.1-8.94,.21-17.87,.31-26.81l.23-4.2-16.39-1.07,7.83-18.89Z"/>
    <path class="cls-8" d="M166.81,153.87c-.07-.03,.4-1.2,1.06-2.61,.66-1.41,1.25-2.52,1.32-2.49,.07,.03-.4,1.2-1.06,2.61-.66,1.41-1.25,2.52-1.32,2.49"/>
    <path class="cls-8" d="M172.1,165.93c-.06,.05-.78-.77-1.6-1.84-.82-1.07-1.43-1.97-1.36-2.02,.06-.05,.78,.77,1.6,1.84s1.43,1.97,1.37,2.02"/>
    <path class="cls-8" d="M170.2,173.04c.06,.06-.62,.79-1.52,1.63-.89,.84-1.66,1.48-1.72,1.42-.06-.06,.62-.79,1.52-1.63,.89-.84,1.66-1.48,1.72-1.42"/>
    <path class="cls-8" d="M178.1,180.19c-.08,.02-.41-1.01-.73-2.31-.32-1.29-.52-2.36-.45-2.38,.08-.02,.41,1.01,.73,2.31s.52,2.36,.44,2.38"/>
    <path class="cls-8" d="M171.48,187.76c-.08,.03-.45-.83-.84-1.92-.39-1.09-.64-1.99-.57-2.02,.08-.03,.45,.83,.84,1.92,.39,1.09,.64,1.99,.57,2.02"/>
    <path class="cls-8" d="M163.09,168.23c.08,.02-.11,1.11-.42,2.44-.31,1.33-.63,2.39-.71,2.37-.08-.02,.11-1.11,.42-2.44,.31-1.33,.63-2.39,.71-2.37"/>
    <rect class="cls-17" x="152.38" y="128.97" width="43.31" height="2.11"/>
    <polygon class="cls-17" points="202.4 131.08 210.52 100.64 176.7 100.64 169.35 131.08 202.4 131.08"/>
    <polygon class="cls-3" points="171.38 128.78 201.59 128.78 208.62 102.04 178.25 102.04 171.38 128.78"/>
    <polygon class="cls-15" points="179 107.22 177.13 114.79 197.16 114.79 199.3 107.22 179 107.22"/>
    <path class="cls-16" d="M195.07,106.22c0,.08-3.51,.15-7.85,.15s-7.85-.07-7.85-.15,3.51-.15,7.85-.15,7.85,.07,7.85,.15"/>
    <path class="cls-17" d="M185.94,108.67c0,.08-1.42,.15-3.16,.15s-3.16-.07-3.16-.15,1.42-.15,3.16-.15,3.16,.07,3.16,.15"/>
    <path class="cls-17" d="M191.01,108.55c0,.08-.92,.15-2.06,.15s-2.06-.07-2.06-.15,.92-.15,2.06-.15,2.06,.07,2.06,.15"/>
    <path class="cls-16" d="M196.74,110.04c0,.08-3.87,.15-8.65,.15s-8.65-.07-8.65-.15,3.87-.15,8.65-.15,8.65,.07,8.65,.15"/>
    <path class="cls-10" d="M184.69,111.3c0,.08-1.26,.15-2.8,.15s-2.8-.07-2.8-.15,1.26-.15,2.8-.15,2.8,.07,2.8,.15"/>
    <path class="cls-16" d="M195.19,113.09c0,.08-3.59,.15-8.03,.15s-8.03-.07-8.03-.15,3.59-.15,8.03-.15,8.03,.07,8.03,.15"/>
    <path class="cls-16" d="M183.38,116.97c0,.08-1.39,.15-3.1,.15s-3.1-.07-3.1-.15,1.39-.15,3.1-.15,3.1,.07,3.1,.15"/>
    <path class="cls-17" d="M188.69,116.99c0,.08-.95,.14-2.12,.13-1.17,0-2.12-.08-2.12-.16,0-.08,.95-.14,2.12-.13,1.17,0,2.12,.08,2.12,.16"/>
    <path class="cls-17" d="M191.67,116.85c0,.08-.4,.15-.9,.15s-.9-.07-.9-.15,.4-.15,.9-.15,.9,.07,.9,.15"/>
    <path class="cls-10" d="M179.26,118.52c0,.08-.44,.15-.98,.15s-.99-.07-.99-.15,.44-.15,.99-.15,.98,.07,.98,.15"/>
    <path class="cls-17" d="M185.17,118.52c0,.08-1.06,.15-2.36,.15s-2.36-.07-2.36-.15,1.05-.15,2.36-.15,2.36,.07,2.36,.15"/>
    <path class="cls-16" d="M199.25,118.34c0,.08-2.82,.15-6.3,.15s-6.3-.07-6.3-.15,2.82-.15,6.3-.15,6.3,.07,6.3,.15"/>
    <path class="cls-17" d="M178.96,120.13c0,.08-.45,.15-1.01,.15s-1.02-.07-1.02-.15,.45-.15,1.02-.15,1.01,.07,1.01,.15"/>
    <path class="cls-17" d="M182.06,120.07c0,.08-.55,.15-1.22,.15s-1.22-.07-1.22-.15,.55-.15,1.22-.15,1.22,.07,1.22,.15"/>
    <path class="cls-16" d="M191.31,119.95c0,.08-1.78,.15-3.97,.15s-3.97-.07-3.97-.15,1.78-.15,3.97-.15,3.97,.07,3.97,.15"/>
    <path class="cls-16" d="M186.42,122.75c0,.08-2.15,.15-4.8,.15s-4.8-.07-4.8-.15,2.15-.15,4.8-.15,4.8,.07,4.8,.15"/>
    <path class="cls-10" d="M192.03,122.63c0,.08-.98,.15-2.18,.15s-2.18-.07-2.18-.15,.97-.15,2.18-.15,2.18,.07,2.18,.15"/>
    <path class="cls-17" d="M200.35,122.63c0,.08-1.62,.15-3.61,.15s-3.61-.07-3.61-.15,1.62-.15,3.61-.15,3.61,.07,3.61,.15"/>
    <path class="cls-17" d="M198.41,106.11c0,.08-.33,.15-.75,.15s-.75-.07-.75-.15,.33-.15,.75-.15,.75,.07,.75,.15"/>
    <path class="cls-10" d="M183.2,105.09c0,.08-.74,.15-1.64,.15s-1.64-.07-1.64-.15,.73-.15,1.64-.15,1.64,.07,1.64,.15"/>
    <polygon class="cls-6" points="208.11 103.97 177.74 103.97 178.25 102.04 208.62 102.04 208.11 103.97"/>
    <path class="cls-8" d="M179.86,103.02c0,.18-.15,.33-.33,.33s-.33-.15-.33-.33,.15-.33,.33-.33,.33,.15,.33,.33"/>
    <path class="cls-8" d="M181,103.02c0,.18-.15,.33-.33,.33s-.33-.15-.33-.33,.15-.33,.33-.33,.33,.15,.33,.33"/>
    <path class="cls-8" d="M182.15,103.02c0,.18-.15,.33-.33,.33s-.33-.15-.33-.33,.15-.33,.33-.33,.33,.15,.33,.33"/>
    <path class="cls-7" d="M145.81,115.18l4.34,13.06c1.17,3.53,4.25,4.13,7.97,4.13h24.12v-5.41l-22.04-3.15-5.25-13.42-9.14,4.79Z"/>
    <path class="cls-7" d="M184.89,125.83l1.91-.91s2.06-3.99,2.54-3.83c.47,.16,.61,1.33-.22,3.16l2.54-.73s5.51,2.55,5.27,2.89c-.24,.34-.7,1.16-1.9,.54-1.2-.61-2.77-1.34-2.77-1.34l-2.97,.85,3.83,.49,3.6,3.28s-1.18,.89-2.2-.05l-9.36,2.01-2.93,.17v-5.41l2.65-1.12Z"/>
    <path class="cls-4" d="M194.52,130.19s-.21-.25-.55-.62c-.17-.18-.4-.37-.68-.53-.27-.15-.63-.22-1.01-.26-1.56-.18-2.82-.4-2.81-.48,.01-.08,1.28,0,2.84,.19,.39,.05,.79,.12,1.11,.32,.3,.19,.54,.41,.7,.62,.32,.43,.42,.74,.39,.75"/>
    <path class="cls-4" d="M193.06,130.56s-.07-.19-.33-.25c-.27-.05-.69-.1-1.14-.14-.9-.09-1.64-.08-1.64-.17-.01-.08,.74-.22,1.67-.12,.47,.05,.87,.12,1.18,.24,.16,.07,.26,.2,.29,.29,.02,.1-.01,.15-.03,.15"/>
    <path class="cls-7" d="M128.33,67.13l-1.31,26.53,11.36,1.07,.63-6.44s4.01,.99,5.22-2.72c.78-2.37,1.47-20.91,1.47-20.91l-17.37,2.47Z"/>
    <path class="cls-17" d="M146.68,67.76c.31,2.48-3.16,3.92-3.16,3.92l-.61,5.87c-.48-.08-1.63-.01-1.63-.01,.29-2.76-3.26-2.22-3.62-.34-.35,1.81,1.71,3.01,1.71,3.01-1.42,2.18-2,3.33-4.01,5.37-2.18,2.21-3.36,2.39-5.61,2.32l-2.48-.11s-.88-2.12-1.53-7.13c-.31-2.41-2.19-5.57-1.66-9.48,1.52-11.13,12.18-9.95,12.18-9.95,5.53,.15,9.68,.77,10.41,6.53"/>
    <path class="cls-17" d="M138.51,61.55c2.41,.06,4.9,.25,7.02,1.41,2.12,1.16,3.82,4.25,3.38,6.62-.4,.07-.84,.23-1.24,.31-.16-.3-.37-1.4-.53-1.7,0,.47-.14,1.54-.14,2.01-.71,.2-1.26-.2-1.96,0-.31-1.8-.95-3.54-1.87-5.12"/>
    <path class="cls-14" d="M146.7,117.33l2.19,7.11,13.07-3.06c-.42-1.32-4.05-9.63-7.77-18.93-2.08-5.18-6.7-8.92-12.2-9.84-3.85-.64-8.04-1.14-11.27-1.11-6.6,.07-15.15,2.85-16.46,9.32-1,4.94,1.22,13.01,1.22,23.61l-1.56,22.25,32.8,1.11-3.32-19.53,3.32-10.94Z"/>
    <g class="cls-37">
      <g class="cls-31">
        <path d="M113.07,121.75c4.12,.84,8.34,0,12.54-.26,2.54-.15,5.36-.43,7.38,1.14,1.59,1.24,2.24,3.32,2.7,5.29,1,4.26,1.68,13.08,2.16,21.31,.32,5.55,3.59,10.49,8.56,12.97,1.31,.65,4.77,.68,4.79,1.12l-33.63,1.38-4.5-42.95Z"/>
      </g>
    </g>
    <rect class="cls-16" x="132.93" y="166.15" width="4.11" height="49.28"/>
    <path class="cls-16" d="M98.42,118.31v36.28c0,4.76,3.86,8.62,8.61,8.62h24.16v-44.89c0-2.12-1.72-3.84-3.84-3.84h-25.09c-2.12,0-3.84,1.72-3.84,3.84"/>
    <path class="cls-16" d="M163.7,166.15h-58.83c0-3.53,2.86-6.39,6.39-6.39h46.06c3.53,0,6.39,2.86,6.39,6.39"/>
    <path class="cls-17" d="M131.19,158.91s.02,.1,.02,.28c0,.18-.02,.45-.1,.79-.14,.67-.57,1.67-1.58,2.45-.5,.38-1.13,.71-1.87,.83-.74,.12-1.51,.06-2.33,.09-1.63,0-3.41,.01-5.29,.02-3.75,0-7.15,0-9.6-.03-1.19-.02-2.17-.03-2.91-.04-.31-.01-.58-.02-.79-.03-.18,0-.28-.02-.28-.03,0,0,.1-.02,.28-.03,.22,0,.48-.02,.79-.03,.74-.01,1.72-.03,2.91-.05,2.46-.03,5.85-.05,9.6-.06,1.87,0,3.66,0,5.29,0,.81-.01,1.6,.05,2.28-.06,.7-.11,1.3-.4,1.78-.76,.97-.72,1.42-1.66,1.59-2.3,.18-.66,.16-1.04,.19-1.04"/>
    <path class="cls-17" d="M138.59,166.27c0,.08-1.62,.15-3.61,.15s-3.61-.07-3.61-.15,1.62-.15,3.61-.15,3.61,.07,3.61,.15"/>
    <path class="cls-16" d="M156.49,163.52s-.17-.61-.37-1.73c-.2-1.12-.46-2.74-.77-4.74-.34-2-.53-4.43-1.63-6.83-.55-1.2-1.28-2.38-2.19-3.49-.91-1.11-2.03-2.1-3.28-2.95-1.26-.85-2.6-1.51-3.98-1.92-1.37-.41-2.74-.68-4.06-.7-2.66-.06-5.09-.05-7.12-.09-2.03-.03-3.67-.06-4.8-.1-1.13-.04-1.76-.08-1.76-.12s.63-.08,1.76-.12c1.13-.04,2.78-.07,4.8-.1,2.03-.02,4.43-.07,7.13-.04,1.37,0,2.79,.27,4.21,.69,1.43,.42,2.83,1.1,4.14,1.98,1.3,.88,2.46,1.93,3.4,3.08,.93,1.16,1.68,2.39,2.24,3.64,.13,.31,.24,.63,.36,.94,.06,.15,.12,.31,.18,.46,.04,.16,.09,.31,.13,.47,.09,.31,.17,.62,.26,.92,.06,.31,.11,.61,.16,.91,.21,1.19,.32,2.29,.46,3.29,.26,2.01,.46,3.64,.58,4.77,.12,1.13,.17,1.75,.13,1.76"/>
    <path class="cls-16" d="M152.98,219.89h-.58c0-9.65-7.85-17.5-17.5-17.5s-17.5,7.85-17.5,17.5h-.58c0-9.97,8.11-18.08,18.08-18.08s18.08,8.11,18.08,18.08"/>
    <path class="cls-17" d="M119.81,220.79c0,1.5-1.21,2.71-2.71,2.71s-2.71-1.21-2.71-2.71,1.21-2.71,2.71-2.71,2.71,1.21,2.71,2.71"/>
    <path class="cls-17" d="M155.53,220.42c0,1.5-1.21,2.71-2.71,2.71s-2.71-1.21-2.71-2.71,1.21-2.71,2.71-2.71,2.71,1.21,2.71,2.71"/>
    <path class="cls-16" d="M152.8,215.43c0,.08-7.87,.15-17.57,.15s-17.58-.07-17.58-.15,7.87-.15,17.58-.15,17.57,.07,17.57,.15"/>
    <path class="cls-17" d="M127.67,87.85c2.09,.07,3.96,.12,6.71-.22,2.16-.27,5.26-1.67,6.86-3.14,1.14-1.04,1.42-1.59,1.49-3.77l.18-3.17-3.2-8.73-8.17-.67-7.56,3.46-.69,11.45c-.15,2.55,1.82,4.71,4.37,4.8"/>
    <path class="cls-17" d="M142.1,82.05c-.02,1.3-1.18,2.27-2.27,2.98-1.09,.71-2.32,1.48-2.65,2.74-.63,2.45,2.56,4.31,2.86,6.82,.22,1.83-1.12,3.43-1.97,5.06-1.41,2.72-1.51,6.09-.26,8.88-3.44,.3-6.9,.6-10.35,.73l-2.39-4.68-1.78,4.75c-3.03-.03-6.05-.24-9.05-.74,1.78-1.41,1.92-4.02,1.8-6.28-.12-2.26-.54-6.27,.96-7.97,1.04-1.17,2.66-1.68,3.73-2.82,1.55-1.65,.81-2.31,.05-4.11-.88-2.09-1.13-4.48-.77-6.71,.36-2.24,1.76-4.15,2.89-6.13,1.13-1.97,1.19-3.37,1.82-6.11"/>
    <path class="cls-17" d="M124.08,68.15c-1.19,2.23-3.53,3.8-6.05,4.06,1.16,.77,2.67,.99,4.01,.58-1.09,1.05-2.43,1.83-3.89,2.26,.49,1.26,1.98,1.8,3.33,1.89,2.39,.16,4.82-.64,6.64-2.2,1.82-1.56,3.53-5.29,2.02-9.23"/>
    <path class="cls-17" d="M126.52,67.6c1.21,.06,2.34-.81,2.82-1.92,.49-1.11,.41-2.4,.07-3.56-.31-1.04-.9-2.09-1.89-2.55-1.19-.56-2.64-.12-3.69,.66-1.23,.92-2.13,2.34-2.27,3.87-.14,1.53,.52,3.15,1.79,4.02,1.27,.87,3.11,.89,4.31-.08"/>
    <path class="cls-16" d="M119.56,76.34c.02-.07,1.03,.4,2.76,.39,.86,0,1.89-.15,2.95-.55,1.06-.39,2.15-1.06,3.05-2,.89-.96,1.48-2.09,1.81-3.17,.33-1.09,.42-2.12,.37-2.98-.1-1.73-.63-2.71-.56-2.73,0,0,.04,.05,.1,.17,.05,.12,.15,.28,.22,.52,.18,.46,.37,1.15,.44,2.03,.08,.88,.01,1.94-.32,3.07-.32,1.12-.93,2.3-1.85,3.29-.94,.98-2.07,1.66-3.17,2.05-1.1,.4-2.16,.53-3.04,.5-.88-.02-1.59-.16-2.05-.32-.24-.06-.41-.15-.53-.19-.12-.05-.18-.08-.18-.09"/>
    <path class="cls-16" d="M124.07,73.87c-.05-.08,1.35-.67,2.44-2.11,1.11-1.42,1.31-2.93,1.4-2.91,.03,0,.03,.38-.12,.97-.15,.59-.49,1.37-1.05,2.12-.57,.74-1.24,1.27-1.77,1.57-.53,.3-.89,.4-.9,.37"/>
    <path class="cls-16" d="M122.16,62.9s.04-.18,.22-.44c.18-.26,.5-.61,.99-.92,.49-.29,1.16-.53,1.93-.52,.77,0,1.6,.29,2.32,.81,.71,.53,1.22,1.23,1.5,1.94,.29,.71,.38,1.39,.38,1.96,0,.57-.09,1.02-.17,1.33-.08,.31-.15,.47-.17,.46-.06-.01,.17-.68,.13-1.79-.03-.55-.14-1.2-.42-1.86-.28-.66-.77-1.31-1.43-1.81-.66-.49-1.43-.76-2.15-.78-.71-.02-1.35,.18-1.83,.44-.97,.53-1.26,1.22-1.31,1.18"/>
    <path class="cls-16" d="M130.57,67.04s.44,.77,1.18,1.97c.38,.59,.87,1.28,1.55,1.9,.67,.63,1.58,1.12,2.62,1.34,1.04,.23,2.08,.26,3.01,.3,.94,.04,1.78,.04,2.47-.07,1.41-.19,2.09-.83,2.11-.78,0,.01-.14,.18-.48,.4-.34,.21-.89,.46-1.6,.58-.71,.13-1.57,.16-2.51,.13-.94-.03-1.98-.05-3.07-.29-1.08-.23-2.05-.76-2.74-1.43-.7-.66-1.18-1.38-1.54-1.99-.36-.62-.61-1.14-.78-1.5-.17-.36-.25-.57-.23-.58"/>
    <path class="cls-16" d="M130.57,67.04s.12,.22,.31,.64c.19,.41,.47,1.01,.84,1.73,.37,.72,.83,1.58,1.35,2.51,.53,.94,1.1,1.97,1.9,2.9,.78,.94,1.69,1.71,2.61,2.22,.92,.52,1.86,.79,2.65,.88,1.61,.2,2.58-.24,2.59-.17,0,0-.05,.04-.16,.08-.11,.05-.28,.1-.5,.16-.45,.11-1.12,.21-1.94,.13-.82-.07-1.79-.33-2.76-.85-.96-.52-1.9-1.3-2.71-2.27-.82-.96-1.39-2.02-1.91-2.96-.51-.95-.95-1.81-1.3-2.55-.35-.74-.6-1.35-.76-1.78-.16-.43-.22-.67-.2-.68"/>
    <path class="cls-16" d="M129.44,66.22s.19-.21,.6-.53c.4-.32,1.01-.76,1.82-1.22,.81-.45,1.82-.91,3.02-1.21,1.19-.3,2.58-.4,3.98-.16,1.41,.24,2.69,.82,3.65,1.61,.96,.79,1.61,1.73,1.98,2.59,.37,.86,.49,1.62,.51,2.14,0,.26,0,.46-.02,.6-.01,.14-.03,.21-.04,.21-.08,.01,.13-1.19-.64-2.85-.39-.82-1.03-1.72-1.96-2.46-.93-.75-2.17-1.29-3.53-1.53-1.36-.23-2.71-.14-3.87,.13-1.17,.27-2.18,.71-2.99,1.13-.81,.43-1.43,.84-1.85,1.13-.42,.29-.65,.46-.67,.44"/>
    <path class="cls-16" d="M136.58,61.29c.02,.1-1.69,.17-3.47,1.18-1.79,.98-2.76,2.4-2.83,2.33-.03-.02,.17-.39,.61-.92,.44-.52,1.16-1.16,2.07-1.68,.92-.51,1.84-.78,2.51-.88,.68-.11,1.1-.08,1.1-.04"/>
    <path class="cls-10" d="M124.68,68.8c.01-.06,.56,.18,1.47,.14,.89-.03,2.19-.44,3.05-1.53,.85-1.09,.93-2.45,.75-3.32-.17-.89-.53-1.37-.48-1.4,.01,0,.11,.1,.26,.32,.14,.22,.31,.57,.43,1.03,.24,.9,.19,2.36-.72,3.55-.93,1.18-2.34,1.57-3.27,1.55-.48,0-.86-.08-1.1-.17-.25-.08-.38-.16-.37-.17"/>
    <path class="cls-16" d="M129.94,108.77s-.07-.13-.19-.39c-.11-.26-.28-.64-.48-1.14-.39-.99-.98-2.44-1.33-4.34-.17-.95-.25-2.01-.14-3.15,.11-1.13,.42-2.34,1.1-3.45,.65-1.09,1.64-2.07,1.9-3.39,.27-1.32-.28-2.7-.98-3.95-.35-.64-.74-1.24-1.1-1.86-.35-.62-.67-1.26-.93-1.9-.52-1.28-.81-2.65-.63-3.94,.17-1.31,.89-2.37,1.54-3.27,.66-.91,1.27-1.76,1.59-2.65,.34-.88,.5-1.73,.59-2.48,.09-.75,.11-1.4,.12-1.94,0-.51,0-.92,.01-1.23,0-.28,0-.43,.02-.43,.01,0,.02,.15,.04,.43,.01,.28,.04,.7,.04,1.23,0,.54,0,1.19-.07,1.95-.07,.76-.22,1.63-.55,2.54-.33,.92-.94,1.8-1.59,2.71-.64,.91-1.31,1.93-1.47,3.17-.17,1.23,.11,2.55,.62,3.8,.26,.63,.57,1.25,.92,1.86,.35,.61,.74,1.22,1.1,1.86,.36,.64,.68,1.3,.88,2,.2,.7,.28,1.44,.13,2.14-.14,.71-.49,1.33-.86,1.88-.37,.56-.77,1.07-1.1,1.6-.65,1.06-.97,2.23-1.09,3.33-.12,1.11-.05,2.15,.11,3.09,.32,1.88,.88,3.33,1.23,4.33,.18,.48,.32,.86,.43,1.15,.1,.26,.14,.4,.13,.41"/>
    <path class="cls-17" d="M125.57,76.42s-.06,.11-.2,.31c-.15,.22-.35,.51-.6,.86-.5,.75-1.27,1.85-1.79,3.37-.25,.76-.42,1.64-.38,2.58,.02,.47,.1,.95,.26,1.42,.15,.47,.39,.94,.64,1.41,.49,.93,1.17,1.93,1.23,3.18,.03,.62-.15,1.24-.44,1.79-.29,.55-.69,1.04-1.13,1.49-.89,.9-1.88,1.61-2.58,2.52-.72,.9-1.01,2.01-1.07,3.06-.07,1.06,.07,2.07,.21,3.02,.14,.95,.26,1.84,.28,2.66,.07,1.65-.4,2.98-.93,3.73-.26,.38-.53,.63-.72,.77-.09,.08-.17,.12-.22,.16-.05,.03-.08,.05-.08,.04-.03-.03,.44-.28,.93-1.04,.49-.75,.92-2.04,.82-3.66-.03-.81-.17-1.69-.32-2.63-.14-.95-.29-1.98-.23-3.07,.05-1.08,.35-2.27,1.11-3.22,.73-.96,1.74-1.68,2.6-2.55,.85-.86,1.55-1.93,1.5-3.07-.04-1.14-.68-2.12-1.18-3.06-.25-.48-.5-.96-.65-1.46s-.24-1-.25-1.49c-.03-.98,.16-1.88,.43-2.66,.56-1.56,1.36-2.64,1.89-3.38,.27-.36,.49-.64,.65-.83,.15-.18,.24-.28,.25-.27"/>
    <path class="cls-16" d="M136.14,108.43s-.04-.01-.1-.05c-.06-.04-.16-.09-.27-.17-.23-.17-.54-.45-.83-.9-.6-.88-1.02-2.49-.64-4.38,.18-.94,.53-1.93,.9-2.97,.37-1.04,.76-2.16,.9-3.39,.15-1.22,.09-2.54-.22-3.84-.29-1.32-.9-2.57-1.68-3.78-.76-1.21-1.54-2.44-1.86-3.8-.34-1.34-.36-2.69-.27-3.94,.19-2.51,.67-4.71,.62-6.6,0-1.88-.43-3.37-.91-4.3-.49-.93-.94-1.33-.91-1.35,0,0,.47,.37,1.01,1.3,.53,.93,.99,2.45,1.02,4.35,.08,1.91-.38,4.14-.55,6.62-.08,1.24-.06,2.55,.28,3.85,.32,1.31,1.07,2.5,1.84,3.72,.78,1.21,1.41,2.52,1.71,3.87,.31,1.34,.37,2.69,.2,3.94-.16,1.26-.57,2.4-.95,3.44-.38,1.04-.73,2.01-.93,2.93-.4,1.83-.02,3.41,.53,4.28,.56,.9,1.14,1.14,1.11,1.18"/>
    <path class="cls-10" d="M168.95,220.83l-.03-1-9.43,.23,.06,3.3,.58,.03c2.59,.08,13.19,.25,14.91-.31,1.92-.63-6.1-2.25-6.1-2.25"/>
    <g class="cls-39">
      <g class="cls-33">
        <path class="cls-5" d="M162.96,223.21c-.15-.78-.6-1.5-1.24-1.97-.64-.47-1.42-.71-2.21-.63l.06,2.62,3.4-.02Z"/>
      </g>
    </g>
    <g class="cls-39">
      <g class="cls-32">
        <path class="cls-5" d="M172.87,221.75s2.81,.74,2.47,1.21c-.34,.47-11.05,.7-15.79,.39v-.21s12.51-.17,12.51-.17c0,0,.26-1.19,.8-1.23"/>
      </g>
    </g>
    <path class="cls-17" d="M159.42,223.15s.06,0,.16,.01c.14,0,.29,.01,.46,.02,.46,0,1.03,.02,1.71,.04,1.44,.02,3.43,.02,5.64-.02,2.2-.05,4.19-.13,5.63-.21,.67-.04,1.24-.08,1.71-.11,.17-.01,.32-.03,.46-.04,.11,0,.16-.02,.16-.02,0,0-.06,0-.16,0-.14,0-.29,0-.46,.02-.46,.02-1.03,.04-1.71,.07-1.44,.06-3.43,.13-5.63,.18-2.2,.05-4.19,.06-5.63,.06h-1.71c-.17,0-.33,0-.46,0-.11,0-.16,0-.16,0"/>
    <path class="cls-17" d="M172.07,223.13s.05-.4,.3-.82c.24-.42,.59-.64,.57-.67,0-.03-.41,.16-.67,.61-.26,.45-.23,.89-.2,.88"/>
    <path class="cls-17" d="M169.27,221.78s.16-.15,.29-.37c.13-.22,.22-.41,.19-.43-.03-.02-.16,.15-.29,.37-.13,.22-.22,.41-.19,.42"/>
    <path class="cls-17" d="M168.5,221.4s.17-.08,.33-.23c.16-.15,.27-.29,.25-.31-.02-.02-.17,.08-.33,.23-.16,.15-.27,.29-.25,.31"/>
    <path class="cls-17" d="M168,220.52s.22,.06,.49,.05c.27,0,.49-.03,.49-.06s-.22-.05-.49-.05c-.27,0-.49,.03-.49,.06"/>
    <path class="cls-17" d="M167.82,219.9s.23,.13,.55,.15c.32,.02,.57-.06,.56-.09,0-.03-.25,0-.56-.03-.3-.01-.55-.06-.56-.03"/>
    <path class="cls-17" d="M169.57,220.96s.23,.04,.6-.02c.18-.03,.4-.07,.64-.16,.12-.04,.24-.08,.36-.16,.06-.04,.12-.1,.15-.19,.02-.09-.03-.19-.1-.24-.58-.29-1.15,.05-1.36,.35-.11,.15-.16,.3-.19,.41-.02,.1-.02,.16-.01,.16,.02,0,.04-.24,.26-.52,.11-.14,.28-.27,.51-.35,.21-.07,.51-.09,.72,.03,.1,.07,.06,.18-.04,.25-.1,.07-.23,.11-.34,.15-.23,.08-.44,.14-.62,.18-.36,.07-.59,.08-.59,.1"/>
    <path class="cls-17" d="M169.72,220.98s.09-.15,.06-.42c-.02-.13-.07-.29-.17-.44-.11-.13-.25-.31-.51-.3-.14,.02-.2,.18-.18,.28,.01,.1,.06,.19,.11,.27,.09,.15,.2,.27,.29,.36,.19,.18,.34,.25,.35,.24,.01-.01-.12-.11-.29-.29-.08-.09-.18-.21-.26-.36-.09-.13-.15-.35,0-.38,.15-.02,.31,.13,.4,.25,.1,.13,.15,.27,.18,.39,.05,.24,0,.4,.02,.41"/>
    <path class="cls-17" d="M159.55,220.57s.27-.03,.69,0c.42,.04,1.01,.2,1.53,.59s.83,.92,.97,1.32c.15,.4,.17,.67,.19,.67,0,0,0-.07,0-.19-.01-.12-.04-.3-.11-.5-.13-.41-.44-.97-.98-1.38-.54-.41-1.15-.56-1.59-.58-.22,0-.4,0-.52,.02-.12,.02-.18,.04-.18,.05"/>
    <path class="cls-17" d="M164.12,222.27s.61,.12,1.37,.11c.76,0,1.38-.11,1.37-.14,0-.03-.62,.02-1.37,.03-.76,.01-1.37-.02-1.37,0"/>
    <path class="cls-17" d="M162.28,222.31s.05,.13,.12,.27c.07,.14,.1,.26,.14,.26,.03,0,.04-.15-.03-.31-.08-.16-.2-.24-.22-.22"/>
    <path class="cls-17" d="M161.56,221.46s.04,.12,.14,.22c.1,.1,.2,.16,.22,.13,.02-.02-.04-.12-.14-.22-.1-.1-.2-.16-.22-.13"/>
    <path class="cls-17" d="M160.56,221.09s.13,.03,.27,.07c.14,.04,.24,.12,.26,.1,.03-.02-.06-.15-.23-.2-.17-.06-.32,0-.3,.03"/>
    <path class="cls-17" d="M159.85,220.91s.04,.08,.12,.11c.08,.03,.15,.03,.16,0,.01-.03-.04-.08-.12-.11-.08-.03-.15-.03-.16,0"/>
    <path class="cls-17" d="M155.72,188.78c-.08,0,.2-5.04,.63-11.23,.43-6.2,.84-11.22,.92-11.21,.08,0-.2,5.04-.63,11.24-.43,6.2-.84,11.22-.92,11.21"/>
    <path class="cls-17" d="M161.14,190.06s-.05-.33-.1-.93c-.04-.65-.1-1.5-.17-2.53-.14-2.14-.35-5.09-.64-8.34-.29-3.26-.61-6.2-.86-8.32-.12-1.03-.21-1.88-.29-2.52-.07-.6-.09-.93-.07-.93,.02,0,.08,.32,.18,.91,.1,.59,.23,1.45,.38,2.51,.3,2.12,.65,5.06,.94,8.32,.29,3.26,.47,6.21,.56,8.36,.04,1.07,.07,1.94,.07,2.54,0,.6,0,.93-.02,.93"/>
    <g class="cls-37">
      <g class="cls-36">
        <path d="M163.41,165.83c-3.55,6.63-10.16,11.53-17.53,12.99-1.53,.3-3.21,.44-4.55-.34-1.84-1.07-2.41-3.47-2.38-5.59,.02-2.13,0-5.03,0-7.06h24.48Z"/>
      </g>
    </g>
    <path class="cls-17" d="M130.72,129.87c-.01-.08,2.8-.51,6.28-.97,3.48-.46,6.31-.76,6.32-.68,.01,.08-2.8,.51-6.29,.97-3.48,.46-6.31,.76-6.32,.68"/>
    <path class="cls-17" d="M139.31,128.83s-.39-.22-.95-.64c-.31-.24-.64-.49-.98-.76-.18-.15-.4-.34-.48-.65-.08-.32,.08-.64,.31-.84,.23-.21,.55-.31,.85-.26,.29,.05,.53,.2,.71,.38,.36,.37,.48,.84,.5,1.2,.03,.73-.1,1.15-.13,1.15-.05,0,0-.45-.08-1.13-.05-.33-.17-.73-.48-1.03-.29-.3-.82-.43-1.17-.1-.17,.15-.27,.37-.22,.56,.04,.2,.2,.36,.37,.51,.33,.28,.64,.55,.94,.81,.53,.47,.85,.77,.82,.8"/>
    <path class="cls-17" d="M138.93,128.86s0-.39,.27-.94c.13-.27,.32-.59,.58-.9,.13-.16,.27-.31,.45-.46,.19-.14,.42-.27,.72-.24,.15,0,.32,.13,.37,.28,.06,.16,.02,.32-.03,.43-.12,.23-.26,.37-.4,.52-.27,.3-.56,.52-.81,.69-.51,.33-.88,.43-.89,.4-.02-.04,.31-.21,.77-.57,.23-.18,.49-.41,.74-.7,.12-.15,.26-.31,.34-.46,.07-.16,.02-.29-.11-.3-.35-.03-.67,.32-.93,.59-.26,.28-.45,.57-.6,.82-.29,.5-.41,.86-.45,.84"/>
    <path class="cls-8" d="M156.67,190.95c-.08-.03,.35-1.29,.94-2.82,.6-1.53,1.14-2.74,1.22-2.71,.08,.03-.35,1.29-.94,2.82-.6,1.53-1.14,2.74-1.22,2.71"/>
    <path class="cls-8" d="M146.74,188c-.04,.07-1.15-.56-2.33-1.59-1.18-1.02-1.96-2.03-1.9-2.08,.06-.06,.93,.85,2.09,1.86,1.16,1.01,2.18,1.74,2.14,1.81"/>
    <path class="cls-8" d="M149.84,175.08c-.07,.05-.68-.71-1.38-1.69-.7-.98-1.2-1.81-1.14-1.86,.07-.05,.68,.71,1.38,1.69,.7,.98,1.21,1.81,1.14,1.86"/>
    <path class="cls-8" d="M144.85,157.17c-.06,.05-.85-.83-1.75-1.96-.9-1.13-1.58-2.09-1.52-2.14,.06-.05,.84,.83,1.75,1.96s1.58,2.09,1.52,2.14"/>
    <path class="cls-8" d="M157,154.89c0,.08-1.16,.19-2.61,.25s-2.61,.04-2.62-.04c0-.08,1.16-.19,2.61-.25,1.44-.06,2.61-.04,2.62,.04"/>
    <path class="cls-8" d="M159.8,147.62c-.07,.04-.57-.72-1.12-1.7-.55-.98-.93-1.8-.86-1.84,.07-.04,.57,.72,1.12,1.7s.93,1.8,.86,1.84"/>
    <path class="cls-8" d="M147.18,146.05c.03,.07-.8,.54-1.86,1.03-1.06,.5-1.95,.84-1.98,.77s.8-.54,1.86-1.03c1.06-.5,1.95-.84,1.98-.77"/>
    <path class="cls-8" d="M140.06,146.61c-.05,.06-1.11-.77-2.44-1.76-1.32-.99-2.42-1.78-2.37-1.85,.04-.07,1.21,.61,2.55,1.61,1.34,1,2.31,1.93,2.26,1.99"/>
    <path class="cls-8" d="M139.42,132.98c.03,.08-1.26,.54-2.76,1.31-1.5,.76-2.63,1.53-2.68,1.46-.05-.06,1.02-.95,2.55-1.72,1.52-.78,2.87-1.12,2.89-1.05"/>
    <path class="cls-8" d="M136.99,122.94c-.05,.06-.89-.68-1.87-1.65-.98-.97-1.72-1.81-1.66-1.86,.06-.05,.9,.69,1.87,1.65,.97,.97,1.71,1.8,1.66,1.86"/>
    <path class="cls-8" d="M144.12,115.52c.04,.07-.63,.6-1.52,1.19-.88,.59-1.63,1.01-1.68,.95-.04-.07,.63-.6,1.52-1.19,.88-.59,1.63-1.01,1.68-.95"/>
    <path class="cls-8" d="M138.37,114.21c-.06,.05-.77-.69-1.57-1.65-.8-.96-1.41-1.78-1.35-1.84,.06-.05,.77,.69,1.57,1.65,.8,.96,1.41,1.78,1.35,1.84"/>
    <path class="cls-8" d="M147.3,103.46c.03,.08-.99,.58-2.22,1.26-1.23,.68-2.2,1.28-2.24,1.21-.04-.06,.86-.78,2.1-1.47,1.24-.69,2.33-1.08,2.36-1.01"/>
    <path class="cls-8" d="M152.01,110.18c-.08-.02,.15-.97,.5-2.12,.36-1.15,.71-2.06,.78-2.03,.08,.02-.15,.97-.5,2.12-.35,1.15-.71,2.06-.78,2.03"/>
    <path class="cls-8" d="M154.13,117.83c-.03,.07-1.05-.27-2.16-.99-1.11-.71-1.85-1.49-1.8-1.55,.06-.06,.87,.61,1.96,1.3,1.08,.7,2.03,1.16,2,1.24"/>
    <path class="cls-8" d="M141.28,99.55c-.07-.04,.49-1.08,1.24-2.32,.76-1.24,1.42-2.21,1.49-2.17,.07,.04-.49,1.08-1.24,2.32-.76,1.24-1.42,2.21-1.49,2.17"/>
    <path class="cls-8" d="M128.44,111.9c-.02,.08-1.39-.12-3.07-.44-1.68-.32-3.03-.65-3.01-.73,.02-.08,1.39,.12,3.07,.44,1.68,.32,3.02,.65,3.01,.73"/>
    <rect class="cls-3" x="168.8" y="62.05" width="41.7" height="31.58"/>
    <rect class="cls-10" x="199.43" y="69.48" width="4.87" height="19.4"/>
    <rect class="cls-10" x="191.42" y="68.01" width="4.87" height="20.87"/>
    <rect class="cls-10" x="183.65" y="70.6" width="4.87" height="18.28"/>
    <g class="cls-38">
      <g class="cls-34">
        <rect class="cls-5" x="183.65" y="70.6" width="4.87" height="18.28"/>
      </g>
    </g>
    <rect class="cls-10" x="175.76" y="73.45" width="4.87" height="15.43"/>
    <rect class="cls-10" x="199.43" y="69.48" width="4.87" height="19.4"/>
    <path class="cls-17" d="M208,88.95c0,.08-8.01,.15-17.88,.15s-17.89-.07-17.89-.15,8.01-.15,17.89-.15,17.88,.07,17.88,.15"/>
    <path class="cls-17" d="M205.96,70.68s-.56-.07-1.56-.02c-.99,.07-2.47,.3-4.02,1.2-.78,.44-1.55,1.05-2.24,1.84-.7,.79-1.32,1.73-2.06,2.67-.74,.93-1.65,1.89-2.88,2.43-1.21,.55-2.59,.73-3.97,.78-1.38,.05-2.73-.02-4.01,.04-1.29,.06-2.53,.21-3.67,.5-1.14,.3-2.19,.72-3.08,1.28-.9,.54-1.6,1.24-2.14,1.94-1.08,1.43-1.42,2.9-1.45,3.89,0,1,.2,1.54,.16,1.54,0,0-.25-.52-.28-1.55-.01-1.01,.3-2.53,1.4-4.01,.55-.73,1.26-1.45,2.18-2.02,.91-.58,1.98-1.02,3.14-1.33,1.17-.3,2.42-.46,3.72-.53,1.3-.06,2.65,0,4.02-.05,1.36-.05,2.7-.22,3.86-.75,1.17-.51,2.05-1.42,2.78-2.34,.74-.93,1.37-1.87,2.09-2.67,.71-.8,1.52-1.42,2.32-1.86,1.6-.89,3.11-1.1,4.12-1.13,.51,0,.9,.02,1.16,.06,.26,.04,.4,.06,.4,.07"/>
    <path class="cls-17" d="M169.21,75.38s-.09,.01-.26,.01c-.19,0-.44,0-.76,0-.69,0-1.66-.02-2.88-.03-2.5-.04-6.04-.1-10.28-.17h-.12v-.13c0-4.37-.01-9.55-.02-15.1,.02-8.08,.03-15.39,.04-20.7,.02-2.63,.04-4.77,.05-6.27,.01-.72,.02-1.29,.03-1.71,0-.18,.01-.33,.02-.44,0-.1,.01-.15,.01-.15s.01,.05,.02,.15c0,.12,0,.26,.01,.44,0,.41,.02,.98,.03,1.71,.01,1.5,.03,3.64,.05,6.27,.01,5.32,.03,12.63,.04,20.7,0,5.54-.02,10.73-.02,15.1l-.12-.12c4.24,.11,7.78,.21,10.28,.27,1.22,.04,2.19,.07,2.87,.1,.32,.02,.57,.03,.76,.04,.17,.01,.26,.02,.26,.02"/>
    <path class="cls-17" d="M230.24,51.37s-.13,.02-.37,.03c-.27,0-.62,.02-1.05,.03-.95,.01-2.27,.03-3.87,.05-3.3,.01-7.81,.03-12.78,.04-2.64,0-5.15,0-7.4-.01l.13-.13c-.02,3.13-.04,5.78-.05,7.7-.02,.91-.03,1.65-.04,2.19,0,.23-.02,.42-.02,.58,0,.13-.01,.2-.02,.2,0,0-.01-.07-.02-.2,0-.16-.01-.35-.02-.58-.01-.54-.02-1.28-.04-2.19-.01-1.92-.03-4.57-.05-7.7v-.13s.13,0,.13,0c2.25,0,4.76,0,7.4-.01,4.97,.02,9.48,.03,12.78,.04,1.61,.02,2.92,.04,3.87,.05,.43,.01,.78,.02,1.05,.03,.24,.01,.37,.02,.37,.03"/>
    <path class="cls-17" d="M168.8,86.05s-.07,0-.2,.01c-.15,0-.34,0-.59,0-.54,0-1.3,0-2.28,0-1.99,0-4.85-.02-8.37-.03-7.08-.05-16.84-.12-27.62-.21-8.15-.08-15.72-.16-21.97-.22h-.08s-.03-.07-.03-.07c-2.02-4.74-3.7-8.66-4.88-11.42-.57-1.36-1.03-2.43-1.34-3.19-.15-.36-.26-.64-.34-.84-.08-.19-.11-.29-.11-.29,0,0,.05,.09,.14,.28,.09,.2,.22,.48,.38,.83,.33,.74,.8,1.81,1.4,3.16,1.2,2.75,2.91,6.66,4.98,11.38l-.11-.07c6.26,.05,13.83,.11,21.97,.17,10.78,.11,20.54,.22,27.62,.29,3.52,.05,6.38,.09,8.37,.12,.97,.02,1.74,.04,2.28,.05,.25,0,.44,.02,.59,.02,.13,0,.2,.01,.2,.02"/>
    <path class="cls-15" d="M111.81,85.62c0,1.41-1.15,2.56-2.56,2.56s-2.56-1.14-2.56-2.56,1.14-2.56,2.56-2.56,2.56,1.14,2.56,2.56"/>
    <path class="cls-16" d="M102.79,70.9h-15.39c-2.15,0-3.9-1.75-3.9-3.9s1.75-3.9,3.9-3.9h15.39c2.15,0,3.9,1.75,3.9,3.9s-1.75,3.9-3.9,3.9"/>
    <rect class="cls-3" x="93.45" y="27.81" width="35.85" height="23.8"/>
    <rect class="cls-14" x="113.06" y="34.99" width="23.8" height="9.45"/>
    <path class="cls-15" d="M108.66,35.4c0,.08-2.49,.15-5.57,.15s-5.57-.07-5.57-.15,2.49-.15,5.57-.15,5.57,.07,5.57,.15"/>
    <path class="cls-15" d="M108.66,37.12c0,.08-2.49,.15-5.57,.15s-5.57-.07-5.57-.15,2.49-.15,5.57-.15,5.57,.07,5.57,.15"/>
    <path class="cls-15" d="M108.66,38.85c0,.08-2.49,.15-5.57,.15s-5.57-.07-5.57-.15,2.49-.15,5.57-.15,5.57,.07,5.57,.15"/>
    <path class="cls-15" d="M108.66,40.58c0,.08-2.49,.15-5.57,.15s-5.57-.07-5.57-.15,2.49-.15,5.57-.15,5.57,.07,5.57,.15"/>
    <path class="cls-15" d="M108.66,42.3c0,.08-2.49,.15-5.57,.15s-5.57-.07-5.57-.15,2.49-.15,5.57-.15,5.57,.07,5.57,.15"/>
    <path class="cls-15" d="M104.06,44.03c0,.08-1.47,.15-3.27,.15s-3.27-.07-3.27-.15,1.46-.15,3.27-.15,3.27,.07,3.27,.15"/>
    <path class="cls-15" d="M129.02,31.31c0,.08-7.96,.15-17.78,.15s-17.78-.07-17.78-.15,7.96-.15,17.78-.15,17.78,.07,17.78,.15"/>
    <path class="cls-17" d="M193.47,53.05s0-.09-.01-.26c0-.18,0-.43-.02-.73,0-.65-.02-1.57-.03-2.72-.02-2.35-.04-5.66-.07-9.63l.13,.13c-3.88,0-8.45,.01-13.33,.02-.03,.03,.28-.28,.14-.14h0v1.81c0,.6,0,1.2,0,1.78,0,1.18,0,2.33,0,3.45,0,2.24,0,4.35-.01,6.29l-.13-.13c3.97,.03,7.28,.05,9.63,.07,1.15,.01,2.07,.02,2.72,.03,.3,0,.54,.01,.73,.02,.17,0,.25,0,.26,.01,0,0-.07,.01-.23,.01-.18,0-.41,0-.7,.02-.65,0-1.55,.02-2.7,.03-2.37,.02-5.71,.04-9.71,.07h-.13s0-.13,0-.13c0-1.94,0-4.05-.01-6.29,0-1.12,0-2.27,0-3.45,0-.59,0-1.18,0-1.78v-1.8h0c-.13,.12,.18-.19,.15-.16,4.88,0,9.45,.01,13.33,.02h.13v.13c-.03,4-.05,7.34-.07,9.71-.01,1.14-.02,2.05-.03,2.7,0,.29-.01,.52-.02,.7,0,.16,0,.24-.01,.23"/>
    <rect class="cls-15" x="196.2" y="34.01" width="6.67" height="6.67"/>
    <path class="cls-16" d="M247.79,55.28h-15.39c-2.16,0-3.9-1.75-3.9-3.9s1.75-3.9,3.9-3.9h15.39c2.15,0,3.9,1.75,3.9,3.9s-1.75,3.9-3.9,3.9"/>
    <path class="cls-15" d="M207.25,51.42c0,1.41-1.15,2.56-2.56,2.56s-2.56-1.14-2.56-2.56,1.14-2.56,2.56-2.56,2.56,1.14,2.56,2.56"/>
    <path class="cls-15" d="M157.87,74.73c0,1.41-1.15,2.56-2.56,2.56s-2.56-1.14-2.56-2.56,1.14-2.56,2.56-2.56,2.56,1.14,2.56,2.56"/>
    <path class="cls-16" d="M162.74,35.21h-15.39c-2.16,0-3.9-1.75-3.9-3.9s1.75-3.9,3.9-3.9h15.39c2.15,0,3.9,1.75,3.9,3.9s-1.75,3.9-3.9,3.9"/>
  </g>
</svg>