<?xml version="1.0" encoding="UTF-8"?>
<svg xmlns="http://www.w3.org/2000/svg" xmlns:xlink="http://www.w3.org/1999/xlink" viewBox="0 0 555.44 303.66">
  <defs>
    <style>
      .cls-1 {
        fill: none;
      }

      .cls-2 {
        fill: url(#linear-gradient);
      }

      .cls-3 {
        clip-path: url(#clippath);
      }

      .cls-4 {
        fill: #f4d2c6;
      }

      .cls-5 {
        fill: #f9ce68;
      }

      .cls-6 {
        fill: #f08f3c;
      }

      .cls-7 {
        fill: #f79647;
      }

      .cls-8 {
        fill: #fff;
      }

      .cls-9 {
        fill: #ffe24c;
      }

      .cls-10 {
        fill: #eda19d;
      }

      .cls-11 {
        fill: #324d90;
      }

      .cls-12 {
        fill: #be1e2d;
      }

      .cls-13 {
        fill: #231f20;
      }

      .cls-14 {
        fill: #4292f3;
      }

      .cls-15 {
        fill: #152e60;
      }

      .cls-16 {
        fill: #1a1949;
      }

      .cls-17 {
        fill: #2a437d;
      }

      .cls-18 {
        fill: #3c7ed7;
      }

      .cls-19 {
        fill: #59445a;
      }

      .cls-20 {
        clip-path: url(#clippath-1);
      }

      .cls-21 {
        clip-path: url(#clippath-4);
      }

      .cls-22 {
        clip-path: url(#clippath-3);
      }

      .cls-23 {
        clip-path: url(#clippath-2);
      }

      .cls-24 {
        clip-path: url(#clippath-7);
      }

      .cls-25 {
        clip-path: url(#clippath-8);
      }

      .cls-26 {
        clip-path: url(#clippath-6);
      }

      .cls-27 {
        clip-path: url(#clippath-5);
      }

      .cls-28 {
        clip-path: url(#clippath-9);
      }

      .cls-29 {
        clip-path: url(#clippath-10);
      }

      .cls-30 {
        clip-path: url(#clippath-11);
      }

      .cls-31 {
        mix-blend-mode: color-burn;
      }

      .cls-32 {
        fill: url(#linear-gradient-3);
      }

      .cls-33 {
        fill: url(#linear-gradient-4);
      }

      .cls-34 {
        fill: url(#linear-gradient-2);
      }

      .cls-35 {
        isolation: isolate;
      }
    </style>
    <clipPath id="clippath">
      <rect class="cls-1" x="325.73" y="61.06" width="95.96" height="109.09"/>
    </clipPath>
    <clipPath id="clippath-1">
      <polygon class="cls-1" points="165.93 126.01 169.03 288.74 179.98 288.74 202.92 125.65 165.93 126.01"/>
    </clipPath>
    <clipPath id="clippath-2">
      <path class="cls-1" d="M203.91,221.32l.11,.02-11.27,65.28,10.93,3.47,18.36-54.19c6.79-14.88,4.32-92.88,5.71-109.89l-36.99-.37,13.15,95.67Z"/>
    </clipPath>
    <clipPath id="clippath-3">
      <path class="cls-1" d="M105.62,19.96l31.54,50.7c1.82,2.92,4.62,5.09,7.9,6.12l39.91,8.58,13.06-23.15-44.99-8.39L115.81,11.04l-10.18,8.92Z"/>
    </clipPath>
    <linearGradient id="linear-gradient" x1="-185.07" y1="354.02" x2="-184.07" y2="354.02" gradientTransform="translate(17208.59 32765.1) scale(92.41 -92.41)" gradientUnits="userSpaceOnUse">
      <stop offset="0" stop-color="#fff33b"/>
      <stop offset=".04" stop-color="#fee62e"/>
      <stop offset=".12" stop-color="#fdd51b"/>
      <stop offset=".2" stop-color="#fdca0f"/>
      <stop offset=".28" stop-color="#fdc70c"/>
      <stop offset=".67" stop-color="#f3903f"/>
      <stop offset=".89" stop-color="#ed683c"/>
      <stop offset="1" stop-color="#e93e3a"/>
    </linearGradient>
    <clipPath id="clippath-4">
      <path class="cls-1" d="M190.3,36.43c.32,20.41,25.2,20.41,25.51,0-.16-10.2-6.46-15.31-12.76-15.31-6.3,0-12.6,5.1-12.76,15.31"/>
    </clipPath>
    <clipPath id="clippath-5">
      <path class="cls-1" d="M193.46,59.15c-11.12,0-20.65,9.57-22.65,22.75l-9.13,60.29h69.86l-9.13-60.29c-2.23-14.86-12.75-22.99-25.16-22.99-1.25,0-2.52,.08-3.8,.25"/>
    </clipPath>
    <linearGradient id="linear-gradient-2" x1="-185.07" y1="354.03" x2="-184.07" y2="354.03" gradientTransform="translate(13090.32 24832.05) scale(69.86 -69.86)" xlink:href="#linear-gradient"/>
    <clipPath id="clippath-6">
      <path class="cls-1" d="M253.79,75.94l-43.63-13.81,11.59,32.44,28.26,5.37c3.38,.64,6.87,.05,9.85-1.67l51.72-29.85-4.78-12.66-53.01,20.18Z"/>
    </clipPath>
    <linearGradient id="linear-gradient-3" x1="-185.07" y1="354.02" x2="-184.07" y2="354.02" gradientTransform="translate(18980.21 35983.97) scale(101.42 -101.42)" xlink:href="#linear-gradient"/>
    <clipPath id="clippath-7">
      <polygon class="cls-1" points="145.06 76.77 170.82 81.89 172.48 71.87 145.06 76.77"/>
    </clipPath>
    <linearGradient id="linear-gradient-4" x1="-185.09" y1="354.05" x2="-184.09" y2="354.05" gradientTransform="translate(5220.29 9785.03) scale(27.42 -27.42)" xlink:href="#linear-gradient"/>
    <clipPath id="clippath-8">
      <path class="cls-1" d="M411.52,129.27c2.53,16.9,3.67,92.73,13.57,106.67l25.06,51.43,10.4-4.82-19.44-63.33,.11-.03,6.09-97.68-35.79,7.77Z"/>
    </clipPath>
    <clipPath id="clippath-9">
      <path class="cls-1" d="M336.27,66.27l31.76,32.54c1.99,1.96,4.5,3.29,7.23,3.85,5.81,1.91,20.49-5.94,25.97-7.48l-8.94-16.95-14.27,5.7-37.35-25.84-4.4,8.18Z"/>
    </clipPath>
    <clipPath id="clippath-10">
      <path class="cls-1" d="M406.28,41.65c4.2,19.98,28.62,15.24,25.04-4.86-1.85-8.81-7.63-12.81-13.22-12.81-7.08,0-13.83,6.44-11.83,17.67"/>
    </clipPath>
    <clipPath id="clippath-11">
      <path class="cls-1" d="M455.43,102.08l13.98,12.15c11.21,4.33,58.73,27.68,69.44,31.13,4.67,.35,6.97-2.44,7.44-3.03,.46-.58-8.58-5.93-8.58-5.93,0,0,5.55-.23,6.25-1.4,.7-1.16-12.52-1.95-12.52-1.95-8.41-5.73-57.02-34.34-61.77-42.62l-14.24,11.65Z"/>
    </clipPath>
  </defs>
  <g class="cls-35">
    <g id="Layer_1" data-name="Layer 1">
      <g>
        <g>
          <path class="cls-12" d="M299.53,282.54c-4.04,.62-7.57-2.74-7.15-6.8l7.15-69.77,12.74-1.95-7.48,72.99c-.29,2.83-2.45,5.1-5.26,5.53"/>
          <path class="cls-12" d="M263.68,302.45c-4.8,.35-7.05-5.89-5.91-7.82,.56-2.01,28.58-102.73,28.58-102.73h12.75l-29.5,106.06c-.74,2.66-3.16,4.5-5.92,4.5"/>
          <path class="cls-12" d="M375.4,302.45c4.06,0,7.01-3.87,5.92-7.79l-28.59-102.76h-12.75l29.5,106.06c.74,2.66,3.16,4.5,5.92,4.5"/>
          <path class="cls-7" d="M415.88,158.02c-11.63-110.06-199.01-125.24-189.87,1.09,11.63,110.06,199.01,125.23,189.87-1.09"/>
          <path class="cls-9" d="M336.9,240.54c-116.03,2.45-154.68-172.96-22.33-180.03,116.02-2.45,154.67,172.96,22.33,180.03"/>
          <path class="cls-12" d="M334.44,220.75c-90.52,1.91-120.68-134.94-17.42-140.45,90.52-1.91,120.67,134.94,17.42,140.45"/>
          <path class="cls-9" d="M331.99,200.96c-65.02,1.37-86.68-96.92-12.51-100.88,65.02-1.37,86.68,96.92,12.51,100.88"/>
          <path class="cls-8" d="M329.53,181.18c-39.51,.83-52.68-58.9-7.6-61.31,39.51-.83,52.68,58.9,7.6,61.31"/>
          <path class="cls-5" d="M337.19,150.46c1.12,15.26-21.54,13.42-22.92,.13-1.12-15.26,21.53-13.42,22.92-.13"/>
          <g class="cls-31">
            <g class="cls-3">
              <path class="cls-6" d="M325.73,61.06s30.52,103.69,95.03,109.09c6.18-20.36-18-102.99-95.03-109.09"/>
            </g>
          </g>
          <path class="cls-4" d="M309.31,55.64c1.05-.48,1.9-1.31,2.41-2.35,1.66-3.41,5.55-11.09,6.97-11.43,1.84-.43-4.49,15.82-2.47,15.09,1.49-.55,3.7-3.53,5.38-3.3,1.68,.24,.22,3.26-1.78,6.02-1.28,1.77-9.55,5.77-9.55,5.77l-3.3-8.74,2.34-1.06Z"/>
          <path class="cls-4" d="M114.89,14.7s-.66-9.52-2.67-10.79c-2.01-1.28-10.13-2.56-11.59-.46-1.46,2.1-2.46,8.67-1.64,9.58,.82,.91,9.36,7.39,9.36,7.39l6.54-5.72Z"/>
          <path class="cls-13" d="M216.06,302.45c.3-3.88-5.57-4.96-8.11-6.31l-5.11-3.68-.26-4.39-8.89-1.98-3.98,13.16,14.39,3.2,.04-.06,11.92,.05Z"/>
          <polygon class="cls-11" points="165.93 126.01 169.03 288.74 179.98 288.74 202.92 125.65 165.93 126.01"/>
        </g>
        <g class="cls-20">
          <path class="cls-17" d="M196.77,169.36c-15.9,21.12-20.69,91.19-21.95,121.6h9.6l11.88-74.55,.47-47.04Z"/>
        </g>
        <path class="cls-11" d="M190.76,125.65l13.15,95.67,.11,.02-11.27,65.28,10.93,3.47,18.36-54.18c6.79-14.88,4.32-92.88,5.71-109.89l-36.99-.37Z"/>
        <g class="cls-23">
          <path class="cls-17" d="M196.77,169.36c24.73,66.42,16.91,54.85,.05,119.39l-8.62-2.65,10.5-68.15-1.93-48.58Z"/>
        </g>
        <g>
          <path class="cls-13" d="M170.87,288.74l-1.21,4.23-13.05,5.59c-1.56,.67-2.56,2.19-2.56,3.88h26.95l-1.02-13.71h-9.11Z"/>
          <polygon class="cls-17" points="166.2 142.2 227.44 142.2 166.46 154.04 166.2 142.2"/>
        </g>
        <g class="cls-22">
          <rect class="cls-2" x="105.62" y="11.04" width="92.41" height="74.32"/>
        </g>
        <g>
          <path class="cls-16" d="M214.1,24.36c.9,.89,4.34,7.96,1.72,12.06l-4.4-9.69,2.68-2.37Z"/>
          <path class="cls-4" d="M190.31,36.43c.32,20.41,25.2,20.41,25.51,0-.32-20.41-25.2-20.41-25.51,0"/>
        </g>
        <g class="cls-21">
          <path class="cls-10" d="M215.82,31.34s-14.37,4.6-19.29-2.27c-4.92-6.87,0,0,0,0l16.52-3.79,2.76,6.06Z"/>
        </g>
        <g>
          <path class="cls-4" d="M190.33,35.41s1.25,23.96-1.28,31.05c0,0,7.94,2.41,15.76,0,0,0-4.93-20.45-3.97-25.14l-10.51-5.91Z"/>
          <path class="cls-10" d="M201.77,51.86s-2.71-.04-6.28-2.94c0,0,.77,6.47,7,6.84l-.72-3.89Z"/>
          <path class="cls-19" d="M213.34,27.23c-2.95,1.31-17.73,4.43-22.17-.63,0,0-2.99-5.78,.7-7.92,3.69-2.13,22.78-3.8,22.78-3.8,0,0,2.08,9.39-1.32,12.35"/>
          <path class="cls-19" d="M196.09,25.29c2.41,9.91-.12,12.32-5.47,19.53-3.62-7.42-9.82-13.46-.59-21.69l6.06,2.16Z"/>
          <path class="cls-4" d="M190.03,37.43c.02,4.25,6.49,4.25,6.5,0-.02-4.25-6.49-4.25-6.5,0"/>
        </g>
        <g class="cls-27">
          <rect class="cls-34" x="161.69" y="58.9" width="69.86" height="83.28"/>
        </g>
        <g>
          <path class="cls-4" d="M189.35,59.59c2.52,7.48,12.04,7.47,14.56,0,0,0-6.23-3.37-14.56,0"/>
          <path class="cls-8" d="M189.35,59.59l6.95,5.63-2.88,1.82c-4.62,2.39-5.31-3.92-6.45-6.77,0,0,1.21-.53,2.38-.68"/>
          <path class="cls-8" d="M198.04,65.08l2.7,1.68c1.9,1.18,4.39,.09,4.81-2.1l.84-4.34s-1.9-.63-2.48-.72l-5.87,5.49Z"/>
          <polygon class="cls-17" points="196.3 65.22 191.69 106.39 198.04 118.08 203.26 106.35 198.04 65.08 196.3 65.22"/>
        </g>
        <g class="cls-26">
          <rect class="cls-32" x="210.16" y="55.76" width="101.42" height="44.83"/>
        </g>
        <polygon class="cls-18" points="224.42 95.08 222.38 80.74 250.01 99.94 224.42 95.08"/>
        <g class="cls-24">
          <rect class="cls-33" x="145.06" y="71.87" width="27.42" height="10.02"/>
        </g>
        <g>
          <path class="cls-10" d="M102.88,4.34s7.9,.95,7.22,3.82c-1.21,5.11-5.42,5.53-7.22,5.39,0,0,2.04,1.94,5.03,1.87,2.99-.07,4.78-6.96,3.67-8.47-2.11-2.85-8.7-2.61-8.7-2.61"/>
          <path class="cls-9" d="M541.06,29.56c-20.98,4.74-24.82,8.58-29.56,29.56-4.74-20.98-8.58-24.82-29.56-29.56,20.98-4.74,24.82-8.58,29.56-29.56,4.74,20.98,8.58,24.82,29.56,29.56"/>
          <path class="cls-9" d="M487.78,16c-9.62,2.17-11.38,3.94-13.56,13.56-2.17-9.62-3.94-11.38-13.56-13.56,9.62-2.17,11.38-3.94,13.56-13.56,2.17,9.62,3.94,11.38,13.56,13.56"/>
          <path class="cls-8" d="M59.81,115.09c5.29-19.12,3.84-23.92-11.15-36.92,19.12,5.29,23.92,3.84,36.92-11.15-5.29,19.12-3.84,23.92,11.15,36.92-19.12-5.29-23.92-3.84-36.92,11.15"/>
          <path class="cls-8" d="M94.06,77.68c2.43-8.77,1.76-10.97-5.11-16.93,8.77,2.43,10.97,1.76,16.93-5.11-2.43,8.77-1.76,10.97,5.11,16.93-8.77-2.43-10.97-1.76-16.93,5.11"/>
          <path class="cls-4" d="M541.9,227.16l-6.64-.57,1.06-10.29,8.27,1.48c7.96,4.9,2.78,7.94-2.69,9.38"/>
          <path class="cls-7" d="M549.12,242.71l3.78-26.02c-4.02-1.25-8.31-.79-12.25,.54,6.85,.85,5.01,7.26,1.1,9.7,0,0,.79,14.52,7.36,15.78"/>
          <path class="cls-11" d="M475.91,203.67l-9.07-83.83-36.74,4.32,22.88,83.8c1.35,4.95,4.34,9.29,8.48,12.31,6.3,7.55,66.14,5.28,75.41,6.92l1.97-10.77-62.93-12.74Z"/>
          <path class="cls-11" d="M447.31,121.5l-6.09,97.68-.11,.03,19.44,63.33-10.4,4.82-25.06-51.43c-9.89-13.93-11.03-89.77-13.57-106.67l35.79-7.77Z"/>
        </g>
        <g class="cls-25">
          <path class="cls-17" d="M457.43,284.88c-.4,.18-.64,.29-.64,.29,0,0-23.88-56.52-25.13-60.54-1.25-4.03,12.31-49.42,12.31-49.42l2,39.96,19.04,66.28s-5.64,2.56-7.57,3.43"/>
        </g>
        <path class="cls-4" d="M392.3,78.23l-14.27,5.7-37.35-25.84-4.4,8.18,31.76,32.54c1.99,1.96,4.5,3.29,7.23,3.85,5.81,1.91,20.49-5.94,25.97-7.48l-8.94-16.95Z"/>
        <g class="cls-28">
          <polygon class="cls-10" points="381.85 80.52 384.84 107 402.65 97.25 390.3 75.48 381.85 80.52"/>
        </g>
        <g>
          <path class="cls-19" d="M428.67,17.83c-.15,8.89-13.38,8.89-13.53,0,.15-8.89,13.38-8.89,13.53,0"/>
          <path class="cls-19" d="M410.67,23.77c-11.12,4.25-12.48,15.75-2.84,22.53,3.13-3.66,12.82-16.94,2.84-22.53"/>
          <path class="cls-4" d="M431.33,36.79c3.58,20.1-20.85,24.84-25.05,4.86-3.58-20.1,20.85-24.84,25.05-4.86"/>
        </g>
        <g class="cls-29">
          <path class="cls-10" d="M404.77,35.1c18.25,8.72,27.61-4.61,10.06-16.38-4.21,4.67-8.8,10.05-10.06,16.38"/>
        </g>
        <g>
          <path class="cls-4" d="M431.1,35.79s3.34,23.76,7.17,30.24c0,0-7.34,3.88-15.47,3,0,0,.95-21.02-.89-25.44l9.2-7.81Z"/>
          <path class="cls-10" d="M423.01,54.13s2.65-.55,5.6-4.09c0,0,.47,6.5-5.57,8.05l-.03-3.96Z"/>
          <path class="cls-19" d="M409.38,27.92s.78,7.54,10.22,8.59l-3.69-3.59s6.26,5.17,11.39,6.31c5.13,1.13,5.33,5.88,5.33,5.88,15.1-19.98-20.64-35.49-23.24-17.18"/>
          <path class="cls-14" d="M472.15,88.43l-22.95-21.81c-6.24-6.66-17.09-8.97-25.67-5.09-.76,.34-35.8,16.36-36.63,16.74l11.42,21.65,10.63-4.35-2.12,41.34c35.95,18.89,64.54-8.23,64.54-8.23l-9.98-31.59,10.76-8.67Z"/>
          <polygon class="cls-18" points="461.39 97.1 453.69 103.5 441.42 90.46 468.09 131.37 471.37 128.69 461.39 97.1"/>
          <path class="cls-18" d="M408.75,95.66s.37-10.83,2.54-20.18c0,0-11.27,9.36-12.98,24.45l10.44-4.27Z"/>
          <path class="cls-4" d="M418.8,63.69c5.79-4.37,16.14-5.85,22.61-2.33-4.36,2.66-18.68,11.16-22.61,2.33"/>
          <path class="cls-4" d="M341.24,58.54c-.94-.68-1.61-1.66-1.9-2.78-.96-3.67-3.25-11.97-4.59-12.58-1.72-.78,1.28,16.4-.55,15.28-1.35-.83-2.93-4.19-4.62-4.29-1.7-.1-.86,3.15,.56,6.26,.91,1.99,8.23,7.54,8.23,7.54l4.96-7.92-2.08-1.5Z"/>
          <path class="cls-4" d="M454.07,292.89l-2.9-6,9.39-4.35,2.95,7.86c-.14,9.34-5.4,6.45-9.44,2.49"/>
          <path class="cls-7" d="M439.51,302.45h25.96c1.5,0,2.51-1.53,1.92-2.91l-3.89-9.14c.15,6.91-6.46,6-9.44,2.49,0,0-14.26,2.86-14.56,9.56"/>
          <path class="cls-4" d="M537.71,136.4s5.55-.23,6.25-1.4c.7-1.16-12.52-1.95-12.52-1.95-8.41-5.73-57.01-34.34-61.77-42.62l-14.24,11.65,13.98,12.15c11.21,4.33,58.73,27.68,69.44,31.13,4.67,.35,6.97-2.45,7.44-3.03,.47-.58-8.57-5.93-8.57-5.93"/>
        </g>
        <g class="cls-30">
          <polygon class="cls-10" points="473.15 92.45 462.83 111.38 451.39 101.06 468.73 87.58 473.15 92.45"/>
        </g>
        <g>
          <path class="cls-17" d="M436.04,143.61s17.43-1.09,32.06-12.24l1.78,16.43s-21.57,4.8-33.84-4.18"/>
          <polygon class="cls-14" points="357.47 119.42 374.89 102.87 371.13 88.2 353.42 105.02 357.47 119.42"/>
          <polygon class="cls-14" points="358.56 120.57 375.99 104.02 390.44 108.53 372.74 125.35 358.56 120.57"/>
          <rect class="cls-15" x="315.95" y="125.37" width="68.97" height="3.64" transform="translate(8.74 276.28) rotate(-43.52)"/>
          <path class="cls-14" d="M0,302.45c184.21-1.6,371.24-1.61,555.44,0-184.21,1.61-371.24,1.6-555.44,0"/>
        </g>
      </g>
    </g>
  </g>
</svg>