<?xml version="1.0" encoding="UTF-8"?>
<svg id="Layer_1" data-name="Layer 1" xmlns="http://www.w3.org/2000/svg" viewBox="0 0 66.38 66.38">
  <defs>
    <style>
      .cls-1 {
        fill: #fff;
      }

      .cls-2 {
        fill: #ffe24c;
      }

      .cls-3 {
        fill: #26a9e0;
      }
    </style>
  </defs>
  <path class="cls-3" d="M33.19,0C14.86,0,0,14.86,0,33.19s14.86,33.19,33.19,33.19,33.19-14.86,33.19-33.19S51.52,0,33.19,0"/>
  <path class="cls-1" d="M32.27,53.25c-1.39,0-2.77,0-4.16,0-.7,0-.84-.14-.84-.82,0-1.12,0-2.24,0-3.36,0-.24,.01-.54-.32-.5-.11,.01-.27,.32-.27,.49-.02,1.13,0,2.27-.01,3.4,0,.62-.16,.78-.78,.78-.38,0-.76,.01-1.13,0-1-.05-1.87-.78-1.88-1.78-.01-1.38,0-2.78,.22-4.14,.35-2.14,1.66-3.64,3.62-4.53,.73-.33,1.5-.57,2.27-.79,.34-.1,.51-.26,.57-.59,.02-.12,.06-.25,.09-.37,.19-.8,.2-1.51-.61-2.06-.4-.27-.68-.75-.95-1.17-1.39-2.15-2.12-4.49-2.02-7.06,.02-.42,.04-.85,.12-1.27,.37-2.06,1.53-3.28,3.58-3.71,1.67-.35,3.36-.36,5.02,0,2.24,.47,3.5,1.91,3.71,4.19,.16,1.71,.13,3.49-.52,5.04-.67,1.6-1.35,3.3-2.84,4.42-.26,.2-.36,.42-.3,.73,0,.03,0,.06,0,.09,0,1.1,.35,1.84,1.62,2.02,.71,.1,1.4,.49,2.03,.85,2.11,1.19,3.04,3.12,3.21,5.46,.06,.91,.05,1.83,.03,2.74-.02,1.09-.83,1.89-1.93,1.93-.39,.02-.79,0-1.18,0-.51,0-.68-.17-.68-.68,0-1.1,0-2.21,0-3.31,0-.13,.04-.27-.02-.37-.07-.13-.21-.23-.32-.34-.09,.11-.22,.21-.27,.33-.05,.11-.02,.25-.02,.37,0,1.09,0,2.18,0,3.26,0,.57-.16,.73-.73,.73-1.43,0-2.87,0-4.3,0m-3.27-21.96c-.05,.1-.1,.15-.11,.2-.28,1.24-.56,2.49-.83,3.73-.02,.08,0,.19,.04,.27,.47,1.31,1.18,2.48,2.3,3.33,1.16,.89,2.43,.93,3.64,.1,1.23-.85,1.95-2.07,2.46-3.44,.03-.08,.04-.19,.02-.28-.22-1.01-.44-2.03-.7-3.04-.03-.13-.23-.26-.38-.3-.5-.13-1.02-.19-1.52-.33-.45-.12-.88-.31-1.4-.5,.11,.31,.22,.53,.28,.77,.1,.36,.44,.74,.04,1.09-.39,.34-.74,0-1.08-.18-.92-.47-1.83-.96-2.76-1.45m1.87,9.01c-.15,.63-.3,1.22-.43,1.82-.02,.07,.07,.2,.14,.25,.5,.36,1,.72,1.51,1.05,.1,.06,.3,.06,.4,0,.5-.32,.99-.67,1.48-1.02,.08-.06,.19-.2,.17-.29-.12-.59-.28-1.18-.43-1.81-.95,.37-1.9,.37-2.85,0"/>
  <path class="cls-1" d="M42.8,50.65h6.02c0-.76-.01-1.47,0-2.19,0-.19,.1-.38,.16-.58,.07,.2,.18,.39,.19,.59,.02,.7,0,1.41,0,2.17,.71,0,1.36,.02,2.02,0,.35-.02,.6-.28,.61-.62,.05-1.32,.1-2.65-.43-3.91-.19-.44-.44-.68-.98-.69-1.34-.03-2.48-.55-3.35-1.67-1.16,.79-2.34,.84-3.43,.05-.61,.47-1.17,.9-1.67,1.28-.77-.88-1.45-1.65-2.17-2.48,.45-.72,.33-1.55,.09-2.42-.54-1.9-.82-3.82-.4-5.79,.27-1.25,.79-2.37,1.78-3.2,1.13-.95,2.4-1.19,3.79-.61,.15,.06,.37,.06,.52,0,1.46-.6,2.76-.32,3.89,.71,1.18,1.08,1.66,2.49,1.81,4.04,.15,1.61-.08,3.17-.51,4.72-.56,2.06-.01,3.24,1.93,4.15,.28,.13,.74,.14,.7,.58-.05,.48-.54,.39-.86,.5-.17,.06-.36,.08-.61,.12,.79,1.45,.7,2.99,.69,4.51-.01,.89-.63,1.53-1.52,1.53-2.68,.01-5.36,0-8.04,0-.08,0-.15-.02-.25-.03v-.78Zm1.95-16.04c-.71,.8-1.5,1.37-2.46,1.71-.1,.04-.21,.26-.2,.39,.16,1.44,.69,2.72,1.77,3.71,.93,.85,1.99,.84,2.92-.04,1.05-1,1.56-2.27,1.74-3.68,.01-.11-.11-.32-.2-.34-1.32-.28-2.49-.88-3.57-1.75m1.87,8.42c-.14-.45-.28-.87-.42-1.3-.32,.04-.61,.09-.91,.09s-.58-.06-.89-.09c-.11,.35-.25,.68-.32,1.03-.03,.14,.03,.36,.14,.44,.7,.54,1.6,.47,2.41-.18"/>
  <path class="cls-1" d="M21.84,51.46c-1.71,0-3.33,0-4.95,0-.36,0-.49-.21-.49-.55,0-.87,.01-1.74-.01-2.6,0-.15-.15-.29-.23-.44-.08,.15-.23,.29-.23,.44-.02,.83,0,1.67-.01,2.51,0,.56-.08,.61-.63,.64-1.82,.12-2.41-.64-2.28-2.26,.06-.83,.07-1.68,.25-2.48,.4-1.83,1.67-2.9,3.36-3.53,.29-.11,.6-.23,.9-.27,.47-.06,.6-.34,.69-.75,.15-.64,.14-1.19-.48-1.61-.21-.14-.37-.39-.52-.61-1.43-2.08-2.06-4.35-1.6-6.86,.26-1.38,1.13-2.23,2.47-2.57,1.43-.36,2.88-.35,4.31,0,1.55,.38,2.45,1.52,2.58,3.17,.1,1.27,.09,2.58-.38,3.74-.49,1.21-1,2.49-2.08,3.36-.3,.24-.39,.5-.31,.86,.03,.14,.04,.28,.05,.42,.04,.49,.25,.8,.79,.88,.35,.05,.69,.21,1.12,.34-2.36,2.28-2.43,5.18-2.31,8.17m-4.1-16.77c-.06,.08-.11,.12-.11,.16-.21,.93-.42,1.87-.62,2.81-.02,.09,0,.19,.02,.27,.38,1.02,.93,1.93,1.83,2.57,.93,.66,1.88,.64,2.8-.03,.69-.5,1.16-1.19,1.54-1.94,.22-.43,.33-.85,.15-1.35-.14-.38-.22-.79-.26-1.2-.06-.61-.29-.92-.96-.97-.56-.04-1.1-.3-1.7-.47,.12,.34,.26,.63,.32,.93,.03,.14-.02,.35-.12,.45-.08,.08-.29,.07-.43,.03-.15-.03-.28-.13-.42-.21-.68-.35-1.35-.71-2.03-1.06m1.37,6.99c-.09,.37-.2,.79-.28,1.22-.02,.09,.07,.23,.15,.3q1.14,.96,2.35,.11c.07-.05,.15-.08,.19-.14,.06-.09,.12-.22,.1-.31-.08-.41-.18-.82-.26-1.18h-2.25Z"/>
  <path class="cls-2" d="M45.72,16.19c0-2.06,0-4.13,0-6.19,0-.86,.31-1.16,1.17-1.17,.96,0,1.92,0,2.88,0,.73,0,1.08,.35,1.08,1.07,0,4.22,0,8.44,0,12.66,0,.72-.36,1.07-1.08,1.07-.98,0-1.95,0-2.93,0-.8,0-1.13-.33-1.13-1.12,0-2.11,0-4.22,0-6.33"/>
  <path class="cls-2" d="M30.36,17.68c0-1.58,0-3.15,0-4.73,0-.91,.29-1.2,1.18-1.2,.95,0,1.89,0,2.84,0,.78,0,1.11,.32,1.11,1.08,0,3.23,0,6.46,0,9.69,0,.79-.33,1.11-1.13,1.11-.95,0-1.89,0-2.84,0-.83,0-1.15-.31-1.15-1.14,0-1.61,0-3.21,0-4.82"/>
  <path class="cls-2" d="M43.16,18.98c0,1.18,0,2.36,0,3.55,0,.79-.33,1.1-1.13,1.11-.98,0-1.96,0-2.93,0-.71,0-1.05-.35-1.05-1.04,0-2.43,0-4.85,0-7.28,0-.71,.34-1.06,1.04-1.06,1.01-.01,2.02,0,3.03,0,.71,0,1.05,.34,1.05,1.04,.01,1.23,0,2.46,0,3.69"/>
  <path class="cls-2" d="M27.8,20.22c0,.79,0,1.57,0,2.36,0,.7-.35,1.05-1.05,1.05-1.02,0-2.05,0-3.07,0-.64,0-1.01-.35-1.02-.98-.02-1.64-.02-3.27,0-4.91,0-.62,.37-.97,.98-.97,1.05-.01,2.11-.01,3.16,0,.64,0,.99,.36,.99,1,.01,.82,0,1.64,0,2.45"/>
  <path class="cls-2" d="M17.55,23.64c-.52,0-1.04,.01-1.56,0-.64-.02-1-.36-1.01-1-.01-.8-.01-1.61,0-2.41,.01-.6,.38-.96,.99-.97,1.05-.01,2.11-.02,3.16,0,.61,0,.97,.37,.99,.97,.02,.8,.02,1.61,0,2.41-.01,.63-.38,.98-1.01,1-.52,.01-1.04,0-1.56,0"/>
</svg>