<?xml version="1.0" encoding="UTF-8"?>
<svg id="Layer_1" data-name="Layer 1" xmlns="http://www.w3.org/2000/svg" xmlns:xlink="http://www.w3.org/1999/xlink" viewBox="0 0 264.46 279.32">
  <defs>
    <style>
      .cls-1 {
        fill: none;
      }

      .cls-2 {
        clip-path: url(#clippath);
      }

      .cls-3 {
        fill: #ff9b6c;
      }

      .cls-4 {
        fill: #fff;
      }

      .cls-5 {
        fill: #ffc09d;
      }

      .cls-6 {
        fill: #ff735d;
      }

      .cls-7 {
        fill: #8d4032;
      }

      .cls-8 {
        fill: #d8765f;
      }

      .cls-9 {
        fill: #c92f2f;
      }

      .cls-10 {
        fill: #e1e1e1;
      }

      .cls-11 {
        fill: #242122;
      }

      .cls-12 {
        fill: #375a64;
      }

      .cls-13 {
        fill: #1a2e35;
      }

      .cls-14 {
        clip-path: url(#clippath-1);
      }

      .cls-15 {
        clip-path: url(#clippath-4);
      }

      .cls-16 {
        clip-path: url(#clippath-3);
      }

      .cls-17 {
        clip-path: url(#clippath-2);
      }

      .cls-18 {
        clip-path: url(#clippath-7);
      }

      .cls-19 {
        clip-path: url(#clippath-6);
      }

      .cls-20 {
        clip-path: url(#clippath-5);
      }

      .cls-21 {
        opacity: .3;
      }
    </style>
    <clipPath id="clippath">
      <rect class="cls-1" x="112.8" y="13.03" width="31.16" height="31.16"/>
    </clipPath>
    <clipPath id="clippath-1">
      <rect class="cls-1" x="129.07" y="15.9" width="11.91" height="10.91"/>
    </clipPath>
    <clipPath id="clippath-2">
      <rect class="cls-1" x="156.71" y="195.87" width="74.58" height="22.89"/>
    </clipPath>
    <clipPath id="clippath-3">
      <rect class="cls-1" x="164.39" y="163.42" width="21.13" height="27.88"/>
    </clipPath>
    <clipPath id="clippath-4">
      <rect class="cls-1" x="67.55" y="124.51" width="25.41" height="10.35"/>
    </clipPath>
    <clipPath id="clippath-5">
      <rect class="cls-1" x="41.39" y="181.35" width="12.1" height="84.42"/>
    </clipPath>
    <clipPath id="clippath-6">
      <rect class="cls-1" x="64.39" y="213.7" width="52.9" height="9.86"/>
    </clipPath>
    <clipPath id="clippath-7">
      <rect class="cls-1" x="99.6" y="118.76" width="6.4" height="34.13"/>
    </clipPath>
  </defs>
  <path class="cls-13" d="M264.46,278.62c-24.38,0-70.85,.16-182.31,.16s-75.82-.16-75.73-.16c104.65,0-35.77-.16,75.73-.16s182.4,.16,182.31,.16"/>
  <path class="cls-4" d="M105.22,49.64l1.62-8.04c-2.7-3.87-4.4-8.5-4.69-13.55-.83-14.53,10.27-26.98,24.8-27.82,14.53-.83,26.98,10.27,27.82,24.8,.83,14.53-10.27,26.98-24.8,27.82-6.07,.35-11.77-1.39-16.42-4.58h0s-8.34,1.38-8.34,1.38Z"/>
  <path class="cls-13" d="M105.22,49.64s.17-.02,.52-.07c.37-.06,.9-.14,1.58-.24,1.43-.22,3.53-.55,6.25-.97,.05,0,.08-.05,.08-.1,0-.02-.01-.03-.02-.05h0s-.12,.12-.12,.12c2.78,1.93,6.89,3.97,12.15,4.55,1.31,.15,2.68,.19,4.1,.12,1.41-.14,2.89-.23,4.36-.6,2.96-.64,6.01-1.83,8.85-3.68,2.83-1.85,5.45-4.35,7.51-7.42,2.06-3.06,3.56-6.69,4.2-10.6,.66-3.91,.35-8.08-.88-12.07-1.24-3.98-3.43-7.8-6.54-10.84l-1.17-1.14-1.27-1.02-.63-.51-.67-.45-1.35-.89c-.46-.28-.94-.51-1.41-.77-.48-.24-.93-.53-1.43-.71-.99-.4-1.94-.85-2.96-1.11-4.01-1.25-8.21-1.5-12.14-.88-3.93,.65-7.57,2.17-10.64,4.26-3.07,2.09-5.57,4.74-7.4,7.59-1.84,2.86-3.02,5.92-3.65,8.89-.35,1.48-.44,2.96-.56,4.38,.02,1.42-.02,2.8,.16,4.11,.61,5.27,2.68,9.35,4.62,12.1v-.07c-.52,2.62-.91,4.64-1.17,6.02-.12,.66-.22,1.17-.29,1.53-.06,.34-.09,.5-.09,.5,0,0,.05-.19,.12-.54,.08-.36,.19-.88,.33-1.55,.29-1.36,.71-3.36,1.25-5.94,0-.03,0-.05-.01-.07-1.9-2.75-3.91-6.82-4.49-12.03-.17-1.3-.12-2.66-.14-4.06,.12-1.4,.22-2.86,.57-4.32,.63-2.93,1.8-5.95,3.63-8.77,1.82-2.81,4.29-5.41,7.32-7.47,3.02-2.05,6.61-3.54,10.48-4.18,3.87-.6,8-.35,11.95,.88,1,.26,1.95,.7,2.92,1.09,.49,.18,.94,.46,1.41,.7,.46,.25,.94,.48,1.39,.76l1.32,.88,.66,.44,.62,.5,1.25,1.01,1.15,1.12c3.06,3,5.22,6.75,6.44,10.67,1.21,3.92,1.52,8.03,.88,11.88-.62,3.85-2.09,7.42-4.11,10.44-2.02,3.03-4.6,5.5-7.39,7.33-2.79,1.84-5.8,3.02-8.72,3.66-1.46,.37-2.91,.46-4.31,.61-1.4,.07-2.76,.04-4.06-.1-5.21-.54-9.29-2.53-12.08-4.41-.04-.03-.1-.02-.13,.02-.03,.04-.02,.08,0,.11h0s.05-.14,.05-.14c-2.68,.47-4.75,.83-6.17,1.07-.69,.12-1.23,.22-1.6,.28-.36,.07-.56,.11-.56,.11"/>
  <path class="cls-6" d="M143.96,28.61c0,8.6-6.98,15.58-15.58,15.58s-15.58-6.98-15.58-15.58,6.98-15.58,15.58-15.58,15.58,6.98,15.58,15.58"/>
  <g class="cls-21">
    <g class="cls-2">
      <path d="M143.96,28.61c0,8.6-6.98,15.58-15.58,15.58s-15.58-6.98-15.58-15.58,6.98-15.58,15.58-15.58,15.58,6.98,15.58,15.58"/>
    </g>
  </g>
  <path class="cls-6" d="M143.96,26.88c0,8.6-6.98,15.58-15.58,15.58s-15.58-6.98-15.58-15.58,6.98-15.58,15.58-15.58,15.58,6.98,15.58,15.58"/>
  <path class="cls-4" d="M138.82,26.88c0,5.76-4.67,10.44-10.44,10.44s-10.43-4.67-10.43-10.44,4.67-10.43,10.43-10.43,10.44,4.67,10.44,10.43"/>
  <path class="cls-6" d="M133.49,26.88c0,2.82-2.29,5.11-5.11,5.11s-5.11-2.29-5.11-5.11,2.29-5.11,5.11-5.11,5.11,2.29,5.11,5.11"/>
  <polygon class="cls-12" points="139.24 15.48 138.82 12.16 142.2 8.53 142.45 12.12 139.24 15.48"/>
  <polygon class="cls-12" points="146.5 12.83 143.07 12.56 139.63 15.86 143.07 16.23 146.5 12.83"/>
  <g class="cls-21">
    <g class="cls-14">
      <path d="M129.07,26.81l11.91-9.09c-.4-.6-.92-1.21-1.49-1.82l-10.42,10.1v.81Z"/>
    </g>
  </g>
  <path class="cls-13" d="M142.59,11.62c-1.62,1.62-3.23,3.23-4.85,4.85-2.57,2.57-5.13,5.13-7.69,7.7-.59,.59-1.18,1.18-1.77,1.77-.56,.56,.32,1.43,.88,.86,1.62-1.62,3.23-3.23,4.85-4.85,2.57-2.57,5.13-5.13,7.69-7.7,.59-.59,1.18-1.18,1.77-1.77,.56-.56-.32-1.43-.88-.87"/>
  <path class="cls-13" d="M207.19,61.57c2.79,.18,5.53-2.01,5.99-4.76,.46-2.76-1.44-5.71-4.14-6.44,1.63-1.86,1.92-4.78,.67-6.91-1.25-2.14-3.93-3.33-6.35-2.82-.23-2.43-1.8-4.7-4-5.75-2.2-1.06-4.95-.87-6.99,.48-2.81-2.17-7.16-2.04-9.83,.3-2.39-.32-4.91,1.07-5.91,3.27-1,2.19-.41,5.01,1.39,6.61"/>
  <path class="cls-8" d="M181.6,41.36l1.25-.06c12.6-.63,23.57,8.53,25.21,21.04,1.52,11.63,3.05,24.51,3.29,30.78,.48,12.98-12.39,15.65-12.39,15.65l1.87,15.53-6.94,7.53-24.6-6.94-5.59-56.4c-1.83-13.41,4.45-25.66,17.91-27.12"/>
  <path class="cls-7" d="M199.06,108.73s-8.26,.91-17.25-4.13c0,0,4.63,9.1,17.52,7.29l-.27-3.16Z"/>
  <path class="cls-13" d="M202.16,76.14c.08,.98-.68,1.85-1.69,1.96-1.02,.11-1.91-.6-1.99-1.57-.08-.98,.68-1.85,1.69-1.96,1.02-.1,1.91,.6,2,1.58"/>
  <path class="cls-13" d="M205.58,68.82c-.22,.25-1.67-.72-3.67-.61-1.99,.08-3.4,1.17-3.63,.94-.11-.1,.1-.55,.71-1.05,.61-.49,1.65-1,2.9-1.05,1.24-.05,2.31,.35,2.93,.79,.64,.44,.87,.87,.76,.98"/>
  <path class="cls-13" d="M185.11,76.58c.08,.98-.68,1.85-1.69,1.96-1.02,.11-1.91-.6-1.99-1.58-.08-.98,.68-1.85,1.69-1.96,1.02-.11,1.91,.6,2,1.58"/>
  <path class="cls-13" d="M186,70.16c-.22,.25-1.68-.72-3.67-.61-1.99,.08-3.41,1.17-3.63,.94-.11-.1,.1-.55,.71-1.05,.6-.49,1.65-.99,2.89-1.05,1.24-.05,2.31,.35,2.93,.79,.63,.44,.87,.87,.76,.98"/>
  <path class="cls-13" d="M193.97,84.59c-.02-.11,1.21-.39,3.21-.75,.51-.08,.98-.2,1.05-.55,.1-.37-.14-.91-.41-1.49-.54-1.21-1.1-2.47-1.7-3.8-2.37-5.42-4.1-9.88-3.89-9.97,.22-.09,2.31,4.22,4.68,9.64,.57,1.34,1.12,2.61,1.64,3.83,.22,.57,.59,1.21,.36,1.99-.12,.39-.48,.68-.8,.79-.32,.12-.61,.14-.86,.16-2.02,.21-3.27,.28-3.28,.17"/>
  <path class="cls-13" d="M187.35,62.4c-.24,.52-1.97,.06-4.08,.09-2.11-.01-3.86,.47-4.08-.04-.1-.25,.26-.72,.99-1.16,.73-.44,1.86-.81,3.12-.82,1.26,0,2.38,.35,3.09,.78,.72,.43,1.06,.9,.95,1.15"/>
  <path class="cls-13" d="M205.27,60.59c-.4,.47-2.07,.09-4.05,.16-1.98,.02-3.64,.49-4.05,.03-.18-.22,.06-.69,.77-1.15,.7-.46,1.89-.87,3.25-.9,1.36-.03,2.56,.32,3.27,.75,.72,.43,.98,.89,.8,1.12"/>
  <path class="cls-13" d="M206.51,56.44s-3.83-7.96-7.84-9.66c-4.86-2.06-6.64,3.25-11.22,2.21-4.58-1.04-9.22-3.02-13.67,.71-4.87,4.08-2.37,6.64-2.39,12.42-.11,23.4-4.04,30.22-5.8,19.28-.19-1.2-3.58-1.99-4.33-7.05-.97-6.57-1.62-14.57-.38-19.32,1.04-4.01,3.16-6.85,7.05-10.05,6.13-5.06,14.88-5.6,20.85-5.3,5.97,.3,17.77,6.57,17.73,16.77"/>
  <path class="cls-8" d="M166.4,81c-.18-2-1.99-3.49-3.97-3.2-2.41,.35-5.03,1.86-4.62,6.85,.72,8.86,9.47,6.3,9.46,6.05,0-.17-.53-5.99-.86-9.69"/>
  <path class="cls-7" d="M165.07,87.52s-.15,.12-.4,.26c-.24,.14-.68,.25-1.15,.12-.96-.27-1.87-1.69-2.05-3.28-.09-.8,.02-1.59,.25-2.24,.22-.67,.6-1.16,1.06-1.28,.46-.15,.82,.11,.95,.35,.14,.24,.1,.42,.15,.43,.03,.02,.18-.16,.08-.52-.05-.17-.17-.37-.39-.53-.23-.15-.55-.22-.87-.15-.68,.1-1.24,.78-1.5,1.5-.29,.73-.43,1.61-.33,2.51,.2,1.78,1.25,3.38,2.56,3.64,.64,.11,1.14-.12,1.39-.35,.26-.24,.29-.44,.26-.46"/>
  <path class="cls-13" d="M165.72,63.81c1.19,.73,2.45,1.48,3.84,1.55,1.4,.07,2.94-.81,3.11-2.19,.07-.62-.11-1.33,.27-1.83,.46-.59,1.36-.46,2.11-.42,2.59,.14,5.47-2.85,6-5.4,.71,.95,2.16,1.18,3.13,.49,.96-.69,1.31-1.07,2.04-2.01s1.79-1.78,2.97-1.67c.66,.06,1.29,.42,1.95,.33,1.16-.16,1.66-1.55,1.78-2.72,.12-1.17,.19-2.52,1.15-3.2,.88-.63,2.09-.35,3.17-.24,1.08,.11,2.45-.22,2.68-1.28,.12-.56-.15-1.12-.48-1.59-1.49-2.11-4.55-2.92-6.89-1.84-1.01-2.89-3.87-5.03-6.92-5.2-3.06-.17-6.13,1.65-7.46,4.4-1.96-1.61-4.72-2.19-7.16-1.5-2.44,.69-4.5,2.62-5.33,5.01-2.19-.46-4.6,.5-5.88,2.33-1.28,1.83-1.35,4.43-.16,6.33-1.55,.99-2.84,2.64-2.78,4.48,.06,1.84,1.94,3.58,3.69,3.01-.65,1.47,.03,3.38,1.46,4.11,1.43,.73,3.37,.16,4.19-1.21"/>
  <path class="cls-12" d="M193.32,44.36s0,.06,0,.16c0,.11,0,.27-.03,.48-.06,.41-.2,1.03-.56,1.74-.37,.7-.95,1.52-1.86,2.2-.9,.68-2.14,1.22-3.58,1.22l.14-.2c.31,.74,.28,1.66-.06,2.46-.32,.81-.85,1.54-1.41,2.26-.29,.34-.54,.74-.94,1.07-.4,.31-.88,.5-1.38,.59-.99,.18-2.14-.08-2.91-.88l.33-.11c-.14,1.77-1.05,3.59-2.59,4.74-.81,.65-1.84,1.08-2.87,1.1-1.03,.04-2-.21-2.9-.49l.23-.12c-.42,1.13-1.11,2.1-1.96,2.84-.84,.74-1.98,1.2-3.05,.99-2.12-.34-3.59-2.01-3.95-3.64l.21,.08c-1.01,.62-2.12,.73-3.03,.6-.91-.12-1.65-.48-2.17-.84-.53-.37-.85-.76-1.04-1.03-.18-.28-.26-.44-.25-.45,.04-.04,.33,.66,1.38,1.36,.52,.33,1.24,.66,2.12,.75,.87,.1,1.92-.02,2.85-.62l.16-.1,.04,.19c.36,1.52,1.78,3.07,3.74,3.37,.97,.18,1.97-.24,2.77-.93,.8-.7,1.45-1.64,1.84-2.7l.06-.17,.17,.05c.89,.27,1.83,.5,2.78,.46,.95-.03,1.87-.4,2.65-1.02,1.46-1.09,2.31-2.79,2.45-4.47l.03-.42,.29,.31c.65,.69,1.67,.93,2.57,.78,.45-.08,.88-.25,1.22-.51,.34-.26,.6-.65,.89-1,.56-.7,1.08-1.41,1.38-2.16,.32-.75,.35-1.55,.08-2.23l-.08-.21h.22c1.36,.03,2.56-.47,3.43-1.11,.9-.63,1.48-1.41,1.86-2.08,.74-1.38,.67-2.32,.73-2.3"/>
  <path class="cls-13" d="M193.87,91.43c-.07-.33-2.23,.24-4.25-1.21-2.02-1.44-2.39-3.8-2.69-3.74-.14,0-.28,.62-.06,1.6,.22,.96,.89,2.27,2.13,3.15,1.24,.88,2.62,1.03,3.52,.87,.93-.16,1.4-.54,1.34-.68"/>
  <path class="cls-11" d="M141.84,279.32s2.98-32.16,9.98-42.23l84.08,3.41,4.12,38.12-98.19,.7Z"/>
  <path class="cls-10" d="M168.34,115.32s1.62,8.6,23.36,14.13c0,0,9.96-6.47,7.94-14.99l25.12,15,5.98,70.7,8.09,49.78c-24.9,12.87-60.06,9.82-93.56-.33l9.72-30.75-.84-12.55-10.93-66.43,19.58-19.58,5.54-5Z"/>
  <path class="cls-6" d="M215.26,143.97l-7.8,.52c-.97,.06-1.8-.67-1.87-1.63v-.14c-.07-.97,.66-1.8,1.62-1.87l7.8-.52c.97-.06,1.8,.67,1.87,1.63v.14c.07,.96-.66,1.8-1.62,1.86"/>
  <path class="cls-7" d="M169.79,187.55c-.01,.06-.93-.18-2.43-.25-.75-.04-1.65,0-2.63,.11-.98,.14-2.05,.38-3.13,.75-1.08,.39-2.06,.88-2.91,1.39-.84,.53-1.56,1.06-2.12,1.57-1.12,1-1.68,1.76-1.73,1.72-.02-.01,.11-.21,.37-.55,.12-.17,.28-.38,.49-.6,.21-.22,.43-.49,.72-.74,.55-.54,1.27-1.1,2.12-1.65,.86-.53,1.86-1.04,2.96-1.44,1.11-.38,2.2-.62,3.21-.74,1.01-.1,1.92-.12,2.68-.04,.38,.01,.72,.08,1.02,.13,.3,.04,.56,.1,.76,.15,.41,.11,.64,.17,.63,.2"/>
  <path class="cls-10" d="M199.64,114.47c.48,0,17.24,4.7,19.73,5.43,.13,.04,6.68,2.32,6.82,2.34,1.54,.2,10.93,3.75,14.74,12.15,3.44,7.59,8.8,25.39,8.8,25.39l-25.72-2.42,1.16-16-21.94-19.71-3.58-7.19Z"/>
  <path class="cls-13" d="M223.88,137.78s.07,.29,.13,.81c.07,.52,.14,1.28,.21,2.22,.15,1.88,.26,4.49,.2,7.37-.06,2.88-.27,5.49-.49,7.36-.11,.94-.21,1.69-.3,2.21-.09,.52-.14,.81-.16,.8-.02,0,0-.29,.04-.82,.05-.59,.12-1.33,.2-2.22,.16-1.88,.34-4.47,.39-7.34,.05-2.87-.02-5.47-.11-7.35-.04-.89-.08-1.64-.11-2.23-.03-.53-.03-.82,0-.82"/>
  <path class="cls-13" d="M225.89,123.24s-.14,.62-.41,1.61c-.27,.99-.6,2.36-.86,3.9-.25,1.54-.37,2.95-.43,3.97-.06,1.02-.07,1.66-.12,1.66-.04,0-.11-.63-.11-1.67s.08-2.46,.34-4.02c.26-1.56,.63-2.94,.96-3.92,.33-.98,.59-1.56,.63-1.55"/>
  <path class="cls-13" d="M218.68,146.99l-46.45,2.62c-1.3,.07-2.31,1.17-2.28,2.47l1.6,63.35c.05,1.87,1.63,3.33,3.49,3.22l45.45-2.58c1.8-.1,3.18-1.62,3.12-3.42l-2.26-63.21c-.05-1.42-1.26-2.51-2.67-2.44"/>
  <g class="cls-21">
    <g class="cls-17">
      <path d="M156.71,216.72c4.85,2.68,10.78,2.27,16.24,1.28,7.26-1.32,14.35-3.54,21.06-6.6,4.14-1.89,8.2-4.11,12.68-4.91,7.28-1.29,17.37-.23,24.61-1.73l-.43-5.76-25.58-3.14-48.57,20.85Z"/>
    </g>
  </g>
  <path class="cls-10" d="M188.3,149.39s-2-2.95-1.19-3.87c.55-.62,14.4-1.5,15.31-.78,.53,.42-.54,3.71-.54,3.71l-13.58,.94Z"/>
  <path class="cls-13" d="M188.3,149.39s.1-.02,.27-.04c.21-.02,.46-.04,.77-.08,.7-.06,1.66-.14,2.84-.24,2.45-.19,5.81-.44,9.69-.74l-.14,.11c.23-.73,.45-1.51,.59-2.3,.06-.39,.13-.84,.04-1.15,0-.05-.03-.04-.04-.07-.02-.02-.06-.03-.09-.05-.09-.02-.18-.05-.28-.07-.2-.04-.41-.06-.62-.07-2.54-.14-4.98,0-7.19,.12-2.21,.13-4.21,.28-5.86,.52-.21,.03-.41,.07-.6,.1-.18,.04-.4,.09-.49,.15-.21,.25-.19,.62-.14,.93,.13,.64,.37,1.16,.57,1.58,.2,.42,.38,.74,.5,.95,.12,.22,.18,.33,.18,.33,0,0-.09-.1-.23-.3-.14-.21-.34-.51-.56-.93-.22-.42-.48-.94-.64-1.61-.06-.33-.12-.75,.17-1.11,.22-.16,.4-.17,.6-.23,.2-.05,.4-.08,.61-.12,1.67-.27,3.66-.44,5.88-.59,2.22-.13,4.65-.28,7.24-.14,.22,.02,.43,.04,.65,.08,.11,.01,.22,.05,.34,.08,.06,.03,.13,.06,.19,.11,.05,.06,.12,.14,.13,.2,.14,.5,.03,.91-.02,1.33-.15,.82-.37,1.6-.61,2.34l-.03,.1h-.11c-3.91,.25-7.31,.46-9.77,.62-1.17,.06-2.12,.11-2.82,.15-.3,.01-.55,.02-.75,.03-.17,0-.25,0-.25,0"/>
  <path class="cls-12" d="M217.44,150s-.05,.01-.16,.02c-.12,.01-.27,.02-.46,.04-.43,.03-1.03,.07-1.78,.11-1.57,.09-3.8,.21-6.54,.36-5.55,.27-13.17,.64-21.59,1.05-5.21,.24-10.12,.46-14.34,.65l.14-.14c.01,4.83,.02,8.87,.03,11.75,0,1.4-.01,2.51-.02,3.31,0,.36-.01,.65-.01,.87,0,.2-.01,.3-.02,.3,0,0-.02-.1-.02-.3,0-.22-.02-.51-.03-.87-.01-.79-.04-1.9-.06-3.31-.04-2.87-.08-6.92-.14-11.74v-.14s.14,0,.14,0c4.22-.2,9.13-.44,14.34-.69,8.42-.37,16.05-.71,21.6-.96,2.75-.11,4.97-.19,6.55-.25,.75-.02,1.35-.04,1.78-.05,.19,0,.34,0,.46,0,.1,0,.16,0,.16,0"/>
  <path class="cls-13" d="M201.15,147.95s-.26,.06-.74,.11c-.55,.05-1.23,.11-2.04,.18-1.72,.14-4.1,.3-6.73,.47-2.63,.17-5.01,.3-6.73,.38-.81,.03-1.49,.06-2.04,.08-.48,.01-.75,0-.75-.01,0-.02,.26-.06,.74-.11,.48-.05,1.18-.11,2.04-.18,1.72-.14,4.1-.31,6.73-.48,2.63-.17,5.01-.3,6.73-.38,.81-.03,1.49-.05,2.04-.08,.48,0,.75,0,.75,.02"/>
  <polygon class="cls-10" points="186.79 148.69 187.09 152.57 203.48 151.74 203.23 147.73 186.79 148.69"/>
  <path class="cls-13" d="M186.79,148.69s.1-.02,.3-.04c.24-.02,.54-.04,.91-.07,.84-.06,2-.14,3.43-.24,2.93-.2,7.07-.48,11.79-.76h.16s0,.15,0,.15c.08,1.26,.16,2.57,.24,3.91v.09s.02,.16,.02,.16h-.16c-6.76,.35-12.74,.63-16.38,.78h-.09s0-.09,0-.09c-.07-1.21-.13-2.19-.18-2.9-.01-.3-.03-.55-.04-.75,0-.17,0-.25,0-.25,0,0,.02,.1,.04,.28,.02,.2,.05,.46,.08,.77,.07,.69,.16,1.65,.28,2.83l-.1-.09c3.64-.23,9.62-.56,16.38-.9l-.15,.17v-.09c-.09-1.34-.16-2.65-.24-3.91l.17,.15c-4.64,.24-8.72,.45-11.68,.61-1.45,.06-2.62,.12-3.48,.16-.39,.01-.7,.03-.95,.03-.22,0-.34,0-.34,0"/>
  <path class="cls-8" d="M134.01,169.11s1.99,14.89,6.25,26.18c4.25,11.3,9.84,21.13,16.08,21.53,6.25,.4,27.78-3.46,36.81-8.51s15.15-8.51,15.15-8.51l13.02-9.04-10.9-12.23s-28.71,8.9-33.49,9.17c-4.78,.27-8.59-.53-8.59-.53,0,0,.75-11.83-.58-16.48-1.33-4.65-5.45-13.42-5.45-13.42l-28.31,11.83Z"/>
  <path class="cls-8" d="M211.5,175.39s.98-3.57,2.41-6.69c1.43-3.13,1.79-6.71,1.95-8.66,.15-1.95-.21-5.89,1.23-6.76s4.77-1.18,4.87,3.79c.1,4.97-1.48,7.63-.87,9.94,.61,2.31,1.79,3.84,1.79,3.84l1.07-.74,.99,4.13-13.45,1.15Z"/>
  <path class="cls-8" d="M169.39,167.07l10.23,5.05s17.68,4.92,25.25,3.99c7.57-.93,20.07-1.86,20.07-1.86,0,0-2.21-9.24-1.33-15.96,0,0,5.92-5.15,14.79-4.04,8.73,1.1,11.17,5.13,11.32,5.54,1.52,3.97,7.39,33.86-1.92,40.11-9.3,6.25-36.69,1.08-43.19-1.2-5.49-1.92-20.62-7.97-25.99-10.12-1.28-.51-2.63-.82-4-.9l-6.51-.4,.03-5.12c.03-4.48-.6-8.94-1.88-13.23l-1.19-4.99,4.31,3.14Z"/>
  <path class="cls-7" d="M169.39,167.07s-.1-.06-.28-.19c-.19-.13-.46-.33-.82-.59-.73-.53-1.81-1.3-3.23-2.33l.07-.05c.28,1.16,.61,2.53,.99,4.08,.17,.78,.43,1.59,.65,2.46,.23,.87,.44,1.8,.63,2.77,.38,1.95,.67,4.12,.79,6.47,.06,1.18,.06,2.4,.05,3.66,0,1.26-.01,2.56-.02,3.91l-.1-.1c1.43,.09,2.92,.18,4.45,.27,.77,.05,1.54,.1,2.33,.14,.79,.07,1.6,.2,2.39,.42,.8,.21,1.56,.54,2.34,.85,.78,.31,1.56,.62,2.36,.94,1.6,.63,3.23,1.28,4.9,1.95,3.35,1.31,6.86,2.69,10.51,4.12,1.83,.7,3.69,1.42,5.6,2.12,.96,.35,1.91,.71,2.9,.99,.99,.29,2,.55,3.02,.79,4.08,.95,8.36,1.69,12.77,2.23,4.41,.52,8.98,.87,13.63,.7,2.32-.09,4.67-.31,6.99-.8,1.15-.27,2.3-.59,3.4-1.05,1.09-.47,2.15-1.06,2.99-1.89,.87-.82,1.49-1.87,2-2.96,.52-1.09,.87-2.27,1.16-3.46,.55-2.39,.81-4.86,.89-7.35,.14-4.85-.26-9.65-.9-14.32-.33-2.34-.72-4.64-1.2-6.91-.24-1.13-.5-2.26-.82-3.35-.08-.27-.17-.55-.27-.79-.12-.23-.29-.46-.46-.67-.36-.43-.76-.82-1.2-1.18-1.74-1.43-3.87-2.29-5.99-2.86-2.14-.56-4.33-.88-6.49-.83-2.16,.04-4.28,.48-6.26,1.18-1.98,.7-3.85,1.7-5.43,2.96l.05-.09c-.34,2.76-.21,5.52,.05,8.18,.28,2.66,.71,5.25,1.27,7.73l.03,.15h-.15c-4.98,.39-9.71,.79-14.16,1.22-2.22,.23-4.37,.46-6.45,.67-2.1,.16-4.12,0-6.04-.22-3.85-.43-7.33-1.15-10.45-1.82-3.12-.69-5.88-1.38-8.26-2.03h0s0,0,0,0c-3.31-1.65-5.86-2.92-7.6-3.78-.86-.43-1.51-.76-1.95-.98-.44-.22-.66-.34-.66-.34,0,0,.23,.1,.67,.31,.45,.22,1.1,.54,1.97,.95,1.74,.85,4.3,2.1,7.62,3.73h-.01c2.37,.63,5.14,1.32,8.26,1.99,3.12,.66,6.6,1.36,10.44,1.78,1.91,.22,3.93,.36,5.99,.2,2.07-.22,4.22-.45,6.44-.69,4.44-.44,9.18-.85,14.16-1.23l-.12,.16c-.57-2.5-1-5.09-1.28-7.77-.27-2.67-.4-5.44-.06-8.24v-.06s.05-.03,.05-.03c1.64-1.3,3.51-2.3,5.52-3.03,2.01-.71,4.16-1.16,6.35-1.2,2.2-.05,4.41,.27,6.58,.83,2.16,.58,4.32,1.45,6.11,2.91,.45,.36,.86,.77,1.24,1.22,.19,.23,.36,.46,.51,.74,.12,.29,.2,.56,.29,.84,.33,1.11,.59,2.24,.83,3.38,.49,2.27,.88,4.59,1.21,6.93,.65,4.68,1.05,9.5,.91,14.38-.08,2.51-.33,5-.89,7.42-.29,1.2-.65,2.4-1.18,3.52-.52,1.12-1.17,2.2-2.07,3.06-1.82,1.73-4.24,2.47-6.55,3.01-2.35,.5-4.71,.72-7.05,.81-4.68,.16-9.26-.18-13.68-.71-4.42-.54-8.7-1.29-12.8-2.25-1.02-.24-2.04-.5-3.03-.79-1-.29-1.96-.65-2.92-1-1.91-.7-3.77-1.42-5.6-2.13-3.65-1.43-7.15-2.82-10.51-4.13-1.67-.67-3.31-1.32-4.9-1.96-.8-.32-1.58-.63-2.36-.95-.78-.31-1.53-.64-2.31-.84-.78-.22-1.56-.35-2.34-.42-.79-.05-1.56-.1-2.33-.15-1.53-.1-3.01-.19-4.45-.28h-.1s0-.1,0-.1c.01-1.34,.02-2.65,.03-3.91,.01-1.26,.02-2.48-.04-3.65-.1-2.34-.38-4.5-.76-6.45-.18-.98-.39-1.9-.61-2.77-.22-.87-.48-1.68-.64-2.47-.37-1.56-.68-2.93-.96-4.09l-.03-.12,.1,.07c1.41,1.04,2.48,1.83,3.21,2.36,.35,.26,.62,.46,.81,.6,.18,.14,.27,.21,.27,.21"/>
  <path class="cls-7" d="M240.14,185.69c-.07,.02-.23-1.14-.97-2.84-.73-1.69-2.15-3.9-4.41-5.6-2.26-1.7-4.78-2.45-6.61-2.68-1.84-.24-2.99-.08-3-.15,0-.02,.28-.07,.8-.12,.52-.04,1.28-.06,2.22,.04,1.86,.18,4.46,.91,6.77,2.65,2.31,1.74,3.74,4.03,4.43,5.77,.35,.87,.55,1.61,.65,2.12,.1,.51,.13,.8,.11,.81"/>
  <path class="cls-10" d="M168.34,115.32c-.98,.65-19.27,8.29-21.06,9.21,0,0-19.54,7.4-17.23,28.24,1.29,11.55,3.4,20.98,3.4,20.98,0,0,8.35-5.04,14.27-7.46,7.6-3.11,16.82-4.48,16.82-4.48l-5.2-18.47,9-28.01Z"/>
  <path class="cls-13" d="M158.95,143.99c.08-.03,1.44,4.15,3.02,9.32,1.58,5.18,2.8,9.39,2.71,9.42-.09,.03-1.44-4.15-3.02-9.32-1.58-5.18-2.8-9.39-2.71-9.42"/>
  <path class="cls-13" d="M156.27,138.09c-.06,.04-.56-.86-1.75-1.98-.15-.14-.31-.28-.47-.43-.18-.14-.36-.28-.54-.43-.36-.31-.8-.57-1.25-.88-.92-.56-1.95-1.15-3.11-1.6-2.3-.94-4.54-1.4-6.16-1.43-1.63-.06-2.61,.28-2.62,.21,0-.02,.23-.1,.68-.23,.45-.11,1.12-.21,1.95-.21,1.66-.03,3.95,.4,6.28,1.36,1.18,.47,2.22,1.07,3.15,1.65,.45,.32,.89,.6,1.25,.92,.19,.15,.37,.31,.54,.45,.16,.16,.31,.31,.46,.46,.3,.28,.54,.57,.75,.83,.21,.25,.38,.48,.49,.68,.24,.39,.37,.62,.35,.63"/>
  <path class="cls-13" d="M137.69,171.57s-.05-.11-.11-.34c-.06-.26-.14-.58-.24-.98-.2-.85-.48-2.09-.8-3.62-.64-3.06-1.44-7.31-2.14-12.04-.69-4.73-1.14-9.03-1.37-12.15-.12-1.56-.19-2.83-.22-3.7-.01-.41-.02-.74-.03-1.01,0-.23,0-.35,.01-.35,.01,0,.03,.12,.05,.35,.02,.26,.05,.6,.09,1,.08,.91,.19,2.16,.32,3.69,.29,3.11,.77,7.4,1.47,12.12,.7,4.72,1.46,8.97,2.04,12.04,.29,1.5,.52,2.73,.7,3.64,.07,.4,.13,.73,.18,.99,.04,.23,.05,.35,.04,.35"/>
  <path class="cls-13" d="M139.67,170.21s-.04-.12-.09-.35c-.05-.27-.12-.61-.2-1.03-.17-.94-.39-2.22-.67-3.79-.54-3.21-1.26-7.64-2-12.55-.74-4.91-1.34-9.36-1.72-12.59-.19-1.62-.33-2.92-.41-3.83-.04-.42-.06-.77-.09-1.04-.02-.24-.02-.37,0-.37,.01,0,.04,.12,.07,.36,.04,.27,.09,.62,.15,1.04,.13,.94,.3,2.24,.51,3.82,.44,3.22,1.08,7.67,1.81,12.57,.74,4.89,1.41,9.31,1.9,12.56,.23,1.58,.43,2.87,.57,3.81,.06,.42,.1,.77,.14,1.04,.03,.24,.04,.36,.03,.36"/>
  <g class="cls-21">
    <g class="cls-16">
      <path d="M164.39,163.42c3.41,6.52,5.15,13.9,5.02,21.25,5.87,.55,11.55,2.89,16.1,6.64-2.73-1.88-9.48-4.16-17.4-4.04,.39-12.29-1.12-15.62-3.72-23.85"/>
    </g>
  </g>
  <path class="cls-12" d="M199.64,114.34s.13,.32,.29,.96c.08,.32,.18,.72,.28,1.19,.08,.48,.17,1.03,.28,1.65,.38,2.49,.71,6.13,.76,10.65,.06,4.52-.11,9.92-.63,15.92-.53,5.99-1.36,12.6-2.8,19.47l-.23,1.08-.64-.9c-.64-.9-1.32-1.86-2.01-2.83-4.3-6-8.47-11.7-12.01-17.05-3.51-5.37-6.57-10.27-8.88-14.55-2.32-4.27-3.84-7.92-4.68-10.51-.22-.64-.38-1.23-.53-1.73-.15-.5-.25-.93-.33-1.28-.16-.7-.22-1.07-.19-1.08,.08-.02,.45,1.43,1.4,3.96,.94,2.53,2.54,6.1,4.93,10.3,2.37,4.21,5.48,9.07,9.02,14.39,3.57,5.3,7.75,10.97,12.06,16.98,.69,.97,1.37,1.94,2.01,2.84l-.87,.18c1.44-6.82,2.3-13.39,2.87-19.35,.57-5.96,.8-11.34,.83-15.83,.03-4.5-.19-8.12-.46-10.6-.07-.62-.14-1.17-.19-1.65-.08-.47-.14-.87-.19-1.2-.1-.65-.14-.99-.11-1"/>
  <path class="cls-6" d="M192.08,169.02c-.18-.83-.04-1.73,.27-2.53,.43-1.11,1.43-2.33,3.78-2.45,2.09-.11,3.43,.05,4.27,.24,.71,.16,1.31,.61,1.68,1.23l3.49,5.83-.43,2.06-4.07,.97-2.57-3.11-2.69,.46s-3,.64-3.73-2.7"/>
  <path class="cls-13" d="M194.12,164.52s.05-.04,.15-.08c.1-.03,.25-.11,.45-.14,.4-.1,1.04-.13,1.74,.18,.68,.31,1.39,.94,1.84,1.81,.48,.84,.99,1.76,1.53,2.72,.68,1.23,1.31,2.38,1.87,3.39l-.16-.07c1.2-.32,2.21-.58,2.91-.76,.71-.17,1.12-.26,1.12-.23s-.38,.17-1.08,.39c-.69,.22-1.69,.52-2.88,.87l-.11,.03-.06-.1c-.57-1-1.21-2.15-1.9-3.37-1.14-1.88-1.82-3.91-3.19-4.48-.63-.31-1.23-.32-1.62-.26-.39,.05-.61,.13-.62,.1"/>
  <path class="cls-13" d="M201.17,174.39c-.09-.02-.07-.46,.04-.99,.11-.53,.27-.95,.36-.93,.09,.02,.07,.46-.04,.99-.11,.53-.27,.95-.36,.93"/>
  <path class="cls-13" d="M195.07,171.75c0-.05,.27-.06,.68-.16,.4-.1,.93-.35,1.3-.85,.18-.23,.31-.49,.39-.71l.1-.29,.17,.24c.51,.72,.84,1.26,.79,1.3-.05,.04-.48-.42-1.03-1.12l.26-.05c-.08,.29-.22,.57-.42,.84-.43,.57-1.07,.83-1.52,.88-.45,.05-.72-.03-.72-.06"/>
  <path class="cls-13" d="M196.82,168.09s-.03-.16-.09-.44c-.06-.27-.2-.68-.55-1.03-.34-.35-.96-.59-1.54-.32-.58,.24-1.01,.93-1.04,1.68-.04,.75,.34,1.46,.91,1.75,.57,.31,1.21,.12,1.56-.2,.38-.32,.54-.72,.62-.99,.08-.27,.1-.44,.12-.44,.02,0,.05,.17,0,.46-.05,.29-.19,.74-.59,1.13-.2,.19-.47,.36-.8,.44-.33,.07-.71,.04-1.05-.14-.69-.34-1.13-1.18-1.09-2.03,.02-.85,.52-1.65,1.24-1.94,.35-.15,.74-.15,1.06-.06,.32,.1,.58,.29,.77,.49,.37,.42,.48,.88,.51,1.17,.03,.3-.02,.46-.03,.46"/>
  <path class="cls-13" d="M201.62,165.95s.02-.03,.08-.03c.06,0,.16,.06,.2,.15l.18,.29,.11,.18s.11,.18,.06,.31c-.02,.06-.06,.12-.12,.16-.06,.04-.14,.05-.17,.06l-.28,.06c-.2,.04-.41,.08-.62,.12-.46,.08-.93,.16-1.43,.25-.11,0-.23-.04-.3-.13-.08-.12-.07-.13-.1-.2-.05-.11-.1-.23-.15-.34l-.07-.16s-.07-.18-.03-.27c.03-.1,.1-.18,.19-.22,.11-.04,.15-.03,.21-.04,.4-.04,.79-.09,1.17-.13,.66-.07,1.08-.08,1.09-.04,0,.04-.4,.14-1.05,.27-.37,.06-.76,.13-1.16,.2-.15,.02-.13,.02-.14,.05-.02-.01,.05,.12,.1,.23,.05,.11,.1,.22,.15,.33,.02,.04,.07,.15,.06,.13,0,0,.02,.01,.03,.01,.49-.08,.95-.15,1.4-.22,.21-.03,.42-.06,.62-.09l.28-.04c.1,0,.09-.01,.12-.05,.04-.04-.08-.22-.12-.33l-.13-.32c-.04-.17-.17-.15-.17-.18"/>
  <path class="cls-13" d="M204.65,170.88c.02,.09-.6,.31-1.38,.5-.78,.19-1.44,.27-1.48,.19-.04-.08,.58-.3,1.38-.5,.8-.19,1.46-.28,1.48-.19"/>
  <path class="cls-11" d="M29.49,278.62s-3.22-5.72,1.37-29.4c2.64-13.59,14.32-31.11,14.32-31.11,0,0,55.91,1.39,55.96,2.28,.05,.89,17.11,18.22,19.58,36.25,2.47,18.03,2,21.98,2,21.98H29.49Z"/>
  <path class="cls-12" d="M73.65,257.64c-.09,0-.51-7.13-.94-15.93-.43-8.81-.71-15.95-.62-15.95,.09,0,.51,7.13,.94,15.93,.43,8.8,.71,15.94,.62,15.95"/>
  <path class="cls-12" d="M78.68,228c-1.02-.05-2.02,.99-2.3,1.83-.43,1.28,.16,2.83,1.33,3.5,1.17,.67,2.8,.39,3.69-.62,.89-1.02,.93-2.67,.11-3.74-.83-1.07-2.44-1.44-3.65-.83"/>
  <path class="cls-10" d="M59.6,120.54l3.67-9.29,21.91-1.15,8.95,1.15,.99,2.57,6.07,107.46s-21.22,4.28-31.83,2.79c-10.61-1.49-23.08-6.33-23.08-6.33v-61.11l13.33-36.09Z"/>
  <path class="cls-13" d="M92.58,124.91s-.05,.07-.15,.19c-.12,.14-.28,.32-.48,.53-.42,.46-1.05,1.12-1.87,1.94-1.64,1.63-4.07,3.88-7.17,6.28l-.1,.08-.09-.1c-2.11-2.32-4.4-5.11-6.58-8.23-.22-.32-.44-.64-.65-.94h.26c-1.87,2.53-3.65,4.92-5.27,7.1-.21,.27-.44,.53-.73,.74-.28,.21-.65,.34-1.02,.28-.36-.06-.65-.28-.88-.5-.23-.23-.41-.48-.6-.71-.75-.93-1.44-1.8-2.08-2.6-1.25-1.57-2.26-2.85-2.98-3.77-.33-.43-.6-.77-.8-1.03-.18-.24-.27-.36-.26-.37,0,0,.11,.11,.31,.33,.21,.25,.49,.58,.84,.99,.74,.9,1.78,2.16,3.06,3.71,.65,.79,1.35,1.65,2.11,2.58,.38,.45,.76,1,1.32,1.1,.57,.09,1.09-.41,1.47-.92,1.61-2.18,3.38-4.58,5.24-7.1l.13-.18,.13,.19c.21,.3,.43,.62,.65,.94,2.17,3.11,4.43,5.9,6.53,8.22l-.19-.02c3.11-2.37,5.56-4.58,7.23-6.17,.84-.8,1.48-1.44,1.93-1.88,.21-.2,.37-.37,.51-.5,.12-.11,.18-.17,.19-.16"/>
  <g class="cls-21">
    <g class="cls-15">
      <path d="M67.55,131.72s2.78,3.42,3.56,2.56c.78-.86,4.89-7.23,5.39-7.5,.49-.27,5.47,8.67,7.42,8.04,1.95-.62,8.91-7.58,8.91-7.58l.14-2.74-10.14,9.23-7.2-9.17-6.06,7.88s-1.28,1.01-2.02-.73"/>
    </g>
  </g>
  <path class="cls-11" d="M50.13,58.76s-5.73,21.43-6.23,36.59l-.16,5.05s12.65,10.5,23.25,11.15l8.89-21.86-25.75-30.93Z"/>
  <path class="cls-11" d="M106.3,71.91c-2.42-10.45-3.35-22.62-12.04-29.43-6.45-5.06-13.8-6.47-21.99-6.12-4.03,.17-8.58,2.03-12.1,4.02-4.82,2.73-6.85,8.25-9.18,13.27-4.65,10.06-4.06,23.68-.91,27.47l42.04,22.2c8.39-4.37,13.65-6.11,14.99-17.3,.57-4.71,.24-9.49-.83-14.11"/>
  <path class="cls-5" d="M93.82,50.78l-26.46-7.81c-8.52-1.24-14.63,9.07-15.51,17.64-.98,9.52-1.79,21.18-.94,28.34,1.71,14.41,12.61,16.66,12.61,16.66,0-.05-.08,5.78-.08,5.78l12.05,12.8,18.42-12.31,4.21-55.83c.15-2.61-1.72-4.91-4.3-5.29"/>
  <path class="cls-13" d="M56.7,73.65c-.07,.97,.69,1.83,1.7,1.92,1.01,.09,1.88-.61,1.96-1.58,.07-.97-.69-1.83-1.69-1.92-1.01-.09-1.89,.61-1.96,1.58"/>
  <path class="cls-13" d="M53.6,69.25c.22,.25,1.65-.73,3.63-.64,1.97,.05,3.38,1.13,3.61,.89,.11-.1-.1-.54-.72-1.03-.6-.48-1.65-.97-2.88-1.01-1.23-.04-2.29,.37-2.9,.81-.63,.44-.85,.87-.74,.98"/>
  <path class="cls-13" d="M74.06,73.65c-.07,.97,.69,1.83,1.7,1.92,1.01,.09,1.88-.61,1.96-1.58,.07-.97-.69-1.83-1.7-1.92-1.01-.09-1.89,.61-1.96,1.58"/>
  <path class="cls-13" d="M73.04,69.48c.22,.25,1.65-.73,3.63-.64,1.97,.05,3.38,1.13,3.61,.89,.11-.1-.1-.54-.72-1.03-.6-.48-1.65-.97-2.88-1.01-1.23-.04-2.28,.37-2.9,.81-.62,.44-.85,.87-.74,.98"/>
  <path class="cls-13" d="M65.34,82.29c.01-.11-1.21-.37-3.19-.71-.5-.07-.98-.19-1.05-.54-.11-.37,.13-.9,.4-1.48,.52-1.2,1.07-2.46,1.64-3.78,2.29-5.39,3.96-9.83,3.75-9.92-.22-.09-2.25,4.2-4.54,9.59-.55,1.33-1.08,2.6-1.58,3.81-.21,.57-.57,1.2-.34,1.97,.12,.38,.48,.67,.8,.77,.32,.11,.6,.13,.85,.15,2,.19,3.24,.25,3.25,.13"/>
  <path class="cls-3" d="M63.46,105.62s9.61,1,19.38-4.36c0,0-5.13,9.83-19.41,7.93l.04-3.57Z"/>
  <path class="cls-3" d="M71.75,86.68c-.48-.85-1.39-1.32-2.33-1.39-1.36-.1-2.53,.32-3.46,1.55-.32,.35-.33,1.38-.22,1.67,.11,.29,.02,.14,.24,.35,.77,.74,1.58,1.47,2.6,1.76,1.01,.29,2.29,0,3-.97,.63-.87,.66-2.11,.18-2.96"/>
  <path class="cls-13" d="M71.46,83.97c-.32-.03-.42,2.11-2.33,3.55-1.9,1.44-4.17,1.1-4.21,1.4-.04,.13,.49,.44,1.45,.51,.94,.08,2.34-.17,3.5-1.05,1.16-.88,1.7-2.11,1.81-2.98,.12-.89-.09-1.43-.24-1.43"/>
  <path class="cls-13" d="M72.29,62.25c.14,.55,2.13,.49,4.41,.99,2.29,.46,4.09,1.31,4.44,.86,.16-.22-.12-.75-.82-1.34-.7-.59-1.84-1.2-3.21-1.49-1.37-.29-2.66-.19-3.54,.07-.88,.26-1.35,.64-1.29,.9"/>
  <path class="cls-13" d="M53.77,63.93c.45,.39,1.89-.29,3.7-.57,1.8-.34,3.39-.18,3.67-.7,.12-.25-.18-.66-.92-.98-.72-.32-1.87-.51-3.11-.29-1.24,.21-2.26,.77-2.82,1.32-.57,.55-.72,1.04-.52,1.23"/>
  <path class="cls-13" d="M67.27,41.43c-.02,.1-.04,.21-.07,.31l.05,.02c0-.11,.01-.22,.02-.33"/>
  <path class="cls-11" d="M88.17,110.73c-1.36,.38-2.76-.5-3-1.89-.52-2.99-.41-5.78-.07-8.71,.47-3.98,3.16-8.14,3.5-12.13,.64-7.61-.03-11.88-.88-18.27-3.58-.44-6.92-2.59-9.31-5.38-2.87-3.35-4.61-7.5-6.3-11.57,.1,3.99,1.48,7.94,3.9,11.13-1.59,.33-3.27-.35-4.46-1.45-1.19-1.1-1.98-2.57-2.62-4.07-1.56-3.62-2.4-7.52-2.54-11.46-.53,5.63,.1,11.36,1.87,16.73-1-.31-2.08-.03-3.11,.12-1.04,.15-2.23,.12-2.96-.63-.49-.5-.67-1.22-.81-1.91-.99-4.78-1.15-9.74-.48-14.57-1.28,2.62-2.54,5.26-3.28,8.08-.74,2.82-.93,5.84-.06,8.62-.41,.52-1.29,.44-1.78-.01-.49-.45-.68-1.14-.78-1.8-.38-2.4,.05-4.86,.47-7.25-1.43,2.54-1.91,5.48-2.7,8.29-.79,2.8-2.05,5.68-4.49,7.28-.42-4.19-.27-7.06,.36-10.99,.48-3,1.91-5.98,3.22-8.72,1.47-3.07,3.52-6.08,5.81-8.08,4.22-3.7,5.98-2.11,8.68-.7l.32,.13c.01-.07,.01-.13,.02-.2l.12-.57c7.01-1.58,14.45-1.23,21.28,1,5.08,1.65,5.55,12.59,6.78,7.39,.75-3.14,4.83-.27,4.88-.18,5.99,10.8,12.34,27.94,12.63,55.03l-24.2,6.75Z"/>
  <g class="cls-21">
    <g class="cls-20">
      <path d="M52.9,181.35c-3.84,25.18-7.68,50.36-11.52,75.53l.89,8.19c1.01,1.15,3.02,.77,4.05-.37,1.03-1.14,1.33-2.74,1.58-4.24,4.39-26.12,6.75-52.68,4.99-79.11"/>
    </g>
  </g>
  <path class="cls-9" d="M52.55,117.72l-12.99,2.54c-5.66,1.17-10.26,5.32-11.94,10.85-.38,1.25-.69,2.62-.88,4.1-1.14,8.78-6.5,32.52-6.5,32.52,0,0-11.97,5.69-12.49,10.57s4.14,13.74,4.14,13.74c0,0,5.18,13.58,12.03,16.42,7.53,3.12,12.77-6.26,12.77-6.26,.05,.85,.08,1.33,.08,1.33l-19.71,44.57c5.01,8.95,14.43,19.43,24,21.71,0,0,11.1-69.29,11.73-84.42,.62-15.13,10.35-73.95,10.35-73.95l-10.58,6.28Z"/>
  <path class="cls-5" d="M6.94,127.92s-2.08-.83-2.66,.91c-.38,1.13-1.14,4.1-1.63,6.06-.29,1.15-.06,2.36,.63,3.32l1.58,2.22s-.96,2.26-.25,4.4c0,0-2.44,2.49-2.13,4.67,0,0-3.14,1.99-2.34,5.31,.8,3.32,10.08,13.37,10.08,13.37l5.93,1.86,7.63-5.79s1.73-9.3,1.42-13.29c-.37-4.81-2.17-5.28-2.17-5.28l-7.98-7.52-2.85-4.05s-2.68,.42-2.19,3.88l-2.39-1.7-.64-2.85s1.78-3.58-.02-5.53"/>
  <path class="cls-13" d="M.41,111.47c.49,.27,9.78,27.28,9.78,27.28l2.26,1.12L2.44,110.88l-2.03,.59Z"/>
  <path class="cls-3" d="M9.12,143.94s.1,.05,.28,.16c.21,.13,.47,.3,.78,.5,.72,.46,1.68,1.09,2.86,1.86,.61,.38,1.27,.81,2,1.24,.36,.21,.74,.43,1.14,.64,.4,.2,.8,.39,1.25,.45,.22,.02,.44,.01,.62-.07,.19-.08,.33-.25,.43-.45,.19-.41,.24-.92,.26-1.43,0-.24,.03-.54-.02-.73-.06-.23-.19-.45-.33-.66-.29-.43-.66-.82-1.05-1.2-1.58-1.5-3.3-2.71-4.87-3.77-1.58-1.04-3.04-1.96-4.34-2.53-.64-.3-1.28-.01-1.69,.34-.43,.36-.72,.75-.95,1.08-.45,.66-.63,1.07-.65,1.06,0,0,.02-.11,.11-.31,.09-.19,.22-.48,.44-.82,.22-.34,.5-.76,.94-1.15,.22-.19,.49-.38,.82-.48,.32-.11,.73-.09,1.07,.06,1.35,.57,2.82,1.46,4.42,2.5,1.59,1.06,3.32,2.26,4.93,3.79,.4,.39,.78,.79,1.09,1.25,.15,.23,.29,.47,.37,.76,.06,.32,.03,.56,.03,.83-.03,.52-.07,1.05-.3,1.55-.12,.24-.31,.48-.58,.59-.26,.12-.54,.12-.79,.09-.5-.07-.94-.28-1.35-.49-.4-.22-.78-.44-1.14-.66-.72-.44-1.38-.88-1.98-1.28-1.2-.8-2.15-1.47-2.8-1.94-.3-.22-.54-.41-.74-.55-.17-.13-.25-.2-.25-.21"/>
  <path class="cls-3" d="M4.92,148.91s.19-.05,.54-.12c.4-.07,.92-.15,1.55-.26h.03s.03,.01,.03,.01c.68,.49,1.51,1.1,2.48,1.79h0s0,.01,0,.01c1.02,1.07,2.23,2.32,3.63,3.64,.35,.33,.72,.66,1.1,.97,.39,.31,.78,.65,1.24,.76,.46,.13,.93-.09,1.23-.49,.3-.4,.5-.91,.59-1.43,.06-.22-.07-.47-.19-.71-.12-.24-.27-.48-.42-.71-.31-.46-.64-.9-.97-1.32-.67-.84-1.35-1.63-2.02-2.36-1.34-1.46-2.6-2.73-3.75-3.68-.57-.48-1.16-.8-1.73-.92-.57-.13-1.08-.09-1.48,.01-.8,.22-1.16,.55-1.17,.52,0,0,.07-.09,.26-.22,.19-.13,.47-.29,.88-.42,.41-.13,.95-.19,1.55-.07,.6,.11,1.24,.45,1.83,.92,1.19,.94,2.47,2.2,3.83,3.65,.68,.73,1.37,1.51,2.05,2.36,.34,.43,.67,.87,.99,1.34,.15,.24,.31,.48,.44,.74,.12,.26,.29,.55,.22,.91-.1,.57-.3,1.12-.65,1.58-.18,.23-.41,.43-.68,.54-.28,.13-.6,.12-.87,.06-.57-.14-.98-.51-1.37-.83-.39-.32-.76-.66-1.11-.99-1.4-1.34-2.6-2.61-3.6-3.7h.02c-.94-.71-1.76-1.33-2.43-1.84h.06c-.64,.09-1.16,.15-1.56,.2-.36,.04-.55,.05-.56,.04"/>
  <path class="cls-3" d="M14.67,155.25s-.03,.19-.15,.53c-.07,.17-.11,.38-.24,.62-.13,.24-.41,.46-.74,.53-.67,.15-1.43,.04-2.28-.11-.85-.23-1.67-.67-2.53-1.13-1.02-.56-1.94-1.13-2.74-1.65l.18-.02c-.06,.06-.12,.12-.18,.18l.02-.02c-.21,.27-.48,.37-.72,.45-.24,.08-.48,.12-.7,.15-.44,.06-.83,.07-1.14,.07-.63,0-1-.07-.99-.11,0-.01,.09,0,.26-.02,.22-.01,.46-.02,.73-.04,.31-.02,.69-.06,1.11-.14,.21-.04,.44-.09,.65-.17,.22-.07,.45-.19,.57-.36h0s.01-.02,.01-.02c.06-.06,.11-.12,.17-.18l.08-.08,.1,.06c.8,.5,1.73,1.05,2.74,1.61,.85,.46,1.67,.9,2.44,1.13,.8,.16,1.57,.29,2.15,.18,.29-.05,.52-.21,.64-.4,.12-.2,.19-.42,.27-.57,.15-.32,.24-.5,.27-.49"/>
  <path class="cls-5" d="M24.04,161.79l-13.29,6.54,.59,12.45s9.51,1.26,17.95-9.49l-5.25-9.49Z"/>
  <path class="cls-13" d="M17.06,248.11s.02-.08,.08-.23c.07-.16,.16-.38,.27-.66,.26-.59,.62-1.44,1.09-2.53,.97-2.21,2.36-5.41,4.1-9.4,3.52-7.99,8.43-19.14,14.01-31.82v.07c-.12-3.42-.24-6.97-.42-10.6-.38-8.19-.83-15.98-1.13-23.08-.31-7.1-.48-13.49-.54-18.86-.07-5.37-.03-9.72,.02-12.72,.03-1.49,.06-2.65,.08-3.46,.01-.38,.02-.68,.03-.9,0-.2,.02-.31,.02-.31,0,0,.01,.1,.01,.31,0,.22,0,.51,0,.9,0,.81-.01,1.97-.02,3.46,0,3-.02,7.35,.08,12.72,.09,5.37,.28,11.76,.61,18.85,.35,7.09,.74,14.89,1.15,23.08,.17,3.63,.3,7.19,.4,10.61v.04s-.01,.03-.01,.03c-5.62,12.67-10.57,23.8-14.11,31.78-1.78,3.97-3.2,7.15-4.19,9.36-.49,1.08-.88,1.93-1.14,2.51-.13,.27-.23,.49-.3,.65-.07,.14-.11,.22-.11,.22"/>
  <path class="cls-13" d="M52.08,177.9s-.02-.05-.05-.16c-.03-.13-.07-.29-.12-.48-.1-.45-.25-1.07-.43-1.86-.34-1.62-.82-3.98-1.26-6.92-.44-2.94-.88-6.45-1.22-10.36-.34-3.91-.62-8.22-.83-12.74-.08-1.69-.15-3.35-.22-4.97-.04-.81-.07-1.61-.11-2.4-.02-.39-.04-.79-.06-1.18l-.02-.58v-.3s0-.1,.01-.16c0-.03,0-.06,.03-.11,.01-.02,.02-.04,.04-.06,.03-.05,.15-.07,.17-.05,.11,.06,.08,.07,.11,.1l-.22-.05c1.2-.84,2.36-1.65,3.48-2.43l.02,.25c-1.32-.62-2.58-1.21-3.78-1.77l-.1-.05,.03-.11c.57-2.15,1.25-4.06,1.85-5.75,.6-1.69,1.16-3.14,1.62-4.34,.46-1.19,.84-2.13,1.1-2.76,.13-.3,.23-.54,.31-.72,.07-.16,.11-.24,.12-.24,0,0-.02,.09-.08,.26-.07,.19-.16,.43-.27,.73-.25,.67-.59,1.6-1.03,2.78-.44,1.2-.97,2.66-1.56,4.36-.58,1.69-1.24,3.61-1.79,5.74l-.07-.15c1.2,.56,2.47,1.14,3.79,1.75l.23,.11-.21,.15c-1.12,.79-2.27,1.6-3.47,2.44l-.22-.05s.11-.08,.1-.08c0-.03,0,0,.01,0,.02,.02,.04,.03,.07,.04l.05,.02h0s0,0,0,0v.03s-.01,.13-.01,.13v.28s.02,.58,.02,.58c.02,.39,.04,.78,.06,1.17,.04,.79,.07,1.59,.11,2.4,.07,1.62,.15,3.28,.23,4.97,.21,4.52,.47,8.82,.8,12.73,.32,3.91,.74,7.41,1.15,10.35,.41,2.94,.86,5.29,1.15,6.93,.16,.79,.28,1.42,.37,1.87,.04,.2,.07,.36,.09,.49,.02,.11,.03,.17,.02,.17"/>
  <path class="cls-13" d="M35.18,172.31c-.06,0-.08-.56-.38-1.39-.3-.82-.94-1.91-2.04-2.69-1.1-.77-2.35-1.01-3.22-1.01-.89,0-1.42,.17-1.44,.11-.01-.03,.51-.28,1.43-.34,.91-.06,2.24,.15,3.41,.97,1.17,.82,1.82,2,2.07,2.88,.26,.89,.2,1.46,.17,1.46"/>
  <path class="cls-13" d="M30.54,169.24s-.15,.34-.46,.92c-.15,.29-.35,.65-.63,1.03-.27,.39-.55,.85-.93,1.3-.19,.23-.38,.48-.58,.73-.21,.25-.45,.49-.68,.74-.46,.53-1.03,1.01-1.61,1.54-1.2,1.01-2.62,2.01-4.23,2.86-1.62,.83-3.25,1.42-4.77,1.82-.77,.17-1.49,.35-2.19,.43-.35,.05-.68,.11-1,.13-.32,.02-.63,.04-.93,.06-.59,.06-1.13,.02-1.6,.02-.47,0-.88-.04-1.2-.08-.66-.07-1.02-.12-1.02-.15,0-.08,1.46,.15,3.81-.02,.29-.03,.6-.05,.92-.08,.32-.03,.65-.1,.99-.15,.69-.09,1.4-.28,2.15-.46,1.49-.42,3.1-1,4.69-1.82,1.58-.84,2.99-1.81,4.18-2.8,.58-.52,1.14-.99,1.61-1.5,.24-.25,.48-.48,.69-.72,.21-.24,.4-.48,.59-.7,1.48-1.82,2.13-3.15,2.2-3.11"/>
  <path class="cls-3" d="M16.07,155.79c.1,0,.05,1.28,.48,2.76,.41,1.49,1.12,2.54,1.04,2.6-.06,.06-.91-.96-1.35-2.51-.44-1.54-.25-2.86-.17-2.84"/>
  <path class="cls-3" d="M16.48,148.79c.09,.03-.04,.56-.12,1.21-.09,.65-.11,1.19-.2,1.2-.09,.01-.22-.55-.12-1.24,.09-.69,.36-1.2,.44-1.17"/>
  <path class="cls-9" d="M113.08,211.11l12.61-84.89-23.28-8.54s-5.46-5.01-8.36-7.62l-1.02,13.12s-3.15,53.68,1.81,80.71c4.96,27.03,4.26,26.12,7.88,43.7,2.64,12.8,3.07,23.98,7.05,25.1,3.98,1.13,17.73-19.02,17.73-19.02l-14.42-42.57Z"/>
  <path class="cls-9" d="M125.7,126.22s7.06,3.46,8.11,13.32c.93,8.67,2.46,61.91,2.27,66.2-.19,4.3-3.9,16.43-10.54,16.85-10.5,.67-13.39-7.43-13.39-7.43l2.82-27.19,10.73-61.75Z"/>
  <path class="cls-13" d="M99,175.02s0-.06,.02-.16c.02-.12,.05-.28,.08-.46,.09-.43,.2-1.02,.35-1.78,.28-1.55,.71-3.78,1.1-6.56,.83-5.56,1.54-13.29,1.95-21.86,.1-2.02,.19-3.99,.28-5.9,.04-.95,.09-1.89,.13-2.81,.02-.46,.05-.91,.07-1.36,0-.22,.02-.45,.03-.67v-.33c0-.05,0-.11,0-.15,0-.02,0-.05,0-.05,0,0,0,0,.01,.02,0,0,0,0,.02,.02,.02,.02,.06,.04,.1,.03,.04,0,.1-.04,.09-.04h0s-.22,.04-.22,.04c-1.21-.85-2.37-1.67-3.47-2.44l-.2-.14,.22-.1c1.35-.62,2.61-1.2,3.79-1.74l-.07,.14c-.4-1.69-.59-3.25-.77-4.62-.18-1.37-.35-2.54-.54-3.49-.19-.95-.39-1.68-.54-2.17-.07-.23-.13-.41-.18-.56-.04-.13-.06-.19-.05-.19,0,0,.04,.06,.09,.18,.05,.12,.13,.3,.22,.55,.17,.48,.4,1.21,.6,2.17,.21,.95,.4,2.13,.6,3.49,.2,1.36,.4,2.92,.82,4.58l.02,.1-.09,.04c-1.18,.55-2.44,1.14-3.78,1.77l.02-.24c1.1,.77,2.26,1.58,3.48,2.42l-.22,.05,.03-.04s.07-.06,.12-.06c.04,0,.08,.01,.11,.04,.03,.02,.02,.02,.03,.04,.02,.03,.02,.05,.03,.05,.02,.05,.02,.08,.02,.11,0,.06,0,.12,0,.18v.34c0,.22-.01,.45-.02,.68-.02,.45-.04,.9-.07,1.36-.04,.92-.08,1.86-.12,2.81-.09,1.91-.18,3.88-.27,5.9-.41,8.57-1.15,16.32-2.04,21.88-.42,2.78-.88,5.01-1.21,6.55-.17,.75-.31,1.34-.41,1.76-.05,.18-.08,.34-.12,.46-.03,.1-.04,.15-.05,.15"/>
  <g class="cls-21">
    <g class="cls-19">
      <path d="M64.75,218.78s-1.59,2.07,1.91,2.7c3.5,.64,43.11-2.29,43.11-2.29l7.53,4.37-.98-3.16-6.28-6.7-45.28,5.08Z"/>
    </g>
  </g>
  <path class="cls-13" d="M112.35,152.9l-49.87,2.55c-1.17,.06-2.11,.99-2.18,2.16l-3.31,59.16c-.08,1.36,1.05,2.49,2.41,2.42l48.39-2.53c1.15-.06,2.08-.96,2.17-2.11l4.79-59.17c.11-1.38-1.02-2.55-2.41-2.48"/>
  <path class="cls-13" d="M122.82,139.93s-.02,.19-.08,.53c-.07,.37-.17,.88-.29,1.51-.26,1.34-.64,3.23-1.09,5.55-.91,4.69-2.1,11.17-3.24,18.37-1.14,7.2-2,13.74-2.58,18.48-.28,2.35-.51,4.26-.67,5.61-.08,.64-.14,1.15-.19,1.53-.05,.35-.08,.53-.09,.53-.01,0,0-.19,.02-.54,.03-.38,.07-.89,.13-1.53,.12-1.33,.31-3.25,.57-5.63,.52-4.75,1.35-11.3,2.49-18.5,1.14-7.2,2.37-13.69,3.34-18.36,.48-2.34,.89-4.23,1.19-5.53,.15-.63,.26-1.13,.35-1.5,.08-.34,.13-.52,.14-.52"/>
  <path class="cls-5" d="M113.37,191.64s2.87,.17,5.41,4.42l4.86,3.09s4.25,6.68,0,12.92c-4.25,6.24-9.39,.94-9.39,.94,0,0-5.14,2.54-6.57,2.1-1.44-.44-11.17-5.68-12.59-6.88-.42-.36-3.56-3.95-3.56-3.95,0,0-4.34-.93-4.84-1.93-.5-.99-.53-3.27,2.4-3.05,0,0-2.85-.86-3.18-2.29-.33-1.44,.03-3.31,5.05-2.59,5.03,.72,14.72,3.41,15.84,3.14,.27-.07,.7-.89-.11-1.27-.36-.17-11.75-4.6-13.59-5.1-1.98-.54-2.26-4.95,1.83-3.9s17.4,4.25,17.4,4.25l1.05,.11Z"/>
  <path class="cls-3" d="M105.86,208.55s-.82-.22-2.11-.64c-1.29-.42-3.08-.99-5.08-1.58-1.99-.58-3.81-1.06-5.13-1.4-1.32-.34-2.14-.55-2.12-.59,0-.02,.21,0,.59,.07,.38,.06,.92,.16,1.59,.31,1.33,.28,3.17,.73,5.17,1.31,2,.58,3.78,1.19,5.06,1.67,.64,.24,1.15,.44,1.5,.59,.35,.15,.54,.24,.53,.26"/>
  <path class="cls-3" d="M107.5,203.27s-.27,0-.75-.05c-.48-.05-1.17-.14-2.02-.27-1.7-.25-4.04-.66-6.6-1.21-2.56-.55-4.86-1.14-6.52-1.6-.83-.23-1.49-.43-1.95-.58-.46-.15-.71-.24-.7-.26,0-.02,.27,.03,.74,.14,.53,.13,1.19,.29,1.97,.48,1.66,.41,3.97,.96,6.53,1.51,2.56,.55,4.88,.99,6.57,1.3,.79,.15,1.46,.27,2,.37,.47,.09,.73,.15,.73,.17"/>
  <path class="cls-3" d="M121.32,202.13s.02,.19,0,.52c0,.34-.07,.82-.19,1.41-.23,1.18-.79,2.78-1.81,4.33-1.02,1.54-2.27,2.69-3.27,3.37-.5,.34-.92,.59-1.22,.73-.3,.15-.47,.22-.49,.2-.03-.05,.63-.39,1.57-1.11,.94-.71,2.13-1.86,3.13-3.36,.99-1.51,1.57-3.06,1.85-4.2,.29-1.15,.34-1.89,.4-1.88"/>
  <path class="cls-13" d="M122.93,213.7s.62-.69,1.38-1.96c.76-1.25,1.53-3.2,1.61-5.44,.07-2.25-.59-4.24-1.26-5.53-.67-1.31-1.3-2-1.25-2.04,.01-.01,.18,.15,.45,.46s.63,.81,1,1.47c.74,1.3,1.46,3.33,1.38,5.65-.07,2.32-.91,4.3-1.73,5.55-.41,.63-.8,1.1-1.09,1.4-.29,.3-.47,.45-.48,.44"/>
  <path class="cls-13" d="M134.16,192.47c-.04,.05-.81-.55-2.22-1.23-.7-.35-1.57-.68-2.56-.98-.99-.27-2.11-.49-3.3-.59-1.19-.08-2.32-.03-3.35,.09-1.02,.15-1.93,.35-2.68,.59-1.49,.47-2.35,.95-2.38,.89,0-.02,.2-.15,.59-.36,.19-.11,.43-.24,.73-.35,.29-.12,.61-.28,.99-.39,.74-.27,1.67-.5,2.71-.67,1.04-.14,2.2-.2,3.41-.12,1.21,.1,2.35,.33,3.36,.63,1,.32,1.88,.68,2.58,1.06,.36,.17,.66,.37,.93,.54,.27,.16,.49,.32,.66,.46,.35,.27,.54,.42,.53,.44"/>
  <g class="cls-21">
    <g class="cls-18">
      <path d="M101.57,118.76s4.2,9.8,3.62,10.62c-.58,.82-2.8,1.4-2.8,1.4,0,0,3.62,1.56,3.62,2.96,0,2.77-3.88,19.16-3.88,19.16l.96-20.01-3.47-2.43,3.78-1.76-1.82-9.92Z"/>
    </g>
  </g>
  <path class="cls-12" d="M112.15,155s-.09,.02-.28,.03c-.2,.01-.47,.04-.82,.06-.74,.05-1.8,.12-3.16,.21-2.76,.17-6.73,.41-11.63,.71-4.92,.29-10.76,.63-17.25,1-3.25,.18-6.66,.38-10.19,.58-.88,.05-1.77,.1-2.67,.15-.45,.03-.9,.05-1.35,.08-.22,.01-.47,.02-.67,.04-.2,.03-.38,.11-.53,.24-.15,.13-.27,.3-.32,.49-.06,.18-.05,.42-.07,.65-.03,.46-.06,.92-.09,1.38-.06,.93-.12,1.86-.19,2.79-1.03,14.98-1.97,28.53-2.64,38.36-.35,4.9-.64,8.86-.84,11.62-.11,1.36-.19,2.42-.24,3.16-.03,.35-.06,.62-.07,.82-.02,.18-.04,.28-.04,.28,0,0,0-.1,0-.28,.01-.2,.02-.47,.04-.82,.04-.74,.1-1.8,.18-3.16,.17-2.76,.43-6.73,.74-11.63,.65-9.83,1.55-23.39,2.55-38.37,.06-.94,.13-1.87,.19-2.79,.03-.46,.06-.92,.09-1.38,.02-.22,0-.46,.09-.72,.07-.25,.23-.47,.42-.64,.2-.17,.44-.28,.7-.31,.25-.03,.46-.03,.69-.04,.45-.03,.9-.05,1.35-.08,.9-.05,1.79-.1,2.67-.15,3.53-.2,6.94-.38,10.19-.56,6.49-.35,12.34-.67,17.26-.93,4.9-.25,8.88-.46,11.64-.6,1.36-.06,2.43-.11,3.16-.15,.35-.01,.62-.02,.82-.03,.18,0,.28,0,.28,0"/>
</svg>