<?xml version="1.0" encoding="UTF-8"?>
<svg id="Layer_1" data-name="Layer 1" xmlns="http://www.w3.org/2000/svg" viewBox="0 0 66.38 66.38">
  <defs>
    <style>
      .cls-1 {
        fill: #00b9ee;
      }

      .cls-2 {
        fill: #fff;
      }

      .cls-3 {
        fill: #ffe24c;
      }
    </style>
  </defs>
  <path class="cls-1" d="M33.19,0C14.86,0,0,14.86,0,33.19s14.86,33.19,33.19,33.19,33.19-14.86,33.19-33.19S51.52,0,33.19,0"/>
  <path class="cls-3" d="M36.35,39.6c-1.59,1.94-3.13,3.78-4.61,5.67-1.13,1.44-2.52,2.2-4.38,2.26-2.94,.1-5.88,.32-8.82,.48-2.09,.11-3.34-.76-3.46-2.4-.12-1.67,.95-2.71,3.05-2.85,2.7-.17,5.42-.24,8.11-.49,.66-.06,1.33-.56,1.91-.97,.41-.3,.62-.87,1.02-1.21,4.79-4.21,4.15-10.3,5.74-15.73q-3.68,.3-4.55,3.42c-.4,1.42-.79,2.84-1.19,4.25-.39,1.36-1.23,2.24-2.72,1.81-1.39-.4-1.7-1.54-1.35-2.84,.69-2.56,1.3-5.14,2.2-7.63,.32-.87,1.24-1.78,2.11-2.16,4.63-2.03,9.33-1.26,13.94,.16,.81,.25,1.57,1.27,1.97,2.12,1.58,3.39,3.92,4.85,7.62,3.45,.37-.14,.93-.27,1.2-.09,.73,.47,1.77,1.04,1.88,1.7,.12,.67-.61,2.05-1.18,2.17-2.63,.58-5.33,.88-8.02,1.15-.44,.04-1.04-.49-1.41-.9-.55-.59-.96-1.32-1.71-2.36-.6,3-1.17,5.64-1.62,8.3-.05,.3,.46,.77,.79,1.04,1.18,.97,2.41,1.88,3.62,2.83,1.64,1.28,2.29,2.96,1.95,4.99-.5,2.9-1.02,5.8-1.6,8.68-.33,1.66-1.56,2.6-2.98,2.39-1.54-.22-2.47-1.48-2.2-3.25,.37-2.44,.84-4.87,1.35-7.29,.2-.98,.01-1.63-.84-2.24-1.95-1.4-3.82-2.91-5.83-4.46"/>
  <path class="cls-3" d="M47.74,14.28c-.04,3.22-2.68,5.77-5.92,5.71-3.23-.07-5.79-2.71-5.73-5.92,.06-3.18,2.78-5.8,5.94-5.74,3.2,.06,5.74,2.71,5.7,5.95"/>
  <path class="cls-2" d="M23.59,34.63c-5.58,0-11.17,.03-16.75-.05-.51,0-1.01-.67-1.51-1.02,.49-.31,.97-.88,1.46-.89,5.06-.06,10.11-.08,15.17,.03,.67,.02,1.32,.85,1.99,1.31-.12,.2-.24,.41-.36,.61"/>
  <path class="cls-2" d="M25.5,22.19c-.24,.82-.38,1.31-.57,1.94-6.14,0-12.25,.02-18.36-.04-.42,0-.83-.6-1.24-.91,.52-.33,1.04-.95,1.57-.96,4.88-.07,9.77-.03,14.65-.03,1.23,0,2.45,0,3.95,0"/>
  <path class="cls-2" d="M24.04,27.41c-.23,.79-.39,1.33-.57,1.96-2.99,0-5.92,.04-8.84-.04-.41-.01-.82-.6-1.22-.93,.4-.33,.8-.94,1.21-.95,3.04-.08,6.09-.04,9.43-.04"/>
  <path class="cls-2" d="M21.13,39.83c-1.23,0-2.48,.09-3.7-.05-.49-.06-.92-.63-1.38-.96,.49-.3,.97-.85,1.47-.87,2.41-.09,4.82-.09,7.22,0,.47,.02,.91,.62,1.36,.95-.43,.3-.83,.82-1.28,.87-1.22,.12-2.46,.04-3.7,.04h0Z"/>
  <path class="cls-2" d="M13.57,43.15c-.23,.75-.4,1.29-.59,1.9-2.19,0-4.31,.05-6.41-.04-.43-.02-.83-.6-1.25-.92,.42-.31,.83-.88,1.26-.9,2.27-.09,4.55-.04,6.99-.04"/>
</svg>