<?xml version="1.0" encoding="UTF-8"?>
<svg id="Layer_1" data-name="Layer 1" xmlns="http://www.w3.org/2000/svg" xmlns:xlink="http://www.w3.org/1999/xlink" viewBox="0 0 269.24 191.79">
  <defs>
    <style>
      .cls-1, .cls-2, .cls-3, .cls-4, .cls-5 {
        fill: none;
      }

      .cls-2 {
        stroke: #f9ed32;
        stroke-linecap: round;
        stroke-width: 5.68px;
      }

      .cls-6 {
        fill: url(#linear-gradient);
      }

      .cls-7 {
        clip-path: url(#clippath);
      }

      .cls-8 {
        fill: #f9ed32;
      }

      .cls-3 {
        stroke-width: 4px;
      }

      .cls-3, .cls-4, .cls-5 {
        stroke: #fff200;
      }

      .cls-9 {
        clip-path: url(#clippath-1);
      }

      .cls-10 {
        clip-path: url(#clippath-3);
      }

      .cls-11 {
        clip-path: url(#clippath-2);
      }

      .cls-12 {
        fill: url(#linear-gradient-3);
      }

      .cls-13 {
        fill: url(#linear-gradient-4);
      }

      .cls-14 {
        fill: url(#linear-gradient-2);
      }

      .cls-4 {
        stroke-miterlimit: 10;
      }
    </style>
    <clipPath id="clippath">
      <path class="cls-1" d="M31.61,76.08c-.09,14.69,6.58,27.65,16.69,35.04l.82,24.49c-.05,8.54,5.04,15.5,12.54,15.55l11.65,.09c7.5,.05,12.66-6.83,12.71-15.37l1.1-24.48c10.2-7.25,17.01-20.1,17.09-34.8,.13-22.82-16.01-41.98-36.06-42.13-.08,0-.16,0-.24,0-19.94,0-36.17,18.87-36.3,41.6"/>
    </clipPath>
    <linearGradient id="linear-gradient" x1="-423.78" y1="252.68" x2="-422.78" y2="252.68" gradientTransform="translate(30795.36 18436.14) scale(72.59 -72.59)" gradientUnits="userSpaceOnUse">
      <stop offset="0" stop-color="#00c0f2"/>
      <stop offset=".17" stop-color="#00c0f2"/>
      <stop offset=".36" stop-color="#00a8e1"/>
      <stop offset=".75" stop-color="#006cb6"/>
      <stop offset=".87" stop-color="#005aa9"/>
      <stop offset="1" stop-color="#005aa9"/>
    </linearGradient>
    <clipPath id="clippath-1">
      <path class="cls-1" d="M54.17,175.94h.38c-.25,.51-.39,1.05-.39,1.6-.02,3.76,6.04,6.86,13.54,6.91,7.5,.06,13.6-2.95,13.62-6.71,0-.56-.13-1.09-.37-1.61h.38s.1-18.81,.1-18.81l-27.16-.2-.11,18.82Z"/>
    </clipPath>
    <linearGradient id="linear-gradient-2" x1="-423.8" y1="252.7" x2="-422.8" y2="252.7" gradientTransform="translate(11614.77 7064.22) scale(27.28 -27.28)" xlink:href="#linear-gradient"/>
    <clipPath id="clippath-2">
      <path class="cls-1" d="M202.48,79.88c-2.09-12.87,7.02-24.94,20.36-26.96,13.34-2.02,25.85,6.77,27.94,19.64,2.09,12.87-7.02,24.94-20.36,26.96-1.28,.19-2.56,.29-3.82,.29-11.83,0-22.23-8.3-24.12-19.93m20.34-44.21c-1.78,.1-3.58,.37-5.3,.8-1.8,.45-2.89,1.65-2.9,3.57,0,1,.04,2.01-.06,3-.18,1.7,.28,3.45-.22,4.89-2.88,1.71-5.52,3.27-8.26,4.9-.59-.26-1.28-.55-1.96-.87-1.7-.8-3.36-1.67-5.08-2.43-2.11-.92-3.6-.57-5.01,1.13-.94,1.14-1.84,2.32-2.67,3.54-1.28,1.87-1.17,3.24,.42,4.93,1.21,1.28,2.52,2.47,3.74,3.73,.63,.65,1.5,1.14,1.65,1.82-.8,3.17-1.54,6.07-2.28,9.04-.44,.15-.87,.32-1.31,.46-2.15,.7-4.31,1.35-6.44,2.1-1.85,.65-2.77,1.97-2.58,3.78,.18,1.72,.46,3.44,.84,5.13,.35,1.59,1.5,2.49,3.16,2.72,.37,.05,.74,.05,1.12,.04,.29,0,.57,0,.86,.01,.9,.07,1.81,.05,2.71,.04,1.42-.03,2.83-.05,4.17,.25,1.33,2.27,2.59,4.39,3.88,6.58-.62,1.05-1.22,2.08-1.83,3.11-.75,1.26-1.56,2.5-2.24,3.8-.86,1.64-.6,3.26,.77,4.49,1.25,1.11,2.57,2.15,3.94,3.12,1.64,1.15,3.07,1.09,4.68-.08,.68-.49,1.3-1.05,1.94-1.59,1.5-1.24,2.99-2.49,4.44-3.69,1.94,.62,3.7,1.27,5.51,1.74,1.81,.47,3.66,.75,5.48,1.11,.27,.72,.51,1.31,.73,1.91,.68,1.9,1.28,3.81,2.03,5.68,.73,1.85,1.95,2.57,3.95,2.36,1.78-.2,3.56-.48,5.32-.82,1.55-.3,2.45-1.32,2.69-2.81,.13-.8,.07-1.63,.13-2.45,.15-2.08-.21-4.18,.19-6.08,2.83-1.66,5.47-3.21,8.22-4.82,.87,.4,1.81,.82,2.74,1.26,1.53,.72,3.03,1.51,4.57,2.18,2.18,.95,3.54,.65,5-1.09,.95-1.13,1.84-2.32,2.68-3.53,1.23-1.77,1.11-3.37-.41-4.96-1.4-1.48-2.91-2.86-4.35-4.31-.51-.51-.95-1.1-1.27-1.47,.78-3.07,1.49-5.89,2.3-9.07,1.1-.37,2.25-.77,3.41-1.14,1.34-.44,2.71-.81,4.03-1.29,2.13-.76,2.99-2.09,2.73-4.21-.19-1.54-.43-3.07-.76-4.59-.39-1.84-1.61-2.82-3.53-2.98-.16-.01-.33,0-.5,0-.12,0-.23,0-.35,0-2.45-.04-4.9-.09-7.44-.13-1.27-2.12-2.52-4.23-3.8-6.38,.32-.59,.59-1.17,.92-1.72,.84-1.43,1.64-2.88,2.56-4.26,1.79-2.66,1.38-4.64-1.12-6.37-.69-.48-1.31-1.04-1.97-1.56-2.78-2.16-3.97-2.16-6.67,.07-1.79,1.48-3.56,2.98-5.45,4.57-3.53-1.66-7.27-2.52-11.17-3.05-.35-.94-.68-1.78-.98-2.64-.58-1.64-1.13-3.29-1.71-4.92-.6-1.69-1.87-2.58-3.6-2.58-.1,0-.2,0-.3,0"/>
    </clipPath>
    <linearGradient id="linear-gradient-3" x1="-423.78" y1="252.68" x2="-422.78" y2="252.68" gradientTransform="translate(35864.74 21350.94) scale(84.2 -84.2)" xlink:href="#linear-gradient"/>
    <clipPath id="clippath-3">
      <path class="cls-1" d="M200.88,174.34c-13.23-.86-23.24-11.9-22.35-24.66,.89-12.76,12.33-22.42,25.56-21.56,13.23,.86,23.24,11.9,22.35,24.66-.85,12.24-11.4,21.62-23.93,21.62-.54,0-1.08-.02-1.63-.05m1.81-63.1c-1.83,.06-3.15,.98-3.58,2.82-.23,.96-.41,1.93-.73,2.86-.56,1.59-.5,3.36-1.31,4.63-3.14,1.03-6.02,1.98-9.01,2.97-.51-.38-1.11-.79-1.68-1.24-1.44-1.13-2.84-2.31-4.32-3.39-1.81-1.32-3.32-1.3-5.05,.04-1.16,.9-2.28,1.84-3.35,2.83-1.64,1.52-1.84,2.86-.7,4.81,.86,1.48,1.86,2.89,2.75,4.36,.46,.76,1.18,1.41,1.17,2.09-1.48,2.87-2.83,5.5-4.22,8.18-.46,.06-.91,.12-1.36,.17-2.21,.22-4.43,.39-6.64,.67-1.92,.24-3.1,1.31-3.32,3.08-.21,1.69-.33,3.39-.35,5.09-.02,1.6,.88,2.7,2.42,3.26,.6,.22,1.26,.29,1.88,.47,2.19,.66,4.55,.78,6.53,1.72,.77,2.45,1.49,4.74,2.24,7.11-.83,.88-1.64,1.74-2.45,2.59-1,1.05-2.05,2.07-3,3.17-1.19,1.39-1.31,3-.27,4.46,.95,1.32,1.98,2.6,3.07,3.81,1.31,1.45,2.7,1.69,4.5,.91,.76-.33,1.48-.74,2.22-1.12,1.71-.88,3.43-1.76,5.08-2.61,1.72,1,3.26,1.99,4.89,2.82,1.63,.83,3.34,1.49,5,2.21,.1,.74,.2,1.36,.27,1.98,.22,1.96,.37,3.92,.66,5.87,.28,1.92,1.29,2.87,3.25,3.08,1.75,.19,3.52,.28,5.27,.32,1.56,.04,2.65-.75,3.21-2.13,.3-.74,.43-1.55,.67-2.32,.61-1.96,.74-4.04,1.55-5.79,3.08-1,5.96-1.93,8.96-2.9,.75,.56,1.55,1.16,2.34,1.78,1.3,1.01,2.56,2.08,3.89,3.04,1.87,1.36,3.25,1.37,5.04,0,1.17-.89,2.28-1.84,3.36-2.82,1.57-1.44,1.82-2.99,.72-4.84-1.01-1.71-2.14-3.35-3.2-5.04-.37-.6-.66-1.25-.88-1.67,1.43-2.78,2.75-5.33,4.24-8.21,1.13-.13,2.33-.27,3.52-.38,1.38-.14,2.78-.21,4.15-.39,2.21-.29,3.34-1.37,3.56-3.46,.16-1.51,.28-3.04,.31-4.56,.04-1.84-.91-3.03-2.72-3.59-.26-.08-.54-.11-.81-.17-2.34-.55-4.67-1.11-7.1-1.69-.73-2.3-1.46-4.58-2.21-6.91,.44-.5,.83-1,1.26-1.45,1.12-1.19,2.22-2.42,3.41-3.54,2.31-2.17,2.36-4.16,.36-6.33-.55-.6-1.02-1.27-1.54-1.91-2.17-2.65-3.31-2.9-6.4-1.33-2.05,1.04-4.08,2.11-6.25,3.23-3.01-2.32-6.4-3.93-10.01-5.26-.12-.97-.25-1.85-.35-2.73-.18-1.69-.34-3.38-.53-5.07-.21-1.84-1.34-2.99-3.16-3.27-1.46-.23-2.95-.35-4.43-.35-.28,0-.55,0-.83,.01"/>
    </clipPath>
    <linearGradient id="linear-gradient-4" x1="-423.78" y1="252.68" x2="-422.78" y2="252.68" gradientTransform="translate(35338.83 21126.43) scale(83.01 -83.01)" xlink:href="#linear-gradient"/>
  </defs>
  <g class="cls-7">
    <rect class="cls-6" x="31.52" y="34.49" width="72.81" height="116.83"/>
  </g>
  <path class="cls-4" d="M104.2,76.62c.13-22.82-16.01-41.98-36.06-42.13-20.05-.15-36.41,18.78-36.54,41.6-.09,14.69,6.58,27.65,16.69,35.04l.82,24.49c-.05,8.54,5.03,15.5,12.54,15.55l11.65,.09c7.5,.05,12.66-6.83,12.71-15.37l1.1-24.48c10.19-7.25,17.01-20.1,17.09-34.8Z"/>
  <g class="cls-9">
    <rect class="cls-14" x="54.14" y="157.12" width="27.3" height="27.39"/>
  </g>
  <g>
    <path class="cls-4" d="M80.96,176.14h.38s.1-18.81,.1-18.81l-27.16-.2-.11,18.82h.38c-.25,.51-.39,1.05-.39,1.6-.02,3.76,6.04,6.85,13.55,6.91,7.5,.06,13.6-2.95,13.62-6.71,0-.56-.13-1.09-.37-1.61Z"/>
    <line class="cls-8" x1="2.84" y1="76.26" x2="18.52" y2="76.38"/>
    <line class="cls-2" x1="2.84" y1="76.26" x2="18.52" y2="76.38"/>
    <line class="cls-8" x1="117.71" y1="77.09" x2="133.39" y2="77.21"/>
    <line class="cls-2" x1="117.71" y1="77.09" x2="133.39" y2="77.21"/>
    <line class="cls-8" x1="68.37" y1="20.69" x2="68.47" y2="2.84"/>
    <line class="cls-2" x1="68.37" y1="20.69" x2="68.47" y2="2.84"/>
    <line class="cls-8" x1="32.04" y1="36.17" x2="21.02" y2="23.47"/>
    <line class="cls-2" x1="32.04" y1="36.17" x2="21.02" y2="23.47"/>
    <line class="cls-8" x1="108.06" y1="36.62" x2="119.22" y2="24.09"/>
    <line class="cls-2" x1="108.06" y1="36.62" x2="119.22" y2="24.09"/>
    <line class="cls-8" x1="123.8" y1="128.01" x2="112.78" y2="115.31"/>
    <line class="cls-2" x1="123.8" y1="128.01" x2="112.78" y2="115.31"/>
    <line class="cls-8" x1="14.44" y1="127.76" x2="25.59" y2="115.22"/>
    <line class="cls-2" x1="14.44" y1="127.76" x2="25.59" y2="115.22"/>
    <path class="cls-3" d="M133.69,29.3c10.59-10.59,17.97-14.01,31.38-14.01s22.33,4.23,31.38,14.01"/>
    <polygon class="cls-8" points="184.55 31.49 193.89 13.01 202.48 30.95 184.55 31.49"/>
    <polygon class="cls-5" points="184.55 31.49 193.89 13.01 202.48 30.95 184.55 31.49"/>
  </g>
  <g class="cls-11">
    <rect class="cls-12" x="184.38" y="35.66" width="84.58" height="81.38"/>
  </g>
  <path class="cls-4" d="M267.94,67.6c-.39-1.84-1.61-2.82-3.53-2.98-.28-.02-.57,.01-.85,0-2.45-.04-4.9-.09-7.44-.13-1.27-2.12-2.52-4.23-3.8-6.38,.32-.6,.59-1.17,.91-1.72,.84-1.43,1.64-2.88,2.56-4.26,1.79-2.66,1.38-4.64-1.12-6.37-.69-.48-1.31-1.04-1.97-1.56-2.78-2.16-3.96-2.16-6.67,.07-1.79,1.48-3.56,2.98-5.45,4.57-3.53-1.66-7.27-2.52-11.16-3.05-.35-.94-.68-1.78-.98-2.64-.58-1.64-1.12-3.29-1.71-4.92-.64-1.78-2.02-2.68-3.9-2.57-1.78,.1-3.58,.37-5.31,.8-1.8,.45-2.9,1.65-2.9,3.58,0,1,.04,2.01-.06,3-.18,1.7,.28,3.45-.22,4.89-2.88,1.71-5.52,3.27-8.26,4.9-.59-.26-1.28-.55-1.96-.87-1.7-.8-3.36-1.67-5.08-2.43-2.11-.92-3.6-.57-5.01,1.13-.94,1.14-1.84,2.32-2.67,3.54-1.28,1.87-1.17,3.24,.42,4.93,1.2,1.28,2.52,2.47,3.75,3.73,.63,.65,1.5,1.14,1.65,1.82-.8,3.17-1.53,6.07-2.28,9.04-.44,.15-.87,.32-1.31,.46-2.15,.7-4.31,1.35-6.44,2.1-1.85,.65-2.77,1.97-2.58,3.78,.18,1.72,.46,3.44,.84,5.13,.35,1.59,1.5,2.49,3.16,2.72,.65,.09,1.32,0,1.98,.06,2.33,.18,4.7-.21,6.89,.29,1.34,2.26,2.59,4.39,3.88,6.58-.62,1.05-1.22,2.08-1.83,3.11-.75,1.26-1.56,2.5-2.24,3.8-.86,1.64-.6,3.26,.78,4.49,1.25,1.11,2.57,2.16,3.94,3.12,1.64,1.15,3.07,1.09,4.68-.08,.68-.49,1.3-1.05,1.94-1.59,1.5-1.24,2.99-2.49,4.44-3.69,1.94,.62,3.7,1.27,5.51,1.74,1.81,.47,3.66,.75,5.48,1.11,.27,.72,.51,1.31,.72,1.91,.68,1.9,1.28,3.81,2.03,5.68,.73,1.85,1.95,2.57,3.95,2.36,1.78-.19,3.56-.49,5.32-.82,1.55-.3,2.45-1.32,2.69-2.81,.13-.81,.07-1.64,.13-2.45,.15-2.07-.21-4.18,.19-6.08,2.83-1.66,5.47-3.21,8.22-4.82,.87,.4,1.81,.82,2.74,1.25,1.53,.72,3.03,1.51,4.57,2.18,2.18,.95,3.54,.65,5-1.09,.95-1.13,1.84-2.32,2.68-3.53,1.22-1.77,1.1-3.37-.41-4.96-1.4-1.48-2.91-2.86-4.35-4.31-.51-.51-.95-1.1-1.27-1.47,.78-3.07,1.49-5.89,2.3-9.07,1.1-.37,2.25-.77,3.41-1.14,1.34-.44,2.71-.81,4.03-1.28,2.13-.76,2.99-2.09,2.73-4.21-.19-1.54-.43-3.07-.76-4.59Zm-37.51,31.93c-13.34,2.02-25.85-6.77-27.94-19.64-2.09-12.87,7.02-24.94,20.36-26.96,13.34-2.02,25.85,6.77,27.94,19.64,2.09,12.87-7.02,24.94-20.36,26.96Z"/>
  <g class="cls-10">
    <rect class="cls-13" x="160.96" y="111.23" width="83.07" height="80.09"/>
  </g>
  <path class="cls-4" d="M241.27,148.01c-.26-.08-.54-.11-.81-.17-2.34-.55-4.67-1.11-7.1-1.68-.73-2.3-1.46-4.58-2.21-6.91,.44-.5,.83-1,1.26-1.45,1.12-1.19,2.21-2.42,3.41-3.54,2.31-2.18,2.36-4.16,.36-6.33-.55-.6-1.02-1.28-1.54-1.91-2.17-2.65-3.31-2.9-6.4-1.33-2.05,1.04-4.08,2.11-6.25,3.24-3.01-2.33-6.4-3.93-10.01-5.26-.12-.97-.25-1.85-.35-2.73-.18-1.69-.34-3.38-.53-5.07-.21-1.84-1.34-2.99-3.16-3.27-1.73-.27-3.51-.4-5.26-.34-1.83,.06-3.15,.98-3.58,2.82-.23,.96-.41,1.93-.73,2.86-.56,1.59-.5,3.36-1.31,4.63-3.14,1.03-6.02,1.98-9.01,2.97-.51-.38-1.11-.79-1.68-1.24-1.44-1.13-2.84-2.31-4.32-3.39-1.81-1.32-3.32-1.3-5.05,.04-1.16,.89-2.28,1.84-3.35,2.83-1.65,1.52-1.85,2.86-.7,4.81,.86,1.48,1.86,2.89,2.75,4.36,.46,.75,1.18,1.4,1.17,2.09-1.48,2.87-2.83,5.5-4.22,8.18-.45,.06-.91,.12-1.36,.17-2.21,.22-4.43,.39-6.64,.67-1.92,.24-3.1,1.31-3.32,3.08-.21,1.69-.33,3.39-.35,5.09-.02,1.6,.88,2.7,2.42,3.27,.6,.22,1.26,.28,1.88,.47,2.19,.66,4.55,.78,6.53,1.72,.77,2.45,1.49,4.74,2.24,7.11-.83,.88-1.64,1.74-2.45,2.59-1,1.06-2.05,2.07-3,3.17-1.19,1.39-1.31,3-.27,4.46,.95,1.32,1.98,2.6,3.07,3.81,1.31,1.45,2.7,1.69,4.5,.91,.76-.33,1.48-.74,2.22-1.11,1.71-.88,3.42-1.76,5.08-2.61,1.72,1,3.26,1.99,4.89,2.82,1.62,.83,3.34,1.49,5,2.21,.1,.74,.2,1.36,.27,1.98,.22,1.96,.37,3.92,.66,5.87,.28,1.92,1.29,2.87,3.25,3.08,1.75,.19,3.52,.28,5.28,.32,1.56,.04,2.65-.75,3.21-2.13,.3-.74,.43-1.55,.67-2.32,.61-1.96,.74-4.04,1.55-5.79,3.08-1,5.96-1.93,8.96-2.9,.75,.56,1.55,1.16,2.34,1.78,1.3,1.01,2.56,2.08,3.89,3.04,1.87,1.36,3.25,1.37,5.04,0,1.17-.88,2.28-1.84,3.36-2.82,1.57-1.44,1.82-2.99,.72-4.84-1.01-1.71-2.15-3.35-3.2-5.04-.37-.6-.66-1.25-.89-1.67,1.44-2.78,2.75-5.33,4.24-8.21,1.13-.12,2.33-.27,3.52-.38,1.38-.14,2.78-.21,4.15-.39,2.21-.28,3.34-1.37,3.56-3.46,.16-1.51,.27-3.04,.31-4.56,.04-1.84-.91-3.03-2.72-3.59Zm-14.83,4.76c-.89,12.77-12.33,22.42-25.56,21.56-13.23-.86-23.24-11.9-22.35-24.66,.89-12.77,12.33-22.42,25.56-21.56,13.23,.85,23.24,11.9,22.35,24.66Z"/>
</svg>